<svg width="50" height="37" viewBox="0 0 50 37" fill="none" xmlns="http://www.w3.org/2000/svg">
<path d="M18.7072 0.499994L20.5072 4.24999C18.8072 4.94999 17.0072 5.9 15.1072 7.1C13.2072 8.3 11.5572 9.99999 10.1572 12.2C8.85723 14.3 8.20723 17.25 8.20723 21.05C9.00723 20.65 9.75723 20.4 10.4572 20.3C11.1572 20.2 11.9072 20.15 12.7072 20.15C15.6072 20.15 17.7072 20.95 19.0072 22.55C20.4072 24.15 21.1072 26 21.1072 28.1C21.1072 30.5 20.2572 32.55 18.5572 34.25C16.9572 35.95 14.6572 36.8 11.6572 36.8C7.85723 36.8 4.95723 35.65 2.95723 33.35C1.05723 31.05 0.107227 27.85 0.107227 23.75C0.107227 19.85 0.807227 16.55 2.20723 13.85C3.60723 11.15 5.30723 8.9 7.30723 7.1C9.40723 5.3 11.4572 3.9 13.4572 2.9C15.5572 1.8 17.3072 0.999994 18.7072 0.499994ZM47.2072 0.499994L49.0072 4.24999C47.3072 4.94999 45.5072 5.9 43.6072 7.1C41.7072 8.3 40.0572 9.99999 38.6572 12.2C37.3572 14.3 36.7072 17.25 36.7072 21.05C37.5072 20.65 38.2572 20.4 38.9572 20.3C39.6572 20.2 40.4072 20.15 41.2072 20.15C44.1072 20.15 46.2072 20.95 47.5072 22.55C48.9072 24.15 49.6072 26 49.6072 28.1C49.6072 30.5 48.7572 32.55 47.0572 34.25C45.4572 35.95 43.1572 36.8 40.1572 36.8C36.3572 36.8 33.4572 35.65 31.4572 33.35C29.5572 31.05 28.6072 27.85 28.6072 23.75C28.6072 19.85 29.3072 16.55 30.7072 13.85C32.1072 11.15 33.8072 8.9 35.8072 7.1C37.9072 5.3 39.9572 3.9 41.9572 2.9C44.0572 1.8 45.8072 0.999994 47.2072 0.499994Z" fill="#00535B"/>
</svg>
