<svg width="1706" height="1516" viewBox="0 0 1706 1516" fill="none" xmlns="http://www.w3.org/2000/svg">
<path d="M0.496771 810.487C0.496771 810.487 9.76394 1098.28 249.998 1290.12C490.232 1481.96 823.217 1495.7 1092.76 1513.96C1362.3 1532.22 1569.31 1379.59 1600.47 1148.94C1631.64 918.287 1425.98 850.605 1314.02 587.995C1202.06 325.385 1212.12 239.168 975.809 77.7051C739.496 -83.7579 369.481 15.3694 175.583 292.039C-18.3149 568.708 0.496771 810.487 0.496771 810.487Z" fill="#636364"/>
<path opacity="0.7" d="M0.496771 810.487C0.496771 810.487 9.76394 1098.28 249.998 1290.12C490.232 1481.96 823.217 1495.7 1092.76 1513.96C1362.3 1532.22 1569.31 1379.59 1600.47 1148.94C1631.64 918.287 1425.98 850.605 1314.02 587.995C1202.06 325.385 1212.12 239.168 975.809 77.7051C739.496 -83.7579 369.481 15.3694 175.583 292.039C-18.3149 568.708 0.496771 810.487 0.496771 810.487Z" fill="white"/>
<path d="M109.841 1275.23H73.4854" stroke="#263238" stroke-width="1.1133" stroke-miterlimit="10"/>
<path d="M1582.45 1275.23H167.346" stroke="#263238" stroke-width="1.1133" stroke-miterlimit="10"/>
<path d="M1050.03 1427.23C1116.5 1427.23 1170.38 1412.41 1170.38 1394.12C1170.38 1375.84 1116.5 1361.01 1050.03 1361.01C983.556 1361.01 929.671 1375.84 929.671 1394.12C929.671 1412.41 983.556 1427.23 1050.03 1427.23Z" fill="#263238"/>
<path d="M427.975 1469.33C302.71 1469.33 284.215 1451.23 282.393 1436.62C281.98 1433.57 282.28 1430.47 283.269 1427.57C284.259 1424.66 285.912 1422.02 288.096 1419.86C321.838 1384.46 516.291 1399.43 785.356 1420.14C822.9 1423.03 861.712 1426 901.513 1428.97C1173.39 1449.17 1282.85 1446.56 1305.47 1419.23C1310.06 1413.65 1311.01 1406.68 1308.48 1397.25C1297.71 1357.84 1153.71 1357.65 1099.17 1360.74C1097.93 1360.8 1096.7 1360.37 1095.77 1359.54C1094.83 1358.71 1094.27 1357.55 1094.18 1356.3C1094.15 1355.68 1094.23 1355.06 1094.43 1354.48C1094.64 1353.9 1094.96 1353.36 1095.37 1352.9C1095.78 1352.44 1096.28 1352.06 1096.84 1351.8C1097.4 1351.53 1098 1351.38 1098.62 1351.35C1119.49 1350.12 1302.85 1340.89 1317.55 1394.91C1320.91 1407.35 1319.37 1417.29 1312.72 1425.37C1287.33 1456.18 1183.41 1459.47 900.84 1438.48C860.999 1435.51 822.188 1432.54 784.644 1429.65C528.172 1409.84 325.561 1394.28 294.908 1426.48C293.696 1427.63 292.776 1429.05 292.225 1430.63C291.674 1432.21 291.508 1433.89 291.74 1435.55C292.888 1444.89 315.502 1465.8 497.677 1458.52C599.577 1454.56 701.952 1443.35 702.981 1443.23C704.174 1443.18 705.34 1443.59 706.245 1444.37C707.149 1445.14 707.725 1446.24 707.856 1447.42C707.987 1448.61 707.663 1449.8 706.949 1450.76C706.235 1451.71 705.185 1452.36 704.011 1452.58C702.981 1452.58 600.29 1463.82 498.073 1467.9C471.777 1468.85 448.49 1469.33 427.975 1469.33Z" fill="white" stroke="#263238" stroke-width="1.1133" stroke-miterlimit="10"/>
<path d="M1005.27 1423.19C1083.6 1423.19 1147.09 1359.7 1147.09 1281.37C1147.09 1203.05 1083.6 1139.55 1005.27 1139.55C926.949 1139.55 863.454 1203.05 863.454 1281.37C863.454 1359.7 926.949 1423.19 1005.27 1423.19Z" fill="white"/>
<mask id="mask0_710_993" style="mask-type:luminance" maskUnits="userSpaceOnUse" x="863" y="1139" width="285" height="285">
<path d="M1005.27 1423.19C1083.6 1423.19 1147.09 1359.7 1147.09 1281.37C1147.09 1203.05 1083.6 1139.55 1005.27 1139.55C926.949 1139.55 863.454 1203.05 863.454 1281.37C863.454 1359.7 926.949 1423.19 1005.27 1423.19Z" fill="white"/>
</mask>
<g mask="url(#mask0_710_993)">
<path d="M1005.27 1423.19C1031.08 1423.21 1056.41 1416.18 1078.51 1402.86C1100.62 1389.55 1118.68 1370.45 1130.73 1347.63C1142.79 1324.81 1148.38 1299.13 1146.92 1273.36C1145.45 1247.6 1136.98 1222.72 1122.42 1201.41C1120.88 1263.19 1086.78 1354.4 909.434 1385.76C935.54 1409.84 969.758 1423.21 1005.27 1423.19Z" fill="#3B77D2"/>
<path opacity="0.3" d="M1005.27 1423.19C1031.08 1423.21 1056.41 1416.18 1078.51 1402.86C1100.62 1389.55 1118.68 1370.45 1130.73 1347.63C1142.79 1324.81 1148.38 1299.13 1146.92 1273.36C1145.45 1247.6 1136.98 1222.72 1122.42 1201.41C1120.88 1263.19 1086.78 1354.4 909.434 1385.76C935.54 1409.84 969.758 1423.21 1005.27 1423.19Z" fill="white"/>
<path d="M1075.06 1336.97C1049.77 1312.37 1019.05 1294.04 985.393 1283.47M1075.06 1336.97H1082.58C1099.27 1320.43 1113.65 1301.7 1125.31 1281.29C1058.9 1211.11 994.304 1218.28 994.304 1218.28C994.304 1218.28 1059.1 1211.11 1125.51 1281.37C1129.15 1274.84 1132.2 1268.7 1134.7 1263.03C1107.06 1224.3 1059.45 1197.89 1033.91 1193.93L1027.97 1192.5M1075.06 1336.97C1016.72 1336.14 972.364 1327.11 939.216 1315.03C941.354 1225.45 973.314 1165.77 990.027 1140.5C995.351 1139.88 1000.71 1139.57 1006.07 1139.55C1010.94 1139.55 1015.69 1139.83 1020.44 1140.26M1027.97 1192.5C1018.81 1190.84 1009.44 1190.7 1000.24 1192.1M1027.97 1192.5L1044.88 1144.98C1036.89 1142.69 1028.71 1141.12 1020.44 1140.26M1020.44 1140.26C1009.47 1157.97 981.235 1214.52 981.235 1326.72M1107.09 1308.1C1050.62 1253.05 988.284 1250.16 988.284 1250.16" stroke="#263238" stroke-width="1.1133" stroke-linecap="round" stroke-linejoin="round"/>
<path d="M939.057 1315.27C941.196 1225.69 973.156 1166.01 989.868 1140.74C976.792 1142.21 963.983 1145.49 951.809 1150.48C921.795 1194.51 904.839 1246.14 902.899 1299.39C914.529 1305.6 926.617 1310.91 939.057 1315.27Z" stroke="#263238" stroke-width="1.1133" stroke-linecap="round" stroke-linejoin="round"/>
<path d="M951.81 1150.36C927.319 1160.46 906.138 1177.2 890.658 1198.7C875.179 1220.2 866.017 1245.59 864.207 1272.02C875.868 1282.75 888.875 1291.91 902.9 1299.27C904.84 1246.02 921.795 1194.4 951.81 1150.36Z" stroke="#263238" stroke-width="1.1133" stroke-linecap="round" stroke-linejoin="round"/>
<path d="M1134.5 1263.03C1137.59 1256.21 1140.23 1249.2 1142.42 1242.04C1136.5 1221.85 1126.18 1203.21 1112.2 1187.47L1101.23 1224.06L1112.01 1187.47C1103.26 1177.66 1093.2 1169.1 1082.1 1162.05L1070.03 1207.23L1082.18 1162.24C1070.59 1154.83 1057.97 1149.16 1044.72 1145.41L1027.81 1192.94C1053.71 1196.66 1093.75 1211.91 1134.5 1263.03Z" stroke="#263238" stroke-width="1.1133" stroke-linecap="round" stroke-linejoin="round"/>
<path d="M1013.12 1390.87C1029.61 1380.89 1045.35 1369.71 1060.2 1357.41C1068.32 1350.6 1083.21 1337.09 1083.69 1337.09C1083.21 1337.09 1111.65 1305.01 1121.07 1288.26C1121.07 1288.5 1125.27 1281.61 1125.03 1281.37C1124.8 1281.13 1128.44 1275.39 1128.2 1275.15C1130.51 1271.27 1132.52 1267.22 1134.22 1263.03C1137.31 1256.21 1139.95 1249.2 1142.14 1242.04C1145.93 1254.99 1147.85 1268.4 1147.85 1281.88C1147.85 1284.1 1147.85 1286 1147.85 1288.06C1087.97 1372.14 1041.83 1408.18 1012.8 1423.98C1010.46 1423.98 1008.09 1423.98 1005.67 1423.98C991.148 1423.98 976.711 1421.77 962.858 1417.41C980.108 1409.54 996.889 1400.68 1013.12 1390.87ZM1013.12 1390.87H1014.14" stroke="#263238" stroke-width="1.1133" stroke-linecap="round" stroke-linejoin="round"/>
<path d="M1147.85 1288.06C1087.97 1372.14 1041.83 1408.18 1013.04 1423.63C1048.34 1421.85 1081.72 1406.97 1106.65 1381.91C1131.58 1356.84 1146.26 1323.38 1147.85 1288.06Z" stroke="#263238" stroke-width="1.1133" stroke-linecap="round" stroke-linejoin="round"/>
<path d="M894.859 1370.44C912.432 1392.53 936.188 1408.88 963.096 1417.41C980.346 1409.54 997.126 1400.68 1013.35 1390.87C979.531 1397.13 926.621 1381.61 894.859 1370.44Z" stroke="#263238" stroke-width="1.1133" stroke-linecap="round" stroke-linejoin="round"/>
<path d="M1013.35 1390.87C1029.85 1380.89 1045.59 1369.71 1060.44 1357.41C958.304 1367.86 895.295 1336.22 868.523 1318.24C873.576 1337.28 882.546 1355.06 894.86 1370.44C926.622 1381.61 979.532 1397.13 1013.35 1390.87Z" stroke="#263238" stroke-width="1.1133" stroke-linecap="round" stroke-linejoin="round"/>
<path d="M1075.06 1337.05H1082.58C1075.89 1343.79 1068.56 1350.6 1060.44 1357.41C958.304 1367.86 895.295 1336.22 868.523 1318.32C865.399 1306.45 863.815 1294.23 863.811 1281.96C863.811 1278.68 863.969 1275.47 864.207 1272.22C872.84 1280.34 890.384 1298.48 939.057 1315.35C972.363 1327.19 1016.72 1336.22 1075.06 1337.05ZM1075.06 1337.05C1075.61 1337.57 1076.16 1338.08 1076.68 1338.64" stroke="#263238" stroke-width="1.1133" stroke-linecap="round" stroke-linejoin="round"/>
</g>
<path d="M1005.27 1423.19C1083.6 1423.19 1147.09 1359.7 1147.09 1281.37C1147.09 1203.05 1083.6 1139.55 1005.27 1139.55C926.949 1139.55 863.454 1203.05 863.454 1281.37C863.454 1359.7 926.949 1423.19 1005.27 1423.19Z" stroke="#263238" stroke-width="1.1133" stroke-linecap="round" stroke-linejoin="round"/>
<g filter="url(#filter0_d_710_993)">
<path d="M1266.5 1039C1266.5 1039 1256.8 1007.51 1228.52 996.186C1208.72 988.266 1186.26 990.404 1165.87 993.929C1127.93 1000.54 1094.82 1015.63 1058.94 1028.5C1058.94 1028.5 1074.3 1022.84 1137.31 1053.57C1160.52 1064.86 1187.05 1073.65 1213.59 1073.06C1234.85 1072.58 1267.57 1066.48 1266.5 1039Z" fill="#47A662"/>
<path d="M1269.9 946.445C1269.9 946.445 1269.9 913.456 1246.14 894.486C1229.59 881.258 1207.33 876.704 1186.74 874.209C1148.48 869.575 1112.44 874.446 1074.26 876.387C1074.26 876.387 1090.62 875.436 1142.06 923.04C1161.03 940.544 1183.92 956.623 1209.39 963.712C1229.9 969.415 1262.93 973.059 1269.9 946.445Z" fill="#47A662"/>
<path d="M1334.89 1068.86C1334.89 1068.86 1309.19 1048.23 1309.11 1017.77C1309.11 996.583 1319.29 976.346 1330.1 958.722C1350.22 925.851 1376.44 900.664 1401.7 871.951C1401.7 871.951 1390.77 884.149 1396.08 954.049C1398.06 979.791 1396.4 1007.71 1386.06 1032.15C1377.94 1051.79 1360.24 1079.95 1334.89 1068.86Z" fill="#47A662"/>
<path d="M1425.98 1119.47C1425.98 1119.47 1422.34 1086.72 1443.8 1065.1C1458.69 1050.09 1480.28 1042.96 1500.36 1038.13C1537.82 1029.1 1574.18 1029.77 1612.31 1027.28C1612.31 1027.28 1596 1028.19 1550.38 1081.41C1533.58 1101.21 1512.71 1119.63 1488.12 1129.65C1468.52 1137.69 1436.12 1145.1 1425.98 1119.47Z" fill="#47A662"/>
<path d="M1420.16 1002.68C1420.16 1002.68 1387.49 998.207 1371.8 972.108C1360.87 953.97 1359.25 931.317 1359.45 910.644C1359.84 872.149 1369.43 837.021 1376.36 799.438C1376.36 799.438 1373.23 815.516 1413.7 872.743C1428.59 893.852 1441.43 918.644 1445.39 944.94C1448.2 966.049 1447.45 999.276 1420.16 1002.68Z" fill="#47A662"/>
<path d="M1514.18 944.029C1514.18 944.029 1537.66 967.157 1567.92 963.831C1588.95 961.415 1607.88 948.861 1624.12 936.108C1654.37 912.346 1676.35 883.277 1701.9 854.882C1701.9 854.882 1691.09 867.119 1621.03 870.01C1595.25 871.08 1567.72 875.951 1544.63 889.099C1526.1 899.475 1500.24 920.346 1514.18 944.029Z" fill="#47A662"/>
<path d="M1486.97 921.178C1486.97 921.178 1519.76 924.465 1541.15 902.802C1556.04 887.713 1562.93 866.09 1567.56 845.932C1576.2 808.427 1575.17 772.032 1577.23 733.894C1577.23 733.894 1576.51 750.21 1523.72 796.388C1504.32 813.378 1485.9 834.447 1476.2 859.119C1468.32 878.961 1461.23 911.436 1486.97 921.178Z" fill="#47A662"/>
<path d="M1369.86 1240.42L1313.23 1101.06L1247.92 939.91" stroke="#263238" stroke-width="1.1133" stroke-linecap="round" stroke-linejoin="round"/>
<path d="M1382.93 1216.46L1439.52 1022.68L1500.51 902.921" stroke="#263238" stroke-width="1.1133" stroke-linecap="round" stroke-linejoin="round"/>
<path d="M1404.67 1140.26L1461.31 1107.59" stroke="#263238" stroke-width="1.1133" stroke-linecap="round" stroke-linejoin="round"/>
<path d="M1439.53 1022.68L1411.21 959.514" stroke="#263238" stroke-width="1.1133" stroke-linecap="round" stroke-linejoin="round"/>
<path d="M1474.97 959.831L1544.04 929.02" stroke="#263238" stroke-width="1.1133" stroke-linecap="round" stroke-linejoin="round"/>
<path d="M1324.12 1127.2L1348.08 1031.39" stroke="#263238" stroke-width="1.1133" stroke-linecap="round" stroke-linejoin="round"/>
<path d="M1292.36 1054.36L1237.03 1024.86" stroke="#263238" stroke-width="1.1133" stroke-linecap="round" stroke-linejoin="round"/>
<path d="M1398.89 1310.08H1351.68C1343.97 1310.08 1336.49 1307.38 1330.55 1302.46C1324.61 1297.54 1320.57 1290.69 1319.13 1283.11L1302.34 1194.68H1448.24L1431.49 1283.11C1430.04 1290.7 1425.99 1297.54 1420.04 1302.46C1414.09 1307.39 1406.61 1310.08 1398.89 1310.08Z" fill="#263238" stroke="#263238" stroke-width="1.1133" stroke-linecap="round" stroke-linejoin="round"/>
</g>
<path d="M70.1982 770.962C70.1982 759.992 75.2675 751.913 86.6733 751.913C98.079 751.913 103.346 759.834 103.346 770.962V809.457C103.346 820.427 98.277 828.506 86.6733 828.506C75.0695 828.506 70.1982 820.585 70.1982 809.457V770.962ZM75.1487 809.774C75.1487 817.972 78.3961 823.991 86.6733 823.991C94.9504 823.991 98.5543 817.972 98.5543 809.774V770.645C98.5543 762.448 95.2276 756.428 86.6733 756.428C78.1189 756.428 75.1487 762.448 75.1487 770.645V809.774Z" fill="#263238"/>
<path d="M111.148 770.962C111.148 759.992 116.218 751.913 127.623 751.913C139.029 751.913 144.296 759.834 144.296 770.962V809.457C144.296 820.427 139.227 828.506 127.623 828.506C116.02 828.506 111.148 820.585 111.148 809.457V770.962ZM116.099 809.774C116.099 817.972 119.346 823.991 127.623 823.991C135.901 823.991 139.504 817.972 139.504 809.774V770.645C139.504 762.448 136.178 756.428 127.623 756.428C119.069 756.428 116.099 762.448 116.099 770.645V809.774Z" fill="#263238"/>
<path d="M168.098 752.546C179.741 752.546 184.256 759.873 184.256 770.843V779.041C184.256 790.922 178.751 796.862 166.831 796.862H157.445V827.872H152.494V752.625L168.098 752.546ZM166.831 792.347C175.543 792.347 179.306 788.387 179.306 779.357V770.526C179.306 762.368 176.494 757.061 168.098 757.061H157.445V792.347H166.831Z" fill="#263238"/>
<path d="M223.424 770.724V772.348H218.671V770.407C218.671 762.487 215.662 756.427 207.503 756.427C199.345 756.427 196.296 762.249 196.296 770.17C196.296 788.427 223.503 788.744 223.503 809.536C223.503 820.387 218.79 828.347 207.266 828.347C195.741 828.347 191.028 820.427 191.028 809.536V805.575H195.781V809.773C195.781 817.694 198.87 823.634 207.147 823.634C215.424 823.634 218.553 817.813 218.553 809.773C218.553 791.674 191.345 791.358 191.345 770.407C191.345 759.081 196.296 751.794 207.187 751.675C218.077 751.556 223.424 759.873 223.424 770.724Z" fill="#263238"/>
<path d="M235.78 818.407V827.872H230.948V818.407H235.78Z" fill="#263238"/>
<path d="M249.245 818.407V827.872H244.374V818.407H249.245Z" fill="#263238"/>
<path d="M262.671 818.407V827.872H257.681V818.407H262.671Z" fill="#263238"/>
<path d="M86.1184 862.129C97.7618 862.129 102.277 869.416 102.277 880.386V888.584C102.277 900.465 96.7717 906.445 84.8511 906.445H75.5047V937.415H70.5146V862.169L86.1184 862.129ZM84.8511 901.732C93.5638 901.732 97.3261 897.772 97.3261 888.703V879.871C97.3261 871.713 94.5143 866.446 86.1184 866.446H75.5047V901.732H84.8511Z" fill="#263238"/>
<path d="M115.504 920.662L111.742 937.335H107.188L123.623 862.089H130.95L147.741 937.335H142.831L138.87 920.662H115.504ZM116.257 916.346H138.197L126.989 867.713L116.257 916.346Z" fill="#263238"/>
<path d="M187.266 880.505V886.089H182.434V880.188C182.434 872.268 179.345 865.971 171.028 865.971C162.712 865.971 159.662 872.109 159.662 880.188V919.356C159.662 927.277 162.751 933.415 171.028 933.415C179.306 933.415 182.434 927.396 182.434 919.356V903.079H172.533V898.565H187.266V919C187.266 929.891 182.513 938.049 171.028 938.049C159.543 938.049 154.791 929.891 154.791 919V880.505C154.791 869.654 159.504 861.456 171.028 861.456C182.553 861.456 187.266 869.654 187.266 880.505Z" fill="#263238"/>
<path d="M221.048 896.9V901.415H200.493V932.821H225.246V937.335H195.543V862.089H225.246V866.604H200.493V896.9H221.048Z" fill="#263238"/>
<path d="M254.513 937.415H249.998V862.169H256.453L279.027 925.534V862.169H283.542V937.415H278.077L254.315 870.09L254.513 937.415Z" fill="#263238"/>
<path d="M291.739 880.505C291.739 869.535 296.769 861.456 308.175 861.456C319.58 861.456 324.848 869.377 324.848 880.505V919C324.848 929.97 319.818 938.049 308.175 938.049C296.531 938.049 291.739 930.128 291.739 919V880.505ZM296.69 919.356C296.69 927.515 299.898 933.534 308.175 933.534C316.452 933.534 320.056 927.515 320.056 919.356V880.188C320.056 871.991 316.729 865.971 308.175 865.971C299.62 865.971 296.69 871.991 296.69 880.188V919.356Z" fill="#263238"/>
<path d="M345.719 937.415V866.644H330.472V862.129H366.115V866.644H350.709V937.415H345.719Z" fill="#263238"/>
<path d="M413.282 898.802V903.317H393.837V937.415H388.887V862.169H417.48V866.684H393.718V898.842L413.282 898.802Z" fill="#263238"/>
<path d="M424.688 880.505C424.688 869.535 429.758 861.456 441.163 861.456C452.569 861.456 457.836 869.377 457.836 880.505V919C457.836 929.97 452.767 938.049 441.163 938.049C429.56 938.049 424.688 930.128 424.688 919V880.505ZM429.639 919.356C429.639 927.515 432.886 933.534 441.163 933.534C449.441 933.534 453.045 927.515 453.045 919.356V880.188C453.045 871.991 449.718 865.971 441.163 865.971C432.609 865.971 429.639 871.991 429.639 880.188V919.356Z" fill="#263238"/>
<path d="M470.747 919.237C470.747 927.158 473.757 933.534 482.034 933.534C490.311 933.534 493.321 927.316 493.321 919.237V862.129H497.955V918.999C497.955 929.771 493.44 938.049 482.113 938.049C470.787 938.049 465.955 929.771 465.955 918.999V862.129H470.906L470.747 919.237Z" fill="#263238"/>
<path d="M511.143 937.415H506.628V862.169H513.083L535.657 925.534V862.169H540.172V937.415H534.707L511.143 870.09V937.415Z" fill="#263238"/>
<path d="M565.083 862.129C576.726 862.129 581.756 869.733 581.756 880.822V918.683C581.756 929.771 576.726 937.415 565.083 937.415H548.528V862.169L565.083 862.129ZM565.083 932.9C573.478 932.9 576.964 927.197 576.964 918.92V880.624C576.964 872.347 573.439 866.644 565.083 866.644H553.558V932.9H565.083Z" fill="#263238"/>
<g filter="url(#filter1_d_710_993)">
<path d="M753.317 1123.75C665.16 1123.75 612.171 1045.53 593.359 976.741L592.725 974.325C591.723 970.99 591.404 967.486 591.787 964.024C592.17 960.562 593.247 957.213 594.954 954.177C596.661 951.142 598.963 948.481 601.722 946.355C604.481 944.229 607.64 942.682 611.011 941.805C614.382 940.929 617.895 940.741 621.34 941.253C624.785 941.765 628.091 942.967 631.061 944.787C634.031 946.606 636.604 949.006 638.625 951.843C640.646 954.679 642.074 957.894 642.824 961.296L643.299 963.078C657.596 1015.43 696.526 1075.27 758.98 1071.83C770.724 1071.42 782.251 1068.55 792.813 1063.4C803.375 1058.25 812.735 1050.93 820.286 1041.93C854.543 1002.64 869.87 917.217 866.464 874.129C866.142 871.364 866.38 868.562 867.165 865.891C867.95 863.22 869.265 860.735 871.031 858.584C872.798 856.433 874.981 854.66 877.448 853.371C879.916 852.082 882.618 851.304 885.393 851.083C888.168 850.862 890.959 851.203 893.599 852.084C896.239 852.966 898.675 854.371 900.76 856.216C902.845 858.06 904.537 860.306 905.735 862.819C906.932 865.332 907.611 868.06 907.731 870.842C911.691 918.801 906.463 1021.89 859.296 1075.95C847.223 1090.16 832.338 1101.72 815.578 1109.9C798.817 1118.08 780.545 1122.7 761.911 1123.47C759.02 1123.67 756.129 1123.75 753.317 1123.75Z" fill="white"/>
<mask id="mask1_710_993" style="mask-type:luminance" maskUnits="userSpaceOnUse" x="591" y="851" width="318" height="273">
<path d="M753.317 1123.75C665.16 1123.75 612.171 1045.53 593.359 976.741L592.725 974.325C591.723 970.99 591.404 967.486 591.787 964.024C592.17 960.562 593.247 957.213 594.954 954.177C596.661 951.142 598.963 948.481 601.722 946.355C604.481 944.229 607.64 942.682 611.011 941.805C614.382 940.929 617.895 940.741 621.34 941.253C624.785 941.765 628.091 942.967 631.061 944.787C634.031 946.606 636.604 949.006 638.625 951.843C640.646 954.679 642.074 957.894 642.824 961.296L643.299 963.078C657.596 1015.43 696.526 1075.27 758.98 1071.83C770.724 1071.42 782.251 1068.55 792.813 1063.4C803.375 1058.25 812.735 1050.93 820.286 1041.93C854.543 1002.64 869.87 917.217 866.464 874.129C866.142 871.364 866.38 868.562 867.165 865.891C867.95 863.22 869.265 860.735 871.031 858.584C872.798 856.433 874.981 854.66 877.448 853.371C879.916 852.082 882.618 851.304 885.393 851.083C888.168 850.862 890.959 851.203 893.599 852.084C896.239 852.966 898.675 854.371 900.76 856.216C902.845 858.06 904.537 860.306 905.735 862.819C906.932 865.332 907.611 868.06 907.731 870.842C911.691 918.801 906.463 1021.89 859.296 1075.95C847.223 1090.16 832.338 1101.72 815.578 1109.9C798.817 1118.08 780.545 1122.7 761.911 1123.47C759.02 1123.67 756.129 1123.75 753.317 1123.75Z" fill="white"/>
</mask>
<g mask="url(#mask1_710_993)">
<path d="M885.434 851.832C879.963 852.276 874.892 854.874 871.335 859.055C867.778 863.235 866.026 868.657 866.464 874.128C868.127 895.158 865.315 926.247 858.028 957.296C868.436 956.856 878.843 958.195 888.8 961.256C886.444 991.051 875.981 1019.63 858.543 1043.91C820.088 1097.33 762.426 1114.4 717.555 1107.99C697.476 1105.13 674.467 1094.6 655.101 1083.79C681.378 1109.41 716.614 1123.78 753.317 1123.83C756.129 1123.83 759.02 1123.83 761.911 1123.59C780.545 1122.82 798.817 1118.2 815.577 1110.02C832.338 1101.84 847.223 1090.28 859.296 1076.07C906.463 1022.01 911.533 918.92 907.731 870.96C907.536 868.236 906.802 865.576 905.573 863.137C904.345 860.697 902.644 858.525 900.571 856.747C898.498 854.968 896.093 853.618 893.494 852.774C890.896 851.931 888.157 851.61 885.434 851.832Z" fill="#EF9867"/>
<path opacity="0.5" d="M885.434 851.832C879.963 852.276 874.892 854.874 871.335 859.055C867.778 863.235 866.026 868.657 866.464 874.128C868.127 895.158 865.315 926.247 858.028 957.296C868.436 956.856 878.843 958.195 888.8 961.256C886.444 991.051 875.981 1019.63 858.543 1043.91C820.088 1097.33 762.426 1114.4 717.555 1107.99C697.476 1105.13 674.467 1094.6 655.101 1083.79C681.378 1109.41 716.614 1123.78 753.317 1123.83C756.129 1123.83 759.02 1123.83 761.911 1123.59C780.545 1122.82 798.817 1118.2 815.577 1110.02C832.338 1101.84 847.223 1090.28 859.296 1076.07C906.463 1022.01 911.533 918.92 907.731 870.96C907.536 868.236 906.802 865.576 905.573 863.137C904.345 860.697 902.644 858.525 900.571 856.747C898.498 854.968 896.093 853.618 893.494 852.774C890.896 851.931 888.157 851.61 885.434 851.832Z" fill="white"/>
</g>
<path d="M753.317 1123.75C665.16 1123.75 612.171 1045.53 593.359 976.741L592.725 974.325C591.723 970.99 591.404 967.486 591.787 964.024C592.17 960.562 593.247 957.213 594.954 954.177C596.661 951.142 598.963 948.481 601.722 946.355C604.481 944.229 607.64 942.682 611.011 941.805C614.382 940.929 617.895 940.741 621.34 941.253C624.785 941.765 628.091 942.967 631.061 944.787C634.031 946.606 636.604 949.006 638.625 951.843C640.646 954.679 642.074 957.894 642.824 961.296L643.299 963.078C657.596 1015.43 696.526 1075.27 758.98 1071.83C770.724 1071.42 782.251 1068.55 792.813 1063.4C803.375 1058.25 812.735 1050.93 820.286 1041.93C854.543 1002.64 869.87 917.217 866.464 874.129C866.142 871.364 866.38 868.562 867.165 865.891C867.95 863.22 869.265 860.735 871.031 858.584C872.798 856.433 874.981 854.66 877.448 853.371C879.916 852.082 882.618 851.304 885.393 851.083C888.168 850.862 890.959 851.203 893.599 852.084C896.239 852.966 898.675 854.371 900.76 856.216C902.845 858.06 904.537 860.306 905.735 862.819C906.932 865.332 907.611 868.06 907.731 870.842C911.691 918.801 906.463 1021.89 859.296 1075.95C847.223 1090.16 832.338 1101.72 815.578 1109.9C798.817 1118.08 780.545 1122.7 761.911 1123.47C759.02 1123.67 756.129 1123.75 753.317 1123.75Z" stroke="#263238" stroke-width="1.1133" stroke-linecap="round" stroke-linejoin="round"/>
<path d="M702.467 1070.17C704.566 1060.46 681.358 1075.63 661.913 1089.77C669.106 1095.85 676.849 1101.24 685.041 1105.89C691.972 1094.6 700.447 1079.51 702.467 1070.17Z" fill="#EF9867" stroke="#263238" stroke-width="1.1133" stroke-linecap="round" stroke-linejoin="round"/>
<path d="M753.317 1123.75C756.129 1123.75 759.02 1123.75 761.911 1123.51C770.325 1123.04 778.685 1121.86 786.901 1119.99C775.971 1105.73 760.921 1086.88 756.604 1085.45C751.654 1083.79 742.11 1108.07 736.803 1122.8C742.284 1123.44 747.799 1123.75 753.317 1123.75Z" fill="#EF9867" stroke="#263238" stroke-width="1.1133" stroke-linecap="round" stroke-linejoin="round"/>
<path d="M643.299 963.078L642.824 961.296C642.074 957.895 640.646 954.68 638.625 951.843C636.604 949.007 634.031 946.607 631.061 944.787C628.091 942.968 624.785 941.766 621.34 941.253C617.895 940.741 614.382 940.929 611.011 941.806C607.64 942.682 604.481 944.23 601.722 946.356C598.963 948.481 596.661 951.142 594.954 954.178C593.247 957.214 592.17 960.563 591.787 964.025C591.404 967.486 591.723 970.99 592.725 974.325L593.359 976.741C599.963 1000.9 610.105 1023.95 623.458 1045.14L670.625 1022.68C658.257 1004.48 649.02 984.331 643.299 963.078Z" fill="#EF9867" stroke="#263238" stroke-width="1.1133" stroke-linecap="round" stroke-linejoin="round"/>
<path d="M859.296 1075.95C862.92 1071.75 866.28 1067.33 869.355 1062.72C854.385 1057.61 831.969 1050.56 823.653 1051.31C813.791 1052.23 827.177 1083.91 834.068 1098.84C843.344 1092.22 851.811 1084.54 859.296 1075.95Z" fill="#EF9867" stroke="#263238" stroke-width="1.1133" stroke-linecap="round" stroke-linejoin="round"/>
<path d="M860.127 991.315C858.543 994.484 877.909 1008.58 890.979 1017.65C895.124 1005.32 898.458 992.721 900.959 979.949C885.117 983.117 861.672 988.226 860.127 991.315Z" fill="#EF9867" stroke="#263238" stroke-width="1.1133" stroke-linecap="round" stroke-linejoin="round"/>
<path d="M907.375 932.742C908.246 921.455 908.682 910.683 908.721 900.782C895.098 908.267 878.939 918.643 878.939 925.455C878.939 932.267 894.068 933.098 907.375 932.742Z" fill="#EF9867" stroke="#263238" stroke-width="1.1133" stroke-linecap="round" stroke-linejoin="round"/>
<path d="M694.15 626.331C694.15 626.331 655.695 737.695 676.408 824.348C682.543 849.705 694.452 873.302 711.207 893.299C727.962 913.297 749.109 929.153 773.001 939.633C773.001 939.633 716.803 959.435 729.437 989.89C742.07 1020.34 790.505 1000.74 806.307 990.88C822.109 981.019 841.95 951.474 844.722 931.752C846.484 921.675 847.148 911.437 846.702 901.218C846.702 901.218 910.741 894.327 954.107 858.842C954.107 858.842 992.562 889.376 1020.17 883.475C1047.77 877.574 1087.17 828.268 1083.21 783.952C1079.25 739.636 1053.71 739.676 1038.11 746.408C1030.01 749.471 1022.62 754.161 1016.4 760.19C1016.4 760.19 1039.06 732.468 1016.4 694.171C1009.72 682.938 1000.56 673.374 989.631 666.203C978.701 659.033 966.282 654.445 953.315 652.786C953.315 652.786 941.434 589.698 906.028 566.054C870.623 542.411 744.407 517.936 694.15 626.331Z" fill="white"/>
<mask id="mask2_710_993" style="mask-type:luminance" maskUnits="userSpaceOnUse" x="670" y="545" width="414" height="462">
<path d="M694.15 626.331C694.15 626.331 655.695 737.695 676.408 824.348C682.543 849.705 694.452 873.302 711.207 893.299C727.962 913.297 749.109 929.153 773.001 939.633C773.001 939.633 716.803 959.435 729.437 989.89C742.07 1020.34 790.505 1000.74 806.307 990.88C822.109 981.019 841.95 951.474 844.722 931.752C846.484 921.675 847.148 911.437 846.702 901.218C846.702 901.218 910.741 894.327 954.107 858.842C954.107 858.842 992.562 889.376 1020.17 883.475C1047.77 877.574 1087.17 828.268 1083.21 783.952C1079.25 739.636 1053.71 739.676 1038.11 746.408C1030.01 749.471 1022.62 754.161 1016.4 760.19C1016.4 760.19 1039.06 732.468 1016.4 694.171C1009.72 682.938 1000.56 673.374 989.631 666.203C978.701 659.033 966.282 654.445 953.315 652.786C953.315 652.786 941.434 589.698 906.028 566.054C870.623 542.411 744.407 517.936 694.15 626.331Z" fill="white"/>
</mask>
<g mask="url(#mask2_710_993)">
<path d="M986.938 664.627C968.655 695.124 943.356 720.816 913.144 739.566C882.932 758.316 848.68 769.582 813.237 772.428C734.823 779.319 690.863 763.873 670.665 753.141C673.116 710.053 681.102 667.459 694.427 626.41C744.684 518.016 870.821 542.649 906.305 566.292C941.79 589.935 953.592 653.024 953.592 653.024C965.399 654.505 976.761 658.459 986.938 664.627ZM1038.11 746.408C1030.01 749.471 1022.62 754.162 1016.4 760.19C1021.2 753.578 1024.36 745.924 1025.63 737.854C972.364 764.388 976.522 821.021 969.908 821.021C961.75 821.021 957.71 792.546 957.71 792.546C957.71 792.546 947.532 833.219 886.424 861.733C825.316 890.248 756.208 867.832 756.208 867.832C756.208 867.832 770.466 900.386 733.832 896.307C723.552 895.324 713.694 891.725 705.199 885.852C722.766 909.272 746.097 927.746 772.921 939.475C772.921 939.475 716.724 959.277 729.357 989.732C741.991 1020.19 790.465 1000.58 806.227 990.722C821.99 980.86 841.871 951.316 844.643 931.594C846.405 921.517 847.068 911.279 846.623 901.059C846.623 901.059 910.662 894.169 954.027 858.684C954.027 858.684 992.482 889.218 1020.09 883.317C1047.69 877.416 1087.09 828.11 1083.13 783.794C1079.17 739.478 1053.71 739.676 1038.11 746.408Z" fill="#EF9867"/>
<path opacity="0.5" d="M986.938 664.627C968.655 695.124 943.356 720.816 913.144 739.566C882.932 758.316 848.68 769.582 813.237 772.428C734.823 779.319 690.863 763.873 670.665 753.141C673.116 710.053 681.102 667.459 694.427 626.41C744.684 518.016 870.821 542.649 906.305 566.292C941.79 589.935 953.592 653.024 953.592 653.024C965.399 654.505 976.761 658.459 986.938 664.627ZM1038.11 746.408C1030.01 749.471 1022.62 754.162 1016.4 760.19C1021.2 753.578 1024.36 745.924 1025.63 737.854C972.364 764.388 976.522 821.021 969.908 821.021C961.75 821.021 957.71 792.546 957.71 792.546C957.71 792.546 947.532 833.219 886.424 861.733C825.316 890.248 756.208 867.832 756.208 867.832C756.208 867.832 770.466 900.386 733.832 896.307C723.552 895.324 713.694 891.725 705.199 885.852C722.766 909.272 746.097 927.746 772.921 939.475C772.921 939.475 716.724 959.277 729.357 989.732C741.991 1020.19 790.465 1000.58 806.227 990.722C821.99 980.86 841.871 951.316 844.643 931.594C846.405 921.517 847.068 911.279 846.623 901.059C846.623 901.059 910.662 894.169 954.027 858.684C954.027 858.684 992.482 889.218 1020.09 883.317C1047.69 877.416 1087.09 828.11 1083.13 783.794C1079.17 739.478 1053.71 739.676 1038.11 746.408Z" fill="white"/>
<path d="M846.9 901.297C825.646 901.863 804.545 897.548 785.219 888.685C765.893 879.821 748.856 866.645 735.417 850.169" stroke="#263238" stroke-width="1.1133" stroke-linecap="round" stroke-linejoin="round"/>
</g>
<path d="M694.15 626.331C694.15 626.331 655.695 737.695 676.408 824.348C682.543 849.705 694.452 873.302 711.207 893.299C727.962 913.297 749.109 929.153 773.001 939.633C773.001 939.633 716.803 959.435 729.437 989.89C742.07 1020.34 790.505 1000.74 806.307 990.88C822.109 981.019 841.95 951.474 844.722 931.752C846.484 921.675 847.148 911.437 846.702 901.218C846.702 901.218 910.741 894.327 954.107 858.842C954.107 858.842 992.562 889.376 1020.17 883.475C1047.77 877.574 1087.17 828.268 1083.21 783.952C1079.25 739.636 1053.71 739.676 1038.11 746.408C1030.01 749.471 1022.62 754.161 1016.4 760.19C1016.4 760.19 1039.06 732.468 1016.4 694.171C1009.72 682.938 1000.56 673.374 989.631 666.203C978.701 659.033 966.282 654.445 953.315 652.786C953.315 652.786 941.434 589.698 906.028 566.054C870.623 542.411 744.407 517.936 694.15 626.331Z" stroke="#263238" stroke-width="1.1133" stroke-linecap="round" stroke-linejoin="round"/>
<path d="M1016.4 760.349C1016.4 760.349 995.729 774.17 985.868 816.546" stroke="#263238" stroke-width="1.1133" stroke-linecap="round" stroke-linejoin="round"/>
<path d="M1054.38 778.487C1051.97 785.695 1045.35 790.011 1039.65 788.071C1033.95 786.13 1031.33 778.724 1033.75 771.517C1036.16 764.309 1042.78 759.992 1048.48 761.933C1054.18 763.873 1056.84 771.279 1054.38 778.487Z" fill="white" stroke="#263238" stroke-width="1.1133" stroke-linecap="round" stroke-linejoin="round"/>
<path d="M1074.78 791.318C1072.36 798.526 1065.75 802.842 1060.05 800.902C1054.34 798.961 1051.69 791.555 1054.14 784.348C1056.6 777.14 1063.17 772.823 1068.88 774.764C1074.58 776.704 1077.23 784.11 1074.78 791.318Z" fill="white" stroke="#263238" stroke-width="1.1133" stroke-linecap="round" stroke-linejoin="round"/>
<path d="M1079.13 810.526C1078.34 811.851 1077.19 812.926 1075.82 813.624C1074.44 814.321 1072.89 814.614 1071.36 814.469C1069.82 814.323 1068.36 813.744 1067.14 812.799C1065.92 811.855 1064.99 810.584 1064.46 809.133C1063.93 807.682 1063.83 806.111 1064.16 804.604C1064.49 803.096 1065.24 801.712 1066.32 800.614C1067.41 799.516 1068.78 798.748 1070.29 798.399C1071.79 798.051 1073.36 798.136 1074.82 798.645C1076.92 799.696 1078.54 801.515 1079.34 803.725C1080.15 805.935 1080.07 808.369 1079.13 810.526Z" fill="white" stroke="#263238" stroke-width="1.1133" stroke-linecap="round" stroke-linejoin="round"/>
<path d="M1053.12 836.902C1045.99 849.773 1031.73 855.476 1021.23 849.654C1010.74 843.833 1008.05 828.744 1015.18 815.873C1022.3 803.001 1036.56 797.299 1047.06 803.12C1057.55 808.942 1060.24 824.031 1053.12 836.902Z" fill="white" stroke="#263238" stroke-width="1.1133" stroke-linecap="round" stroke-linejoin="round"/>
<path d="M773 939.712C786.276 945.891 801.367 946.949 815.376 942.682" stroke="#263238" stroke-width="1.1133" stroke-linecap="round" stroke-linejoin="round"/>
<path d="M729.635 989.969C729.635 989.969 733.595 973.217 758.189 961.415" stroke="#263238" stroke-width="1.1133" stroke-linecap="round" stroke-linejoin="round"/>
<path d="M754.268 1004.78C754.268 1004.78 764.129 981.019 780.881 970.286" stroke="#263238" stroke-width="1.1133" stroke-linecap="round" stroke-linejoin="round"/>
<path d="M365.64 732.151C361.45 728.808 358.111 724.521 355.895 719.641C353.679 714.761 352.648 709.426 352.888 704.072V610.172H110.673C104.757 610.394 98.862 609.334 93.3934 607.064C87.9249 604.795 83.0117 601.37 78.9906 597.024C71.0683 588.643 66.7215 577.506 66.8719 565.975C66.8399 556.605 69.5971 547.437 74.7926 539.639L306.789 175.05C324.215 148.146 347.37 134.694 376.254 134.694C391.783 134.166 406.945 139.48 418.748 149.585C430.075 159.486 435.738 174.205 435.738 193.743V548.153H497.361C501.617 547.897 505.878 548.58 509.84 550.154C513.803 551.728 517.371 554.155 520.291 557.262C525.502 563.37 528.364 571.135 528.364 579.163C528.364 587.191 525.502 594.956 520.291 601.064C517.371 604.171 513.803 606.597 509.84 608.171C505.878 609.746 501.617 610.429 497.361 610.172H435.302V704.072C435.559 709.386 434.581 714.687 432.444 719.559C430.307 724.431 427.069 728.741 422.986 732.151C415.014 738.834 404.913 742.445 394.511 742.329C383.994 742.412 373.78 738.811 365.64 732.151ZM352.729 548.153V221.821L149.603 548.153H352.729Z" fill="#263238"/>
<path d="M701.754 734.052C678.014 723.691 656.991 707.982 640.329 688.151C623.593 667.199 610.524 643.565 601.676 618.251C591.648 590.905 584.597 562.556 580.646 533.698C576.524 502.279 574.54 470.615 574.706 438.927C574.706 230.165 645.992 125.783 788.564 125.783C931.136 125.783 1002.25 230.165 1001.91 438.927C1002.05 470.464 1000.13 501.976 996.165 533.262C992.344 562.126 985.358 590.481 975.334 617.816C966.486 643.13 953.417 666.764 936.681 687.716C919.997 707.573 898.984 723.342 875.256 733.814C847.975 745.875 818.386 751.822 788.564 751.239C758.726 751.838 729.112 745.975 701.754 734.052ZM830.702 674.132C842.631 669.043 853.459 661.686 862.583 652.469C871.821 642.632 879.417 631.373 885.078 619.123C891.324 606.144 896.375 592.623 900.167 578.727C904.16 563.587 907.071 548.182 908.879 532.629C911.018 515.467 912.444 499.745 913.156 485.461C913.869 471.178 914.212 455.666 914.186 438.927C914.186 421.37 913.843 405.159 913.156 390.294C912.47 375.43 910.978 359.483 908.681 342.453C906.709 326.911 903.733 311.513 899.771 296.355C896.022 282.598 890.97 269.231 884.682 256.435C878.978 244.378 871.369 233.319 862.147 223.683C853.078 214.651 842.31 207.504 830.465 202.653C803.386 192.199 773.386 192.199 746.307 202.653C734.549 207.446 723.861 214.527 714.862 223.485C705.709 233.079 698.119 244.051 692.368 255.999C686.023 268.68 681.032 281.995 677.477 295.721C673.611 310.97 670.701 326.446 668.764 342.057C666.467 359.324 664.975 375.403 664.289 390.294C663.602 405.185 663.246 421.396 663.219 438.927C663.219 455.64 663.576 471.217 664.289 485.659C665.002 500.101 666.414 515.943 668.526 533.183C670.353 548.734 673.265 564.137 677.239 579.282C680.978 593.173 685.975 606.694 692.17 619.677C697.772 631.853 705.301 643.046 714.466 652.825C723.522 661.983 734.286 669.275 746.149 674.29C773.253 685.325 803.598 685.325 830.702 674.29V674.132Z" fill="#263238"/>
<path d="M1368.87 732.151C1364.68 728.808 1361.34 724.522 1359.13 719.642C1356.91 714.762 1355.88 709.427 1356.12 704.072V610.173H1113.91C1107.99 610.394 1102.1 609.334 1096.63 607.065C1091.16 604.795 1086.25 601.37 1082.22 597.024C1074.3 588.644 1069.95 577.507 1070.11 565.975C1070.07 556.605 1072.83 547.437 1078.03 539.639L1310.02 175.05C1327.29 148.146 1350.38 134.694 1379.29 134.694C1394.9 134.107 1410.16 139.424 1422.02 149.585C1433.35 159.486 1439.01 174.205 1439.01 193.743V548.154H1500.63C1504.89 547.897 1509.15 548.58 1513.11 550.155C1517.08 551.729 1520.64 554.155 1523.56 557.263C1528.77 563.37 1531.64 571.135 1531.64 579.163C1531.64 587.191 1528.77 594.957 1523.56 601.064C1520.64 604.171 1517.08 606.598 1513.11 608.172C1509.15 609.746 1504.89 610.429 1500.63 610.173H1438.54V704.072C1438.79 709.386 1437.81 714.687 1435.68 719.559C1433.54 724.431 1430.3 728.741 1426.22 732.151C1418.25 738.835 1408.15 742.445 1397.74 742.329C1387.23 742.412 1377.01 738.811 1368.87 732.151ZM1356.12 548.154V221.822L1153 548.154H1356.12Z" fill="#263238"/>
<path d="M614.31 570.173C614.31 570.173 572.924 628.31 567.023 687.438C561.122 746.566 568.013 785.971 585.755 800.783C603.498 815.595 621.2 809.654 631.062 795.833C640.923 782.011 625.161 733.735 625.161 733.735C625.161 733.735 641.913 687.438 667.536 654.924C693.16 622.409 698.071 617.459 698.071 617.459C698.071 617.459 653.715 567.202 614.31 570.173Z" fill="white"/>
<mask id="mask3_710_993" style="mask-type:luminance" maskUnits="userSpaceOnUse" x="564" y="570" width="135" height="240">
<path d="M614.31 570.173C614.31 570.173 572.924 628.31 567.023 687.438C561.122 746.566 568.013 785.971 585.755 800.783C603.498 815.595 621.2 809.654 631.062 795.833C640.923 782.011 625.161 733.735 625.161 733.735C625.161 733.735 641.913 687.438 667.536 654.924C693.16 622.409 698.071 617.459 698.071 617.459C698.071 617.459 653.715 567.202 614.31 570.173Z" fill="white"/>
</mask>
<g mask="url(#mask3_710_993)">
<path d="M614.31 570.173C605.279 583.516 597.27 597.523 590.35 612.073C610.151 619.994 640.844 636.231 660.329 664.983C662.705 661.538 665.16 658.132 667.695 654.924C693.318 622.409 698.229 617.459 698.229 617.459C698.229 617.459 653.715 567.202 614.31 570.173Z" fill="#EF9867"/>
<path opacity="0.5" d="M614.31 570.173C605.279 583.516 597.27 597.523 590.35 612.073C610.151 619.994 640.844 636.231 660.329 664.983C662.705 661.538 665.16 658.132 667.695 654.924C693.318 622.409 698.229 617.459 698.229 617.459C698.229 617.459 653.715 567.202 614.31 570.173Z" fill="white"/>
</g>
<path d="M614.31 570.173C614.31 570.173 572.924 628.31 567.023 687.438C561.122 746.566 568.013 785.971 585.755 800.783C603.498 815.595 621.2 809.654 631.062 795.833C640.923 782.011 625.161 733.735 625.161 733.735C625.161 733.735 641.913 687.438 667.536 654.924C693.16 622.409 698.071 617.459 698.071 617.459C698.071 617.459 653.715 567.202 614.31 570.173Z" stroke="#263238" stroke-width="1.1133" stroke-linecap="round" stroke-linejoin="round"/>
<path d="M585.756 800.784C580.917 787.863 578.565 774.143 578.825 760.349" stroke="#263238" stroke-width="1.1133" stroke-linecap="round" stroke-linejoin="round"/>
<path d="M612.329 806.684C612.329 806.684 602.508 789.932 601.518 761.338" stroke="#263238" stroke-width="1.1133" stroke-linecap="round" stroke-linejoin="round"/>
<path d="M627.141 675.597C627.141 665.22 607.34 644.944 579.815 635.993C576.115 645.641 573.059 655.524 570.667 665.577C581.361 667.407 591.745 670.726 601.518 675.438C616.29 683.478 627.141 687.438 627.141 675.597Z" fill="#EF9867" stroke="#263238" stroke-width="1.1133" stroke-linecap="round" stroke-linejoin="round"/>
<path d="M611.893 573.697C605.509 583.429 599.64 593.489 594.31 603.835C602.644 606.039 610.638 609.37 618.072 613.736C648.606 631.439 654.507 633.538 644.685 607.796C638.745 591.638 624.567 580.667 611.893 573.697Z" fill="#EF9867" stroke="#263238" stroke-width="1.1133" stroke-linecap="round" stroke-linejoin="round"/>
<path d="M938.463 541.46C938.463 541.46 985.354 595.241 997.037 653.538C1008.72 711.834 1005.75 751.714 989.512 768.15C973.275 784.585 955.097 780.466 943.928 767.674C932.76 754.883 943.928 705.339 943.928 705.339C943.928 705.339 922.701 660.864 894.028 631.003C865.355 601.142 859.93 596.746 859.93 596.746C859.93 596.746 898.939 542.371 938.463 541.46Z" fill="white"/>
<mask id="mask4_710_993" style="mask-type:luminance" maskUnits="userSpaceOnUse" x="859" y="541" width="146" height="238">
<path d="M938.463 541.46C938.463 541.46 985.354 595.241 997.037 653.538C1008.72 711.834 1005.75 751.714 989.512 768.15C973.275 784.585 955.097 780.466 943.928 767.674C932.76 754.883 943.928 705.339 943.928 705.339C943.928 705.339 922.701 660.864 894.028 631.003C865.355 601.142 859.93 596.746 859.93 596.746C859.93 596.746 898.939 542.371 938.463 541.46Z" fill="white"/>
</mask>
<g mask="url(#mask4_710_993)">
<path d="M938.463 541.46C898.86 542.371 859.731 596.905 859.731 596.905C859.731 596.905 865.118 601.34 893.83 631.162C899.2 636.817 904.25 642.767 908.959 648.983C923.944 623.67 945.353 602.767 971.017 588.39C961.573 571.816 950.679 556.111 938.463 541.46Z" fill="#EF9867"/>
<path opacity="0.5" d="M938.463 541.46C898.86 542.371 859.731 596.905 859.731 596.905C859.731 596.905 865.118 601.34 893.83 631.162C899.2 636.817 904.25 642.767 908.959 648.983C923.944 623.67 945.353 602.767 971.017 588.39C961.573 571.816 950.679 556.111 938.463 541.46Z" fill="white"/>
</g>
<path d="M938.463 541.46C938.463 541.46 985.354 595.241 997.037 653.538C1008.72 711.834 1005.75 751.714 989.512 768.15C973.275 784.585 955.097 780.466 943.928 767.674C932.76 754.883 943.928 705.339 943.928 705.339C943.928 705.339 922.701 660.864 894.028 631.003C865.355 601.142 859.93 596.746 859.93 596.746C859.93 596.746 898.939 542.371 938.463 541.46Z" stroke="#263238" stroke-width="1.1133" stroke-linecap="round" stroke-linejoin="round"/>
<path d="M989.512 768.15C993.062 754.834 994.056 740.966 992.442 727.279" stroke="#263238" stroke-width="1.1133" stroke-linecap="round" stroke-linejoin="round"/>
<path d="M963.611 776.625C963.611 776.625 971.809 759.001 969.987 730.447" stroke="#263238" stroke-width="1.1133" stroke-linecap="round" stroke-linejoin="round"/>
<path d="M936.047 647.637C935.057 637.301 952.76 615.202 979.294 603.757C983.883 612.987 987.853 622.513 991.175 632.271C980.732 635.183 970.738 639.514 961.473 645.142C947.611 654.449 937.235 659.281 936.047 647.637Z" fill="#EF9867" stroke="#263238" stroke-width="1.1133" stroke-linecap="round" stroke-linejoin="round"/>
<path d="M941.196 544.747C948.48 553.735 955.276 563.108 961.552 572.826C953.446 575.827 945.785 579.918 938.78 584.984C910.147 605.657 904.444 608.192 911.731 581.737C916.286 565.222 929.276 552.905 941.196 544.747Z" fill="#EF9867" stroke="#263238" stroke-width="1.1133" stroke-linecap="round" stroke-linejoin="round"/>
<path d="M610.429 519.876C610.429 519.876 598.231 561.024 602.825 577.776C607.419 594.529 628.726 579.321 650.072 597.578C671.418 615.835 691.18 648.785 772.011 654.884C852.841 660.983 901.632 617.38 918.543 592.984C935.454 568.588 933.79 539.638 962.74 538.134C991.691 536.629 967.334 480.194 958.186 471.045C958.186 471.045 1014.58 387.205 1014.58 365.859C1014.58 344.513 961.236 349.067 895.771 368.908C895.771 368.908 846.98 342.968 758.545 358.215C670.111 373.463 644.21 399.403 644.21 399.403C644.21 399.403 534.43 413.106 526.826 426.808C519.222 440.511 541.836 498.53 610.429 519.876Z" fill="white"/>
<mask id="mask5_710_993" style="mask-type:luminance" maskUnits="userSpaceOnUse" x="525" y="351" width="490" height="305">
<path d="M610.429 519.876C610.429 519.876 598.231 561.024 602.825 577.776C607.419 594.529 628.726 579.321 650.072 597.578C671.418 615.835 691.18 648.785 772.011 654.884C852.841 660.983 901.632 617.38 918.543 592.984C935.454 568.588 933.79 539.638 962.74 538.134C991.691 536.629 967.334 480.194 958.186 471.045C958.186 471.045 1014.58 387.205 1014.58 365.859C1014.58 344.513 961.236 349.067 895.771 368.908C895.771 368.908 846.98 342.968 758.545 358.215C670.111 373.463 644.21 399.403 644.21 399.403C644.21 399.403 534.43 413.106 526.826 426.808C519.222 440.511 541.836 498.53 610.429 519.876Z" fill="white"/>
</mask>
<g mask="url(#mask5_710_993)">
<path d="M962.622 538.173C991.611 536.628 967.216 480.233 958.067 471.085C958.067 471.085 968.8 455.243 980.879 435.442C948.127 418.333 915.969 408.828 907.414 418.452C888.999 439.125 899.018 478.728 907.414 517.46C915.81 556.192 882.266 572.707 858.821 606.211C835.376 639.716 801.911 602.845 801.911 602.845C790.03 651.438 739.932 619.597 739.932 619.597C701.437 607.716 636.131 569.38 649.517 542.569C662.903 515.757 666.269 490.649 642.824 468.906C619.379 447.164 525.875 429.065 525.875 429.065C520.965 445.58 544.687 499.678 610.468 520.153C610.468 520.153 598.27 561.301 602.864 578.053C607.458 594.806 628.765 579.598 650.111 597.855C671.457 616.112 691.22 649.062 772.05 655.161C852.881 661.26 901.672 617.657 918.583 593.261C935.493 568.865 933.632 539.678 962.622 538.173Z" fill="#EF9867"/>
<path opacity="0.5" d="M962.622 538.173C991.611 536.628 967.216 480.233 958.067 471.085C958.067 471.085 968.8 455.243 980.879 435.442C948.127 418.333 915.969 408.828 907.414 418.452C888.999 439.125 899.018 478.728 907.414 517.46C915.81 556.192 882.266 572.707 858.821 606.211C835.376 639.716 801.911 602.845 801.911 602.845C790.03 651.438 739.932 619.597 739.932 619.597C701.437 607.716 636.131 569.38 649.517 542.569C662.903 515.757 666.269 490.649 642.824 468.906C619.379 447.164 525.875 429.065 525.875 429.065C520.965 445.58 544.687 499.678 610.468 520.153C610.468 520.153 598.27 561.301 602.864 578.053C607.458 594.806 628.765 579.598 650.111 597.855C671.457 616.112 691.22 649.062 772.05 655.161C852.881 661.26 901.672 617.657 918.583 593.261C935.493 568.865 933.632 539.678 962.622 538.173Z" fill="white"/>
<path d="M843.376 547.361C844.524 557.024 823.059 567.44 795.535 570.648C768.011 573.855 744.724 568.628 743.575 558.767C742.427 548.905 763.892 538.727 791.456 535.519C819.02 532.311 842.267 537.737 843.376 547.361Z" fill="#EF9867"/>
<path opacity="0.5" d="M843.376 547.361C844.524 557.024 823.059 567.44 795.535 570.648C768.011 573.855 744.724 568.628 743.575 558.767C742.427 548.905 763.892 538.727 791.456 535.519C819.02 532.311 842.267 537.737 843.376 547.361Z" fill="white"/>
</g>
<path d="M610.429 519.876C610.429 519.876 598.231 561.024 602.825 577.776C607.419 594.529 628.726 579.321 650.072 597.578C671.418 615.835 691.18 648.785 772.011 654.884C852.841 660.983 901.632 617.38 918.543 592.984C935.454 568.588 933.79 539.638 962.74 538.134C991.691 536.629 967.334 480.194 958.186 471.045C958.186 471.045 1014.58 387.205 1014.58 365.859C1014.58 344.513 961.236 349.067 895.771 368.908C895.771 368.908 846.98 342.968 758.545 358.215C670.111 373.463 644.21 399.403 644.21 399.403C644.21 399.403 534.43 413.106 526.826 426.808C519.222 440.511 541.836 498.53 610.429 519.876Z" stroke="#263238" stroke-width="1.1133" stroke-miterlimit="10"/>
<path d="M925.751 397.898C886.147 424.511 900.127 451.125 917.83 465.897C928.642 474.926 946.067 473.817 957.988 471.283C957.988 471.283 1014.38 387.442 1014.38 366.096C1014.42 365.898 965.156 371.086 925.751 397.898Z" fill="#EF9867" stroke="#263238" stroke-width="1.1133" stroke-miterlimit="10"/>
<path d="M525.835 428.789C520.925 445.304 544.647 499.402 610.428 519.877C610.428 519.877 660.645 514.966 643.893 474.57C628.25 436.868 549.162 427.482 525.835 428.789Z" fill="#EF9867" stroke="#263238" stroke-width="1.1133" stroke-miterlimit="10"/>
<path d="M758.308 358.295C753.12 359.206 748.13 360.156 743.338 361.107C751.259 401.106 764.288 467.719 775.931 467.719C787.575 467.719 796.486 394.691 800.288 353.78C786.211 354.373 772.188 355.881 758.308 358.295Z" fill="#EF9867" stroke="#263238" stroke-width="1.1133" stroke-miterlimit="10"/>
<path d="M712.883 455.838C725.001 448.709 723.179 395.126 721.239 366.057C708.731 369.164 696.419 373.012 684.368 377.581C688.764 404.789 699.932 463.441 712.883 455.838Z" fill="#EF9867" stroke="#263238" stroke-width="1.1133" stroke-miterlimit="10"/>
<path d="M830.148 431.205C842.544 435.561 849.514 391.007 853.435 356.711C840.916 354.67 828.258 353.598 815.574 353.503C815.178 381.661 816.723 426.492 830.148 431.205Z" fill="#EF9867" stroke="#263238" stroke-width="1.1133" stroke-miterlimit="10"/>
<path d="M813.554 585.42C801.989 582.379 789.698 583.896 779.218 589.657C778.759 589.923 778.368 590.292 778.076 590.735C777.785 591.179 777.601 591.684 777.54 592.211C777.478 592.738 777.54 593.272 777.722 593.771C777.903 594.269 778.199 594.719 778.585 595.083L799.614 614.885C800.008 615.254 800.485 615.524 801.004 615.673C801.524 615.822 802.071 615.845 802.601 615.741C803.131 615.636 803.629 615.407 804.053 615.072C804.477 614.738 804.815 614.307 805.04 613.815L815.812 590.053C816.004 589.604 816.098 589.118 816.086 588.629C816.074 588.14 815.957 587.66 815.743 587.22C815.529 586.781 815.223 586.392 814.845 586.082C814.467 585.771 814.027 585.545 813.554 585.42Z" fill="#EF9867" stroke="#263238" stroke-width="1.1133" stroke-linecap="round" stroke-linejoin="round"/>
<path d="M763.575 552.351C766.466 559.995 765.317 567.519 761.001 569.143C756.684 570.767 750.823 565.935 747.892 558.331C744.961 550.728 746.149 543.163 750.466 541.54C754.783 539.916 760.644 544.748 763.575 552.351Z" fill="#263238"/>
<path d="M820.92 546.925C819.415 554.846 821.871 562.173 826.425 563.004C830.979 563.836 835.89 558.054 837.395 550.014C838.9 541.975 836.445 534.807 831.89 533.935C827.336 533.064 822.425 538.925 820.92 546.925Z" fill="#263238"/>
<path d="M805.04 613.776C805.04 613.776 776.921 651.953 751.298 613.538" stroke="#263238" stroke-width="1.1133" stroke-linecap="round" stroke-linejoin="round"/>
<path d="M799.613 614.845C799.613 614.845 818.306 634.211 838.029 623.36C857.751 612.509 845.949 595.638 845.949 595.638" stroke="#263238" stroke-width="1.1133" stroke-linecap="round" stroke-linejoin="round"/>
<path d="M713.872 521.856C713.872 521.856 720.763 497.223 753.277 503.124" stroke="#263238" stroke-width="3.33991" stroke-linecap="round" stroke-linejoin="round"/>
<path d="M812.405 499.203C812.405 499.203 837.039 484.431 859.692 508.075" stroke="#263238" stroke-width="3.33991" stroke-linecap="round" stroke-linejoin="round"/>
<path d="M695.14 587.915L718.783 593.816" stroke="#263238" stroke-width="1.1133" stroke-miterlimit="10" stroke-linecap="round"/>
<path d="M715.813 602.688L695.14 606.608" stroke="#263238" stroke-width="1.1133" stroke-miterlimit="10" stroke-linecap="round"/>
<path d="M719.773 613.538L705.001 621.419" stroke="#263238" stroke-width="1.1133" stroke-miterlimit="10" stroke-linecap="round"/>
<path d="M869.554 577.064L890.266 572.113" stroke="#263238" stroke-width="1.1133" stroke-miterlimit="10" stroke-linecap="round"/>
<path d="M873.514 586.925H887.296" stroke="#263238" stroke-width="1.1133" stroke-miterlimit="10" stroke-linecap="round"/>
<path d="M876.444 596.786L895.177 601.697" stroke="#263238" stroke-width="1.1133" stroke-miterlimit="10" stroke-linecap="round"/>
</g>
<defs>
<filter id="filter0_d_710_993" x="1054.94" y="733.894" width="650.961" height="584.746" filterUnits="userSpaceOnUse" color-interpolation-filters="sRGB">
<feFlood flood-opacity="0" result="BackgroundImageFix"/>
<feColorMatrix in="SourceAlpha" type="matrix" values="0 0 0 0 0 0 0 0 0 0 0 0 0 0 0 0 0 0 127 0" result="hardAlpha"/>
<feOffset dy="4"/>
<feGaussianBlur stdDeviation="2"/>
<feComposite in2="hardAlpha" operator="out"/>
<feColorMatrix type="matrix" values="0 0 0 0 0 0 0 0 0 0 0 0 0 0 0 0 0 0 0.25 0"/>
<feBlend mode="normal" in2="BackgroundImageFix" result="effect1_dropShadow_710_993"/>
<feBlend mode="normal" in="SourceGraphic" in2="effect1_dropShadow_710_993" result="shape"/>
</filter>
<filter id="filter1_d_710_993" x="51.8682" y="114.783" width="1494.77" height="1028.52" filterUnits="userSpaceOnUse" color-interpolation-filters="sRGB">
<feFlood flood-opacity="0" result="BackgroundImageFix"/>
<feColorMatrix in="SourceAlpha" type="matrix" values="0 0 0 0 0 0 0 0 0 0 0 0 0 0 0 0 0 0 127 0" result="hardAlpha"/>
<feOffset dy="4"/>
<feGaussianBlur stdDeviation="7.5"/>
<feComposite in2="hardAlpha" operator="out"/>
<feColorMatrix type="matrix" values="0 0 0 0 0 0 0 0 0 0 0 0 0 0 0 0 0 0 0.25 0"/>
<feBlend mode="normal" in2="BackgroundImageFix" result="effect1_dropShadow_710_993"/>
<feBlend mode="normal" in="SourceGraphic" in2="effect1_dropShadow_710_993" result="shape"/>
</filter>
</defs>
</svg>
