<svg xmlns="http://www.w3.org/2000/svg" viewBox="0 0 500 500"><g id="freepik--background-complete--inject-15"><rect x="67.77" y="388.54" width="35.16" height="11.19" style="fill:#ebebeb"></rect><rect x="271.45" y="209.78" width="35.16" height="11.19" style="fill:#ebebeb"></rect><path d="M83.32,413.84c-5.86.1-20.63.35-26.29.41l-8.87,0h-.45v-.46l0-11.19v-.5h.5l17.58.07c4.37,0,13.2.13,17.58.19h.24v.24l-.23,11.19Zm0,0-.24-11.19.24.24c-4.39.06-13.2.15-17.58.19l-17.58.07.5-.5,0,11.19-.46-.46,8.71.05c5.57.06,20.68.31,26.45.41Z" style="fill:#ebebeb"></path><path d="M307.65,342.39c-5.85.1-20.62.35-26.29.42l-8.86,0H272v-.46l0-11.19v-.5h.51l17.57.07c4.38,0,13.21.13,17.58.2h.25v.23l-.24,11.19Zm0,0-.23-11.19.23.24c-4.38.06-13.19.16-17.58.19l-17.57.07.5-.5L273,342.39l-.45-.45,8.71,0c5.57.06,20.68.32,26.44.41Z" style="fill:#ebebeb"></path><path d="M288,356.5c-5.86.1-20.63.35-26.29.42l-8.87,0h-.45v-.46l-.05-11.19v-.5h.5l17.58.07c4.38,0,13.2.13,17.58.2h.24v.23L288,356.5Zm0,0-.24-11.19.24.24c-4.38.06-13.19.16-17.58.19l-17.58.07.5-.5,0,11.19-.46-.45,8.71,0c5.58.06,20.69.31,26.45.41Z" style="fill:#ebebeb"></path><rect x="233.35" y="331.2" width="35.16" height="11.19" style="fill:#ebebeb"></rect><rect x="416.68" y="402.65" width="35.16" height="11.19" style="fill:#ebebeb"></rect><rect x="397.07" y="44.93" width="35.16" height="11.19" style="fill:#ebebeb"></rect><path d="M451.84,70.23c-5.86.1-20.63.35-26.29.42l-8.87,0h-.45v-.46L416.18,59v-.5h.5l17.58.07c4.38,0,13.2.13,17.58.2h.24V59l-.24,11.19Zm0,0L451.6,59l.24.24c-4.39.06-13.19.16-17.58.19l-17.58.07.5-.5,0,11.19-.46-.45,8.71,0c5.58.06,20.69.32,26.45.41Z" style="fill:#ebebeb"></path><path d="M102.93,56.12c-5.86.1-20.63.35-26.29.42l-8.87,0h-.45v-.46l0-11.19v-.5h.5l17.58.07c4.38,0,13.2.13,17.58.2h.24v.23l-.24,11.19Zm0,0-.24-11.19.24.24c-4.39.06-13.2.16-17.58.19l-17.58.07.5-.5,0,11.19-.46-.45,8.71,0c5.57.06,20.68.32,26.45.41Z" style="fill:#ebebeb"></path><path d="M56.48,44.33V222H172V44.33Zm111.21,173.4H60.74V48.6h107Z" style="fill:#ebebeb"></path><rect x="60.74" y="48.6" width="106.95" height="169.14" style="fill:#fff"></rect><rect x="60.74" y="131.03" width="106.95" height="4.26" transform="translate(228.43 266.32) rotate(180)" style="fill:#ebebeb"></rect><rect x="48.63" y="221.99" width="131.16" height="12.23" transform="translate(228.43 456.21) rotate(180)" style="fill:#dbdbdb"></rect><path d="M60.74,48.59h107V158H60.74Zm103,3.95H64.68V154.07h99.07Z" style="fill:#dbdbdb"></path><rect x="131.43" y="48.59" width="2.13" height="105.48" style="fill:#dbdbdb"></rect><rect x="94.87" y="48.59" width="2.13" height="105.48" style="fill:#dbdbdb"></rect><path d="M248.39,44.33V222H363.87V44.33Zm111.22,173.4h-107V48.6h107Z" style="fill:#ebebeb"></path><rect x="252.66" y="48.6" width="106.95" height="169.14" style="fill:#fff"></rect><rect x="252.65" y="131.03" width="106.95" height="4.26" transform="translate(612.26 266.32) rotate(180)" style="fill:#ebebeb"></rect><rect x="240.55" y="221.99" width="131.16" height="12.23" transform="translate(612.26 456.21) rotate(180)" style="fill:#dbdbdb"></rect><path d="M252.65,48.59h107V158h-107Zm103,3.95H256.6V154.07h99.06Z" style="fill:#dbdbdb"></path><rect x="323.34" y="48.59" width="2.13" height="105.48" style="fill:#dbdbdb"></rect><rect x="286.79" y="48.59" width="2.13" height="105.48" style="fill:#dbdbdb"></rect><polygon points="121.31 377.02 85.2 377.02 64.54 274.01 97.6 258.82 121.31 377.02" style="fill:#dbdbdb"></polygon><polygon points="224.63 377.02 121.31 377.02 97.6 258.82 200.93 258.82 224.63 377.02" style="fill:#ebebeb"></polygon><rect x="47.44" y="321.75" width="55.33" height="113.52" style="fill:#dbdbdb"></rect><polygon points="251.19 435.28 236.07 435.28 213.55 321.75 251.19 321.75 251.19 435.28" style="fill:#dbdbdb"></polygon><rect x="102.77" y="321.75" width="30.4" height="113.52" style="fill:#ebebeb"></rect><rect x="251.19" y="321.75" width="30.4" height="113.52" style="fill:#ebebeb"></rect><rect x="133.17" y="377.02" width="118.02" height="58.26" style="fill:#ebebeb"></rect><rect x="133.17" y="351.84" width="118.02" height="25.42" style="fill:#ebebeb"></rect><path d="M110.22,321.75l11.47-.2,11.48-.14h.35v.35l.13,13.29,0,13.28c0,8.86.07,17.72,0,26.57s0,17.72-.15,26.58-.2,17.71-.39,26.57q-.28-13.29-.38-26.57c-.11-8.86-.13-17.72-.16-26.58s0-17.71,0-26.57l0-13.28.13-13.29.35.35L121.69,322Z" style="fill:#dbdbdb"></path><path d="M251.19,321.75c.23,8.89.34,17.78.44,26.67l.13,26.67-.13,26.67-.16,13.34-.28,13.33-.28-13.33-.16-13.34-.14-26.67.14-26.67C250.84,339.53,251,330.64,251.19,321.75Z" style="fill:#dbdbdb"></path><path d="M251.19,377c-9.84.24-19.67.35-29.51.44l-29.5.13-29.51-.13-14.75-.16L133.17,377l14.75-.28,14.75-.16,29.51-.13,29.5.13C231.52,376.67,241.35,376.78,251.19,377Z" style="fill:#dbdbdb"></path><path d="M251.19,351.84c-9.84.23-19.67.34-29.51.43l-29.5.14-29.51-.13-14.75-.16-14.75-.28,14.75-.29,14.75-.15,29.51-.14,29.5.14C231.52,351.49,241.35,351.6,251.19,351.84Z" style="fill:#dbdbdb"></path><polygon points="68.47 435.28 67.72 444.47 65.97 465.72 57.96 465.72 56.22 444.47 55.47 435.28 68.47 435.28" style="fill:#c7c7c7"></polygon><polygon points="55.47 435.28 68.47 435.28 67.72 444.47 56.22 444.47 55.47 435.28" style="fill:#a6a6a6"></polygon><polygon points="124.47 435.28 123.72 444.47 121.98 465.72 113.97 465.72 112.22 444.47 111.47 435.28 124.47 435.28" style="fill:#c7c7c7"></polygon><polygon points="111.47 435.28 124.47 435.28 123.72 444.47 112.22 444.47 111.47 435.28" style="fill:#a6a6a6"></polygon><polygon points="217.36 435.28 216.61 444.47 214.87 465.72 206.85 465.72 205.11 444.47 204.36 435.28 217.36 435.28" style="fill:#c7c7c7"></polygon><polygon points="204.36 435.28 217.36 435.28 216.61 444.47 205.11 444.47 204.36 435.28" style="fill:#a6a6a6"></polygon><polygon points="273.38 435.28 272.63 444.47 270.88 465.72 262.87 465.72 261.12 444.47 260.37 435.28 273.38 435.28" style="fill:#c7c7c7"></polygon><polygon points="273.38 435.28 272.63 444.47 261.12 444.47 260.37 435.28 273.38 435.28" style="fill:#a6a6a6"></polygon></g><g id="freepik--Plant--inject-15"><path d="M109.16,398.66s18.27-4.14,28.29-13.37,15.61-25.76,15.61-25.76a157.11,157.11,0,0,0-20.49,5.38c-1.64,1.75-4.75,5.35-6.2,8.77a42,42,0,0,1-.05-6.27,28,28,0,0,0-6.51,3.95C111.51,378.63,109.16,398.66,109.16,398.66Z" style="fill:#FFC727"></path><path d="M141.65,367.56c2.49-1.72,5-3.38,7.51-5.12a.15.15,0,0,0-.15-.25c-4.71,2.82-9.35,5.82-13.84,9-1.57,1.1-3.11,2.24-4.63,3.4l.32-.54c.55-.92,1.13-1.82,1.7-2.72a40.79,40.79,0,0,1,3.88-5.17.06.06,0,0,0-.09-.09c-1.42,1.64-2.84,3.27-4.14,5-.62.82-1.19,1.68-1.73,2.56-.29.45-.56.91-.83,1.38-.08.15-.18.31-.27.47-2.36,1.85-4.66,3.79-6.86,5.83q-2,1.9-3.92,3.93c.7-2.21,1.32-4.45,2.14-6.63,0-.07-.09-.1-.12,0-.8,2.28-1.67,4.58-2.28,6.93-1.4,1.51-2.74,3.08-4,4.71l.06-.3q.31-1.29.66-2.58.66-2.47,1.48-4.91a28.7,28.7,0,0,1,4.91-9.27c0-.06,0-.15-.09-.09a35.57,35.57,0,0,0-7,14.61c-.2.78-.38,1.56-.56,2.35-.1.41-.21.83-.28,1.26-.55.75-1.09,1.5-1.61,2.27a79,79,0,0,0-7.73,15.16A174.73,174.73,0,0,0,98.33,427c0,.12.15.16.19.05,3.57-10.69,7.22-21.54,13.34-31.1,1.29-2,2.69-4,4.17-5.84a34.13,34.13,0,0,0,8.89-1.77,39,39,0,0,0,8.91-4.3,56.1,56.1,0,0,0,4.56-3.44.06.06,0,1,0-.08-.1,36.45,36.45,0,0,1-8.37,5.07,46.06,46.06,0,0,1-9.22,3.09c-1.35.29-2.72.51-4.09.7a76.2,76.2,0,0,1,5.39-6c.62-.62,1.26-1.21,1.89-1.8a41.9,41.9,0,0,1,6.76-3.87c3-1.45,5.94-3,8.9-4.49,1.67-.85,3.33-1.72,5-2.54.07,0,0-.14-.07-.11-3,1.45-6.05,2.81-9.08,4.2-2.86,1.3-5.74,2.61-8.48,4.15l-.35.21c2.48-2.16,5-4.21,7.66-6.19C136.7,371.08,139.15,369.29,141.65,367.56Z" style="fill:#263238"></path><path d="M140.61,377c-1.48.66-3,1.23-4.47,1.92s-2.94,1.53-4.38,2.38a.06.06,0,0,0,.06.1c1.46-.7,2.93-1.35,4.37-2.08s2.94-1.53,4.46-2.2C140.72,377.07,140.68,377,140.61,377Z" style="fill:#263238"></path><path d="M49.8,307.14a26.13,26.13,0,0,1,5.46,15.18c.06,1.64-.2,3.92-.39,6.61A43.17,43.17,0,0,1,66.8,339.12a21.58,21.58,0,0,0-12-2.89,35.3,35.3,0,0,0,.69,5.46,20.58,20.58,0,0,1,7.76,1.54,17.34,17.34,0,0,0-7,1.39c3.25,10.36,12.94,21,39.67,25.53a56.12,56.12,0,0,0-4.73-37.63C83.14,316.76,49.8,307.14,49.8,307.14Z" style="fill:#FFC727"></path><path d="M105.14,413.92q-.7-6.65-1.73-13.24A264.75,264.75,0,0,0,98,374.5a104.21,104.21,0,0,0-3.86-11.92,17.12,17.12,0,0,0,.1-2.14c0-.86,0-1.71,0-2.57,0-1.71-.1-3.42-.25-5.13a61.59,61.59,0,0,0-1.64-10c-.49-1.91-1.06-3.78-1.62-5.67,0-.08-.14,0-.12,0a74,74,0,0,1,2,10,96.49,96.49,0,0,1,.9,10c0,.92,0,1.83,0,2.75,0,.39,0,.79,0,1.18A87.79,87.79,0,0,0,89,351.74a112.91,112.91,0,0,0-9.15-13.69,5.85,5.85,0,0,0-.22-1.5l-.39-1.79c-.27-1.22-.58-2.43-.91-3.64-.67-2.42-1.54-4.76-2.3-7.15a.06.06,0,1,0-.12,0c.71,2.37,1.18,4.82,1.72,7.23.27,1.19.53,2.39.79,3.58.13.6.26,1.2.38,1.79l0,.14c-1.09-1.37-2.19-2.71-3.32-4-5.1-6-10.7-11.51-16.33-17l-2.11-2c-.06-.06-.14,0-.08.09,5.38,5.61,10.68,11.3,15.7,17.24,1.2,1.42,2.37,2.85,3.53,4.29l-1.83-1.2c-1.55-1-3.13-2-4.75-2.92s-3.26-1.8-4.93-2.62-3.54-1.55-5.2-2.51c-.07,0-.13.08-.06.11a39.3,39.3,0,0,1,4.88,2.7c1.63,1,3.25,1.94,4.85,3s3.15,2,4.71,3c1.3.84,2.58,1.77,3.93,2.55a126.19,126.19,0,0,1,8.57,12.46,89.74,89.74,0,0,1,4.42,8.4l-1-.42-2.45-1.08c-1.57-.7-3.15-1.38-4.73-2.07-3-1.3-6-2.5-9-3.93a40.18,40.18,0,0,1-4.8-2.67c-.06,0-.12.07-.06.11,5.49,3.78,11.63,6.44,17.7,9.13l2.63,1.16c.72.32,1.45.68,2.19,1a94,94,0,0,1,4.52,12.39,251.55,251.55,0,0,1,5.82,25.86c1.53,8.74,2.57,17.53,3.37,26.36.1,1.1.2,2.2.33,3.3a.35.35,0,0,0,.69,0C106.06,422.86,105.6,418.37,105.14,413.92Z" style="fill:#263238"></path><path d="M88.87,340.08c-.49-2.72-1.21-5.38-2-8,0-.07-.13,0-.11,0,.67,2.61,1.16,5.27,1.65,7.93s.94,5.41,1.32,8.13c0,.05.08.05.07,0A70.36,70.36,0,0,0,88.87,340.08Z" style="fill:#263238"></path><path d="M77.35,347.45a48.76,48.76,0,0,0-5.82-3.27c-1-.5-2-1-2.94-1.46s-2.08-.91-3.09-1.41c-.07,0-.13.07-.06.11,1,.49,1.91,1.08,2.87,1.6l3,1.63a66.25,66.25,0,0,0,5.92,3.06A.15.15,0,0,0,77.35,347.45Z" style="fill:#263238"></path><path d="M109.49,367s16.91-4,24.68-15.39c7.41-10.83,9.81-29.3,10-30.92-.31,1.49-3.8,17.63-15.31,25.15C120.05,351.61,111.53,356.34,109.49,367Z" style="fill:#263238;opacity:0.1"></path><path d="M125.1,337.79a21.55,21.55,0,0,0-6.23,10.27s0,.05,0,0a25.3,25.3,0,0,1,6.26-10.2C125.24,337.83,125.16,337.73,125.1,337.79Z" style="fill:#263238"></path><path d="M109.49,367.58s16.91-4,24.68-15.39c7.41-10.83,9.81-29.29,10-30.92,0-.07,0-.11,0-.11s-8.11,11.53-16.64,14.47S107.05,348.74,109.49,367.58Z" style="fill:#FFC727"></path><path d="M141.19,326.94a68.24,68.24,0,0,1-5.23,8.94,35.73,35.73,0,0,1-7,7.16c-2.3,1.82-4.73,3.48-7,5.27a.41.41,0,0,1,.05-.09q.66-1,1.38-1.89c1-1.24,2-2.41,3.09-3.56,2.11-2.28,4.25-4.52,6.13-7a25.94,25.94,0,0,0,2.72-4.37c0-.07-.09-.11-.12,0-2.74,5.71-8.22,9.37-12.13,14.2a23.26,23.26,0,0,0-1.56,2.13,9.11,9.11,0,0,0-1,1.72,35.76,35.76,0,0,0-5.77,5.83,25.79,25.79,0,0,1,.68-3.28,16.27,16.27,0,0,1,1.8-4.28c0-.07-.07-.14-.11-.07a20.25,20.25,0,0,0-2,4.25,15.33,15.33,0,0,0-.62,3.66h0a31.57,31.57,0,0,0-2.29,3.55l.21-1.08c.34-1.69.71-3.37,1.15-5a30,30,0,0,1,4.06-9.53c0-.06-.06-.13-.1-.07a36.5,36.5,0,0,0-4.51,9.32c-.54,1.66-1,3.35-1.35,5.05-.18.83-.35,1.67-.51,2.51-.08.43-.18.87-.25,1.32a61.45,61.45,0,0,0-3.9,11.46,168.27,168.27,0,0,0-3.6,21.38,177.49,177.49,0,0,0-1.17,22.7c0,.95.07,1.9.13,2.85,0,.25.38.28.39,0,.16-3.75.26-7.5.48-11.25s.55-7.5.95-11.24a199.77,199.77,0,0,1,3.53-21.86c1.37-6.18,3.15-12.4,6.52-17.82a33.89,33.89,0,0,1,6.1-7.25c2.38-2.13,5-4,7.47-6A41,41,0,0,0,134.7,338a53.12,53.12,0,0,0,5.38-8.72l1.21-2.3C141.33,326.94,141.23,326.87,141.19,326.94Z" style="fill:#263238"></path><path d="M138.27,329.42A55.79,55.79,0,0,1,134.5,336c0,.05.05.1.08.05a45.58,45.58,0,0,0,3.81-6.6C138.42,329.39,138.31,329.35,138.27,329.42Z" style="fill:#263238"></path><path d="M47.44,360.1s-.27,24,14.1,31,22.07,1.15,31.84,3.48h0C93,394,86,384,74.93,381.19,63.53,378.35,50.9,370.11,47.44,360.1Z" style="fill:#FFC727"></path><path d="M47.44,360.1s-.27,24,14.1,31,22.07,1.15,31.84,3.48h0A54.08,54.08,0,0,0,77,389.72C68,388.63,50.66,382.72,47.44,360.1Z" style="opacity:0.2"></path><path d="M94.32,394.4a24.35,24.35,0,0,0-5.71-3.87l-.94-.4c-.15-.19-.31-.37-.48-.55a16.46,16.46,0,0,0-1.36-1.28,19.14,19.14,0,0,0-2.89-2.09c-2.38-1.4-5-2.38-7.42-3.68-.07,0-.13.08-.06.11,1.2.63,2.37,1.32,3.54,2s2.3,1.3,3.41,2a24.74,24.74,0,0,1,2.84,2.13c.26.23.5.47.74.71a38.49,38.49,0,0,0-4.85-1.29c-2.63-.53-5.29-.91-7.92-1.47a35.69,35.69,0,0,1-3.81-1c-1.19-1-2.38-1.91-3.51-2.95a28.5,28.5,0,0,1-3.72-4.12c0-.06-.15,0-.1.07A44.18,44.18,0,0,0,68,385.2c-.62-.24-1.23-.49-1.84-.77a29.64,29.64,0,0,1-12.24-10.18c0-.07-.15,0-.11.06a33.53,33.53,0,0,0,9.91,9.51,29.07,29.07,0,0,0,6.25,3,57.84,57.84,0,0,0,7.78,1.84,55.17,55.17,0,0,1,7.62,1.81,23.07,23.07,0,0,1,6.38,3.36,29.83,29.83,0,0,1,8.61,10.68A53.48,53.48,0,0,1,105.07,422c0,.26.43.26.41,0C104.81,411.93,102.11,401.42,94.32,394.4Z" style="fill:#263238"></path><path d="M77.65,386.57a8.2,8.2,0,0,0-3-2.68A10.84,10.84,0,0,1,71.18,381c-.05-.06-.15,0-.1.07a11.77,11.77,0,0,0,3.1,2.78,10.73,10.73,0,0,1,3.38,2.79C77.6,386.68,77.69,386.63,77.65,386.57Z" style="fill:#263238"></path><polygon points="85.27 412.14 85.92 425.35 87.93 465.72 118.07 465.72 120.07 425.35 120.73 412.14 85.27 412.14" style="fill:#455a64"></polygon><polygon points="85.27 412.14 85.92 425.35 120.07 425.35 120.73 412.14 85.27 412.14" style="fill:#263238"></polygon><rect x="83.16" y="406.62" width="39.68" height="12.61" transform="translate(206 825.85) rotate(180)" style="fill:#455a64"></rect></g><g id="freepik--Floor--inject-15"><path d="M47.44,465.72c129.77-.61,275.35-.61,405.12,0-129.77.62-275.35.62-405.12,0Z" style="fill:#263238"></path></g><g id="freepik--Window--inject-15"><rect x="77.14" y="68.26" width="345.72" height="238.11" style="fill:#fff"></rect><path d="M422.86,306.37c-.06.06-345.8.1-345.87.15s0-238.21-.1-238.26V68h.25s345.77.17,345.82.14-.16,238.14-.1,238.22Zm0,0c0,.05-.25-238.56,0-238l-345.72.15.25-.25c0-.08.11,238.78-.25,238l345.72.15Z" style="fill:#263238"></path><rect x="77.14" y="68.26" width="345.72" height="9.16" style="fill:#263238"></rect><path d="M86,72.84A1.85,1.85,0,1,1,84.13,71,1.84,1.84,0,0,1,86,72.84Z" style="fill:#FFC727"></path><path d="M93.51,72.84A1.85,1.85,0,1,1,91.67,71,1.84,1.84,0,0,1,93.51,72.84Z" style="fill:#fff"></path><path d="M101.05,72.84A1.85,1.85,0,1,1,99.2,71,1.84,1.84,0,0,1,101.05,72.84Z" style="fill:#455a64"></path><rect x="112.94" y="97.98" width="7.45" height="1.2" style="fill:#ebebeb"></rect><rect x="112.94" y="103.36" width="7.45" height="1.2" style="fill:#ebebeb"></rect><rect x="112.94" y="100.7" width="7.45" height="1.2" style="fill:#ebebeb"></rect><rect x="139.13" y="99.94" width="39.63" height="2.65" style="fill:#ebebeb"></rect><rect x="193.48" y="99.94" width="39.63" height="2.65" style="fill:#FFC727"></rect><rect x="247.84" y="99.94" width="39.63" height="2.65" style="fill:#ebebeb"></rect><rect x="304.21" y="96.64" width="82.76" height="9.26" style="fill:#fff"></rect><path d="M387.06,106c-.25-.24-83.43.68-83.18,0l0-9.46v-.25l62.46.12,20.78.09s-.05,9.46,0,9.5Zm0,0s-.09-9.64,0-9.42c-10.35.06-31.13.13-41.48.14l-41.47.07.25-.25,0,9.46c-1.45-.66,83,.21,82.72,0Z" style="fill:#c7c7c7"></path><path d="M385.27,103.87l-.86.65-1.58-2.1-.58-.76a1.57,1.57,0,0,0,.33-.19,1.42,1.42,0,0,0,.44-.57l.62.81Z" style="fill:#dbdbdb"></path><path d="M383.58,98.94a2.33,2.33,0,1,0-.75,3.48,2.2,2.2,0,0,0,.32-.21,2.31,2.31,0,0,0,.43-3.27Zm-1,2.53a1.57,1.57,0,0,1-.33.19,1.42,1.42,0,1,1,.33-.19Z" style="fill:#dbdbdb"></path><rect x="306.14" y="98.46" width="0.5" height="5.62" style="fill:#c7c7c7"></rect><rect x="416.17" y="77.42" width="6.69" height="228.95" style="fill:#dbdbdb"></rect><path d="M419.52,157.18h0a1.72,1.72,0,0,1-1.73-1.72V80.75A1.72,1.72,0,0,1,419.52,79h0a1.72,1.72,0,0,1,1.72,1.73v74.71A1.72,1.72,0,0,1,419.52,157.18Z" style="fill:#a6a6a6"></path><rect x="319.93" y="121.45" width="67.13" height="21.26" style="fill:#FFC727"></rect><path d="M329,133h-1.44a.56.56,0,0,1-.56-.56.57.57,0,0,1,.56-.56H329v-1.41a.58.58,0,1,1,1.16,0v1.41h1.44a.57.57,0,0,1,.56.56.55.55,0,0,1-.56.56h-1.44v1.41a.58.58,0,0,1-1.16,0Z" style="fill:#fff"></path><path d="M340.34,134h-2.47l-.5,1.32a.56.56,0,0,1-.52.35.6.6,0,0,1-.2,0,.57.57,0,0,1-.33-.73l2.24-6a.57.57,0,0,1,.54-.36.56.56,0,0,1,.54.36l2.25,6a.58.58,0,0,1-.34.73.57.57,0,0,1-.71-.32Zm-.42-1.12-.82-2.19-.82,2.19Z" style="fill:#fff"></path><path d="M347.51,135.09a.55.55,0,0,1-.55.55.56.56,0,0,1-.54-.43,2.48,2.48,0,0,1-1.38.43,2.54,2.54,0,0,1,0-5.08,2.34,2.34,0,0,1,1.36.43v-1.91a.56.56,0,0,1,.56-.55.55.55,0,0,1,.55.55v4h0ZM345,131.67a1.29,1.29,0,0,0-1,.42,1.46,1.46,0,0,0,0,2,1.32,1.32,0,0,0,1.91,0,1.49,1.49,0,0,0,0-2A1.29,1.29,0,0,0,345,131.67Z" style="fill:#fff"></path><path d="M354.22,135.09a.55.55,0,0,1-.55.55.54.54,0,0,1-.54-.43,2.52,2.52,0,1,1-1.38-4.65,2.36,2.36,0,0,1,1.36.43v-1.91a.56.56,0,0,1,1.11,0v4h0Zm-2.47-3.42a1.31,1.31,0,0,0-1,.42,1.46,1.46,0,0,0,0,2,1.34,1.34,0,0,0,1,.41,1.3,1.3,0,0,0,.95-.41,1.46,1.46,0,0,0,0-2A1.27,1.27,0,0,0,351.75,131.67Z" style="fill:#fff"></path><path d="M363.83,129.66h-1.62v5.42a.55.55,0,0,1-.56.56.55.55,0,0,1-.56-.56v-5.42h-1.6a.57.57,0,0,1-.56-.57.55.55,0,0,1,.56-.56h4.34a.55.55,0,0,1,.55.56A.57.57,0,0,1,363.83,129.66Z" style="fill:#fff"></path><path d="M368.87,133.11v2a.54.54,0,0,1-.54.54.54.54,0,0,1-.52-.43,2.36,2.36,0,0,1-1.36.43,2.32,2.32,0,0,1-1.72-.74,2.6,2.6,0,0,1-.69-1.79,2.56,2.56,0,0,1,.69-1.79,2.34,2.34,0,0,1,1.72-.76,2.31,2.31,0,0,1,1.36.45.53.53,0,0,1,1.06.1Zm-1.07,0a1.5,1.5,0,0,0-.4-1,1.24,1.24,0,0,0-.95-.42,1.2,1.2,0,0,0-.94.42,1.5,1.5,0,0,0-.39,1,1.56,1.56,0,0,0,.39,1,1.28,1.28,0,0,0,.94.39,1.32,1.32,0,0,0,.95-.39A1.57,1.57,0,0,0,367.8,133.11Z" style="fill:#fff"></path><path d="M370.62,134.19a.52.52,0,0,1,.76-.08,1.81,1.81,0,0,0,1.12.44,1.37,1.37,0,0,0,.69-.19.41.41,0,0,0,.18-.3.15.15,0,0,0,0-.1.3.3,0,0,0-.13-.13,2.39,2.39,0,0,0-.81-.28h0a3.55,3.55,0,0,1-.89-.27,1.7,1.7,0,0,1-.7-.58,1.28,1.28,0,0,1-.17-.64,1.41,1.41,0,0,1,.6-1.12,2.13,2.13,0,0,1,1.25-.38,2.61,2.61,0,0,1,1.52.56.55.55,0,0,1,.16.75.52.52,0,0,1-.75.14,1.74,1.74,0,0,0-.93-.37,1,1,0,0,0-.61.18c-.13.09-.17.18-.17.24a.08.08,0,0,0,0,.08.27.27,0,0,0,.11.1,2,2,0,0,0,.74.24h0a3.33,3.33,0,0,1,.94.3,1.56,1.56,0,0,1,.73.6,1.3,1.3,0,0,1,.19.67,1.5,1.5,0,0,1-.64,1.18,2.34,2.34,0,0,1-1.32.4,2.92,2.92,0,0,1-1.81-.7A.54.54,0,0,1,370.62,134.19Z" style="fill:#fff"></path><path d="M375.86,135.08v-6a.55.55,0,0,1,.56-.56.57.57,0,0,1,.57.56v3.51l2.08-2.08a.57.57,0,0,1,.79,0,.54.54,0,0,1,0,.79l-1.52,1.53,1.56,1.88a.55.55,0,0,1-.08.79.53.53,0,0,1-.35.13.54.54,0,0,1-.43-.2l-1.49-1.81-.56.56v.89a.57.57,0,0,1-.57.56A.55.55,0,0,1,375.86,135.08Z" style="fill:#fff"></path><path d="M119.46,128.93h-1.95v6.54a.67.67,0,0,1-.67.68.68.68,0,0,1-.68-.68v-6.54h-1.93a.69.69,0,0,1-.68-.69.67.67,0,0,1,.68-.68h5.23a.67.67,0,0,1,.67.68A.69.69,0,0,1,119.46,128.93Z" style="fill:#263238"></path><path d="M125.37,134.12h-3l-.6,1.6a.69.69,0,0,1-.63.43.93.93,0,0,1-.24,0,.7.7,0,0,1-.4-.88l2.71-7.22a.67.67,0,0,1,.65-.43.67.67,0,0,1,.65.43l2.7,7.22a.68.68,0,0,1-.4.88.79.79,0,0,1-.23,0,.67.67,0,0,1-.63-.43Zm-.5-1.35-1-2.63-1,2.63Z" style="fill:#263238"></path><path d="M128.44,134a.64.64,0,0,1,.9-.08,4,4,0,0,0,2.34.94,2.64,2.64,0,0,0,1.53-.45,1.11,1.11,0,0,0,.53-.89.71.71,0,0,0-.11-.39,1.43,1.43,0,0,0-.37-.37,4.94,4.94,0,0,0-1.68-.57h0a6.79,6.79,0,0,1-1.58-.48,2.67,2.67,0,0,1-1.14-1,1.88,1.88,0,0,1-.28-1,2.27,2.27,0,0,1,1-1.79,3.6,3.6,0,0,1,2.12-.65,4.8,4.8,0,0,1,2.67,1,.63.63,0,0,1,.18.87.62.62,0,0,1-.87.18,3.63,3.63,0,0,0-2-.78,2.3,2.3,0,0,0-1.37.42,1,1,0,0,0-.47.77.59.59,0,0,0,.09.34,1.12,1.12,0,0,0,.33.32,4.2,4.2,0,0,0,1.53.54h0a6.83,6.83,0,0,1,1.69.52,2.82,2.82,0,0,1,1.22,1,2,2,0,0,1,.3,1,2.35,2.35,0,0,1-1.06,1.9,3.75,3.75,0,0,1-2.26.7,5.27,5.27,0,0,1-3.14-1.22A.66.66,0,0,1,128.44,134Z" style="fill:#263238"></path><path d="M136.89,135.47V128.3a.67.67,0,0,1,.67-.67.68.68,0,0,1,.68.67v3.52l4-4a.67.67,0,0,1,1,0,.71.71,0,0,1,0,1l-2.7,2.69,2.72,3.56a.66.66,0,0,1-.1,1,.62.62,0,0,1-.43.16.68.68,0,0,1-.5-.25l-2.65-3.47-1.27,1.3v1.74a.68.68,0,0,1-.68.68A.67.67,0,0,1,136.89,135.47Z" style="fill:#263238"></path><path d="M145.27,134a.63.63,0,0,1,.89-.08,4,4,0,0,0,2.34.94,2.6,2.6,0,0,0,1.53-.45,1.11,1.11,0,0,0,.53-.89.71.71,0,0,0-.11-.39,1.17,1.17,0,0,0-.37-.37,4.79,4.79,0,0,0-1.68-.57h0a6.5,6.5,0,0,1-1.58-.48,2.61,2.61,0,0,1-1.14-1,1.88,1.88,0,0,1-.28-1,2.25,2.25,0,0,1,1-1.79,3.58,3.58,0,0,1,2.12-.65,4.83,4.83,0,0,1,2.67,1,.63.63,0,0,1,.17.87.62.62,0,0,1-.87.18,3.57,3.57,0,0,0-2-.78,2.36,2.36,0,0,0-1.38.42,1,1,0,0,0-.46.77.53.53,0,0,0,.09.34,1.12,1.12,0,0,0,.33.32,4.2,4.2,0,0,0,1.53.54h0a6.7,6.7,0,0,1,1.69.52,2.8,2.8,0,0,1,1.23,1,2,2,0,0,1,.29,1,2.37,2.37,0,0,1-1,1.9,3.78,3.78,0,0,1-2.27.7,5.3,5.3,0,0,1-3.14-1.22A.66.66,0,0,1,145.27,134Z" style="fill:#263238"></path><path d="M387.06,179.62c-.23-.23-274.59.67-274.35,0l0-25.37V154c.25,0,274.16.19,274.39.25l0,25.37Zm0,0,0-25.37c.12.07-274.12.23-274.1.25l.25-.25,0,25.37c-1.59-.63,274.32.2,273.89,0Z" style="fill:#c7c7c7"></path><path d="M126.79,163.88c31.35-.49,66.53-.49,97.88,0-31.35.49-66.53.49-97.88,0Z" style="fill:#c7c7c7"></path><path d="M126.79,170c20.39-.5,42.83-.5,63.22,0-20.39.49-42.83.49-63.22,0Z" style="fill:#c7c7c7"></path><rect x="261.65" y="163.06" width="56.19" height="7.76" style="fill:#ebebeb"></rect><rect x="263.31" y="164.74" width="52.51" height="4.32" style="fill:#FFC727"></rect><rect x="345.77" y="161.48" width="28.95" height="10.82" style="fill:#FFC727"></rect><path d="M353.34,164.52a2.35,2.35,0,0,1,1.39.47.17.17,0,0,1,0,.22.15.15,0,0,1-.21,0,1.94,1.94,0,0,0-1.2-.42,1.88,1.88,0,1,0,0,3.75,1.83,1.83,0,0,0,1.19-.41.14.14,0,0,1,.21,0,.16.16,0,0,1,0,.22,2.28,2.28,0,0,1-1.39.46,2.18,2.18,0,1,1,0-4.35Z" style="fill:#fff"></path><path d="M358.17,167.05a1,1,0,0,0-1.91,0v1.68h0s0,0,0,0,0,0,0,0a.18.18,0,0,1-.09.08h0a.17.17,0,0,1-.12-.05l0,0a.11.11,0,0,1,0-.05v-4a.15.15,0,1,1,.3,0v1.58a1.24,1.24,0,0,1,.95-.44,1.2,1.2,0,0,1,1.26,1.18v1.68a.15.15,0,0,1-.16.14.14.14,0,0,1-.14-.14Z" style="fill:#fff"></path><path d="M359.5,167.38a1.46,1.46,0,0,1,2.91-.11h0v0a.15.15,0,0,1-.15.14H359.8a1.18,1.18,0,0,0,1.16,1.15,1.12,1.12,0,0,0,1-.55.16.16,0,0,1,.2-.05.17.17,0,0,1,.05.21,1.45,1.45,0,0,1-1.22.68A1.47,1.47,0,0,1,359.5,167.38Zm.32-.24h2.27a1.15,1.15,0,0,0-2.27,0Z" style="fill:#fff"></path><path d="M363.24,167.37a1.51,1.51,0,0,1,1.54-1.5,1.53,1.53,0,0,1,1,.33.14.14,0,0,1,0,.2.14.14,0,0,1-.2,0,1.27,1.27,0,0,0-.78-.27,1.21,1.21,0,1,0,0,2.42,1.33,1.33,0,0,0,.78-.26.14.14,0,0,1,.2,0,.15.15,0,0,1,0,.21,1.53,1.53,0,0,1-1,.32A1.51,1.51,0,0,1,363.24,167.37Z" style="fill:#fff"></path><path d="M367,164.73a.15.15,0,0,1,.15-.15.15.15,0,0,1,.15.15v2.89l1.78-1.77a.13.13,0,0,1,.21,0,.13.13,0,0,1,0,.2l-1.16,1.16,1.17,1.42a.15.15,0,0,1,0,.21.11.11,0,0,1-.09,0,.12.12,0,0,1-.12-.05l-1.15-1.39-.62.61v.69a.14.14,0,0,1-.15.14.15.15,0,0,1-.15-.14Z" style="fill:#fff"></path><path d="M387.06,215c-.23-.23-274.59.66-274.35,0l0-25.37v-.25c.25,0,274.16.19,274.39.25l0,25.37Zm0,0,0-25.37c.12.06-274.12.23-274.1.25l.25-.25,0,25.37c-1.59-.63,274.32.2,273.89,0Z" style="fill:#c7c7c7"></path><path d="M126.79,199.24c31.35-.49,66.53-.49,97.88,0-31.35.49-66.53.49-97.88,0Z" style="fill:#c7c7c7"></path><path d="M126.79,205.36c20.39-.49,42.83-.5,63.22,0-20.39.5-42.83.49-63.22,0Z" style="fill:#c7c7c7"></path><rect x="261.65" y="198.42" width="56.19" height="7.76" style="fill:#ebebeb"></rect><rect x="263.31" y="200.1" width="36.56" height="4.32" style="fill:#FFC727"></rect><rect x="345.77" y="196.85" width="28.95" height="10.82" style="fill:#FFC727"></rect><path d="M353.34,199.89a2.28,2.28,0,0,1,1.39.47.16.16,0,0,1,0,.21.14.14,0,0,1-.21,0,1.93,1.93,0,0,0-1.2-.41,1.88,1.88,0,1,0,0,3.75,1.84,1.84,0,0,0,1.19-.42.14.14,0,0,1,.21,0,.15.15,0,0,1,0,.21,2.28,2.28,0,0,1-1.39.47,2.18,2.18,0,1,1,0-4.35Z" style="fill:#fff"></path><path d="M358.17,202.42a1,1,0,0,0-1.91,0v1.71s0,0,0,0a.16.16,0,0,1-.09.07h0a.17.17,0,0,1-.12-.05s0,0,0-.05a.09.09,0,0,1,0,0v-4a.15.15,0,0,1,.3,0v1.58a1.28,1.28,0,0,1,.95-.44,1.2,1.2,0,0,1,1.26,1.19v1.67a.16.16,0,0,1-.16.15.15.15,0,0,1-.14-.15Z" style="fill:#fff"></path><path d="M359.5,202.74a1.46,1.46,0,0,1,2.91-.11h0v0a.14.14,0,0,1-.15.13H359.8a1.17,1.17,0,0,0,1.16,1.15,1.14,1.14,0,0,0,1-.54.14.14,0,0,1,.2-.05.17.17,0,0,1,.05.21,1.45,1.45,0,0,1-1.22.68A1.48,1.48,0,0,1,359.5,202.74Zm.32-.24h2.27a1.15,1.15,0,0,0-2.27,0Z" style="fill:#fff"></path><path d="M363.24,202.73a1.52,1.52,0,0,1,1.54-1.5,1.59,1.59,0,0,1,1,.33.15.15,0,0,1-.18.23,1.27,1.27,0,0,0-.78-.27,1.21,1.21,0,1,0,0,2.42,1.33,1.33,0,0,0,.78-.26.15.15,0,0,1,.2,0,.16.16,0,0,1,0,.22,1.6,1.6,0,0,1-1,.32A1.52,1.52,0,0,1,363.24,202.73Z" style="fill:#fff"></path><path d="M367,200.09a.15.15,0,0,1,.15-.14.14.14,0,0,1,.15.14V203l1.78-1.77a.15.15,0,0,1,.21.21l-1.16,1.16,1.17,1.41a.16.16,0,0,1,0,.22.16.16,0,0,1-.09,0,.13.13,0,0,1-.12-.06l-1.15-1.39-.62.61v.69a.15.15,0,0,1-.15.15.15.15,0,0,1-.15-.15Z" style="fill:#fff"></path><path d="M387.06,250.35c-.23-.23-274.59.67-274.35,0l0-25.37v-.25c.25,0,274.16.19,274.39.25l0,25.37Zm0,0L387,225c.12.06-274.12.23-274.1.25l.25-.25,0,25.37c-1.59-.63,274.32.2,273.89,0Z" style="fill:#c7c7c7"></path><path d="M126.79,234.61c31.35-.49,66.53-.5,97.88,0-31.35.49-66.53.48-97.88,0Z" style="fill:#c7c7c7"></path><path d="M126.79,240.72c20.39-.49,42.83-.49,63.22,0-20.39.5-42.83.5-63.22,0Z" style="fill:#c7c7c7"></path><rect x="261.65" y="233.78" width="56.19" height="7.76" style="fill:#ebebeb"></rect><rect x="263.31" y="235.46" width="7.01" height="4.32" style="fill:#FFC727"></rect><rect x="345.77" y="232.21" width="28.95" height="10.82" style="fill:#FFC727"></rect><path d="M353.34,235.25a2.28,2.28,0,0,1,1.39.47.17.17,0,0,1,0,.22.15.15,0,0,1-.21,0,1.94,1.94,0,0,0-1.2-.42,1.88,1.88,0,1,0,0,3.75,1.84,1.84,0,0,0,1.19-.42.15.15,0,0,1,.21,0,.16.16,0,0,1,0,.22,2.34,2.34,0,0,1-1.39.46,2.18,2.18,0,1,1,0-4.35Z" style="fill:#fff"></path><path d="M358.17,237.78a1,1,0,0,0-1.91,0v1.74a.13.13,0,0,1-.09.07h0a.17.17,0,0,1-.12,0s0,0,0-.05a.09.09,0,0,1,0-.05v-4a.15.15,0,0,1,.3,0V237a1.24,1.24,0,0,1,.95-.44,1.2,1.2,0,0,1,1.26,1.18v1.67a.16.16,0,0,1-.16.15.15.15,0,0,1-.14-.15Z" style="fill:#fff"></path><path d="M359.5,238.1a1.46,1.46,0,0,1,2.91-.11h0v0a.14.14,0,0,1-.15.13H359.8a1.18,1.18,0,0,0,1.16,1.16,1.12,1.12,0,0,0,1-.55.16.16,0,0,1,.2,0,.17.17,0,0,1,.05.21,1.45,1.45,0,0,1-1.22.68A1.48,1.48,0,0,1,359.5,238.1Zm.32-.23h2.27a1.15,1.15,0,0,0-2.27,0Z" style="fill:#fff"></path><path d="M363.24,238.09a1.51,1.51,0,0,1,1.54-1.49,1.53,1.53,0,0,1,1,.33.14.14,0,0,1,0,.2.15.15,0,0,1-.2,0,1.25,1.25,0,0,0-2,.93,1.23,1.23,0,0,0,1.25,1.22,1.27,1.27,0,0,0,.78-.27.14.14,0,0,1,.2,0,.15.15,0,0,1,0,.21,1.53,1.53,0,0,1-1,.32A1.52,1.52,0,0,1,363.24,238.09Z" style="fill:#fff"></path><path d="M367,235.46a.15.15,0,0,1,.15-.15.15.15,0,0,1,.15.15v2.88l1.78-1.77a.15.15,0,0,1,.21.21l-1.16,1.16,1.17,1.42a.15.15,0,0,1,0,.21.16.16,0,0,1-.09,0,.12.12,0,0,1-.12,0l-1.15-1.4-.62.62v.68a.15.15,0,0,1-.15.15.15.15,0,0,1-.15-.15Z" style="fill:#fff"></path><path d="M387.06,285.71c-.23-.23-274.59.67-274.35,0l0-25.36v-.25c.25,0,274.16.18,274.39.25l0,25.36Zm0,0,0-25.36c.12.06-274.12.22-274.1.24l.25-.24,0,25.36c-1.59-.63,274.32.2,273.89,0Z" style="fill:#c7c7c7"></path><path d="M126.79,270c31.35-.49,66.53-.49,97.88,0-31.35.49-66.53.49-97.88,0Z" style="fill:#c7c7c7"></path><path d="M126.79,276.09c20.39-.49,42.83-.5,63.22,0-20.39.49-42.83.49-63.22,0Z" style="fill:#c7c7c7"></path><rect x="261.65" y="269.15" width="56.19" height="7.76" style="fill:#ebebeb"></rect><rect x="263.31" y="270.83" width="10.71" height="4.32" style="fill:#FFC727"></rect><rect x="345.77" y="267.58" width="28.95" height="10.82" style="fill:#FFC727"></rect><path d="M353.34,270.61a2.35,2.35,0,0,1,1.39.47.17.17,0,0,1,0,.22.15.15,0,0,1-.21,0,1.94,1.94,0,0,0-1.2-.42,1.88,1.88,0,1,0,0,3.75,1.83,1.83,0,0,0,1.19-.41.14.14,0,0,1,.21,0,.16.16,0,0,1,0,.22,2.28,2.28,0,0,1-1.39.46,2.18,2.18,0,1,1,0-4.35Z" style="fill:#fff"></path><path d="M358.17,273.14a1,1,0,0,0-1.91,0v1.7s0,0,0,0,0,0,0,0a.14.14,0,0,1-.09.08h0a.16.16,0,0,1-.12,0l0-.05a.09.09,0,0,1,0-.05v-4a.15.15,0,0,1,.3,0v1.58a1.24,1.24,0,0,1,.95-.44,1.2,1.2,0,0,1,1.26,1.18v1.68a.15.15,0,0,1-.16.14.14.14,0,0,1-.14-.14Z" style="fill:#fff"></path><path d="M359.5,273.47a1.46,1.46,0,0,1,2.91-.11h0v0a.15.15,0,0,1-.15.14H359.8a1.18,1.18,0,0,0,1.16,1.15,1.12,1.12,0,0,0,1-.55.15.15,0,0,1,.2,0,.16.16,0,0,1,.05.2A1.45,1.45,0,0,1,361,275,1.47,1.47,0,0,1,359.5,273.47Zm.32-.24h2.27a1.15,1.15,0,0,0-2.27,0Z" style="fill:#fff"></path><path d="M363.24,273.46a1.51,1.51,0,0,1,1.54-1.5,1.53,1.53,0,0,1,1,.33.14.14,0,0,1,0,.2.14.14,0,0,1-.2,0,1.27,1.27,0,0,0-.78-.27,1.21,1.21,0,1,0,0,2.42,1.33,1.33,0,0,0,.78-.26.15.15,0,0,1,.2,0,.16.16,0,0,1,0,.22,1.59,1.59,0,0,1-1,.31A1.51,1.51,0,0,1,363.24,273.46Z" style="fill:#fff"></path><path d="M367,270.82a.15.15,0,0,1,.15-.15.15.15,0,0,1,.15.15v2.89l1.78-1.77a.15.15,0,1,1,.21.21l-1.16,1.15,1.17,1.42a.15.15,0,0,1,0,.21.11.11,0,0,1-.09,0,.12.12,0,0,1-.12,0l-1.15-1.39-.62.61v.69a.14.14,0,0,1-.15.14.15.15,0,0,1-.15-.14Z" style="fill:#fff"></path></g><g id="freepik--Character--inject-15"><path d="M451.29,395.8s-.11,45.75-.11,45.78c-.26,8.45-.63,15.85-1.19,19.67a.13.13,0,0,1,0,.06,6,6,0,0,1-.7,2.59l0,.05c-2.57,1.63-70.16,1.51-72.52.72s-.27-7.58,2.36-9.67,28.54-13.62,28.54-13.62l.52-45.71Z" style="fill:#ad6359"></path><path d="M451.51,432.51s-.33,9-.33,9.07c-.26,8.45-.63,15.85-1.19,19.67a.13.13,0,0,1,0,.06,11.78,11.78,0,0,1-.7,2.59l0,.05c-2.57,1.63-70.16,1.51-72.52.72s-.27-7.58,2.36-9.67,28.54-13.62,28.54-13.62l.2-9.2Z" style="fill:#fff"></path><path d="M403.47,441.29c4.52-.61,10,.34,13.22,3.7.13.13-.06.31-.2.26a62.93,62.93,0,0,0-13-3.39A.29.29,0,0,1,403.47,441.29Z" style="fill:#263238"></path><path d="M400.14,443.08c4.52-.61,10,.34,13.23,3.7.12.13-.06.31-.21.26a62.93,62.93,0,0,0-13-3.39A.29.29,0,0,1,400.14,443.08Z" style="fill:#263238"></path><path d="M396.81,444.87c4.52-.61,10,.34,13.23,3.7.13.13-.06.31-.2.26a63,63,0,0,0-13-3.39A.29.29,0,0,1,396.81,444.87Z" style="fill:#263238"></path><path d="M376.71,464.67c2.36.8,70,.91,72.52-.72,1-.6,1.58-10.45,1.95-22.37,0-.12,0-.25,0-.37l-43.6-.56v.74S381.71,452.92,379.07,455,374.35,463.88,376.71,464.67Z" style="fill:#37474f"></path><path d="M451.2,441.2l0,.39c-.38,11.91-1,21.76-1.95,22.36-1.17.74-15.83,1.12-31.66,1.25-18.95.14-39.57-.09-40.86-.53-2.36-.79-.25-7.58,2.36-9.67s28.53-13.61,28.53-13.61l0-.74,14.55.19Z" style="fill:#FFC727"></path><path d="M377.48,462.05c11.39-.26,57.37-.24,68.65.37.1,0,.1.07,0,.07-11.28.51-57.26.11-68.65-.25C377.24,462.23,377.24,462.05,377.48,462.05Z" style="fill:#263238"></path><path d="M422.13,440.84c-1.27,7.27-3.19,18-4.56,24.36-18.95.14-39.57-.09-40.86-.53-2.36-.79-.25-7.58,2.36-9.67s28.53-13.61,28.53-13.61l0-.74Z" style="opacity:0.1"></path><path d="M455,442.17l-48.88-.89s-.39-84.36.13-110.9c.6-30.32,4.83-121.2,4.83-121.2l36.54,1s7.27,21.28,6.52,34.37c-.22,3.79-2.76,9.28-3.88,13.31L444.41,333Z" style="fill:#37474f"></path><path d="M451.62,433.51a36.13,36.13,0,0,0-3.89-.42c-1.44-.14-2.88-.29-4.32-.39-2.78-.19-5.56-.32-8.34-.41-5.61-.17-11.23-.29-16.84-.27-3.19,0-6.39.06-9.58.15a.1.1,0,0,0,0,.2c5.56.36,11.12.6,16.68.86s11.13.52,16.68.57c1.6,0,3.2,0,4.79,0s3.23.09,4.79-.09C451.68,433.68,451.73,433.53,451.62,433.51Z" style="fill:#263238"></path><path d="M411.2,386.86c-.2-13.17-.18-29.49-.17-42.66q0-39.54,1.61-79c.6-14.77,1.4-29.53,2.25-44.29,0-.17-.25-.17-.26,0-2.13,26.4-3.4,52.89-4.16,79.36s-1,55.85-.45,82.2c.32,14.78.71,31.15,1.7,45.91a.1.1,0,0,0,.2,0C411.69,415,411.41,400.17,411.2,386.86Z" style="fill:#263238"></path><path d="M398.89,397.14s-1.59,44.18-1.59,44.21c-.26,8.45-.64,15.85-1.19,19.66a.13.13,0,0,1,0,.06,5.91,5.91,0,0,1-.71,2.6l-.05.05c-2.57,1.62-70.16,1.51-72.51.71s-.27-7.57,2.36-9.66,28.53-13.62,28.53-13.62l2-44.14Z" style="fill:#ad6359"></path><path d="M397.63,432.28s-.33,9-.33,9.07c-.26,8.45-.64,15.85-1.19,19.66a.13.13,0,0,1,0,.06,11.71,11.71,0,0,1-.71,2.6l-.05.05c-2.57,1.62-70.16,1.51-72.51.71s-.27-7.57,2.36-9.66,28.53-13.62,28.53-13.62l.21-9.21Z" style="fill:#fff"></path><path d="M349.58,441.06c4.52-.61,10,.34,13.23,3.7.12.13-.06.31-.21.25a62.9,62.9,0,0,0-13-3.38A.29.29,0,0,1,349.58,441.06Z" style="fill:#263238"></path><path d="M346.25,442.85c4.52-.62,10,.34,13.23,3.7.13.13-.06.31-.2.25a62.83,62.83,0,0,0-13-3.38A.29.29,0,0,1,346.25,442.85Z" style="fill:#263238"></path><path d="M342.93,444.64c4.51-.62,10,.34,13.22,3.7.13.13-.06.31-.2.25a62.9,62.9,0,0,0-13-3.38A.29.29,0,0,1,342.93,444.64Z" style="fill:#263238"></path><path d="M322.83,464.43c2.36.8,69.94.92,72.51-.71,1-.61,1.58-10.45,2-22.37V441l-43.6-.56,0,.74s-25.89,11.53-28.53,13.62S320.47,463.65,322.83,464.43Z" style="fill:#FFC727"></path><path d="M323.6,461.82c11.39-.26,57.37-.24,68.65.37.09,0,.09.06,0,.07-11.29.5-57.26.11-68.66-.26C323.35,462,323.35,461.82,323.6,461.82Z" style="fill:#263238"></path><path d="M425.13,256.38s-21.8,62.64-22.48,74.25c-.58,9.89-2.12,111.54-2.12,111.54l-47.77-1.1s7.59-105,8.67-115.29c1.69-16.22,10.47-53.07,22.07-92.89,2.17-7.45,9.22-24.22,9.22-24.22l53.77,1.49s-1.16,24.7-12.9,42.26C433.59,252.42,428.44,254.64,425.13,256.38Z" style="fill:#37474f"></path><path d="M398.1,433c-5.35-.28-10.9-.58-16.26-.61s-10.65-.1-16,0c-3,.07-6,.08-9,.26a.07.07,0,1,0,0,.15c5.34.42,10.72.52,16.08.62s10.63.2,16,.13c3,0,6-.09,9-.2C398.24,433.38,398.42,433,398.1,433Z" style="fill:#263238"></path><path d="M392.35,238.46c-2,6-3.67,12.08-5.46,18.12s-3.6,12.2-5.39,18.3c-3.45,11.8-8.75,31.6-11.43,43.61s-10.37,107.3-10.36,108.87c0,.15.22.15.24,0,1.48-11.06,9.74-103.69,10.94-108,3.29-11.85,6.73-28.39,10.16-40.2q2.93-10.09,5.87-20.2c2-6.78,4-13.55,5.79-20.39A.19.19,0,0,0,392.35,238.46Z" style="fill:#263238"></path><path d="M412.41,252.66a45.15,45.15,0,0,0,7.52.8,73.7,73.7,0,0,0,7.57-.56,56.73,56.73,0,0,1,7.25.24,25.18,25.18,0,0,0,7.29-.68c.11,0,.17.14.06.17a44.05,44.05,0,0,1-7.17,1.55c-2.51.28-5-.11-7.51,0a60.19,60.19,0,0,1-7.71.23,26.82,26.82,0,0,1-7.36-1.59C412.25,252.79,412.31,252.65,412.41,252.66Z" style="fill:#263238"></path><path d="M408.05,307.22c.57-1.93,1.11-3.86,1.7-5.79,1.21-3.88,2.43-7.77,3.75-11.61,2.64-7.65,5.13-15.35,7.9-22.95,1.58-4.31,3-8.68,4.82-12.9a.09.09,0,0,1,.17.06c-1,4-2.28,7.81-3.48,11.7s-2.46,7.76-3.73,11.63c-2.52,7.68-5,15.38-7.74,23q-1.14,3.21-2.37,6.38c-.85,2.16-1.52,4.4-2.52,6.5a.1.1,0,0,1-.19-.06C406.78,311.15,407.47,309.19,408.05,307.22Z" style="fill:#263238"></path><path d="M423.86,242.4c.35-3.32,1.46-13.81,1.65-15.74.09-1,.48-6.54.11-6.59a48.32,48.32,0,0,0-6-.11q-2.94,0-5.89-.21-6-.33-11.87-1.13a.42.42,0,1,0-.11.83q6,.88,12,1.3c1.95.14,9.53.53,11.29.34,0,.79-.53,3.71-.61,4.37a23.51,23.51,0,0,0-2.51.17q-1.39.09-2.79.12-2.89.08-5.81-.06a91.06,91.06,0,0,1-11.16-1.2c-.12,0-.13.14,0,.17a65.31,65.31,0,0,0,11.39,1.57q2.72.12,5.4,0c1,0,2-.08,2.93-.15a17.65,17.65,0,0,0,2.52-.27c0,.13,0,.26-.05.39-.23,1.83-1.44,12.62-1.86,16.18-2,.91-11.73,5.39-12.88,4.77-2.17-1.18-9.62-6.16-11.8-7.39.31-3.2.72-6.38,1.26-9.54.28-1.63.59-3.25.93-4.87a31.39,31.39,0,0,0,.92-5c0-.14-.21-.25-.31-.12l-.15.2a.11.11,0,0,0,0,.11A23,23,0,0,0,399,225c-.42,1.65-.79,3.31-1.13,5q-1,5-1.55,10a.6.6,0,0,0,.27.59c3.27,1.92,12.26,7.71,13.08,7.86,1.59.28,13.47-4.86,13.78-5.08S423.82,242.82,423.86,242.4Z" style="fill:#263238"></path><path d="M437.68,239.86c-.27-2.86-1.12-11.89-1.26-13.55-.07-.82-.41-5.61-.19-5.63a19,19,0,0,1,3.43.28c1.11.1,2.23.16,3.35.19a58.34,58.34,0,0,0,6.75-.22c.34,0,.42.68.08.72A61.93,61.93,0,0,1,443,222a52,52,0,0,1-6.43-.42c0,.68.37,3.2.43,3.77a10.54,10.54,0,0,1,1.44.3c.53.11,1.06.2,1.59.28,1.11.16,2.21.26,3.31.31a33.64,33.64,0,0,0,6.35-.33c.07,0,.08.13,0,.14a24.23,24.23,0,0,1-6.47.64,29.47,29.47,0,0,1-3.08-.31c-.55-.09-1.11-.2-1.67-.32a6.81,6.81,0,0,1-1.44-.38l0,.33c.17,1.58,1.08,10.87,1.39,13.93,1.15.91,6.8,5.34,7.44,4.88,1.22-.87,5.37-4.66,6.59-5.57-.24-2.75-.54-5.5-.91-8.23-.19-1.41-.4-2.81-.63-4.21a39.58,39.58,0,0,1-.62-4.31c0-.12.11-.2.17-.08l.09.18a.14.14,0,0,1,0,.09,29.09,29.09,0,0,1,.89,3.85c.27,1.43.52,2.86.74,4.31q.67,4.32,1.09,8.68a.59.59,0,0,1-.14.48c-1.83,1.43-6.84,5.81-7.31,5.89-.9.15-7.78-5-8-5.19A1.29,1.29,0,0,1,437.68,239.86Z" style="fill:#263238"></path><path d="M432.56,233.32c-.08-4.95-.2-9.91-.51-14.86-.18-2.84-.39-5.69-.67-8.53,0-.1-.17-.11-.17,0,.24,5,.47,10,.65,15s.19,9.9.24,14.85c0,2.85,0,5.7.07,8.55,0,.11.16.11.16,0C432.61,243.31,432.64,238.32,432.56,233.32Z" style="fill:#263238"></path><path d="M419.42,150.79c-.05,1.07-3.65,8.65-8.37,9.34-1.53.22-3.11-8.12-3.11-8.12l-.25-.59-3.59-8.24,8.87-8.45,1.29-1.14s.84,2.32,1.84,5.22l.15.41c.06.16.12.32.17.47.16.43.31.87.46,1.32s.23.66.33,1,.23.7.34,1.06A58.81,58.81,0,0,1,419.42,150.79Z" style="fill:#ad6359"></path><path d="M416.1,138.81a18,18,0,0,1-8.41,12.61l-3.59-8.24,8.87-8.45,1.29-1.14S415.1,135.91,416.1,138.81Z" style="fill:#263238"></path><path d="M410.45,116.77a1.48,1.48,0,0,1-2.5,1.41,1.83,1.83,0,0,1-.4.48,1.64,1.64,0,0,1-2.19-.15,1.45,1.45,0,0,1-.34.4,1.5,1.5,0,0,1-2.09-.23,1.56,1.56,0,0,1-.32-.93,1.48,1.48,0,0,1-2-.31,1.53,1.53,0,0,1-.27-.56l-.1.09a1.48,1.48,0,0,1-2.35-1.56,1.47,1.47,0,0,1-1.81-.4,1.46,1.46,0,0,1-.21-1.48A1.66,1.66,0,0,1,395,113a1.6,1.6,0,0,1-.33-1.21,1.63,1.63,0,0,1-1.15-2.56,1.4,1.4,0,0,1-.44-.37,1.48,1.48,0,0,1,.09-2,1.59,1.59,0,0,1-.56-.44,1.63,1.63,0,0,1,.25-2.3,1.42,1.42,0,0,1,.47-.25.81.81,0,0,1-.18-.19,1.48,1.48,0,0,1,.23-2.08,1.57,1.57,0,0,1,.74-.31,1.62,1.62,0,0,1,.34-2.16,1.59,1.59,0,0,1,.83-.34,1.62,1.62,0,0,1,1.93-2.09,1.45,1.45,0,0,1,.55-1.06,1.48,1.48,0,0,1,1.17-.3,1.58,1.58,0,0,1,.61-1.31,1.61,1.61,0,0,1,1.92-.08,1.47,1.47,0,0,1,2.37-.47,1.55,1.55,0,0,1,.44-.55,1.63,1.63,0,0,1,2.29.26,1.18,1.18,0,0,1,.19.32,1.8,1.8,0,0,1,.2-.18,1.62,1.62,0,0,1,2.28.26,1.25,1.25,0,0,1,.21.35,1.43,1.43,0,0,1,.31-.34,1.64,1.64,0,0,1,2.3.26,1.6,1.6,0,0,1,.34,1.24,1.62,1.62,0,0,1,1.49.59,1.66,1.66,0,0,1,.35,1.16,1.47,1.47,0,0,1,2,1.86,1.48,1.48,0,0,1,1.21,2.28,1.57,1.57,0,0,1,1.17.6,1.63,1.63,0,0,1,0,2.06,1.69,1.69,0,0,1,.41.35,1.48,1.48,0,0,1-.24,2.08,1.26,1.26,0,0,1-.47.25l.07.07a1.65,1.65,0,0,1-.26,2.3,1.53,1.53,0,0,1-.41.23,1.53,1.53,0,0,1,.29.28,1.48,1.48,0,0,1-.24,2.07,1.43,1.43,0,0,1-1.1.31,1.45,1.45,0,0,1-.53,1.41,1.51,1.51,0,0,1-1.07.32,1.63,1.63,0,0,1-2.37,2,1.48,1.48,0,0,1-2.18,1.47Z" style="fill:#263238"></path><path d="M431.16,136.37a1.45,1.45,0,0,1-.49,1.56,1.48,1.48,0,0,1-2-.15,1.51,1.51,0,0,1-.4.48,1.63,1.63,0,0,1-2.19-.15,1.19,1.19,0,0,1-.34.4,1.47,1.47,0,0,1-2.4-1.16,1.47,1.47,0,0,1-2-.31,1.39,1.39,0,0,1-.27-.56l-.11.09a1.47,1.47,0,0,1-2.07-.24,1.45,1.45,0,0,1-.27-1.32,1.46,1.46,0,0,1-1.81-.4,1.48,1.48,0,0,1-.22-1.48,1.67,1.67,0,0,1-.91-.58,1.55,1.55,0,0,1-.34-1.21,1.65,1.65,0,0,1-1.09-.6,1.62,1.62,0,0,1-.05-2,1.44,1.44,0,0,1-.45-.37,1.48,1.48,0,0,1,.09-2,1.68,1.68,0,0,1-.56-.44,1.63,1.63,0,0,1,.25-2.29,1.47,1.47,0,0,1,.47-.26,1.11,1.11,0,0,1-.18-.19,1.47,1.47,0,0,1,.23-2.07,1.42,1.42,0,0,1,.74-.31,1.63,1.63,0,0,1,.35-2.17,1.6,1.6,0,0,1,.82-.34,1.63,1.63,0,0,1,.53-1.78,1.6,1.6,0,0,1,1.4-.31,1.47,1.47,0,0,1,1.72-1.36,1.63,1.63,0,0,1,2.53-1.39,1.56,1.56,0,0,1,.43-.56,1.48,1.48,0,0,1,1.95.09,1.55,1.55,0,0,1,.44-.55,1.62,1.62,0,0,1,2.28.26,1.55,1.55,0,0,1,.2.32l.19-.18a1.63,1.63,0,0,1,2.29.26,1.55,1.55,0,0,1,.21.35,1.24,1.24,0,0,1,.31-.34,1.63,1.63,0,0,1,2.63,1.5,1.61,1.61,0,0,1,1.49.59,1.57,1.57,0,0,1,.35,1.16,1.48,1.48,0,0,1,2,1.86,1.48,1.48,0,0,1,1.21,2.28,1.61,1.61,0,0,1,1.17.6,1.63,1.63,0,0,1,0,2.06,1.69,1.69,0,0,1,.41.35,1.48,1.48,0,0,1-.24,2.08,1.3,1.3,0,0,1-.46.25l.06.07a1.64,1.64,0,0,1-.26,2.3,1.52,1.52,0,0,1-.41.24,1.06,1.06,0,0,1,.29.27,1.47,1.47,0,0,1-.23,2.07,1.49,1.49,0,0,1-1.1.32,1.48,1.48,0,0,1-1.61,1.72,1.62,1.62,0,0,1-2.37,2,1.43,1.43,0,0,1-.54,1.33A1.49,1.49,0,0,1,431.16,136.37Z" style="fill:#263238"></path><path d="M390.62,128c-3.45,15.91,5.71,19.75,9.15,20.48,3.13.67,13.85,2.54,18.93-12.93s-1.24-22.09-8.3-24S394.07,112.06,390.62,128Z" style="fill:#ad6359"></path><path d="M393.09,126.42a10.54,10.54,0,0,0,1.12-.08,1.83,1.83,0,0,0,1.14-.29.59.59,0,0,0,.1-.7,1.45,1.45,0,0,0-1.36-.53,2.1,2.1,0,0,0-1.42.55A.62.62,0,0,0,393.09,126.42Z" style="fill:#263238"></path><path d="M403.85,128a9.53,9.53,0,0,1-1.06-.38,1.81,1.81,0,0,1-1-.6.58.58,0,0,1,.11-.7,1.44,1.44,0,0,1,1.45-.13,2.15,2.15,0,0,1,1.21.92A.62.62,0,0,1,403.85,128Z" style="fill:#263238"></path><path d="M401.11,130.32s.08.06.07.11c-.22,1.08-.29,2.37.64,2.89,0,0,0,.07,0,.06C400.62,133,400.73,131.31,401.11,130.32Z" style="fill:#263238"></path><path d="M402.28,129.34c1.79.16,1.33,3.7-.32,3.56S400.79,129.2,402.28,129.34Z" style="fill:#263238"></path><path d="M403,129.61c.28.24.54.64.91.72s.81-.23,1.13-.55c0,0,.07,0,.06,0-.08.69-.43,1.35-1.17,1.36s-1.08-.65-1.17-1.36C402.71,129.69,402.84,129.52,403,129.61Z" style="fill:#263238"></path><path d="M395.05,129s-.09,0-.09.09c-.1,1.1-.4,2.35-1.44,2.6,0,0,0,.06,0,.06C394.76,131.74,395.14,130.08,395.05,129Z" style="fill:#263238"></path><path d="M394.21,127.75c-1.76-.34-2.33,3.19-.7,3.51S395.68,128,394.21,127.75Z" style="fill:#263238"></path><path d="M393.43,127.87c-.31.14-.64.44-1,.41s-.61-.46-.8-.87c0,0-.06,0-.06,0-.13.67,0,1.41.61,1.64s1.1-.3,1.37-.94C393.62,128,393.56,127.81,393.43,127.87Z" style="fill:#263238"></path><path d="M400,139.6c-.28.24-.58.58-1,.58a2.88,2.88,0,0,1-1.17-.38,0,0,0,0,0-.05.06,1.49,1.49,0,0,0,1.35.71,1.2,1.2,0,0,0,1-.91C400.08,139.6,400,139.57,400,139.6Z" style="fill:#263238"></path><path d="M395.91,135s-.46,1.61-.57,2.38c0,.07.18.14.44.19,0,0,0,0,0,0a3.73,3.73,0,0,0,3.77-.88c.06-.06,0-.16-.1-.12a5.59,5.59,0,0,1-3.5.5c0-.22.88-2.73.75-2.76a6.87,6.87,0,0,0-1.81.16c.85-3.38,2.24-6.59,3.05-10,0-.12-.15-.19-.2-.08A55.83,55.83,0,0,0,394,135C393.9,135.45,395.58,135.09,395.91,135Z" style="fill:#263238"></path><path d="M395.9,137.29a4.49,4.49,0,0,0,1.49,1.72,2,2,0,0,0,1.19.32c.92-.06,1.1-.85,1.08-1.57a5,5,0,0,0-.18-1.12A5.86,5.86,0,0,1,395.9,137.29Z" style="fill:#263238"></path><path d="M397.39,139a2,2,0,0,0,1.19.32c.92-.06,1.1-.85,1.08-1.57A2.1,2.1,0,0,0,397.39,139Z" style="fill:#ff9abb"></path><path d="M403.22,113.49a7.18,7.18,0,0,0-.4,4.19c1.18,3.83,5.63,3.5,6.89,5.13s.31,4.22,1.37,5.73c1.46,2.09,3.91,1.71,4,3s.35,5.34,1.86,6.07,12.51-24.5-8.18-26.63c0,0-2.65-1.56-7.35,0-5.19,1.75-8.44,9.43-8.44,9.43l.91-.61c1.12-.74,1.62-1.5,2.43-2,1.27-.73,1.85-.3,3.17-1A13.75,13.75,0,0,0,403.22,113.49Z" style="fill:#263238"></path><path d="M403.7,112.39a14.13,14.13,0,0,0-1.06,3.07,5.87,5.87,0,0,0,0,3.14,4.3,4.3,0,0,0,2.09,2.18c.93.5,2,.76,3,1.34a3.23,3.23,0,0,1,1.23,1.23,4.45,4.45,0,0,1,.38,1.68,5.73,5.73,0,0,0,.72,3,3.56,3.56,0,0,0,2.59,1.56c1,.15,2.23,0,3.17.63-1-.52-2.1-.3-3.19-.38a3.88,3.88,0,0,1-2.89-1.58,5.89,5.89,0,0,1-.87-3.21,4.17,4.17,0,0,0-.34-1.49,2.81,2.81,0,0,0-1.06-1c-.89-.54-2-.82-2.94-1.37a5.54,5.54,0,0,1-1.35-1,3.4,3.4,0,0,1-.9-1.46,6.13,6.13,0,0,1,.14-3.32A13.9,13.9,0,0,1,403.7,112.39Z" style="fill:#263238"></path><path d="M403.17,113.27a11.46,11.46,0,0,1-1.41,2.71,5.39,5.39,0,0,1-2.39,2,8.08,8.08,0,0,1-1.5.35,2.41,2.41,0,0,0-1.22.59,7.84,7.84,0,0,1-1.07,1.09,3.45,3.45,0,0,1-1.42.58,3.87,3.87,0,0,0,1.26-.78,6.85,6.85,0,0,0,.93-1.16,2.63,2.63,0,0,1,1.41-.79,8,8,0,0,0,1.42-.36,5.66,5.66,0,0,0,2.26-1.76A21.92,21.92,0,0,0,403.17,113.27Z" style="fill:#263238"></path><path d="M413.9,134.2s4.18-4.6,6.31-3.06-1.45,8.52-4.27,9.18a2.77,2.77,0,0,1-3.49-1.93Z" style="fill:#ad6359"></path><path d="M419.13,133.12a0,0,0,0,1,0,.07c-2,.53-3.2,2.15-4.13,3.87a1.52,1.52,0,0,1,2.31-.13c.05,0,0,.11-.06.1a1.69,1.69,0,0,0-1.93.35,8.54,8.54,0,0,0-1.08,1.38c-.11.16-.4,0-.31-.15l0-.05C414.22,136.16,416.52,133,419.13,133.12Z" style="fill:#263238"></path><path d="M395.09,194l-2.37,14.69,54.92,1.43s-6.9-42-20.14-56.3c-7.13-7.7-15.26-6-21.77,2.33-2.31,3-15.19,18.17-14.73,26.44A19.91,19.91,0,0,0,395.09,194Z" style="fill:#FFC727"></path><path d="M409.12,170.54a9.65,9.65,0,0,0-.66,2.73,10.22,10.22,0,0,0,1.34-2.47,9.93,9.93,0,0,0,.66-2.72A9.83,9.83,0,0,0,409.12,170.54Zm-5.67,37.53c-.11.29-.21.58-.29.87l.69,0c.1-.21.19-.43.27-.64a9.57,9.57,0,0,0,.66-2.73A9.91,9.91,0,0,0,403.45,208.07Zm21.27-3.89a10.09,10.09,0,0,0-.66,2.73,9.52,9.52,0,0,0,1.34-2.46,9.92,9.92,0,0,0,.66-2.73A10,10,0,0,0,424.72,204.18Zm11-28.29a9.59,9.59,0,0,0-2.72-.66,9.52,9.52,0,0,0,2.46,1.34,9.92,9.92,0,0,0,2.73.66A9.58,9.58,0,0,0,435.68,175.89Zm-33.32,9.62a9.84,9.84,0,0,0-2.73-.67,10,10,0,0,0,2.48,1.35,10.22,10.22,0,0,0,2.72.66A9.42,9.42,0,0,0,402.36,185.51ZM409.79,152l0-.05-.58.47a9.64,9.64,0,0,0,1.41,2.27A10,10,0,0,0,409.79,152Zm13.41,29.75a10.28,10.28,0,0,0-1.46-2.4,10.82,10.82,0,0,0,2.26,5.09A10.2,10.2,0,0,0,423.2,181.78ZM438,193.18a9.9,9.9,0,0,0-2.39,1.46,10.94,10.94,0,0,0,5.09-2.26A9.81,9.81,0,0,0,438,193.18Zm-24.94,2.54a9.62,9.62,0,0,0-2.4,1.47,10.82,10.82,0,0,0,5.09-2.27A9.64,9.64,0,0,0,413.05,195.72Zm9.36-36.09a10.28,10.28,0,0,0-2.4,1.46,10.82,10.82,0,0,0,5.09-2.26A10.09,10.09,0,0,0,422.41,159.63Z" style="fill:#fff"></path><path d="M417,163.11c-5.07,9-26.86,35.31-36.59,36.83-7.1,1.11-18.11-13.44-25.81-19.68-2.41-1.95,19.58-19.07,21.37-16.64,4.14,5.59,6.11,7.86,6.51,7.61,2.35-1.48,14-9.55,26.05-17.78C418.52,146.6,423.39,151.69,417,163.11Z" style="fill:#ad6359"></path><path d="M344.69,134.93c-2.08,2.54,4.63,7.13,4.63,7.13a6.08,6.08,0,0,0-4,1c-2,1.5-.52,5.29-.52,5.29a7.47,7.47,0,0,0-4,1.75c-1.77,1.63-.83,5.66-.83,5.66a6.89,6.89,0,0,0-2.59,3.78c-1.55,6.82,12.52,18.28,17.22,20.7l21.65-15.81s-5.63-17.18-11.17-22C362,139.7,347.86,131,344.69,134.93Z" style="fill:#ad6359"></path><path d="M349.43,142a54.85,54.85,0,0,1,11.37,7.1.08.08,0,0,1-.09.12c-3.49-2.68-7.79-4.49-11.39-7A.11.11,0,0,1,349.43,142Z" style="fill:#263238"></path><path d="M344.94,148.32a12,12,0,0,1,2.48,1.78c.83.69,1.65,1.39,2.45,2.11,1.62,1.44,3.21,2.91,4.75,4.43.07.06,0,.19-.1.12q-2.41-2.14-4.92-4.19c-.84-.68-1.68-1.36-2.53-2a13.77,13.77,0,0,1-2.31-2C344.67,148.44,344.8,148.25,344.94,148.32Z" style="fill:#263238"></path><path d="M340,155.84a8,8,0,0,1,2.14,1.72l2.18,2c1.47,1.32,2.93,2.65,4.43,3.92a.07.07,0,1,1-.09.12c-1.54-1.28-3.09-2.55-4.62-3.84l-2.23-1.93a7.45,7.45,0,0,1-1.88-1.92S340,155.83,340,155.84Z" style="fill:#263238"></path><path d="M382.09,171.05a24.62,24.62,0,0,1,4.84,7.47c-1.82-2.37-3.26-4.94-4.84-7.47Z" style="fill:#263238"></path><path d="M383.5,169.6l12.43,24.19s14.85-18.06,22-30.22,2-17.34-9.7-11.16S383.5,169.6,383.5,169.6Z" style="fill:#FFC727"></path><path d="M392,172.3a10.08,10.08,0,0,0-2.4,1.46,9.74,9.74,0,0,0,2.69-.8,10,10,0,0,0,2.4-1.46A10,10,0,0,0,392,172.3ZM409.79,152c-.05-.11-.1-.22-.16-.33-.21.09-.42.19-.64.31l.13.31a9.81,9.81,0,0,0,1.47,2.4A10,10,0,0,0,409.79,152Zm-7.43,33.48a9.84,9.84,0,0,0-2.73-.67,9.69,9.69,0,0,0,2.37,1.31h0l.45-.6Zm6.76-15a9.65,9.65,0,0,0-.66,2.73,10.22,10.22,0,0,0,1.34-2.47,9.93,9.93,0,0,0,.66-2.72A9.83,9.83,0,0,0,409.12,170.54Z" style="fill:#fff"></path><path d="M389,167.73c.4.83.94,1.61,1.41,2.4s.91,1.62,1.36,2.43c.85,1.58,1.72,3.15,2.59,4.72,1.76,3.18,3.6,6.32,5.19,9.61,0,.05,0,.11-.08.07a87.65,87.65,0,0,1-5.65-9.26q-1.32-2.4-2.57-4.84c-.43-.82-.84-1.66-1.23-2.51s-.71-1.75-1.14-2.56C388.82,167.72,388.93,167.66,389,167.73Z" style="fill:#263238"></path><path d="M415.58,167.32c-1.44,2.35-3,4.63-4.52,6.9s-3.17,4.5-4.76,6.74-3.29,4.4-5,6.59-3.43,4.3-5.31,6.32l-.13.14-.07-.16c-.38-.81-.75-1.62-1.11-2.44.45.77.89,1.54,1.33,2.32l-.2,0q2.52-3.26,5-6.58l4.88-6.63c1.66-2.19,3.25-4.43,4.92-6.61S413.9,169.5,415.58,167.32Z" style="fill:#263238"></path><path d="M415.14,169.56a4.87,4.87,0,0,1-1.19,1.55,7.68,7.68,0,0,1-.78.6,5.46,5.46,0,0,1-.85.48A33.48,33.48,0,0,0,415.14,169.56Z" style="fill:#263238"></path></g></svg>
