<svg width="1379" height="1082" viewBox="0 0 1379 1082" fill="none" xmlns="http://www.w3.org/2000/svg">
<path d="M1378.51 956.899H0.443726V957.588H1378.51V956.899Z" fill="#EBEBEB"/>
<path d="M870.475 975.668H800.303V976.357H870.475V975.668Z" fill="#EBEBEB"/>
<path d="M1255.7 990.579H1089.42V991.268H1255.7V990.579Z" fill="#EBEBEB"/>
<path d="M785.365 975.999H613.574V976.688H785.365V975.999Z" fill="#EBEBEB"/>
<path d="M502.171 996.615H466.231V997.304H502.171V996.615Z" fill="#EBEBEB"/>
<path d="M700.751 996.615H537.092V997.304H700.751V996.615Z" fill="#EBEBEB"/>
<path d="M251.004 984.984H145.031V985.673H251.004V984.984Z" fill="#EBEBEB"/>
<path d="M653.649 833.975H121.466C117.297 833.968 113.301 832.306 110.356 829.356C107.41 826.405 105.756 822.406 105.756 818.237V70.1383C105.792 65.9932 107.462 62.0297 110.404 59.1089C113.345 56.188 117.321 54.5457 121.466 54.5386H653.649C657.823 54.5386 661.826 56.1966 664.777 59.148C667.728 62.0994 669.386 66.1023 669.386 70.2761V818.237C669.386 822.411 667.728 826.414 664.777 829.366C661.826 832.317 657.823 833.975 653.649 833.975ZM121.466 55.0898C117.48 55.0971 113.659 56.6858 110.843 59.5071C108.027 62.3285 106.445 66.152 106.445 70.1383V818.237C106.445 822.224 108.027 826.047 110.843 828.869C113.659 831.69 117.48 833.279 121.466 833.286H653.649C657.638 833.279 661.461 831.691 664.282 828.87C667.102 826.05 668.69 822.226 668.697 818.237V70.1383C668.69 66.1494 667.102 62.326 664.282 59.5055C661.461 56.6849 657.638 55.0971 653.649 55.0898H121.466Z" fill="#EBEBEB"/>
<path d="M1249.83 833.975H717.619C713.447 833.968 709.449 832.307 706.499 829.358C703.549 826.408 701.889 822.409 701.881 818.237V70.1383C701.925 65.9906 703.601 62.0272 706.547 59.1071C709.493 56.187 713.471 54.5456 717.619 54.5386H1249.83C1253.97 54.5529 1257.94 56.1985 1260.87 59.1185C1263.81 62.0386 1265.48 65.9979 1265.51 70.1383V818.237C1265.51 822.402 1263.86 826.396 1260.92 829.346C1257.98 832.296 1253.99 833.96 1249.83 833.975ZM717.619 55.0898C713.63 55.0971 709.807 56.6849 706.986 59.5055C704.165 62.326 702.578 66.1494 702.57 70.1383V818.237C702.578 822.226 704.165 826.05 706.986 828.87C709.807 831.691 713.63 833.279 717.619 833.286H1249.83C1253.82 833.279 1257.64 831.691 1260.46 828.87C1263.28 826.05 1264.87 822.226 1264.88 818.237V70.1383C1264.87 66.1494 1263.28 62.326 1260.46 59.5055C1257.64 56.6849 1253.82 55.0971 1249.83 55.0898H717.619Z" fill="#EBEBEB"/>
<path d="M725.558 481.078C848.253 461.162 931.571 345.553 911.655 222.858C891.739 100.163 776.13 16.8446 653.435 36.7608C530.74 56.677 447.422 172.286 467.338 294.981C487.254 417.676 602.863 500.994 725.558 481.078Z" fill="#EBEBEB"/>
<path d="M689.479 33.8676C696.828 33.8676 704.178 34.2259 711.528 34.9425L899.855 339.11C883.975 380.653 856.166 416.574 819.927 442.355L583.45 60.3816C616.059 42.919 652.488 33.8095 689.479 33.8676Z" fill="#F5F5F5"/>
<path d="M554.593 78.7375L790.684 460.022C773.473 468.726 755.202 475.156 736.333 479.149L513.251 118.977C525.256 103.853 539.15 90.3295 554.593 78.7375Z" fill="#F5F5F5"/>
<path d="M697.526 411.679C810.528 365.927 823.702 278.254 827.506 192.373L828.416 171.923L807.993 170.048C756.894 165.28 702.543 126.667 702.019 126.198L689.479 117.268L676.938 126.198C676.414 126.584 622.063 165.198 570.909 169.966L550.542 171.84L551.451 192.29C555.255 278.172 568.429 365.927 681.431 411.597L689.479 414.876L697.526 411.679Z" fill="white"/>
<path d="M689.479 143.7C689.479 143.7 748.212 186.034 806.063 191.409C801.901 285.641 785.199 353.029 689.479 391.78C593.758 353.029 577.056 285.641 572.894 191.409C630.745 186.034 689.479 143.7 689.479 143.7Z" fill="#E0E0E0"/>
<path d="M976.31 328.416H984.11V295.756H976.31V328.416Z" fill="#E6E6E6"/>
<path opacity="0.2" d="M923.806 381.444L980.196 345.422L1036.61 381.444V796.464H923.806V381.444Z" fill="#E0E0E0"/>
<path opacity="0.6" d="M923.806 381.444L980.196 345.422L1036.61 381.444V630.241H923.806V381.444Z" fill="#E0E0E0"/>
<path d="M980.196 345.422L1036.61 381.417H923.806L980.196 345.422Z" fill="#E0E0E0"/>
<path opacity="0.3" d="M906.745 814.517H1053.68V796.464H906.745V814.517Z" fill="#E0E0E0"/>
<path opacity="0.2" d="M961.675 946.012H998.773V814.544H961.675V946.012Z" fill="#E0E0E0"/>
<path opacity="0.1" d="M961.675 796.492H998.773V665.024H961.675V796.492Z" fill="#E0E0E0"/>
<path opacity="0.4" d="M923.806 665.024H1036.61V630.269H923.806V665.024Z" fill="#E0E0E0"/>
<path opacity="0.4" d="M923.806 652.015H1036.61V643.222H923.806V652.015Z" fill="#E0E0E0"/>
<path opacity="0.2" d="M961.675 828.27H998.773V814.544H961.675V828.27Z" fill="#E0E0E0"/>
<path opacity="0.3" d="M931.744 956.899H1028.7V946.012H931.744V956.899Z" fill="#E0E0E0"/>
<path d="M1004.67 443.871H1036.59V432.268H1004.67V443.871Z" fill="#E0E0E0"/>
<path d="M1004.67 504.203H1036.59V492.599H1004.67V504.203Z" fill="#E0E0E0"/>
<path d="M1004.67 564.562H1036.59V552.959H1004.67V564.562Z" fill="#E0E0E0"/>
<path d="M1004.67 624.949H1036.59V613.346H1004.67V624.949Z" fill="#E0E0E0"/>
<path d="M1004.67 685.309H1036.59V673.705H1004.67V685.309Z" fill="#E0E0E0"/>
<path d="M1004.67 745.668H1036.59V734.065H1004.67V745.668Z" fill="#E0E0E0"/>
<path d="M973.526 359.009H986.894V326.349H973.526V359.009Z" fill="#E0E0E0"/>
<path d="M970.192 337.897H990.229V305.237H970.192V337.897Z" fill="#E0E0E0"/>
<path d="M980.196 167.871L982.622 295.756H977.798L980.196 167.871Z" fill="#E0E0E0"/>
<path d="M541.667 435.272H548.144V408.179H541.667V435.272Z" fill="#E6E6E6"/>
<path opacity="0.2" d="M498.12 479.287L544.919 449.383L591.718 479.287V823.75H498.12V479.287Z" fill="#E0E0E0"/>
<path opacity="0.6" d="M498.12 479.287L544.919 449.383L591.718 479.287V685.805H498.12V479.287Z" fill="#E0E0E0"/>
<path d="M544.919 449.383L591.718 479.287H498.12L544.919 449.383Z" fill="#E0E0E0"/>
<path opacity="0.3" d="M483.926 838.743H605.885V823.75H483.926V838.743Z" fill="#E0E0E0"/>
<path opacity="0.2" d="M529.54 947.859H560.326V838.743H529.54V947.859Z" fill="#E0E0E0"/>
<path opacity="0.1" d="M529.54 823.75H560.326V714.634H529.54V823.75Z" fill="#E0E0E0"/>
<path opacity="0.4" d="M498.092 714.634H591.719V685.777H498.092V714.634Z" fill="#E0E0E0"/>
<path opacity="0.4" d="M498.092 703.858H591.719V696.581H498.092V703.858Z" fill="#E0E0E0"/>
<path opacity="0.2" d="M529.54 850.153H560.326V838.771H529.54V850.153Z" fill="#E0E0E0"/>
<path opacity="0.3" d="M504.679 956.899H585.159V947.859H504.679V956.899Z" fill="#E0E0E0"/>
<path d="M565.232 531.103H591.719V521.484H565.232V531.103Z" fill="#E0E0E0"/>
<path d="M565.232 581.182H591.719V571.563H565.232V581.182Z" fill="#E0E0E0"/>
<path d="M565.232 631.288H591.719V621.669H565.232V631.288Z" fill="#E0E0E0"/>
<path d="M565.232 681.367H591.719V671.749H565.232V681.367Z" fill="#E0E0E0"/>
<path d="M565.232 731.474H591.719V721.855H565.232V731.474Z" fill="#E0E0E0"/>
<path d="M565.232 781.581H591.719V771.962H565.232V781.581Z" fill="#E0E0E0"/>
<path d="M539.38 460.683H550.459V433.59H539.38V460.683Z" fill="#E0E0E0"/>
<path d="M536.623 443.127H553.243V416.034H536.623V443.127Z" fill="#E0E0E0"/>
<path d="M544.919 302.012L546.931 408.179H542.907L544.919 302.012Z" fill="#E0E0E0"/>
<path d="M260.844 332.247H271.979V293.165H260.844V332.247Z" fill="#E6E6E6"/>
<path opacity="0.2" d="M185.822 395.721L266.411 352.615L346.973 395.721V822.068H185.822V395.721Z" fill="#E0E0E0"/>
<path opacity="0.6" d="M185.822 395.721L266.411 352.615L346.973 395.721V693.632H185.822V395.721Z" fill="#E0E0E0"/>
<path d="M266.411 352.615L346.973 395.721H185.822L266.411 352.615Z" fill="#E0E0E0"/>
<path opacity="0.3" d="M161.457 843.676H371.365V822.041H161.457V843.676Z" fill="#E0E0E0"/>
<path opacity="0.2" d="M239.925 943.862H292.925V843.676H239.925V943.862Z" fill="#E0E0E0"/>
<path opacity="0.1" d="M239.925 822.068H292.925V735.25H239.925V822.068Z" fill="#E0E0E0"/>
<path opacity="0.4" d="M185.849 735.25H347.001V693.632H185.849V735.25Z" fill="#E0E0E0"/>
<path opacity="0.4" d="M185.849 719.705H347.001V709.204H185.849V719.705Z" fill="#E0E0E0"/>
<path opacity="0.2" d="M239.925 860.131H292.925V843.704H239.925V860.131Z" fill="#E0E0E0"/>
<path opacity="0.3" d="M197.15 956.899H335.673V943.862H197.15V956.899Z" fill="#E0E0E0"/>
<path d="M301.414 470.495H347.001V456.604H301.414V470.495Z" fill="#E0E0E0"/>
<path d="M301.414 542.761H347.001V528.87H301.414V542.761Z" fill="#E0E0E0"/>
<path d="M301.414 615H347.001V601.109H301.414V615Z" fill="#E0E0E0"/>
<path d="M301.414 687.266H347.001V673.375H301.414V687.266Z" fill="#E0E0E0"/>
<path d="M301.414 759.531H347.001V745.641H301.414V759.531Z" fill="#E0E0E0"/>
<path d="M256.875 368.876H275.948V329.794H256.875V368.876Z" fill="#E0E0E0"/>
<path d="M259.989 343.575H272.805C277.174 343.575 280.716 340.033 280.716 335.665V312.403C280.716 308.034 277.174 304.493 272.805 304.493H259.989C255.621 304.493 252.079 308.034 252.079 312.403V335.665C252.079 340.033 255.621 343.575 259.989 343.575Z" fill="#E0E0E0"/>
<path d="M266.411 167.871L269.856 293.165H262.966L266.411 167.871Z" fill="#E0E0E0"/>
<path d="M880.424 886.286H831.502V872.809H846.716V606.924L891.007 583.221V573.988C890.123 573.61 889.369 572.98 888.84 572.176C888.31 571.372 888.029 570.431 888.031 569.468V554.971C888.031 553.663 888.551 552.408 889.476 551.482C890.401 550.557 891.656 550.037 892.964 550.037H893.433V542.954H894.756L896.906 464.818L899.055 542.954H900.378V550.037H900.902C902.21 550.037 903.465 550.557 904.391 551.482C905.316 552.408 905.836 553.663 905.836 554.971V569.468C905.837 570.431 905.556 571.372 905.027 572.176C904.498 572.98 903.744 573.61 902.859 573.988V583.221L947.15 606.924V872.809H962.336V886.286H913.498V948.768H940.287V956.899H853.772V948.768H880.424V886.286Z" fill="#F5F5F5"/>
<path d="M1164.31 908.308H1130.63V899.02H1141.1V716.012L1171.61 699.696V693.357C1171 693.097 1170.48 692.664 1170.11 692.11C1169.74 691.556 1169.54 690.907 1169.54 690.242V680.182C1169.54 679.735 1169.62 679.291 1169.79 678.877C1169.96 678.462 1170.21 678.085 1170.53 677.767C1170.84 677.45 1171.22 677.198 1171.63 677.025C1172.04 676.853 1172.49 676.765 1172.93 676.765H1173.29V671.914H1174.2L1175.69 618.142L1177.32 671.914H1178.22V676.765H1178.58C1179.03 676.765 1179.47 676.853 1179.89 677.025C1180.3 677.198 1180.67 677.45 1180.99 677.767C1181.31 678.085 1181.55 678.462 1181.72 678.877C1181.89 679.291 1181.98 679.735 1181.97 680.182V690.16C1181.97 690.82 1181.78 691.466 1181.41 692.019C1181.05 692.572 1180.54 693.008 1179.93 693.274V699.613L1210.39 716.012V899.02H1220.86V908.308H1187.07V951.304H1205.43V956.816H1145.95V951.304H1164.31V908.308Z" fill="#F5F5F5"/>
<path d="M423.815 891.468H469.153V878.955H455.042V632.556L414.003 610.507V601.963C414.824 601.607 415.523 601.018 416.013 600.268C416.503 599.519 416.763 598.642 416.759 597.746V584.324C416.759 583.11 416.277 581.947 415.419 581.089C414.561 580.231 413.397 579.749 412.184 579.749H411.688V573.189H410.475L408.49 500.785L406.478 573.189H405.266V579.749H404.797C403.584 579.749 402.42 580.231 401.562 581.089C400.704 581.947 400.222 583.11 400.222 584.324V597.746C400.218 598.642 400.477 599.519 400.967 600.268C401.457 601.018 402.156 601.607 402.978 601.963V610.507L361.912 632.556V878.955H347.718V891.468H393.056V949.347H368.251V956.871H448.179V949.347H423.374V891.468H423.815Z" fill="#F5F5F5"/>
<path d="M768.056 880.251H823.84V865.588H806.504V576.937L755.984 551.195V541.19C756.973 540.802 757.823 540.128 758.427 539.254C759.03 538.38 759.36 537.346 759.374 536.284V520.519C759.331 519.086 758.732 517.726 757.703 516.728C756.673 515.73 755.296 515.172 753.862 515.172H753.283V507.483H751.767L749.314 422.649L746.861 507.483H745.346V515.172H744.601C743.168 515.172 741.79 515.73 740.761 516.728C739.732 517.726 739.132 519.086 739.089 520.519V536.284C739.124 537.341 739.462 538.365 740.063 539.235C740.665 540.105 741.503 540.784 742.479 541.19V551.195L691.959 576.937V865.588H674.623V880.251H730.407V948.079H700.09V956.899H798.594V948.079H768.277V880.251H768.056Z" fill="#FAFAFA"/>
<path d="M689.479 1081.37C984.613 1081.37 1223.87 1067.4 1223.87 1050.17C1223.87 1032.94 984.613 1018.97 689.479 1018.97C394.344 1018.97 155.091 1032.94 155.091 1050.17C155.091 1067.4 394.344 1081.37 689.479 1081.37Z" fill="#F5F5F5"/>
<path d="M752.429 546.675C737.739 552.849 723.462 537.938 719.025 561.834C714.587 585.729 702.791 584.599 695.46 595.431C688.128 606.263 685.041 622 706.319 631.04C727.596 640.081 772.935 659.87 773.541 635.643C774.147 611.417 760.063 607.448 777.069 598.408C794.074 589.368 783.187 566.905 776.132 565.334C780.266 547.281 765.162 541.3 752.429 546.675Z" fill="#263238"/>
<path d="M627.879 538.214L632.316 540.005C633.142 540.332 633.876 540.854 634.457 541.526C635.037 542.197 635.447 542.999 635.651 543.864L637.608 552.132C637.997 553.74 637.996 555.417 637.602 557.024C637.209 558.631 636.436 560.119 635.348 561.365L633.97 562.936C626.418 560.483 620.051 552.242 620.051 552.242L617.984 550.093C617.548 549.662 617.202 549.149 616.966 548.584C616.73 548.018 616.608 547.412 616.608 546.799C616.608 546.186 616.73 545.58 616.966 545.014C617.202 544.449 617.548 543.936 617.984 543.505L622.173 539.344C622.925 538.642 623.857 538.165 624.865 537.965C625.873 537.765 626.917 537.851 627.879 538.214Z" fill="#CE7A63"/>
<path d="M714.284 647.66C704.003 643.994 694.219 640.301 684.214 636.249C679.226 634.182 674.265 632.005 669.221 629.662C666.685 628.477 664.177 627.237 661.586 625.804C658.787 624.301 656.09 622.616 653.511 620.76C652.794 620.209 652.105 619.685 651.306 618.969L650.121 617.949L648.853 616.653L648.247 615.992L647.861 615.496L647.089 614.476C646.565 613.815 646.014 613.098 645.573 612.464L643.065 608.716L640.833 605.078C638.077 600.254 635.486 595.486 633.033 590.718C628.099 581.209 623.607 571.839 618.866 562.247L639.923 552.738C643.837 561.972 648.357 571.26 653.125 580.079C655.55 584.462 658.058 588.789 660.649 592.785C661.972 594.77 663.24 596.671 664.563 598.297C664.894 598.711 665.169 598.986 665.473 599.317L665.913 599.813L666.134 600.061L666.465 600.309L667.319 600.888C671.082 603.05 675.018 604.894 679.088 606.4C683.525 608.192 688.266 609.735 693.034 611.224C702.515 614.2 712.492 616.736 722.139 618.886L714.284 647.66Z" fill="#FD4848"/>
<path d="M713.678 1030.65C725.557 1030.65 727.458 1030.46 734.238 1030.24C739.971 1030.05 741.322 1030.74 745.925 1030.65C749.756 1030.65 749.618 1026.9 748.433 1022.66C747.854 1020.54 746.917 1017.95 746.117 1014.53H728.065C725.612 1019.19 717.839 1022.8 711.17 1023.6C704.5 1024.4 708.937 1030.65 713.678 1030.65Z" fill="#FD4848"/>
<path d="M599.849 1023.82C611.287 1026.22 615.283 1026.3 621.898 1027.43C627.41 1028.39 627.41 1029.44 632.923 1030.74C636.616 1031.59 638.27 1027.59 637.773 1024.2C637.283 1021.21 637.025 1018.19 637.002 1015.16L622.229 1009.84C619.174 1012.56 615.578 1014.6 611.678 1015.83C607.779 1017.06 603.663 1017.46 599.601 1016.98C593.014 1016.13 595.274 1022.85 599.849 1023.82Z" fill="#FD4848"/>
<path d="M671.316 715.819C671.316 715.819 637.112 793.598 628.596 845.551C624.158 891.661 621.843 1008.63 621.843 1008.63C621.237 1011.08 634.273 1015.58 637.029 1015.14C637.029 1015.14 665.969 904.119 663.158 847.645C714.67 776.868 727.32 720.036 727.32 720.036L671.316 715.819Z" fill="#263238"/>
<path opacity="0.2" d="M697.995 753.523C690.333 762.591 686.695 794.094 685.152 814.682C694.311 799.765 702.549 784.302 709.819 768.379C708.441 760.524 704.665 754.874 697.995 753.523Z" fill="black"/>
<path d="M688.018 717.087C688.018 717.087 685.896 812.753 694.219 859.883C702.956 909.355 730.049 982.035 728.065 1014.53C730.821 1016.13 740.633 1016.24 746.117 1014.53C746.117 1014.53 755.461 905.083 727.348 858.009C733.439 810.879 749.645 749.858 735.258 720.698L688.018 717.087Z" fill="#263238"/>
<path d="M726.714 1007.75C726.657 1009.98 726.445 1012.21 726.08 1014.42C726.041 1014.6 726.04 1014.8 726.077 1014.98C726.115 1015.17 726.19 1015.34 726.299 1015.5C726.408 1015.65 726.547 1015.78 726.709 1015.88C726.87 1015.98 727.05 1016.05 727.238 1016.07C733.685 1016.65 740.181 1016.31 746.531 1015.05C746.812 1015 747.07 1014.86 747.267 1014.65C747.465 1014.44 747.593 1014.18 747.633 1013.9L748.626 1007.67C748.658 1007.47 748.646 1007.26 748.59 1007.06C748.534 1006.87 748.435 1006.69 748.3 1006.54C748.166 1006.38 747.999 1006.26 747.813 1006.18C747.626 1006.1 747.423 1006.06 747.22 1006.07L728.148 1006.43C727.966 1006.42 727.783 1006.44 727.612 1006.5C727.44 1006.56 727.283 1006.66 727.149 1006.78C727.015 1006.91 726.907 1007.06 726.833 1007.22C726.758 1007.39 726.718 1007.57 726.714 1007.75Z" fill="#263238"/>
<path opacity="0.1" d="M726.714 1007.75C726.657 1009.98 726.445 1012.21 726.08 1014.42C726.041 1014.6 726.04 1014.8 726.077 1014.98C726.115 1015.17 726.19 1015.34 726.299 1015.5C726.408 1015.65 726.547 1015.78 726.709 1015.88C726.87 1015.98 727.05 1016.05 727.238 1016.07C733.685 1016.65 740.181 1016.31 746.531 1015.05C746.812 1015 747.07 1014.86 747.267 1014.65C747.465 1014.44 747.593 1014.18 747.633 1013.9L748.626 1007.67C748.658 1007.47 748.646 1007.26 748.59 1007.06C748.534 1006.87 748.435 1006.69 748.3 1006.54C748.166 1006.38 747.999 1006.26 747.813 1006.18C747.626 1006.1 747.423 1006.06 747.22 1006.07L728.148 1006.43C727.966 1006.42 727.783 1006.44 727.612 1006.5C727.44 1006.56 727.283 1006.66 727.149 1006.78C727.015 1006.91 726.907 1007.06 726.833 1007.22C726.758 1007.39 726.718 1007.57 726.714 1007.75Z" fill="white"/>
<path d="M620.575 1004.39C620.162 1006.1 619.445 1009.13 618.811 1011.33C618.716 1011.68 618.761 1012.06 618.936 1012.38C619.11 1012.69 619.402 1012.93 619.748 1013.04C625.52 1014.43 631.405 1015.3 637.333 1015.63C637.623 1015.65 637.913 1015.58 638.161 1015.43C638.408 1015.28 638.601 1015.05 638.711 1014.78L641.164 1008.85C641.24 1008.66 641.275 1008.46 641.263 1008.25C641.252 1008.04 641.196 1007.84 641.098 1007.66C641.001 1007.48 640.865 1007.32 640.7 1007.2C640.535 1007.08 640.345 1006.99 640.144 1006.95L622.174 1003.37C621.827 1003.3 621.469 1003.37 621.171 1003.56C620.874 1003.75 620.661 1004.04 620.575 1004.39Z" fill="#263238"/>
<path opacity="0.1" d="M620.575 1004.39C620.162 1006.1 619.445 1009.13 618.811 1011.33C618.716 1011.68 618.761 1012.06 618.936 1012.38C619.11 1012.69 619.402 1012.93 619.748 1013.04C625.52 1014.43 631.405 1015.3 637.333 1015.63C637.623 1015.65 637.913 1015.58 638.161 1015.43C638.408 1015.28 638.601 1015.05 638.711 1014.78L641.164 1008.85C641.24 1008.66 641.275 1008.46 641.263 1008.25C641.252 1008.04 641.196 1007.84 641.098 1007.66C641.001 1007.48 640.865 1007.32 640.7 1007.2C640.535 1007.08 640.345 1006.99 640.144 1006.95L622.174 1003.37C621.827 1003.3 621.469 1003.37 621.171 1003.56C620.874 1003.75 620.661 1004.04 620.575 1004.39Z" fill="white"/>
<path d="M683.967 634.761C682.368 640.88 679.805 647.577 676.718 662.323C673.421 679.974 671.578 697.866 671.206 715.819C679.474 723.261 707.311 721.993 735.148 720.698C735.148 702.59 742.645 685.888 762.875 648.79C764.012 646.864 764.701 644.707 764.892 642.478C765.082 640.25 764.769 638.007 763.974 635.916C763.18 633.825 761.926 631.939 760.304 630.399C758.683 628.858 756.735 627.702 754.606 627.016C752.181 626.19 749.618 625.39 746.944 624.646C737.649 621.818 728.161 619.662 718.556 618.197C715.414 617.783 712.134 617.453 708.965 617.177C703.407 616.764 697.878 618.291 693.32 621.497C688.761 624.703 685.456 629.391 683.967 634.761Z" fill="#FD4848"/>
<path opacity="0.2" d="M747.358 648.928C746.283 658.051 747.358 668.689 750.114 673.127C752.401 668.607 754.964 663.673 757.858 658.299L747.358 648.928Z" fill="black"/>
<path d="M734.073 666.126L715.882 660.614C715.701 660.56 715.533 660.471 715.387 660.352C715.242 660.232 715.121 660.084 715.034 659.917C714.946 659.75 714.894 659.567 714.878 659.379C714.863 659.191 714.886 659.001 714.945 658.822L717.894 649.92C718.021 649.56 718.278 649.26 718.615 649.081C718.952 648.903 719.345 648.858 719.714 648.955L737.904 654.468C738.085 654.521 738.253 654.61 738.399 654.73C738.545 654.849 738.665 654.997 738.753 655.164C738.84 655.332 738.893 655.515 738.908 655.703C738.923 655.891 738.901 656.08 738.841 656.259L735.92 665.134C735.799 665.505 735.539 665.816 735.195 666.001C734.851 666.185 734.449 666.23 734.073 666.126Z" fill="white"/>
<path d="M729.994 653.668L725.97 652.401C725.805 652.401 725.777 652.042 725.97 651.712L727.486 647.908C727.624 647.577 727.872 647.357 728.037 647.412L732.034 648.652C732.199 648.652 732.254 649.01 732.034 649.341L730.49 653.145C730.407 653.475 730.159 653.696 729.994 653.668Z" fill="#263238"/>
<path d="M752.429 592.234C747.881 600.806 741.046 616.846 745.594 624.288C745.594 624.288 733.77 624.288 714.008 635.643C710.398 626.824 717.206 617.839 717.206 617.839C728.23 617.839 730.16 610.287 730.518 602.9L752.429 592.234Z" fill="#CE7A63"/>
<path opacity="0.2" d="M743.499 596.589L730.518 603.01C730.475 604.745 730.263 606.471 729.884 608.164C733.935 608.495 740.578 605.408 742.231 601.605C742.955 600.024 743.385 598.324 743.499 596.589Z" fill="black"/>
<path d="M765.603 580.961C758.961 593.584 756.425 599.042 746.31 603.01C731.069 608.909 715.497 598.573 717.894 584.379C720.044 571.59 730.573 553.124 746.779 553.235C762.985 553.345 772.163 568.476 765.603 580.961Z" fill="#CE7A63"/>
<path d="M771.309 564.673C757.71 565 744.351 561.058 733.108 553.4C744.602 548.301 765.19 548.714 771.309 564.673Z" fill="#263238"/>
<path d="M743.747 572.004C743.278 573.161 742.286 573.85 741.542 573.547C740.798 573.244 740.577 572.087 741.074 570.957C741.57 569.827 742.534 569.137 743.278 569.413C744.023 569.689 744.243 570.874 743.747 572.004Z" fill="#263238"/>
<path d="M730.958 566.933C730.462 568.063 729.47 568.752 728.754 568.448C728.037 568.145 727.789 567.015 728.285 565.858C728.781 564.7 729.746 564.039 730.49 564.342C731.234 564.645 731.427 565.803 730.958 566.933Z" fill="#263238"/>
<path d="M730.821 564.425L728.423 562.55C728.423 562.55 728.891 565.362 730.821 564.425Z" fill="#263238"/>
<path d="M743.582 569.606L741.211 567.732C741.211 567.732 741.68 570.433 743.582 569.606Z" fill="#263238"/>
<path d="M731.62 570.957C729.211 573.126 726.534 574.978 723.655 576.469C724.427 578.536 727.348 579.032 727.348 579.032L731.62 570.957Z" fill="#BA4D3C"/>
<path d="M729.195 584.655C728.534 584.388 727.898 584.066 727.293 583.69C727.227 583.619 727.19 583.525 727.19 583.428C727.19 583.331 727.227 583.238 727.293 583.166C727.371 583.104 727.468 583.07 727.569 583.07C727.669 583.07 727.766 583.104 727.844 583.166C729.188 584.05 730.715 584.616 732.31 584.822C733.905 585.027 735.526 584.866 737.05 584.351C737.094 584.329 737.144 584.316 737.194 584.314C737.244 584.311 737.294 584.319 737.341 584.338C737.387 584.356 737.43 584.384 737.465 584.419C737.5 584.455 737.528 584.497 737.546 584.544C737.568 584.589 737.579 584.638 737.58 584.688C737.58 584.738 737.57 584.787 737.548 584.832C737.527 584.877 737.496 584.917 737.458 584.948C737.419 584.979 737.374 585.001 737.325 585.013C734.668 585.935 731.76 585.807 729.195 584.655Z" fill="#263238"/>
<path d="M762.792 594.439C761.474 595.097 760.034 595.473 758.563 595.545C757.092 595.616 755.623 595.38 754.248 594.852C750.913 593.391 752.236 589.34 755.654 586.859C759.071 584.379 764.17 582.78 766.32 585.619C768.47 588.458 766.375 592.758 762.792 594.439Z" fill="#CE7A63"/>
<path d="M757.996 561.972C750.197 571.921 760.229 582.422 750.197 590.911C740.164 599.4 711.611 634.541 749.535 625.335C757.225 616.791 777.896 588.623 775.691 579.501C773.486 570.378 771.942 557.148 757.996 561.972Z" fill="#263238"/>
<path d="M750.251 571.177C750.163 571.127 750.086 571.06 750.024 570.98C749.962 570.899 749.918 570.807 749.893 570.708C749.727 569.81 749.341 568.967 748.768 568.255C748.196 567.543 747.455 566.984 746.613 566.629C746.522 566.599 746.437 566.55 746.366 566.485C746.294 566.42 746.237 566.341 746.198 566.253C746.159 566.165 746.139 566.069 746.139 565.972C746.14 565.876 746.16 565.78 746.2 565.692C746.279 565.507 746.426 565.359 746.61 565.278C746.794 565.196 747.002 565.186 747.192 565.251C748.267 565.686 749.216 566.383 749.953 567.278C750.689 568.174 751.19 569.239 751.409 570.378C751.425 570.521 751.401 570.666 751.342 570.797C751.282 570.928 751.187 571.041 751.069 571.123C750.95 571.205 750.811 571.253 750.668 571.262C750.524 571.272 750.38 571.243 750.251 571.177Z" fill="#263238"/>
<path d="M729.442 560.786C729.265 560.739 729.109 560.632 729.001 560.483C728.948 560.399 728.913 560.305 728.898 560.207C728.883 560.109 728.889 560.009 728.915 559.913C728.941 559.817 728.986 559.727 729.049 559.65C729.111 559.573 729.189 559.509 729.277 559.463C730.274 558.773 731.417 558.321 732.617 558.144C733.817 557.968 735.041 558.07 736.195 558.444C736.286 558.479 736.368 558.533 736.436 558.602C736.504 558.672 736.557 558.755 736.59 558.846C736.624 558.937 736.638 559.034 736.632 559.131C736.626 559.228 736.599 559.322 736.553 559.408C736.464 559.59 736.31 559.733 736.122 559.809C735.934 559.885 735.725 559.89 735.533 559.822C734.613 559.528 733.637 559.45 732.681 559.594C731.725 559.737 730.815 560.098 730.021 560.649C729.852 560.765 729.646 560.814 729.442 560.786Z" fill="#263238"/>
<path opacity="0.5" d="M846.027 976.991L813.339 994.493L744.574 865.974L736.553 850.98L796.472 818.899L785.943 799.192L767.312 809.17L682.919 651.491L677.765 641.9L524.827 356.115L452.01 350.52L445.119 337.622L448.757 335.665L429.685 300.028L422.987 303.611L417.475 293.275L413.231 295.563L415.849 294.157L307.836 98.6368L410.585 296.969L408.959 297.851L414.499 308.159L407.829 311.742L426.901 347.378L430.539 345.422L437.43 358.32L401.71 422.015L644.168 875.042L675.174 858.449L625.564 885.019L636.092 904.753L696.038 872.644L772.852 1016.16L793.109 1005.32L740.192 1033.66L746.531 1045.54L852.366 988.87L846.027 976.991Z" fill="white"/>
<path d="M417.481 293.223L408.976 297.776L428.058 333.423L436.563 328.87L417.481 293.223Z" fill="#263238"/>
<path opacity="0.2" d="M524.827 356.115L442.225 349.776L401.71 422.015L644.168 875.042L767.312 809.17L524.827 356.115Z" fill="#D7CECE"/>
<path opacity="0.6" d="M524.827 356.115L442.225 349.776L401.71 422.015L547.069 693.605L670.186 627.733L524.827 356.115Z" fill="#AAFFEB"/>
<path d="M442.225 349.776L401.71 422.015L524.827 356.115L442.225 349.776Z" fill="#D7CECE"/>
<path opacity="0.3" d="M785.977 799.124L625.603 884.971L636.152 904.678L796.526 818.83L785.977 799.124Z" fill="#D7CECE"/>
<path opacity="0.2" d="M736.581 850.918L696.074 872.601L772.881 1016.09L813.388 994.404L736.581 850.918Z" fill="#D7CECE"/>
<path opacity="0.1" d="M649.195 687.7L608.688 709.383L685.496 852.869L726.002 831.186L649.195 687.7Z" fill="#D7CECE"/>
<path opacity="0.4" d="M667.642 627.776L544.747 693.413L564.968 731.274L687.863 665.637L667.642 627.776Z" fill="#D7CECE"/>
<path opacity="0.4" d="M675.194 641.916L552.299 707.554L557.403 717.11L680.298 651.473L675.194 641.916Z" fill="#D7CECE"/>
<path opacity="0.2" d="M736.592 850.916L696.086 872.599L704.111 887.592L744.618 865.909L736.592 850.916Z" fill="#D7CECE"/>
<path opacity="0.3" d="M846.046 976.911L740.199 1033.57L746.56 1045.45L852.406 988.794L846.046 976.911Z" fill="#D7CECE"/>
<path d="M466.253 458.818L431.433 477.458L438.21 490.117L473.03 471.478L466.253 458.818Z" fill="#D7CECE"/>
<path d="M501.505 524.728L466.684 543.367L473.461 556.027L508.281 537.388L501.505 524.728Z" fill="#D7CECE"/>
<path d="M536.77 590.586L501.95 609.225L508.726 621.885L543.547 603.246L536.77 590.586Z" fill="#D7CECE"/>
<path d="M572.033 656.431L537.212 675.07L543.989 687.73L578.81 669.091L572.033 656.431Z" fill="#D7CECE"/>
<path d="M607.299 722.316L572.478 740.956L579.255 753.616L614.075 734.976L607.299 722.316Z" fill="#D7CECE"/>
<path d="M642.55 788.226L607.729 806.865L614.506 819.525L649.327 800.886L642.55 788.226Z" fill="#D7CECE"/>
<path d="M438.423 325.061L423.844 332.865L442.926 368.512L457.505 360.707L438.423 325.061Z" fill="#D7CECE"/>
<path d="M429.684 300.016L407.815 311.722L426.896 347.369L448.765 335.662L429.684 300.016Z" fill="#D7CECE"/>
<path d="M307.836 98.6368L410.585 296.969L415.849 294.157L307.836 98.6368Z" fill="#878585"/>
<path d="M707.531 716.15L711.307 713.201C712.006 712.652 712.827 712.28 713.7 712.117C714.574 711.954 715.474 712.004 716.323 712.264L724.371 714.634C725.961 715.107 727.414 715.955 728.608 717.106C729.803 718.257 730.703 719.678 731.234 721.249L731.896 723.206C725.97 728.525 715.662 729.903 715.662 729.903L712.768 730.62C712.178 730.782 711.562 730.826 710.955 730.749C710.348 730.672 709.762 730.475 709.231 730.17C708.701 729.865 708.236 729.458 707.864 728.972C707.492 728.486 707.219 727.931 707.063 727.34L705.574 721.607C705.331 720.606 705.386 719.555 705.734 718.585C706.082 717.615 706.707 716.768 707.531 716.15Z" fill="#CE7A63"/>
<path d="M761.827 631.867C763.453 634.348 764.583 636.305 765.906 638.537C767.229 640.77 768.332 642.919 769.489 645.152C771.816 649.624 773.886 654.225 775.691 658.933C777.615 663.849 779.118 668.92 780.183 674.091C780.741 676.821 781.127 679.582 781.341 682.36C781.341 683.821 781.506 685.281 781.341 686.77V688.01C781.317 688.841 781.234 689.67 781.093 690.49C780.84 691.878 780.443 693.236 779.908 694.542C778.354 697.961 776.144 701.042 773.403 703.61C771.408 705.599 769.271 707.441 767.009 709.122C762.945 712.077 758.712 714.792 754.331 717.252C745.95 721.937 737.319 726.16 728.478 729.903L720.568 712.347C728.432 708.428 736.078 704.085 743.471 699.338C746.977 697.087 750.346 694.63 753.559 691.979C754.936 690.836 756.226 689.593 757.417 688.258C758.465 687.183 759.126 685.915 758.878 686.163C758.743 686.403 758.65 686.664 758.603 686.935C758.584 687.183 758.584 687.431 758.603 687.679C758.603 687.679 758.603 687.348 758.603 687.211C758.603 686.411 758.437 685.584 758.327 684.758C758.048 682.99 757.662 681.241 757.169 679.521C756.059 675.736 754.639 672.049 752.925 668.496C751.144 664.774 749.166 661.149 746.999 657.637C745.897 655.846 744.739 654.082 743.582 652.373C742.424 650.664 741.101 648.817 740.081 647.522L761.827 631.867Z" fill="#FD4848"/>
<path d="M1158.57 589.423C1158.57 589.423 1150.61 594.935 1143.22 592.895C1154.03 585.096 1147.44 560.235 1146.25 557.286C1144.5 558.383 1143.02 559.877 1141.95 561.648C1140.88 563.42 1140.24 565.419 1140.08 567.484C1139.92 563.937 1138.46 560.572 1135.98 558.031C1133.5 555.49 1130.17 553.95 1126.63 553.703C1120.51 552.934 1114.66 550.707 1109.58 547.211C1104.49 543.715 1100.32 539.052 1097.41 533.611C1096.08 536.255 1095.29 539.14 1095.1 542.095C1094.91 545.05 1095.31 548.013 1096.28 550.809C1087.16 551.608 1076.99 551.388 1075.67 547.281C1075.48 555.55 1082.5 562.578 1076.52 562.412C1070.54 562.247 1071.62 558.306 1071.62 558.306C1071.62 558.306 1065.53 563.818 1070.65 573.382C1075.78 582.946 1066.27 590.994 1074.01 600.943C1104.83 638.84 1127.26 619.547 1127.26 619.547C1127.93 620.597 1128.29 621.816 1128.29 623.061C1128.29 624.307 1127.93 625.526 1127.26 626.575C1127.26 626.575 1147.11 618.941 1135.53 609.57C1156.56 609.735 1158.57 589.423 1158.57 589.423Z" fill="#E0E0E0"/>
<path d="M923.943 986.775L948.17 993.831L939.24 1022.22L918.982 1016.38L923.943 986.775Z" fill="#7F3E3B"/>
<path opacity="0.2" d="M923.943 986.775L948.197 993.831L943.181 1009.73L921.16 1003.37L923.943 986.775Z" fill="black"/>
<path d="M991.827 884.137C1013.71 850.484 1041.8 816.777 1039.62 778.494L971.762 759.807C971.762 759.807 945.992 833.258 939.764 867.986C933.259 904.091 920.664 996.56 920.664 996.56L947.701 1006.7C947.701 1006.7 983.145 924.266 991.827 884.137Z" fill="#263238"/>
<path d="M942.272 1029.61L935.822 1027.87L934.858 1025.28L931.605 1026.74L895.776 1017.04C896.101 1014.46 897.121 1012.02 898.725 1009.98C898.725 1009.98 911.706 1011.33 917.439 1009.32C917.927 1009.15 918.444 1009.08 918.961 1009.11C919.477 1009.14 919.981 1009.28 920.443 1009.51C924.55 1011.53 935.547 1016.49 942.492 1015.74C942.658 1015.74 942.823 1015.77 942.974 1015.84C943.126 1015.91 943.26 1016.01 943.368 1016.14C943.476 1016.26 943.555 1016.41 943.599 1016.57C943.643 1016.73 943.651 1016.9 943.622 1017.07C942.837 1021.2 942.385 1025.4 942.272 1029.61Z" fill="#263238"/>
<path d="M1028.15 1010.06L1053.34 1011.58L1052.96 1041.35L1031.93 1040.13L1028.15 1010.06Z" fill="#7F3E3B"/>
<path opacity="0.2" d="M1028.15 1010.09L1053.37 1011.58L1053.15 1028.26L1030.25 1026.93L1028.15 1010.09Z" fill="black"/>
<path d="M1065.5 905.607C1074.15 868.316 1097.88 814.213 1090.14 793.901L1014.7 771.576C1014.7 771.576 1007.12 863.769 1009.03 899.902C1011.01 937.468 1027.68 1021.67 1027.68 1021.67L1054.94 1023.1C1054.94 1023.1 1068.03 950.284 1065.5 905.607Z" fill="#263238"/>
<path d="M933.204 653.09L933.727 663.701C930.255 674.339 917.384 667.532 917.384 667.532L909.859 666.76C908.54 666.567 907.335 665.902 906.469 664.888C905.602 663.874 905.132 662.581 905.146 661.248L904.733 653.834C904.56 652.31 904.986 650.779 905.923 649.565C906.859 648.35 908.232 647.549 909.749 647.329L916.309 646.916C918.203 646.819 920.094 647.178 921.821 647.963L933.204 653.09Z" fill="#7F3E3B"/>
<path d="M1057.12 660.889C1052.1 664.527 1047.06 667.945 1042.02 671.445C1036.97 674.946 1031.82 678.281 1026.72 681.698C1016.49 688.533 1006.02 694.955 995.327 701.487L991.055 704.106L987.39 704.409C982.933 704.785 978.445 704.488 974.077 703.527C970.704 702.829 967.38 701.909 964.128 700.771C958.371 698.661 952.764 696.166 947.343 693.302C942.161 690.545 937.2 687.596 932.322 684.592C927.444 681.588 922.923 678.143 918.238 674.67L932.019 651.767C936.539 653.696 941.5 655.846 946.268 657.692C951.036 659.539 955.832 661.468 960.572 663.039C965.085 664.62 969.687 665.936 974.353 666.98C976.276 667.431 978.229 667.744 980.196 667.917C981.116 668.058 982.056 668.001 982.952 667.752L975.015 670.674C984.633 663.756 994.142 656.287 1003.87 649.121C1013.6 641.955 1023.16 634.568 1032.95 627.513L1057.12 660.889Z" fill="#068D7F"/>
<g opacity="0.2">
<path d="M1057.12 660.889C1052.1 664.527 1047.06 667.945 1042.02 671.445C1036.97 674.946 1031.82 678.281 1026.72 681.698C1016.49 688.533 1006.02 694.955 995.327 701.487L991.055 704.106L987.39 704.409C982.933 704.785 978.445 704.488 974.077 703.527C970.704 702.829 967.38 701.909 964.128 700.771C958.371 698.661 952.764 696.166 947.343 693.302C942.161 690.545 937.2 687.596 932.322 684.592C927.444 681.588 922.923 678.143 918.238 674.67L932.019 651.767C936.539 653.696 941.5 655.846 946.268 657.692C951.036 659.539 955.832 661.468 960.572 663.039C965.085 664.62 969.687 665.936 974.353 666.98C976.276 667.431 978.229 667.744 980.196 667.917C981.116 668.058 982.056 668.001 982.952 667.752L975.015 670.674C984.633 663.756 994.142 656.287 1003.87 649.121C1013.6 641.955 1023.16 634.568 1032.95 627.513L1057.12 660.889Z" fill="white"/>
</g>
<path d="M1054.31 620.622C1077.42 624.6 1100.02 631.126 1121.7 640.081C1124.64 641.382 1127.28 643.27 1129.47 645.628C1131.66 647.986 1133.34 650.765 1134.42 653.795C1135.5 656.826 1135.95 660.044 1135.74 663.254C1135.53 666.464 1134.68 669.598 1133.22 672.465C1108.41 722.599 1096.12 787.892 1092.21 798.062C1092.21 798.062 981.684 801.921 967.132 762.508C977.853 695.699 1015.81 648.128 1032.54 628.587C1035.17 625.496 1038.56 623.137 1042.37 621.742C1046.19 620.346 1050.3 619.961 1054.31 620.622Z" fill="white"/>
<path d="M1139.8 657.472C1137.65 650.637 1132.89 640.935 1107.78 633.08C1088.8 640.853 1071.03 651.294 1055 664.087C1053.33 656.526 1053.81 648.652 1056.38 641.349C1058.94 634.046 1063.5 627.603 1069.52 622.744C1055.22 617.866 1044.3 618.803 1040.09 619.988C1035.87 621.173 1007.95 646.172 985.956 694.404C963.962 742.636 937.531 837.916 932.019 862.777C971.239 898.441 1055.27 905.91 1077.54 895.713C1089.45 857.32 1096.26 795.637 1102.57 770.694C1108.88 745.751 1142.62 670.398 1139.8 657.472Z" fill="#068D7F"/>
<path opacity="0.3" d="M1139.8 657.472C1137.65 650.637 1132.89 640.935 1107.78 633.08C1088.8 640.853 1071.03 651.294 1055 664.087C1053.33 656.526 1053.81 648.652 1056.38 641.349C1058.94 634.046 1063.5 627.603 1069.52 622.744C1055.22 617.866 1044.3 618.803 1040.09 619.988C1035.87 621.173 1007.95 646.172 985.956 694.404C963.962 742.636 937.531 837.916 932.019 862.777C971.239 898.441 1055.27 905.91 1077.54 895.713C1089.45 857.32 1096.26 795.637 1102.57 770.694C1108.88 745.751 1142.62 670.398 1139.8 657.472Z" fill="white"/>
<path d="M1063.9 627.43C1066.15 624.965 1069.17 623.341 1072.47 622.827C1074.38 620.285 1075.36 617.159 1075.23 613.98L1111.47 612.409C1105.79 622.717 1101.3 630.847 1103.95 637.214C1096.31 639.419 1082.34 643.36 1069.36 639.419C1056.38 635.478 1060.51 631.454 1063.9 627.43Z" fill="#7F3E3B"/>
<path opacity="0.2" d="M1075.12 615.082L1100.56 620.402C1090.44 626.658 1077.74 626.575 1073.24 621.697C1074.42 619.686 1075.06 617.41 1075.12 615.082Z" fill="black"/>
<path d="M1068.48 639.281L1075.09 636.249L1081.37 641.762C1081.37 641.762 1075.56 644.959 1068.48 639.281Z" fill="#E0E0E0"/>
<path d="M1122.47 597.195C1114.37 611.637 1108.55 621.284 1096.89 623.406C1073.68 627.623 1067.29 614.504 1070.93 597.884C1074.18 582.918 1086.89 561.806 1104.31 563.046C1108.16 563.32 1111.89 564.569 1115.13 566.676C1118.37 568.784 1121.02 571.68 1122.84 575.094C1124.65 578.507 1125.57 582.326 1125.51 586.192C1125.44 590.058 1124.4 593.844 1122.47 597.195Z" fill="#7F3E3B"/>
<path opacity="0.2" d="M1103.18 601.715C1094.6 603.231 1081.95 597.967 1076.63 595.155C1074.37 593.97 1072.91 593.805 1071.84 594.411C1071.49 595.606 1071.19 596.763 1070.93 597.884C1067.29 614.421 1073.68 627.623 1096.89 623.406C1100.17 622.723 1103.29 621.397 1106.05 619.505C1108.82 617.612 1111.19 615.192 1113.01 612.381C1113.82 610.778 1114.48 609.109 1115 607.393C1113.93 605.274 1112.19 603.568 1110.05 602.541C1107.91 601.514 1105.5 601.224 1103.18 601.715Z" fill="#263238"/>
<path d="M1081.1 602.845C1080.27 602.363 1079.48 601.819 1078.73 601.219C1078.68 601.175 1078.64 601.122 1078.62 601.062C1078.59 601.003 1078.58 600.939 1078.58 600.874C1078.58 600.81 1078.59 600.746 1078.62 600.686C1078.64 600.627 1078.68 600.574 1078.73 600.53C1078.78 600.481 1078.83 600.442 1078.9 600.415C1078.96 600.388 1079.03 600.375 1079.1 600.375C1079.17 600.375 1079.24 600.388 1079.3 600.415C1079.37 600.442 1079.42 600.481 1079.47 600.53C1081.15 601.914 1083.12 602.907 1085.23 603.436C1087.34 603.966 1089.55 604.018 1091.68 603.589C1091.81 603.546 1091.96 603.556 1092.08 603.618C1092.21 603.68 1092.3 603.788 1092.34 603.92C1092.37 604.051 1092.34 604.187 1092.27 604.3C1092.2 604.412 1092.09 604.494 1091.96 604.526C1088.25 605.309 1084.39 604.711 1081.1 602.845Z" fill="#263238"/>
<path d="M1118.11 607.448C1112.6 607.451 1107.27 605.408 1103.18 601.715C1103.18 601.715 1114.2 600.53 1118.94 595.155C1117.28 595.171 1115.65 594.706 1114.26 593.816C1112.86 592.925 1111.75 591.648 1111.06 590.139C1112.96 590.21 1114.86 589.895 1116.63 589.213C1118.41 588.531 1120.03 587.496 1121.39 586.17C1113.12 578.674 1109.79 573.768 1109.35 569.33C1100.58 571.012 1089.15 567.87 1086.58 564.59C1094.99 556.68 1108.08 555.936 1117.04 559.436C1126 562.936 1144.24 589.23 1118.11 607.448Z" fill="#E0E0E0"/>
<path opacity="0.2" d="M1101.52 590.635C1103.54 590.654 1105.47 591.466 1106.9 592.895C1104.97 592.505 1103.15 591.737 1101.52 590.635Z" fill="black"/>
<path opacity="0.2" d="M1101.08 591.986C1101.97 592.19 1102.8 592.584 1103.53 593.141C1104.25 593.697 1104.84 594.403 1105.27 595.211C1103.66 594.446 1102.23 593.347 1101.08 591.986Z" fill="black"/>
<path opacity="0.2" d="M1080.85 580.961C1080.85 580.961 1080.13 578.977 1078.89 579.445C1079.32 580.187 1080.02 580.731 1080.85 580.961Z" fill="black"/>
<path opacity="0.2" d="M1080.24 582.064C1080.24 582.064 1079.69 580.327 1078.56 581.347C1078.73 581.63 1078.98 581.852 1079.29 581.981C1079.59 582.11 1079.92 582.139 1080.24 582.064Z" fill="black"/>
<path opacity="0.2" d="M1089.97 570.764C1094.79 571.61 1099.48 573.112 1103.89 575.228C1096.04 573.106 1089.97 570.764 1089.97 570.764Z" fill="black"/>
<path opacity="0.2" d="M1087.47 572.086C1087.47 572.086 1098.08 575.614 1102.54 579.638C1097.32 577.526 1092.28 575.001 1087.47 572.086Z" fill="black"/>
<path d="M1122.47 615.248C1120.8 616.458 1118.91 617.324 1116.9 617.797C1114.9 618.27 1112.82 618.341 1110.78 618.004C1105.27 617.067 1104.94 611.61 1108.41 607.696C1111.88 603.782 1118.09 600.392 1122.61 603.369C1123.59 604.023 1124.39 604.913 1124.94 605.957C1125.49 607 1125.77 608.165 1125.76 609.346C1125.75 610.526 1125.44 611.684 1124.86 612.715C1124.29 613.745 1123.47 614.616 1122.47 615.248Z" fill="#7F3E3B"/>
<path d="M1097.19 589.505C1096.62 590.718 1095.51 591.379 1094.71 590.994C1093.91 590.608 1093.75 589.312 1094.33 588.238C1094.91 587.163 1096.04 586.363 1096.84 586.749C1097.64 587.135 1097.8 588.293 1097.19 589.505Z" fill="#263238"/>
<path d="M1084.27 583.469C1083.66 584.682 1082.56 585.344 1081.76 584.958C1080.96 584.572 1080.82 583.276 1081.4 582.202C1081.98 581.127 1083.11 580.327 1083.88 580.713C1084.65 581.099 1084.85 582.257 1084.27 583.469Z" fill="#263238"/>
<path d="M1087.91 586.17L1083.06 596.423C1080.72 595.913 1078.66 594.558 1077.27 592.62C1080.18 589.56 1083.85 587.333 1087.91 586.17Z" fill="#630F0F"/>
<path d="M1103.12 587.466C1103.26 587.493 1103.4 587.493 1103.53 587.466C1103.74 587.42 1103.91 587.296 1104.03 587.121C1104.14 586.946 1104.18 586.733 1104.14 586.529C1103.93 585.286 1103.42 584.112 1102.67 583.105C1101.91 582.098 1100.92 581.287 1099.78 580.741C1099.69 580.7 1099.59 580.679 1099.49 580.677C1099.38 580.676 1099.28 580.695 1099.19 580.734C1099.09 580.772 1099.01 580.829 1098.93 580.902C1098.86 580.974 1098.8 581.06 1098.77 581.154C1098.68 581.348 1098.68 581.567 1098.76 581.763C1098.83 581.959 1098.99 582.117 1099.18 582.202C1100.07 582.653 1100.84 583.306 1101.44 584.111C1102.03 584.915 1102.43 585.847 1102.6 586.832C1102.62 586.975 1102.68 587.11 1102.77 587.221C1102.86 587.333 1102.98 587.418 1103.12 587.466Z" fill="#263238"/>
<path d="M1079.06 576.414C1079.17 576.474 1079.3 576.506 1079.43 576.506C1079.56 576.506 1079.69 576.474 1079.8 576.414C1080.63 575.863 1081.58 575.52 1082.57 575.415C1083.56 575.309 1084.56 575.444 1085.48 575.807C1085.67 575.892 1085.89 575.9 1086.08 575.827C1086.28 575.755 1086.44 575.61 1086.53 575.421C1086.61 575.23 1086.61 575.017 1086.54 574.823C1086.47 574.629 1086.33 574.469 1086.14 574.374C1084.98 573.892 1083.73 573.7 1082.48 573.815C1081.23 573.93 1080.03 574.349 1078.98 575.036C1078.89 575.09 1078.81 575.161 1078.74 575.246C1078.68 575.33 1078.63 575.427 1078.61 575.529C1078.58 575.632 1078.58 575.738 1078.59 575.843C1078.61 575.947 1078.65 576.048 1078.7 576.138C1078.79 576.259 1078.92 576.353 1079.06 576.414Z" fill="#263238"/>
<path opacity="0.5" d="M1112.22 678.033C1111.47 688.092 1115.27 714.606 1119.9 721.828C1122.03 716.315 1124.15 710.803 1126.16 705.291L1112.22 678.033Z" fill="#068D7F"/>
<path d="M416.262 397.485C415.932 397.461 415.621 397.321 415.383 397.091C415.146 396.86 414.998 396.552 414.965 396.223C414.932 395.893 415.016 395.563 415.203 395.29C415.39 395.016 415.668 394.818 415.987 394.729L533.701 371.853C533.941 371.81 534.188 371.828 534.419 371.905C534.65 371.982 534.858 372.116 535.024 372.294C535.178 372.479 535.281 372.7 535.325 372.937C535.368 373.173 535.35 373.417 535.272 373.644L529.099 392.138C529.005 392.403 528.835 392.634 528.609 392.801C528.383 392.968 528.112 393.064 527.831 393.075L416.317 397.457L416.262 397.485ZM532.02 375.022L434.315 394.012L526.866 390.374L532.02 375.022Z" fill="#263238"/>
<path d="M414.747 447.757C414.484 447.748 414.228 447.672 414.002 447.537C413.696 447.339 413.48 447.028 413.403 446.671C413.325 446.315 413.392 445.942 413.589 445.635L473.232 351.513C473.327 351.359 473.453 351.225 473.6 351.119C473.748 351.014 473.914 350.938 474.091 350.897C474.268 350.856 474.451 350.851 474.63 350.881C474.809 350.91 474.98 350.975 475.134 351.072C475.29 351.165 475.427 351.289 475.535 351.436C475.642 351.583 475.719 351.751 475.76 351.928C475.802 352.106 475.806 352.29 475.774 352.47C475.742 352.649 475.674 352.821 475.575 352.973L415.904 447.123C415.784 447.321 415.613 447.483 415.41 447.595C415.207 447.706 414.978 447.762 414.747 447.757Z" fill="#263238"/>
<path d="M408.49 436.043C408.285 436.046 408.083 436.003 407.897 435.917C407.711 435.831 407.546 435.705 407.415 435.547C407.185 435.261 407.076 434.895 407.112 434.53C407.149 434.164 407.326 433.827 407.608 433.59L506.829 353.662C506.97 353.548 507.133 353.463 507.307 353.412C507.481 353.361 507.663 353.344 507.843 353.363C508.024 353.383 508.199 353.437 508.358 353.524C508.518 353.611 508.658 353.728 508.772 353.869C508.886 354.01 508.971 354.173 509.023 354.347C509.074 354.521 509.09 354.703 509.071 354.884C509.052 355.064 508.998 355.239 508.911 355.398C508.824 355.558 508.707 355.698 508.565 355.812L409.344 435.74C409.108 435.946 408.803 436.054 408.49 436.043Z" fill="#263238"/>
<path d="M1094.41 842.629C1094.05 842.629 1093.69 842.484 1093.44 842.226C1093.18 841.967 1093.03 841.617 1093.03 841.251V798.173C1093.03 778.88 1085.04 771.438 1084.96 771.383L527.004 392.855C526.853 392.752 526.723 392.621 526.623 392.468C526.523 392.316 526.455 392.145 526.421 391.965C526.388 391.786 526.391 391.601 526.429 391.423C526.468 391.244 526.541 391.075 526.646 390.925C526.745 390.775 526.874 390.646 527.025 390.547C527.175 390.447 527.344 390.378 527.521 390.345C527.698 390.312 527.88 390.314 528.057 390.352C528.233 390.39 528.4 390.463 528.547 390.567L1086.67 769.206C1087.16 769.647 1095.79 777.612 1095.79 798.173V841.251C1095.79 841.617 1095.64 841.967 1095.38 842.226C1095.13 842.484 1094.78 842.629 1094.41 842.629Z" fill="#263238"/>
<path d="M1094.11 754.322L1101.55 761.902C1106.07 772.127 1091.93 775.683 1091.93 775.683L1085.81 780.147C1084.68 780.853 1083.34 781.137 1082.02 780.95C1080.69 780.764 1079.48 780.119 1078.59 779.128L1073.33 773.891C1072.16 772.87 1071.44 771.429 1071.32 769.881C1071.21 768.334 1071.71 766.803 1072.72 765.623L1077.35 760.937C1078.71 759.583 1080.37 758.572 1082.2 757.988L1094.11 754.322Z" fill="#7F3E3B"/>
<path d="M1137.71 652.841C1138.76 654.605 1139.47 655.873 1140.3 657.334L1142.56 661.523C1144.05 664.279 1145.45 667.035 1146.83 669.985C1149.59 675.69 1151.96 681.56 1154.19 687.569C1156.44 693.682 1158.32 699.922 1159.84 706.255C1161.4 712.962 1162.43 719.782 1162.9 726.651L1163.15 730.124L1162.46 732.604C1161.08 737.668 1158.62 742.372 1155.24 746.385C1152.8 749.275 1150.08 751.907 1147.11 754.24C1142.16 758.112 1136.86 761.517 1131.29 764.41C1126.05 767.166 1120.84 769.454 1115.61 771.548C1110.37 773.643 1105.24 775.379 1099.51 777.061L1089.34 749.747C1093.36 747.763 1097.91 745.31 1102.05 742.94C1106.18 740.569 1110.31 738.034 1114.12 735.415C1117.63 733.09 1120.91 730.442 1123.93 727.505C1124.98 726.504 1125.91 725.374 1126.69 724.143C1127.18 723.288 1127.04 722.875 1126.69 723.95L1126.24 729.903C1125.51 725.288 1124.42 720.737 1122.99 716.288C1121.42 711.63 1119.63 706.917 1117.48 702.204C1115.33 697.491 1113.04 692.805 1110.59 688.203C1109.35 685.888 1108.08 683.6 1106.76 681.34L1104.77 678.033C1104.14 676.985 1103.37 675.772 1102.9 675.083L1137.71 652.841Z" fill="#068D7F"/>
<g opacity="0.3">
<path d="M1137.71 652.841C1138.76 654.605 1139.47 655.873 1140.3 657.334L1142.56 661.523C1144.05 664.279 1145.45 667.035 1146.83 669.985C1149.59 675.69 1151.96 681.56 1154.19 687.569C1156.44 693.682 1158.32 699.922 1159.84 706.255C1161.4 712.962 1162.43 719.782 1162.9 726.651L1163.15 730.124L1162.46 732.604C1161.08 737.668 1158.62 742.372 1155.24 746.385C1152.8 749.275 1150.08 751.907 1147.11 754.24C1142.16 758.112 1136.86 761.517 1131.29 764.41C1126.05 767.166 1120.84 769.454 1115.61 771.548C1110.37 773.643 1105.24 775.379 1099.51 777.061L1089.34 749.747C1093.36 747.763 1097.91 745.31 1102.05 742.94C1106.18 740.569 1110.31 738.034 1114.12 735.415C1117.63 733.09 1120.91 730.442 1123.93 727.505C1124.98 726.504 1125.91 725.374 1126.69 724.143C1127.18 723.288 1127.04 722.875 1126.69 723.95L1126.24 729.903C1125.51 725.288 1124.42 720.737 1122.99 716.288C1121.42 711.63 1119.63 706.917 1117.48 702.204C1115.33 697.491 1113.04 692.805 1110.59 688.203C1109.35 685.888 1108.08 683.6 1106.76 681.34L1104.77 678.033C1104.14 676.985 1103.37 675.772 1102.9 675.083L1137.71 652.841Z" fill="white"/>
</g>
<path d="M1103.51 629.524C1103.51 629.524 1089.28 639.391 1075.09 636.249C1079.71 640.521 1083.29 645.791 1085.56 651.656C1085.56 651.656 1103.42 646.144 1109.35 636.112C1109.4 631.785 1103.51 629.524 1103.51 629.524Z" fill="white"/>
<path opacity="0.3" d="M983.09 883.778C982.981 883.762 982.876 883.723 982.782 883.665C982.688 883.608 982.606 883.532 982.542 883.442C982.478 883.352 982.432 883.25 982.408 883.142C982.384 883.034 982.381 882.922 982.401 882.814C1000.15 769.812 1052.82 666.567 1053.34 665.52C1053.45 665.325 1053.63 665.179 1053.84 665.113C1054.05 665.046 1054.28 665.063 1054.47 665.161C1054.66 665.272 1054.81 665.448 1054.87 665.657C1054.94 665.866 1054.92 666.092 1054.83 666.291C1054.28 667.311 1001.72 770.198 984.027 883.089C983.987 883.301 983.868 883.49 983.694 883.618C983.52 883.746 983.305 883.803 983.09 883.778Z" fill="#068D7F"/>
<path d="M1068.48 639.281L1063.82 632.115L1055.38 632.308C1056.6 634.661 1058.51 636.587 1060.84 637.833C1063.18 639.078 1065.84 639.583 1068.48 639.281Z" fill="#E0E0E0"/>
<path d="M1072.58 622.827C1072.58 622.827 1065.42 627.65 1063.93 632.115C1058.92 632.843 1054.01 634.09 1049.27 635.836C1053.03 629.473 1058.94 624.663 1065.94 622.276C1068.16 621.788 1070.47 621.98 1072.58 622.827Z" fill="white"/>
<path d="M1056.82 1049.26H1051.3L1049.82 1047.02L1046.92 1049.28H1013.85C1013.63 1046.68 1014.12 1044.06 1015.25 1041.71C1015.25 1041.71 1025.18 1040.82 1029.04 1035.86C1029.17 1035.68 1029.36 1035.53 1029.57 1035.45C1029.79 1035.37 1030.02 1035.35 1030.25 1035.39C1033.56 1036.08 1046.65 1038.56 1053.87 1035.97C1054.04 1035.91 1054.23 1035.88 1054.42 1035.91C1054.61 1035.93 1054.79 1035.99 1054.94 1036.1C1055.1 1036.2 1055.23 1036.35 1055.32 1036.51C1055.41 1036.67 1055.46 1036.86 1055.47 1037.05C1055.61 1041.15 1056.06 1045.23 1056.82 1049.26Z" fill="#263238"/>
<path d="M426.295 514.483L436.465 520.492C448.675 522.614 448.675 506.435 448.675 506.435L451.844 498.663C452.304 497.253 452.252 495.725 451.697 494.349C451.143 492.973 450.122 491.837 448.813 491.139L441.729 486.894C440.336 485.921 438.616 485.535 436.94 485.818C435.265 486.102 433.767 487.033 432.772 488.41L428.941 494.667C427.831 496.484 427.187 498.548 427.067 500.675L426.295 514.483Z" fill="#FFB573"/>
<path d="M300.863 575.449L341.516 560.042L361.746 552.325C368.443 549.762 375.086 547.144 381.48 544.443L379.523 545.517C383.256 543.431 386.757 540.955 389.969 538.131C393.772 534.906 397.658 531.323 401.489 527.547C405.32 523.771 409.179 519.858 412.9 515.779C416.621 511.7 420.507 507.51 424.09 503.652L448.675 520.354C445.726 525.866 442.721 530.965 439.497 536.147C436.272 541.328 432.854 546.289 429.244 551.278C425.501 556.403 421.5 561.334 417.255 566.051C412.419 571.496 406.951 576.344 400.966 580.493L400.663 580.686L399.009 581.54C392.146 585.096 385.394 588.375 378.641 591.6C371.889 594.825 365.136 597.939 358.328 600.916C351.521 603.892 344.796 606.897 337.96 609.763C331.125 612.629 324.345 615.468 317.372 618.169L300.863 575.449Z" fill="#068D7F"/>
<g opacity="0.6">
<path d="M300.863 575.449L341.516 560.042L361.746 552.325C368.443 549.762 375.086 547.144 381.48 544.443L379.523 545.517C383.256 543.431 386.757 540.955 389.969 538.131C393.772 534.906 397.658 531.323 401.489 527.547C405.32 523.771 409.179 519.858 412.9 515.779C416.621 511.7 420.507 507.51 424.09 503.652L448.675 520.354C445.726 525.866 442.721 530.965 439.497 536.147C436.272 541.328 432.854 546.289 429.244 551.278C425.501 556.403 421.5 561.334 417.255 566.051C412.419 571.496 406.951 576.344 400.966 580.493L400.663 580.686L399.009 581.54C392.146 585.096 385.394 588.375 378.641 591.6C371.889 594.825 365.136 597.939 358.328 600.916C351.521 603.892 344.796 606.897 337.96 609.763C331.125 612.629 324.345 615.468 317.372 618.169L300.863 575.449Z" fill="white"/>
</g>
<path d="M365.356 579.638C363.944 576.21 361.42 573.357 358.191 571.535C357.229 568.152 357.463 564.541 358.852 561.31L321.727 545.683C323.656 558.582 325.172 568.779 319.935 574.512C327.019 579.776 340.055 589.257 355.104 590.167C370.152 591.076 367.313 585.178 365.356 579.638Z" fill="#FFB573"/>
<path d="M362.573 522.834L365.081 535.154C367.732 535.228 370.315 534.315 372.33 532.591C370.009 528.524 366.64 525.155 362.573 522.834Z" fill="#ED893E"/>
<path d="M362.022 521.236C362.463 522.669 363.593 523.579 364.53 523.275C365.467 522.972 365.825 521.539 365.384 520.133C364.943 518.728 363.786 517.791 362.849 518.121C361.911 518.452 361.498 519.83 362.022 521.236Z" fill="#263238"/>
<path d="M361.057 509.467C361.057 509.609 361.022 509.749 360.955 509.874C360.887 509.999 360.79 510.106 360.671 510.184C359.745 510.787 358.975 511.601 358.424 512.559C357.873 513.517 357.557 514.592 357.502 515.696C357.505 515.812 357.486 515.927 357.445 516.036C357.404 516.144 357.342 516.243 357.263 516.328C357.183 516.412 357.088 516.48 356.983 516.528C356.877 516.576 356.763 516.602 356.647 516.606C356.413 516.606 356.189 516.513 356.023 516.347C355.858 516.182 355.765 515.957 355.765 515.724C355.808 514.336 356.187 512.979 356.869 511.77C357.55 510.56 358.514 509.534 359.679 508.778C359.772 508.711 359.878 508.663 359.99 508.637C360.103 508.612 360.219 508.609 360.332 508.63C360.445 508.651 360.553 508.694 360.65 508.757C360.746 508.82 360.828 508.903 360.892 508.999C360.997 509.132 361.055 509.297 361.057 509.467Z" fill="#263238"/>
<path d="M312.191 531.792C318.916 548.935 323.849 560.401 336.39 564.507C361.195 572.776 370.29 559.243 368.829 540.391C367.479 523.441 356.73 498.277 337.382 497.009C333.1 496.726 328.816 497.534 324.931 499.358C321.047 501.182 317.689 503.962 315.172 507.437C312.654 510.913 311.061 514.97 310.539 519.23C310.018 523.49 310.586 527.812 312.191 531.792Z" fill="#FFB573"/>
<path d="M354.828 529.89C356.837 529.481 358.656 528.426 360.01 526.886C360.01 526.886 357.832 516.661 352.21 514.814C351.962 508.282 349.454 502.99 342.426 502.522C335.397 502.053 313.734 519.637 313.514 510.101C306.486 511.837 303.399 527.106 306.954 538.241C308.306 542.217 310.534 545.839 313.472 548.84C316.41 551.84 319.985 554.142 323.932 555.577C324.511 551.333 342.894 552.022 345.981 553.4C347.717 543.974 354.828 529.89 354.828 529.89Z" fill="#263238"/>
<path d="M340.524 504.892C340.332 504.895 340.142 504.857 339.966 504.781C339.791 504.705 339.633 504.593 339.504 504.451C337.796 502.832 335.761 501.595 333.537 500.826C331.312 500.056 328.949 499.769 326.605 499.986C326.24 500.015 325.878 499.898 325.599 499.66C325.319 499.423 325.146 499.084 325.117 498.718C325.088 498.353 325.205 497.991 325.443 497.711C325.68 497.432 326.019 497.259 326.385 497.23C329.147 496.979 331.932 497.327 334.548 498.249C337.164 499.172 339.55 500.648 341.544 502.577C341.798 502.839 341.94 503.19 341.94 503.555C341.94 503.92 341.798 504.271 341.544 504.534C341.406 504.659 341.246 504.755 341.07 504.817C340.895 504.878 340.709 504.904 340.524 504.892Z" fill="#263238"/>
<path d="M333.937 509.743C333.678 509.743 333.425 509.671 333.206 509.535C332.986 509.398 332.81 509.203 332.696 508.971C332.696 508.723 329.609 502.963 319.191 504.037C318.828 504.062 318.47 503.947 318.188 503.717C317.907 503.486 317.723 503.158 317.675 502.797C317.637 502.436 317.742 502.073 317.969 501.79C318.197 501.506 318.527 501.323 318.888 501.281C331.346 500.014 335.039 507.455 335.204 507.786C335.355 508.115 335.371 508.491 335.247 508.831C335.123 509.171 334.87 509.449 334.543 509.605C334.357 509.705 334.147 509.753 333.937 509.743Z" fill="#263238"/>
<path d="M329.857 515.448C329.595 515.449 329.339 515.375 329.119 515.233C328.898 515.091 328.724 514.888 328.617 514.649C328.617 514.345 325.861 508.53 315.14 508.916C314.957 508.927 314.773 508.901 314.601 508.838C314.429 508.775 314.272 508.676 314.14 508.55C314.008 508.423 313.904 508.269 313.834 508.1C313.764 507.931 313.73 507.749 313.734 507.565C313.727 507.386 313.755 507.206 313.818 507.038C313.881 506.87 313.977 506.715 314.1 506.584C314.223 506.453 314.371 506.348 314.536 506.276C314.7 506.203 314.877 506.163 315.057 506.16C327.597 505.746 330.987 513.188 331.125 513.519C331.267 513.852 331.275 514.228 331.146 514.567C331.018 514.906 330.763 515.182 330.436 515.338C330.253 515.414 330.056 515.452 329.857 515.448Z" fill="#263238"/>
<path d="M344.327 533.363C345.087 535.221 346.209 536.91 347.629 538.33C349.049 539.749 350.737 540.872 352.596 541.631C357.557 543.616 360.644 539.316 359.789 534.355C359.018 529.863 355.517 523.33 350.308 523.579C349.175 523.623 348.069 523.947 347.091 524.521C346.112 525.095 345.291 525.902 344.699 526.87C344.107 527.838 343.764 528.937 343.699 530.07C343.634 531.202 343.85 532.334 344.327 533.363Z" fill="#FFB573"/>
<path d="M370.841 1006.56L342.812 1006.84L343.886 1039.89L367.286 1039.72L370.841 1006.56Z" fill="#FFB573"/>
<path opacity="0.2" d="M370.841 1006.59L342.812 1006.84L343.39 1025.36L368.857 1025.14L370.841 1006.59Z" fill="black"/>
<path d="M341.075 874.876C331.318 831.357 315.112 785.439 332.173 746.385L410.034 753.193C410.034 753.193 402.344 845.771 400.25 884.908C398.1 925.479 371.696 1019.46 371.696 1019.46H339.614C339.614 1019.46 334.626 919.967 341.075 874.876Z" fill="#263238"/>
<path d="M339.449 1050.14H346.835L348.627 1047.66L351.686 1050.17H393.028C393.421 1047.31 393.04 1044.4 391.926 1041.73C391.926 1041.73 377.566 1039.42 372.027 1035.61C371.554 1035.29 371.02 1035.06 370.457 1034.94C369.893 1034.82 369.312 1034.81 368.747 1034.93C363.758 1035.89 350.529 1038.04 343.39 1035.26C343.214 1035.2 343.027 1035.19 342.845 1035.21C342.662 1035.24 342.488 1035.31 342.335 1035.41C342.182 1035.52 342.054 1035.65 341.96 1035.81C341.866 1035.97 341.808 1036.15 341.792 1036.33C341.359 1040.99 340.576 1045.6 339.449 1050.14Z" fill="#263238"/>
<path d="M258.363 975.668L231.243 968.557L221.376 1000.14L244.004 1006.12L258.363 975.668Z" fill="#FFB573"/>
<path opacity="0.2" d="M258.363 975.696L231.215 968.585L225.703 986.252L250.315 992.729L258.363 975.696Z" fill="black"/>
<path d="M253.512 866.938C255.083 824.466 257.729 760.965 273.66 742.912L360.781 748.81C360.781 748.81 328.231 839.157 315.691 877.329C302.627 917.045 254.835 988.153 254.835 988.153L225.565 980.271C225.565 980.271 237.802 914.151 253.512 866.938Z" fill="#263238"/>
<path d="M378.035 576.276C352.421 571.478 326.354 569.537 300.312 570.488C296.743 570.694 293.254 571.625 290.058 573.226C286.862 574.827 284.026 577.064 281.725 579.799C279.423 582.534 277.704 585.71 276.673 589.132C275.642 592.555 275.32 596.152 275.727 599.703C282.287 661.551 269.691 734.23 269.856 746.33C269.856 746.33 383.437 793.184 413.81 757.685C428.472 683.986 407.36 619.878 397.521 592.951C395.973 588.735 393.369 584.987 389.957 582.067C386.544 579.147 382.439 577.153 378.035 576.276Z" fill="#068D7F"/>
<path opacity="0.1" d="M341.103 874.876C340.276 880.526 339.642 887.058 339.173 894.169C358.895 897.51 378.869 899.143 398.871 899.047C399.533 893.866 400.029 889.125 400.249 884.908C400.553 879.093 400.994 872.065 401.517 864.375C380.513 865.406 359.466 865.213 338.484 863.796C339.449 867.6 340.276 871.183 341.103 874.876Z" fill="#263238"/>
<path opacity="0.1" d="M252.741 869.171C271.503 877.567 291.072 884.031 311.143 888.464C312.869 884.794 314.387 881.031 315.691 877.191C317.097 872.837 318.805 867.793 320.652 862.308C298.284 860.329 276.038 857.155 254.009 852.799C253.816 857.705 253.623 862.446 253.457 866.938L252.741 869.171Z" fill="#263238"/>
<path d="M247.532 853.819C264.069 870.356 332.779 890.807 386.496 882.511C389.647 875.599 392.157 868.412 393.993 861.04C395.267 867.528 395.822 874.137 395.647 880.747C401.145 879.526 406.537 877.867 411.77 875.786C415.436 847.701 424.889 738.116 420.617 679.493C416.345 620.87 396.97 583.938 393.056 581.182C389.142 578.426 362.601 570.957 332.173 568.641C304.363 566.547 279.558 573.382 274.735 581.65C266.825 594.025 272.916 685.612 269.856 713.945C266.797 742.278 249.957 809.17 247.532 853.819Z" fill="#068D7F"/>
<path opacity="0.6" d="M247.532 853.819C264.069 870.356 332.779 890.807 386.496 882.511C389.647 875.599 392.157 868.412 393.993 861.04C395.267 867.528 395.822 874.137 395.647 880.747C401.145 879.526 406.537 877.867 411.77 875.786C415.436 847.701 424.889 738.116 420.617 679.493C416.345 620.87 396.97 583.938 393.056 581.182C389.142 578.426 362.601 570.957 332.173 568.641C304.363 566.547 279.558 573.382 274.735 581.65C266.825 594.025 272.916 685.612 269.856 713.945C266.797 742.278 249.957 809.17 247.532 853.819Z" fill="white"/>
<path d="M212.667 1002.93L217.738 1006.26L220.494 1005.1L221.789 1008.96L252.493 1029.19C254.281 1026.9 255.432 1024.17 255.828 1021.28C255.828 1021.28 247.173 1014.42 246.677 1007.5C246.659 1007.24 246.57 1006.99 246.419 1006.78C246.269 1006.56 246.062 1006.39 245.823 1006.29C242.35 1004.94 228.68 999.206 223.581 992.508C223.462 992.332 223.302 992.188 223.115 992.088C222.927 991.988 222.718 991.936 222.506 991.936C222.294 991.936 222.084 991.988 221.897 992.088C221.71 992.188 221.55 992.332 221.431 992.508C218.783 996.202 215.853 999.686 212.667 1002.93Z" fill="#263238"/>
<path d="M469.566 583.718L477.228 592.703C488.088 598.683 493.379 583.387 493.379 583.387L498.892 577.048C499.784 575.868 500.232 574.412 500.156 572.935C500.081 571.457 499.487 570.054 498.478 568.972L493.159 562.633C492.141 561.274 490.637 560.363 488.961 560.09C487.285 559.818 485.57 560.206 484.174 561.172L478.662 565.83C477.01 567.183 475.722 568.926 474.913 570.901L469.566 583.718Z" fill="#FFB573"/>
<path d="M469.208 584.599C465.212 575.311 471.11 568.366 474.004 561.558C474.5 560.401 477.835 560.538 478.303 562.771C478.707 564.106 478.84 565.508 478.693 566.895C478.546 568.282 478.123 569.625 477.449 570.846C479.598 573.123 480.82 576.119 480.876 579.249C480.932 582.379 479.818 585.417 477.752 587.769C474.613 587.787 471.576 586.66 469.208 584.599Z" fill="#FFB573"/>
<path opacity="0.5" d="M408.738 615.441C405.514 613.07 402.344 610.838 399.257 608.771C390.052 611.775 385.146 618.858 389.418 623.406C394.517 628.918 403.805 634.017 414.554 637.324C412.762 629.249 410.778 621.918 408.738 615.441Z" fill="#068D7F"/>
<path opacity="0.5" d="M327.652 713.862C327.652 713.862 293.311 711.106 283.306 705.125C295.35 714.937 311.887 716.233 327.652 713.862Z" fill="#068D7F"/>
<path opacity="0.5" d="M323.767 717.859C323.767 717.859 298.493 719.43 290.693 716.178C300.394 722.021 312.577 721.221 323.767 717.859Z" fill="#068D7F"/>
<path d="M385.118 578.04L391.182 580.272L397.659 582.532C402.013 584.021 406.396 585.537 410.805 586.887C419.625 589.643 428.5 592.124 437.347 594.218L427.976 594.88C430.942 594.216 433.826 593.227 436.575 591.931C440.131 590.311 443.591 588.489 446.938 586.474C450.466 584.489 453.966 582.202 457.494 579.914C459.258 578.756 461.05 577.571 462.786 576.386L467.885 572.886L489.08 593.722C487.371 595.927 485.938 597.746 484.312 599.648C482.685 601.55 481.142 603.396 479.461 605.16C476.098 608.798 472.598 612.299 468.795 615.716C464.878 619.245 460.735 622.514 456.392 625.501C451.389 628.947 445.996 631.787 440.324 633.962L436.823 635.257L430.925 634.623C420.393 633.551 409.936 631.83 399.615 629.469C394.489 628.312 389.39 627.099 384.319 625.638L376.712 623.351C374.094 622.524 371.806 621.752 368.802 620.595L385.118 578.04Z" fill="#068D7F"/>
<g opacity="0.6">
<path d="M385.118 578.04L391.182 580.272L397.659 582.532C402.013 584.021 406.396 585.537 410.805 586.887C419.625 589.643 428.5 592.124 437.347 594.218L427.976 594.88C430.942 594.216 433.826 593.227 436.575 591.931C440.131 590.311 443.591 588.489 446.938 586.474C450.466 584.489 453.966 582.202 457.494 579.914C459.258 578.756 461.05 577.571 462.786 576.386L467.885 572.886L489.08 593.722C487.371 595.927 485.938 597.746 484.312 599.648C482.685 601.55 481.142 603.396 479.461 605.16C476.098 608.798 472.598 612.299 468.795 615.716C464.878 619.245 460.735 622.514 456.392 625.501C451.389 628.947 445.996 631.787 440.324 633.962L436.823 635.257L430.925 634.623C420.393 633.551 409.936 631.83 399.615 629.469C394.489 628.312 389.39 627.099 384.319 625.638L376.712 623.351C374.094 622.524 371.806 621.752 368.802 620.595L385.118 578.04Z" fill="white"/>
</g>
</svg>
