<svg width="1424" height="1081" viewBox="0 0 1424 1081" fill="none" xmlns="http://www.w3.org/2000/svg">
<path d="M1424 952.218H0V952.93H1424V952.218Z" fill="#EBEBEB"/>
<path d="M1264.2 993.257H1093.63V993.969H1264.2V993.257Z" fill="#EBEBEB"/>
<path d="M965.187 977.85H815.468V978.562H965.187V977.85Z" fill="#EBEBEB"/>
<path d="M1078.22 992.916H1031.66V993.628H1078.22V992.916Z" fill="#EBEBEB"/>
<path d="M298.413 977.508H159.801V978.22H298.413V977.508Z" fill="#EBEBEB"/>
<path d="M340.763 977.508H311.059V978.22H340.763V977.508Z" fill="#EBEBEB"/>
<path d="M576.236 983.631H480.401V984.343H576.236V983.631Z" fill="#EBEBEB"/>
<path d="M674.976 825.197H125.056C120.748 825.189 116.619 823.473 113.575 820.424C110.531 817.375 108.822 813.243 108.822 808.935V35.9021C108.86 31.6188 110.585 27.5232 113.625 24.505C116.665 21.4868 120.772 19.7897 125.056 19.7824H674.976C679.289 19.7824 683.425 21.4957 686.475 24.5455C689.525 27.5952 691.238 31.7315 691.238 36.0445V808.935C691.238 813.248 689.525 817.384 686.475 820.434C683.425 823.484 679.289 825.197 674.976 825.197ZM125.056 20.352C120.936 20.3596 116.989 22.0012 114.078 24.9166C111.168 27.832 109.534 31.7829 109.534 35.9021V808.935C109.534 813.054 111.168 817.005 114.078 819.92C116.989 822.836 120.936 824.477 125.056 824.485H674.976C679.098 824.477 683.049 822.837 685.963 819.922C688.878 817.007 690.519 813.057 690.526 808.935V35.9021C690.519 31.7803 688.878 27.8294 685.963 24.9148C683.049 22.0003 679.098 20.3595 674.976 20.352H125.056Z" fill="#EBEBEB"/>
<path d="M1291.03 825.197H741.078C736.768 825.189 732.636 823.474 729.588 820.425C726.539 817.377 724.824 813.245 724.816 808.935V35.9021C724.861 31.6162 726.593 27.5206 729.637 24.5032C732.682 21.4858 736.792 19.7897 741.078 19.7824H1291.03C1295.31 19.7972 1299.41 21.4976 1302.44 24.515C1305.47 27.5324 1307.19 31.6237 1307.23 35.9021V808.935C1307.23 813.238 1305.53 817.366 1302.49 820.414C1299.45 823.462 1295.33 825.182 1291.03 825.197ZM741.078 20.352C736.956 20.3595 733.006 22.0003 730.091 24.9148C727.176 27.8294 725.536 31.7803 725.528 35.9021V808.935C725.536 813.057 727.176 817.007 730.091 819.922C733.006 822.837 736.956 824.477 741.078 824.485H1291.03C1295.15 824.477 1299.1 822.837 1302.01 819.922C1304.93 817.007 1306.57 813.057 1306.58 808.935V35.9021C1306.57 31.7803 1304.93 27.8294 1302.01 24.9148C1299.1 22.0003 1295.15 20.3595 1291.03 20.352H741.078Z" fill="#EBEBEB"/>
<path d="M1290.46 667.133H133.543V687.126H1290.46V667.133Z" fill="#EBEBEB"/>
<path d="M320.912 565.545L1103.06 565.545V93.688L320.912 93.688L320.912 565.545Z" fill="#F0F0F0"/>
<path d="M1081.93 544.412V114.82L342.045 114.82V544.412H1081.93Z" fill="#FAFAFA"/>
<path d="M962.112 544.412L827.287 114.82H693.773L828.597 544.412H962.112Z" fill="white"/>
<path d="M787.216 544.412L652.391 114.82H600.33L735.154 544.412H787.216Z" fill="white"/>
<path d="M344.75 544.412V114.82H342.073V544.412H344.75Z" fill="#E6E6E6"/>
<path d="M1280.63 687.126H143.34V952.218H1280.63V687.126Z" fill="#E8E8E8"/>
<path d="M814.015 687.126H737.432L609.984 952.218H686.567L814.015 687.126Z" fill="#FAFAFA"/>
<path d="M1165.06 687.126H1088.48L961.029 952.218H1037.61L1165.06 687.126Z" fill="#FAFAFA"/>
<path d="M708.668 687.126H632.085L504.666 952.218H581.248L708.668 687.126Z" fill="#FAFAFA"/>
<path d="M248.972 649.19L224.992 621.422V571.298C225.458 571.283 225.9 571.087 226.224 570.752C226.548 570.417 226.729 569.97 226.729 569.503C226.729 569.02 226.537 568.556 226.195 568.215C225.854 567.873 225.39 567.681 224.907 567.681H199.36C198.877 567.681 198.413 567.873 198.071 568.215C197.729 568.556 197.537 569.02 197.537 569.503C197.537 569.97 197.718 570.417 198.042 570.752C198.367 571.087 198.809 571.283 199.275 571.298V621.422L175.38 649.19C174.024 650.757 173.148 652.681 172.856 654.733C172.564 656.784 172.868 658.876 173.733 660.759C174.598 662.642 175.987 664.236 177.733 665.351C179.48 666.466 181.51 667.055 183.582 667.047H240.77C242.842 667.055 244.872 666.466 246.619 665.351C248.365 664.236 249.754 662.642 250.619 660.759C251.483 658.876 251.788 656.784 251.496 654.733C251.204 652.681 250.328 650.757 248.972 649.19Z" fill="#F5F5F5"/>
<path d="M859.697 649.19L835.717 621.337V515.961C836.2 515.961 836.664 515.769 837.006 515.427C837.348 515.085 837.54 514.622 837.54 514.138C837.54 513.655 837.348 513.191 837.006 512.849C836.664 512.508 836.2 512.316 835.717 512.316H810.284C809.801 512.316 809.337 512.508 808.995 512.849C808.654 513.191 808.462 513.655 808.462 514.138C808.462 514.622 808.654 515.085 808.995 515.427C809.337 515.769 809.801 515.961 810.284 515.961V621.337L786.048 649.19C784.692 650.757 783.816 652.681 783.524 654.733C783.232 656.784 783.536 658.876 784.401 660.759C785.266 662.642 786.655 664.236 788.401 665.351C790.148 666.466 792.178 667.055 794.25 667.047H851.552C853.619 667.044 855.642 666.447 857.38 665.328C859.118 664.209 860.497 662.614 861.355 660.733C862.213 658.852 862.513 656.765 862.219 654.719C861.925 652.672 861.05 650.754 859.697 649.19Z" fill="#F5F5F5"/>
<path d="M606.652 666.99H408.204L423.868 468.513H606.652V666.99Z" fill="#E0E0E0"/>
<path d="M694.001 613.761H495.552L477.553 468.513H676.001L694.001 613.761Z" fill="#F0F0F0"/>
<path d="M694.001 613.761H495.552L557.524 667.133H755.973L694.001 613.761Z" fill="#F0F0F0"/>
<path d="M504.324 592.686L491.565 489.702C491.367 488.482 491.441 487.232 491.783 486.044C492.125 484.855 492.726 483.757 493.543 482.829C494.36 481.9 495.372 481.164 496.508 480.673C497.643 480.183 498.873 479.949 500.109 479.991H656.379C659.047 480.075 661.6 481.094 663.594 482.869C665.587 484.644 666.894 487.062 667.287 489.702L680.046 592.772C680.239 593.99 680.161 595.237 679.817 596.422C679.473 597.606 678.871 598.701 678.055 599.626C677.238 600.551 676.228 601.285 675.095 601.774C673.962 602.263 672.735 602.495 671.502 602.455H515.232C512.556 602.368 509.995 601.341 508.001 599.555C506.006 597.769 504.704 595.337 504.324 592.686Z" fill="#E0E0E0"/>
<path d="M1027.67 666.99H1191.63L1178.7 503.06H1027.67V666.99Z" fill="#E0E0E0"/>
<path d="M955.532 623.046H1119.46L1134.36 503.06H970.399L955.532 623.046Z" fill="#F0F0F0"/>
<path d="M955.532 623.046H1119.46L1068.28 667.133H904.325L955.532 623.046Z" fill="#F0F0F0"/>
<path d="M1112.23 605.644L1122.8 520.461C1122.96 519.456 1122.89 518.428 1122.61 517.451C1122.33 516.474 1121.83 515.571 1121.16 514.807C1120.49 514.042 1119.65 513.436 1118.72 513.03C1117.79 512.624 1116.78 512.429 1115.76 512.458H986.661C984.458 512.516 982.346 513.351 980.7 514.815C979.053 516.28 977.977 518.279 977.662 520.461L967.095 605.644C966.936 606.647 967 607.672 967.281 608.647C967.563 609.622 968.055 610.524 968.723 611.287C969.392 612.051 970.22 612.658 971.15 613.066C972.079 613.474 973.087 613.672 974.102 613.647H1103.23C1105.43 613.589 1107.54 612.754 1109.19 611.29C1110.84 609.825 1111.91 607.826 1112.23 605.644Z" fill="#E0E0E0"/>
<path d="M712 1080.83C1016.97 1080.83 1264.2 1066.4 1264.2 1048.59C1264.2 1030.79 1016.97 1016.35 712 1016.35C407.029 1016.35 159.801 1030.79 159.801 1048.59C159.801 1066.4 407.029 1080.83 712 1080.83Z" fill="#F5F5F5"/>
<path opacity="0.2" d="M247.776 220.054L400.6 803.894C405.298 821.647 416.832 836.818 432.681 846.093C448.531 855.368 467.407 857.992 485.185 853.392C502.938 848.694 518.11 837.16 527.384 821.311C536.659 805.461 539.284 786.585 534.684 768.806L381.86 184.966L247.776 220.054Z" fill="#1C2BAE"/>
<path d="M480.856 836.874C467.461 840.361 453.23 838.395 441.282 831.407C429.334 824.419 420.645 812.978 417.118 799.593L301.888 359.008C301.888 359.008 325.213 343.087 352.411 345.793C370.081 347.057 387.803 344.21 404.188 337.477L518.108 773.221C521.579 786.6 519.607 800.81 512.626 812.739C505.644 824.669 494.221 833.347 480.856 836.874Z" fill="#870808"/>
<path opacity="0.2" d="M408.745 609.66C408.745 612.077 408.028 614.439 406.686 616.448C405.343 618.457 403.435 620.023 401.203 620.948C398.97 621.873 396.513 622.115 394.143 621.643C391.773 621.172 389.596 620.008 387.888 618.299C386.179 616.591 385.015 614.414 384.544 612.044C384.072 609.674 384.314 607.217 385.239 604.985C386.164 602.752 387.73 600.844 389.739 599.501C391.748 598.159 394.111 597.442 396.527 597.442C399.765 597.45 402.868 598.739 405.158 601.029C407.448 603.319 408.737 606.422 408.745 609.66Z" fill="black"/>
<path d="M401.995 609.66C402.001 610.743 401.685 611.803 401.088 612.706C400.49 613.609 399.638 614.314 398.64 614.732C397.641 615.15 396.541 615.263 395.478 615.055C394.415 614.847 393.438 614.329 392.671 613.565C391.903 612.801 391.38 611.827 391.166 610.766C390.953 609.704 391.06 608.603 391.473 607.602C391.886 606.602 392.586 605.746 393.486 605.144C394.386 604.542 395.444 604.22 396.527 604.22C397.972 604.22 399.359 604.792 400.384 605.812C401.408 606.831 401.988 608.215 401.995 609.66Z" fill="#AE1C1C"/>
<path opacity="0.2" d="M411.935 479.25C411.94 480.689 411.518 482.097 410.723 483.296C409.927 484.494 408.793 485.429 407.465 485.983C406.136 486.536 404.674 486.682 403.262 486.403C401.851 486.123 400.554 485.431 399.537 484.414C398.52 483.396 397.827 482.1 397.548 480.688C397.269 479.277 397.415 477.814 397.968 476.486C398.521 475.158 399.457 474.024 400.655 473.228C401.854 472.432 403.262 472.011 404.701 472.016C406.617 472.024 408.453 472.788 409.808 474.143C411.163 475.498 411.927 477.334 411.935 479.25Z" fill="black"/>
<path d="M407.919 479.25C407.925 479.895 407.738 480.526 407.384 481.065C407.029 481.603 406.522 482.023 405.928 482.273C405.334 482.522 404.679 482.589 404.046 482.464C403.414 482.34 402.832 482.03 402.377 481.574C401.921 481.119 401.611 480.537 401.487 479.905C401.362 479.273 401.429 478.617 401.678 478.023C401.928 477.429 402.348 476.922 402.886 476.567C403.425 476.213 404.056 476.026 404.701 476.032C405.552 476.039 406.366 476.381 406.968 476.983C407.57 477.585 407.912 478.399 407.919 479.25Z" fill="#AE1C1C"/>
<path opacity="0.2" d="M440.728 760.746C449.379 760.746 456.392 753.733 456.392 745.082C456.392 736.431 449.379 729.418 440.728 729.418C432.077 729.418 425.064 736.431 425.064 745.082C425.064 753.733 432.077 760.746 440.728 760.746Z" fill="black"/>
<path d="M440.728 752.088C444.597 752.088 447.734 748.952 447.734 745.082C447.734 741.213 444.597 738.076 440.728 738.076C436.859 738.076 433.722 741.213 433.722 745.082C433.722 748.952 436.859 752.088 440.728 752.088Z" fill="#AE1C1C"/>
<path opacity="0.2" d="M456.107 684.449C461.031 684.449 465.022 680.457 465.022 675.534C465.022 670.611 461.031 666.62 456.107 666.62C451.184 666.62 447.193 670.611 447.193 675.534C447.193 680.457 451.184 684.449 456.107 684.449Z" fill="black"/>
<path d="M460.066 675.534C460.066 676.324 459.831 677.096 459.392 677.752C458.952 678.409 458.328 678.92 457.598 679.221C456.867 679.522 456.064 679.599 455.29 679.443C454.516 679.286 453.806 678.904 453.249 678.343C452.693 677.783 452.315 677.07 452.164 676.295C452.014 675.519 452.097 674.717 452.403 673.989C452.709 673.261 453.225 672.64 453.884 672.205C454.544 671.77 455.317 671.541 456.107 671.547C457.16 671.555 458.166 671.978 458.908 672.725C459.65 673.472 460.066 674.482 460.066 675.534Z" fill="#AE1C1C"/>
<path opacity="0.2" d="M482.708 799.223C488.48 799.223 493.16 794.543 493.16 788.771C493.16 782.998 488.48 778.319 482.708 778.319C476.935 778.319 472.255 782.998 472.255 788.771C472.255 794.543 476.935 799.223 482.708 799.223Z" fill="black"/>
<path d="M487.378 788.743C487.378 789.666 487.104 790.569 486.591 791.337C486.078 792.106 485.348 792.704 484.495 793.058C483.642 793.411 482.702 793.504 481.796 793.324C480.89 793.143 480.058 792.698 479.405 792.045C478.752 791.392 478.307 790.56 478.127 789.654C477.946 788.748 478.039 787.809 478.392 786.955C478.746 786.102 479.345 785.372 480.113 784.859C480.881 784.346 481.784 784.072 482.708 784.072C483.946 784.072 485.134 784.564 486.01 785.44C486.886 786.316 487.378 787.504 487.378 788.743Z" fill="#AE1C1C"/>
<path opacity="0.2" d="M415.523 540.596C415.523 543.013 414.807 545.375 413.464 547.384C412.122 549.393 410.214 550.959 407.981 551.884C405.749 552.809 403.292 553.051 400.922 552.579C398.552 552.108 396.375 550.944 394.666 549.235C392.957 547.527 391.794 545.35 391.322 542.98C390.851 540.61 391.093 538.153 392.018 535.92C392.942 533.688 394.508 531.78 396.518 530.437C398.527 529.095 400.889 528.378 403.306 528.378C406.546 528.378 409.654 529.665 411.945 531.957C414.236 534.248 415.523 537.356 415.523 540.596Z" fill="black"/>
<path d="M411.935 540.596C411.935 542.286 411.434 543.938 410.495 545.343C409.556 546.748 408.222 547.843 406.66 548.49C405.099 549.136 403.381 549.306 401.724 548.976C400.066 548.646 398.544 547.832 397.349 546.638C396.154 545.443 395.341 543.92 395.011 542.263C394.681 540.606 394.85 538.888 395.497 537.326C396.144 535.765 397.239 534.431 398.644 533.492C400.049 532.553 401.701 532.052 403.391 532.052C405.657 532.052 407.83 532.952 409.432 534.554C411.035 536.157 411.935 538.33 411.935 540.596Z" fill="#AE1C1C"/>
<path opacity="0.2" d="M443.263 589.696C443.263 591.385 442.762 593.037 441.823 594.442C440.884 595.847 439.55 596.943 437.988 597.589C436.427 598.236 434.709 598.405 433.052 598.075C431.395 597.746 429.872 596.932 428.677 595.737C427.482 594.542 426.669 593.02 426.339 591.362C426.009 589.705 426.179 587.987 426.825 586.426C427.472 584.865 428.567 583.53 429.972 582.592C431.377 581.653 433.029 581.152 434.719 581.152C436.985 581.152 439.158 582.052 440.76 583.654C442.363 585.256 443.263 587.43 443.263 589.696Z" fill="black"/>
<path d="M440.728 589.696C440.751 590.911 440.411 592.106 439.752 593.128C439.093 594.15 438.145 594.952 437.028 595.433C435.911 595.914 434.677 596.052 433.482 595.829C432.286 595.605 431.185 595.031 430.317 594.18C429.449 593.328 428.855 592.237 428.609 591.047C428.363 589.856 428.478 588.619 428.938 587.493C429.398 586.368 430.182 585.405 431.191 584.727C432.201 584.049 433.389 583.686 434.605 583.686C436.209 583.686 437.75 584.315 438.895 585.439C440.04 586.563 440.698 588.091 440.728 589.696Z" fill="#AE1C1C"/>
<path d="M355.923 254.565L304.485 268.031L350.645 444.361L402.084 430.895L355.923 254.565Z" fill="white"/>
<path d="M374.68 88.1653L371.925 88.8866L377.392 109.771L380.147 109.049L374.68 88.1653Z" fill="#254393"/>
<path d="M368.417 75.4323L356.854 31.3167C356.099 28.4238 354.407 25.8626 352.042 24.0334C349.676 22.2042 346.772 21.2101 343.782 21.2063C342.618 21.2017 341.459 21.355 340.336 21.662L314.334 28.4687L313.622 25.6207L339.624 18.814C340.98 18.4505 342.378 18.2685 343.782 18.2729C347.404 18.2755 350.923 19.479 353.789 21.6949C356.654 23.9109 358.704 27.0142 359.617 30.5193L371.009 74.6348L368.417 75.4323Z" fill="#254393"/>
<path d="M205.767 64.2303L342.147 28.528C343.782 28.1231 345.511 28.3785 346.96 29.2391C348.408 30.0996 349.46 31.496 349.886 33.1259L387.211 175.705L238.433 214.653L201.108 72.0739C200.893 71.2529 200.843 70.3973 200.961 69.5568C201.08 68.7164 201.364 67.9078 201.797 67.1781C202.231 66.4483 202.805 65.812 203.486 65.306C204.167 64.7999 204.943 64.4343 205.767 64.2303Z" fill="#254393"/>
<path opacity="0.2" d="M277.649 45.384L270.292 47.3098L309.24 196.088L316.597 194.162L277.649 45.384Z" fill="black"/>
<path opacity="0.2" d="M305.48 39.6959L298.104 41.5969L336.552 190.775L343.928 188.874L305.48 39.6959Z" fill="black"/>
<path opacity="0.2" d="M332.723 30.9934L325.367 32.9192L364.315 181.698L371.671 179.772L332.723 30.9934Z" fill="black"/>
<path opacity="0.2" d="M250.069 52.6152L242.713 54.541L281.661 203.319L289.017 201.394L250.069 52.6152Z" fill="black"/>
<path opacity="0.2" d="M222.553 59.8381L215.197 61.7639L254.145 210.542L261.501 208.617L222.553 59.8381Z" fill="black"/>
<path d="M384.68 165.571L235.874 204.526C230.807 205.852 227.775 211.035 229.102 216.102L234.273 235.857C235.599 240.924 240.782 243.956 245.849 242.63L394.655 203.674C399.722 202.348 402.755 197.165 401.428 192.098L396.257 172.343C394.93 167.276 389.747 164.244 384.68 165.571Z" fill="#254393"/>
<path d="M1255.69 385.352L1254.13 404.599L1256.97 404.828L1258.52 385.582L1255.69 385.352Z" fill="#636B6F"/>
<path d="M1262.12 307.234L1257.51 364.378L1260.34 364.608L1264.96 307.464L1262.12 307.234Z" fill="#636B6F"/>
<path d="M797.867 72.5272L747.486 695.641L1121.94 725.887L1228.4 635.377L1270.81 110.747L797.867 72.5272Z" fill="white"/>
<path d="M1121.94 728.507H1121.71L747.287 698.233C746.941 698.208 746.603 698.114 746.294 697.956C745.985 697.798 745.711 697.58 745.488 697.315C745.265 697.049 745.097 696.741 744.995 696.41C744.893 696.078 744.859 695.73 744.894 695.385L795.247 72.3278C795.276 71.9833 795.372 71.6478 795.531 71.3407C795.69 71.0337 795.908 70.7611 796.173 70.5387C796.437 70.3163 796.744 70.1485 797.074 70.045C797.403 69.9415 797.751 69.9043 798.095 69.9355L1271.01 108.07C1271.35 108.095 1271.69 108.189 1272 108.347C1272.31 108.505 1272.58 108.723 1272.8 108.988C1273.03 109.254 1273.19 109.562 1273.3 109.893C1273.4 110.225 1273.43 110.573 1273.4 110.918L1230.99 635.52C1230.97 635.861 1230.87 636.193 1230.72 636.497C1230.56 636.801 1230.34 637.069 1230.08 637.286L1123.62 727.824C1123.16 728.249 1122.57 728.492 1121.94 728.507ZM750.306 693.249L1121.06 723.238L1225.89 634.096L1267.99 113.14L800.288 75.3467L750.306 693.249Z" fill="#636B6F"/>
<path opacity="0.2" d="M1111.35 633.299L1121.94 725.887L1228.4 635.378L1111.35 633.299Z" fill="#636B6F"/>
<path d="M1129.89 627.403L1121.94 725.887L1228.4 635.378L1129.89 627.403Z" fill="white"/>
<path d="M1121.94 728.507C1121.53 728.511 1121.11 728.413 1120.74 728.222C1120.28 727.988 1119.9 727.622 1119.65 727.17C1119.4 726.719 1119.28 726.203 1119.32 725.687L1127.3 627.204C1127.32 626.859 1127.41 626.522 1127.57 626.213C1127.72 625.905 1127.94 625.632 1128.21 625.409C1128.47 625.186 1128.77 625.017 1129.1 624.914C1129.43 624.811 1129.77 624.776 1130.11 624.811L1228.6 632.757C1229.11 632.799 1229.6 632.991 1230.01 633.31C1230.41 633.63 1230.72 634.061 1230.88 634.551C1231.04 635.052 1231.05 635.59 1230.91 636.097C1230.77 636.604 1230.48 637.058 1230.08 637.399L1123.62 727.937C1123.15 728.328 1122.55 728.531 1121.94 728.507ZM1132.28 630.223L1124.96 719.821L1221.79 637.456L1132.28 630.223Z" fill="#636B6F"/>
<path d="M1027.96 180.637H1027.13C1024.72 180.441 1022.48 179.297 1020.91 177.455C1019.34 175.613 1018.57 173.224 1018.76 170.812L1020.69 146.917C1020.79 145.72 1021.12 144.554 1021.67 143.485C1022.21 142.415 1022.96 141.464 1023.88 140.685C1024.79 139.906 1025.85 139.315 1026.99 138.945C1028.13 138.575 1029.34 138.434 1030.53 138.53C1031.73 138.625 1032.9 138.955 1033.97 139.501C1035.04 140.047 1035.99 140.799 1036.77 141.712C1037.54 142.626 1038.14 143.684 1038.51 144.826C1038.88 145.969 1039.02 147.173 1038.92 148.369L1036.99 172.264C1036.79 174.534 1035.76 176.65 1034.09 178.198C1032.42 179.747 1030.23 180.617 1027.96 180.637Z" fill="#636B6F"/>
<path d="M1041.83 157.711H1041.03L1017.13 155.774C1015.89 155.744 1014.67 155.46 1013.54 154.94C1012.41 154.421 1011.4 153.677 1010.57 152.753C1009.74 151.83 1009.1 150.747 1008.7 149.57C1008.3 148.393 1008.15 147.146 1008.25 145.908C1008.35 144.669 1008.7 143.463 1009.28 142.364C1009.86 141.265 1010.66 140.296 1011.62 139.517C1012.59 138.737 1013.71 138.162 1014.91 137.829C1016.1 137.495 1017.36 137.409 1018.59 137.576L1042.37 139.398C1044.67 139.644 1046.79 140.752 1048.31 142.5C1049.82 144.248 1050.62 146.505 1050.53 148.817C1050.45 151.129 1049.49 153.324 1047.86 154.958C1046.22 156.593 1044.02 157.546 1041.71 157.625L1041.83 157.711Z" fill="#636B6F"/>
<path d="M1007.22 436.957H1006.43C1005.23 436.864 1004.07 436.535 1003 435.991C1001.93 435.446 1000.98 434.696 1000.2 433.783C999.422 432.87 998.832 431.813 998.464 430.671C998.095 429.53 997.956 428.327 998.053 427.132L999.99 403.237C1000.02 401.995 1000.3 400.772 1000.82 399.642C1001.34 398.513 1002.09 397.502 1003.01 396.67C1003.93 395.839 1005.02 395.204 1006.19 394.805C1007.37 394.406 1008.62 394.251 1009.86 394.35C1011.1 394.449 1012.3 394.799 1013.4 395.38C1014.5 395.961 1015.47 396.759 1016.25 397.727C1017.03 398.694 1017.6 399.811 1017.94 401.008C1018.27 402.205 1018.36 403.458 1018.19 404.69L1016.25 428.584C1016.07 430.856 1015.04 432.976 1013.37 434.526C1011.69 436.076 1009.5 436.944 1007.22 436.957Z" fill="#636B6F"/>
<path d="M1019.19 437.926H1018.36L994.465 435.989C993.224 435.954 992.004 435.666 990.878 435.144C989.752 434.621 988.745 433.875 987.917 432.951C987.089 432.026 986.457 430.943 986.062 429.767C985.666 428.591 985.513 427.346 985.614 426.109C985.715 424.872 986.066 423.669 986.647 422.572C987.228 421.475 988.026 420.508 988.993 419.73C989.959 418.952 991.074 418.378 992.269 418.045C993.465 417.711 994.716 417.625 995.946 417.79L1019.84 419.727C1022.14 419.972 1024.26 421.081 1025.78 422.829C1027.29 424.577 1028.09 426.834 1028.01 429.146C1027.92 431.458 1026.97 433.652 1025.33 435.287C1023.69 436.922 1021.5 437.875 1019.19 437.954V437.926Z" fill="#636B6F"/>
<path d="M1158.65 308.199H1157.85L1133.96 306.262C1131.54 306.066 1129.3 304.918 1127.73 303.07C1126.16 301.222 1125.39 298.826 1125.59 296.408C1125.78 293.991 1126.93 291.751 1128.78 290.181C1130.63 288.611 1133.02 287.839 1135.44 288.035L1159.34 289.972C1161.69 290.158 1163.88 291.246 1165.44 293.008C1167.01 294.77 1167.84 297.07 1167.75 299.428C1167.66 301.785 1166.67 304.017 1164.97 305.657C1163.27 307.297 1161.01 308.218 1158.65 308.228V308.199Z" fill="#636B6F"/>
<path d="M1157.71 320.132H1156.89C1155.69 320.035 1154.52 319.703 1153.45 319.156C1152.39 318.608 1151.44 317.855 1150.66 316.94C1149.88 316.025 1149.29 314.965 1148.92 313.822C1148.55 312.679 1148.42 311.475 1148.51 310.278L1150.45 286.384C1150.76 284.063 1151.95 281.951 1153.78 280.482C1155.6 279.014 1157.92 278.301 1160.25 278.491C1162.59 278.681 1164.76 279.759 1166.32 281.503C1167.88 283.247 1168.72 285.524 1168.65 287.864L1166.74 311.759C1166.55 314.029 1165.52 316.145 1163.85 317.694C1162.18 319.242 1159.99 320.112 1157.71 320.132Z" fill="#636B6F"/>
<path d="M902.332 287.494H901.534L877.64 285.558C876.399 285.522 875.179 285.234 874.053 284.712C872.927 284.19 871.92 283.444 871.092 282.519C870.264 281.595 869.632 280.511 869.237 279.335C868.841 278.159 868.688 276.915 868.789 275.678C868.89 274.441 869.241 273.237 869.822 272.141C870.403 271.044 871.201 270.077 872.168 269.299C873.134 268.52 874.249 267.947 875.445 267.613C876.64 267.28 877.891 267.193 879.121 267.359L903.015 269.295C905.317 269.543 907.439 270.654 908.953 272.404C910.468 274.155 911.261 276.415 911.175 278.728C911.088 281.041 910.127 283.235 908.486 284.867C906.845 286.5 904.645 287.449 902.332 287.523V287.494Z" fill="#636B6F"/>
<path d="M877.497 297.491H876.671C875.474 297.394 874.308 297.062 873.24 296.514C872.171 295.966 871.221 295.213 870.443 294.298C869.666 293.383 869.076 292.324 868.708 291.181C868.34 290.038 868.201 288.834 868.298 287.637L870.235 263.742C870.27 262.501 870.558 261.281 871.08 260.155C871.603 259.03 872.349 258.022 873.273 257.194C874.198 256.366 875.281 255.735 876.457 255.339C877.633 254.943 878.878 254.791 880.115 254.892C881.352 254.992 882.555 255.344 883.652 255.924C884.749 256.505 885.716 257.303 886.494 258.27C887.272 259.237 887.846 260.351 888.179 261.547C888.513 262.742 888.599 263.993 888.434 265.223L886.525 289.118C886.334 291.387 885.302 293.503 883.632 295.052C881.963 296.601 879.775 297.47 877.497 297.491Z" fill="#636B6F"/>
<path d="M943.03 208.035C941.692 208.055 940.366 207.777 939.149 207.22C937.932 206.663 936.855 205.842 935.995 204.817L920.445 186.561C918.874 184.714 918.101 182.319 918.296 179.902C918.491 177.485 919.638 175.245 921.485 173.674C923.332 172.103 925.727 171.33 928.144 171.525C930.561 171.72 932.801 172.867 934.372 174.713L949.922 192.998C951.487 194.845 952.255 197.239 952.057 199.652C951.86 202.065 950.713 204.302 948.868 205.87C947.242 207.264 945.172 208.031 943.03 208.035Z" fill="#636B6F"/>
<path d="M918.366 197.554C916.491 197.569 914.657 197.006 913.113 195.943C911.568 194.88 910.388 193.367 909.732 191.611C909.076 189.854 908.976 187.939 909.446 186.124C909.915 184.308 910.931 182.681 912.357 181.463L930.641 165.913C931.546 165.073 932.612 164.425 933.774 164.008C934.936 163.591 936.171 163.414 937.404 163.487C938.636 163.56 939.841 163.883 940.946 164.434C942.051 164.986 943.032 165.756 943.831 166.697C944.63 167.639 945.23 168.733 945.595 169.912C945.96 171.092 946.082 172.333 945.954 173.562C945.825 174.79 945.45 175.979 944.849 177.058C944.249 178.137 943.436 179.084 942.46 179.84L924.204 195.361C922.573 196.75 920.508 197.525 918.366 197.554Z" fill="#636B6F"/>
<path d="M1109.61 403.949C1108.27 403.954 1106.95 403.668 1105.74 403.113C1104.52 402.557 1103.44 401.744 1102.57 400.731L1087.05 382.475C1086.28 381.561 1085.69 380.502 1085.32 379.359C1084.95 378.217 1084.81 377.013 1084.9 375.816C1085 374.619 1085.33 373.453 1085.88 372.385C1086.43 371.316 1087.18 370.366 1088.09 369.588C1089.01 368.81 1090.07 368.22 1091.21 367.851C1092.35 367.482 1093.55 367.342 1094.75 367.439C1095.95 367.535 1097.11 367.866 1098.18 368.413C1099.25 368.961 1100.2 369.713 1100.98 370.627L1116.42 388.883C1117.53 390.212 1118.25 391.829 1118.48 393.548C1118.71 395.267 1118.45 397.017 1117.73 398.594C1117.01 400.172 1115.86 401.512 1114.4 402.46C1112.95 403.408 1111.26 403.924 1109.52 403.949H1109.61Z" fill="#636B6F"/>
<path d="M1100.5 411.695C1099.16 411.716 1097.83 411.437 1096.62 410.881C1095.4 410.324 1094.32 409.503 1093.46 408.477C1092.68 407.566 1092.09 406.509 1091.72 405.368C1091.35 404.227 1091.21 403.024 1091.3 401.828C1091.4 400.632 1091.73 399.466 1092.27 398.398C1092.82 397.33 1093.57 396.381 1094.49 395.604L1112.74 380.083C1114.59 378.511 1116.98 377.738 1119.4 377.933C1121.82 378.128 1124.06 379.275 1125.63 381.122C1127.2 382.969 1127.97 385.364 1127.78 387.781C1127.58 390.198 1126.44 392.438 1124.59 394.009L1106.33 409.531C1104.71 410.924 1102.64 411.692 1100.5 411.695Z" fill="#636B6F"/>
<path d="M1107.36 221.335C1105.49 221.343 1103.66 220.777 1102.12 219.711C1100.58 218.646 1099.4 217.133 1098.75 215.378C1098.1 213.623 1098 211.71 1098.47 209.897C1098.94 208.085 1099.96 206.461 1101.38 205.244L1119.63 189.694C1121.48 188.123 1123.88 187.35 1126.29 187.545C1128.71 187.74 1130.95 188.887 1132.52 190.733C1134.09 192.58 1134.87 194.975 1134.67 197.392C1134.48 199.809 1133.33 202.05 1131.48 203.621L1113.23 219.142C1111.59 220.537 1109.51 221.313 1107.36 221.335Z" fill="#636B6F"/>
<path d="M1133.5 214.927C1132.17 214.939 1130.85 214.657 1129.64 214.101C1128.43 213.545 1127.36 212.728 1126.5 211.709L1110.72 193.51C1109.94 192.596 1109.35 191.537 1108.98 190.395C1108.61 189.252 1108.47 188.048 1108.57 186.851C1108.67 185.655 1109 184.489 1109.55 183.42C1110.09 182.351 1110.85 181.401 1111.76 180.623C1112.67 179.845 1113.73 179.255 1114.88 178.886C1116.02 178.517 1117.22 178.377 1118.42 178.474C1119.62 178.57 1120.78 178.902 1121.85 179.449C1122.92 179.996 1123.87 180.748 1124.65 181.663L1140.17 199.918C1141.31 201.239 1142.04 202.86 1142.29 204.587C1142.54 206.314 1142.28 208.076 1141.55 209.662C1140.83 211.248 1139.66 212.593 1138.2 213.537C1136.73 214.48 1135.02 214.983 1133.28 214.984L1133.5 214.927Z" fill="#636B6F"/>
<path d="M911.36 387.915C910.022 387.935 908.696 387.657 907.479 387.1C906.262 386.543 905.185 385.722 904.325 384.696C903.547 383.783 902.956 382.725 902.588 381.583C902.219 380.441 902.08 379.237 902.178 378.041C902.276 376.845 902.609 375.68 903.158 374.613C903.708 373.546 904.462 372.598 905.379 371.823L923.635 356.302C924.54 355.462 925.606 354.814 926.768 354.397C927.93 353.98 929.165 353.802 930.398 353.876C931.63 353.949 932.835 354.271 933.94 354.823C935.045 355.375 936.026 356.145 936.825 357.086C937.624 358.028 938.224 359.121 938.589 360.301C938.954 361.481 939.076 362.722 938.948 363.95C938.819 365.179 938.444 366.368 937.843 367.447C937.243 368.526 936.43 369.472 935.454 370.229L917.198 385.75C915.577 387.152 913.503 387.921 911.36 387.915Z" fill="#636B6F"/>
<path d="M919.249 397.057C917.912 397.069 916.589 396.787 915.373 396.231C914.158 395.675 913.079 394.858 912.214 393.838L896.664 375.583C895.093 373.736 894.32 371.341 894.515 368.924C894.71 366.507 895.857 364.267 897.704 362.696C899.551 361.124 901.946 360.351 904.363 360.546C906.78 360.741 909.02 361.888 910.591 363.735L926.113 381.991C926.894 382.905 927.487 383.964 927.858 385.107C928.229 386.25 928.371 387.456 928.276 388.654C928.181 389.853 927.85 391.02 927.303 392.091C926.756 393.161 926.003 394.113 925.087 394.892C923.447 396.262 921.386 397.026 919.249 397.057Z" fill="#636B6F"/>
<path d="M1094 376.527C1143.06 334.808 1149 261.223 1107.28 212.169C1065.56 163.116 991.979 157.169 942.926 198.888C893.872 240.606 887.926 314.191 929.644 363.245C971.363 412.299 1044.95 418.245 1094 376.527Z" fill="white"/>
<path d="M1019.58 409.531C1015.97 409.531 1012.35 409.531 1008.7 409.132C984.69 407.195 961.789 398.179 942.898 383.226C924.007 368.272 909.975 348.052 902.577 325.123C895.178 302.194 894.746 277.586 901.333 254.411C907.921 231.236 921.234 210.536 939.587 194.927C957.94 179.319 980.51 169.504 1004.44 166.723C1028.37 163.942 1052.59 168.321 1074.04 179.306C1095.48 190.291 1113.18 207.388 1124.91 228.435C1136.64 249.482 1141.86 273.533 1139.91 297.548C1137.46 327.867 1123.75 356.172 1101.48 376.895C1079.22 397.618 1050 409.26 1019.58 409.531ZM1017.62 176.422C988.588 176.698 960.819 188.33 940.258 208.827C919.697 229.324 907.978 257.056 907.611 286.086C907.245 315.116 918.259 343.136 938.296 364.146C958.332 385.155 985.799 397.485 1014.81 398.494C1043.83 399.503 1072.09 389.112 1093.53 369.545C1114.98 349.979 1127.92 322.792 1129.57 293.806C1131.22 264.821 1121.45 236.341 1102.37 214.465C1083.28 192.589 1056.39 179.056 1027.44 176.764C1024.1 176.536 1020.83 176.422 1017.62 176.422Z" fill="#636B6F"/>
<path opacity="0.2" d="M1060.42 303.557C1059.29 303.557 1058.15 303.557 1057.04 303.557C1046.97 302.749 1037.65 297.977 1031.1 290.291C1024.56 282.605 1021.34 272.635 1022.15 262.574C1022.96 252.513 1027.73 243.185 1035.41 236.642C1043.1 230.1 1053.07 226.878 1063.13 227.686C1072.91 228.445 1082.01 232.958 1088.54 240.279C1095.06 247.6 1098.5 257.162 1098.13 266.961C1097.76 276.761 1093.62 286.038 1086.56 292.849C1079.51 299.66 1070.09 303.477 1060.28 303.5L1060.42 303.557ZM1059.88 241.727C1055.25 241.762 1050.72 243.147 1046.86 245.713C1042.99 248.279 1039.96 251.915 1038.13 256.176C1036.3 260.437 1035.75 265.139 1036.55 269.707C1037.35 274.275 1039.47 278.511 1042.63 281.897C1045.8 285.284 1049.89 287.674 1054.39 288.776C1058.9 289.877 1063.63 289.642 1068 288.1C1072.37 286.558 1076.2 283.775 1079.02 280.092C1081.84 276.408 1083.52 271.983 1083.86 267.359C1084.36 261.06 1082.33 254.822 1078.23 250.016C1074.13 245.21 1068.29 242.228 1061.99 241.727C1061.31 241.755 1060.6 241.727 1059.88 241.727Z" fill="#636B6F"/>
<path opacity="0.4" d="M974.443 278.523C974.125 282.717 972.569 286.723 969.973 290.032C967.376 293.341 963.856 295.805 959.857 297.112C955.859 298.418 951.563 298.509 947.514 297.371C943.464 296.234 939.843 293.92 937.109 290.723C934.376 287.526 932.653 283.59 932.159 279.413C931.665 275.235 932.422 271.006 934.334 267.259C936.246 263.512 939.227 260.418 942.899 258.367C946.571 256.316 950.77 255.401 954.963 255.739C960.562 256.19 965.755 258.84 969.406 263.11C973.057 267.379 974.868 272.921 974.443 278.523Z" fill="#636B6F"/>
<path opacity="0.2" d="M1031.8 346.761C1031.56 349.719 1030.45 352.54 1028.61 354.866C1026.76 357.192 1024.27 358.92 1021.45 359.83C1018.62 360.741 1015.59 360.793 1012.74 359.981C1009.88 359.169 1007.33 357.529 1005.41 355.268C1003.49 353.007 1002.28 350.227 1001.93 347.279C1001.59 344.33 1002.13 341.347 1003.48 338.705C1004.84 336.063 1006.94 333.882 1009.53 332.436C1012.13 330.991 1015.09 330.346 1018.05 330.584C1022.01 330.911 1025.69 332.798 1028.27 335.83C1030.85 338.862 1032.12 342.793 1031.8 346.761Z" fill="#636B6F"/>
<path opacity="0.2" d="M895.155 543.814H894.699L830.221 538.602C829.53 538.549 828.857 538.358 828.241 538.041C827.625 537.725 827.078 537.289 826.633 536.758C826.188 536.228 825.852 535.614 825.647 534.953C825.441 534.291 825.369 533.596 825.436 532.906L830.648 468.428C830.705 467.738 830.898 467.067 831.216 466.453C831.534 465.839 831.97 465.294 832.5 464.849C833.029 464.404 833.641 464.069 834.301 463.862C834.961 463.655 835.655 463.58 836.344 463.643L900.794 468.855C901.483 468.912 902.154 469.105 902.768 469.423C903.382 469.741 903.928 470.177 904.372 470.707C904.817 471.236 905.153 471.848 905.36 472.508C905.567 473.168 905.641 473.862 905.579 474.551L900.367 539.001C900.314 539.686 900.125 540.353 899.813 540.964C899.5 541.575 899.069 542.118 898.544 542.561C897.596 543.363 896.397 543.807 895.155 543.814ZM836.258 528.577L890.37 532.963L894.728 478.851L840.616 474.465L836.258 528.577Z" fill="#263238"/>
<path d="M1141.34 518.182H1140.88L930.299 501.094C928.921 500.981 927.644 500.325 926.749 499.27C925.854 498.215 925.415 496.848 925.529 495.47C925.642 494.091 926.298 492.814 927.353 491.919C928.408 491.025 929.775 490.586 931.154 490.699L1141.71 507.787C1142.39 507.811 1143.06 507.97 1143.69 508.255C1144.31 508.539 1144.87 508.943 1145.34 509.445C1145.8 509.946 1146.17 510.534 1146.41 511.176C1146.65 511.817 1146.76 512.5 1146.73 513.184C1146.71 513.869 1146.55 514.542 1146.27 515.165C1145.98 515.788 1145.58 516.348 1145.08 516.815C1144.57 517.282 1143.99 517.645 1143.34 517.885C1142.7 518.124 1142.02 518.235 1141.34 518.211V518.182Z" fill="#E0E0E0"/>
<path d="M996.145 532.707H995.689L928.192 527.267C927.475 527.255 926.768 527.096 926.116 526.8C925.463 526.504 924.878 526.077 924.397 525.546C923.916 525.014 923.548 524.39 923.318 523.711C923.088 523.033 922.999 522.314 923.058 521.599C923.116 520.885 923.321 520.19 923.659 519.558C923.996 518.926 924.46 518.37 925.021 517.924C925.583 517.478 926.23 517.152 926.922 516.966C927.614 516.781 928.337 516.739 929.046 516.843L996.544 522.312C997.926 522.364 999.231 522.964 1000.17 523.979C1001.11 524.994 1001.61 526.341 1001.56 527.723C1001.5 529.105 1000.9 530.41 999.889 531.35C998.874 532.29 997.527 532.788 996.145 532.735V532.707Z" fill="#E0E0E0"/>
<path d="M1095.51 540.738H1095.06L1036.67 536.011C1035.29 535.897 1034.02 535.241 1033.12 534.186C1032.23 533.131 1031.79 531.764 1031.9 530.386C1032.01 529.007 1032.67 527.73 1033.73 526.836C1034.78 525.941 1036.15 525.502 1037.53 525.615L1095.77 530.315C1097.15 530.364 1098.46 530.96 1099.4 531.972C1100.34 532.984 1100.84 534.329 1100.79 535.712C1100.75 537.094 1100.15 538.4 1099.14 539.343C1098.13 540.285 1096.78 540.787 1095.4 540.738H1095.51Z" fill="#E0E0E0"/>
<path opacity="0.2" d="M885.899 658.418H885.443L820.964 653.206C820.274 653.152 819.601 652.962 818.985 652.645C818.369 652.329 817.822 651.892 817.377 651.362C816.931 650.832 816.596 650.218 816.391 649.556C816.185 648.895 816.113 648.199 816.18 647.51L821.392 583.06C821.449 582.371 821.642 581.7 821.96 581.085C822.278 580.471 822.714 579.926 823.243 579.481C823.773 579.037 824.385 578.701 825.045 578.494C825.705 578.287 826.399 578.213 827.088 578.275L891.424 583.686C892.114 583.74 892.787 583.931 893.403 584.247C894.019 584.564 894.566 585 895.012 585.53C895.457 586.061 895.792 586.674 895.998 587.336C896.203 587.997 896.275 588.693 896.209 589.382L890.997 653.861C890.878 655.24 890.223 656.518 889.174 657.421C888.229 658.119 887.073 658.471 885.899 658.418ZM827.002 643.209L881.114 647.595L885.472 593.483L831.36 589.097L827.002 643.209Z" fill="#263238"/>
<path d="M1094.29 629.739H1093.83L921.043 615.755C919.665 615.642 918.388 614.985 917.493 613.93C916.599 612.876 916.16 611.509 916.273 610.13C916.386 608.752 917.042 607.474 918.097 606.58C919.152 605.685 920.519 605.246 921.898 605.36L1094.69 619.315C1096.07 619.368 1097.37 619.967 1098.31 620.982C1099.25 621.997 1099.75 623.344 1099.7 624.726C1099.65 626.108 1099.05 627.413 1098.03 628.353C1097.02 629.293 1095.67 629.791 1094.29 629.739Z" fill="#E0E0E0"/>
<path d="M1025.05 650.329H1024.6L918.936 641.785C918.219 641.773 917.512 641.614 916.86 641.318C916.207 641.022 915.622 640.595 915.141 640.064C914.659 639.532 914.292 638.908 914.062 638.229C913.832 637.551 913.743 636.832 913.802 636.118C913.86 635.403 914.065 634.708 914.402 634.076C914.74 633.444 915.204 632.888 915.765 632.442C916.327 631.996 916.973 631.67 917.666 631.485C918.358 631.299 919.081 631.257 919.79 631.361L1025.42 639.905C1026.8 639.955 1028.11 640.551 1029.05 641.563C1030 642.575 1030.5 643.92 1030.45 645.303C1030.4 646.685 1029.8 647.991 1028.79 648.934C1027.78 649.876 1026.43 650.378 1025.05 650.329Z" fill="#E0E0E0"/>
<g filter="url(#filter0_d_622_936)">
<path opacity="0.3" d="M511.09 498.558C533.22 433.366 488.627 359.29 411.489 333.105C334.352 306.921 253.879 338.543 231.75 403.735C209.62 468.928 254.212 543.004 331.35 569.188C408.488 595.373 488.96 563.751 511.09 498.558Z" fill="#73D5C3"/>
<path opacity="0.3" d="M454.523 361.857L423.575 329.821L246.845 500.547L277.793 532.583L454.523 361.857Z" fill="white"/>
<path opacity="0.3" d="M494.873 394.74L470.713 369.73L289.886 544.414L314.046 569.424L494.873 394.74Z" fill="white"/>
<path d="M386.331 588.471C366.534 588.404 346.88 585.104 328.146 578.703C288.616 565.26 255.836 539.543 235.814 506.278C215.451 472.472 210.666 435.078 222.343 400.589C234.02 366.099 260.649 339.357 297.388 324.917C333.529 310.677 375.195 310.279 414.726 323.721C454.256 337.164 487.065 362.853 507.086 396.117C527.421 429.923 532.206 467.46 520.557 501.835C508.909 536.21 482.223 563.067 445.513 577.478C426.649 584.819 406.573 588.548 386.331 588.471ZM356.541 333.888C338.827 333.818 321.256 337.063 304.736 343.458C273.408 355.846 250.966 378.289 241.226 407.111C231.485 435.932 235.53 467.431 252.874 496.111C270.474 525.359 299.496 548.03 334.554 559.934C369.613 571.839 406.466 571.526 438.222 559.051C469.379 546.805 491.935 524.249 501.675 495.541C511.415 466.833 507.371 435.22 489.998 406.512C472.398 377.263 443.405 354.622 408.318 342.717C391.657 336.965 374.166 333.983 356.541 333.888Z" fill="#263238"/>
<path d="M521.782 485.174C541.208 487.416 560.505 490.658 579.597 494.886C598.564 498.93 617.361 503.601 635.958 508.727C654.556 513.853 672.982 519.464 691.38 525.445C700.466 528.663 709.949 530.799 718.38 535.897C722.789 538.504 726.855 541.651 730.484 545.267C732.474 547.232 734.311 549.345 735.98 551.589C737.88 554.084 739.521 556.766 740.879 559.592C743.513 565.031 743.902 571.287 741.963 577.01C740.023 582.733 735.91 587.464 730.512 590.18C727.698 591.591 724.75 592.716 721.712 593.54C719.032 594.295 716.3 594.848 713.538 595.192C708.451 595.847 703.302 595.847 698.216 595.192C688.419 594.11 679.618 590.037 670.448 587.076C652.249 580.668 634.193 573.889 616.336 566.57C598.479 559.251 580.707 551.589 563.164 543.245C545.455 534.965 528.183 525.782 511.415 515.733C508.21 513.768 505.767 510.771 504.49 507.235C503.212 503.699 503.174 499.833 504.383 496.273C505.592 492.712 507.975 489.669 511.142 487.641C514.309 485.614 518.071 484.724 521.811 485.117L521.782 485.174Z" fill="#263238"/>
<path opacity="0.1" d="M694.912 283.422C696.962 295.07 692.206 303.757 684.289 302.817C676.371 301.877 668.312 291.71 666.289 280.033C664.267 268.356 669.137 259.698 676.912 260.638C684.688 261.578 692.804 271.774 694.912 283.422Z" fill="#73D5C3"/>
<path d="M737.632 1036.52C761.185 1034.7 773.147 1019.6 771.295 1002.63C770.27 993.257 800.26 990.21 800.26 990.21C795.845 1019.8 802.31 1024.56 803.421 1032.16C804.532 1039.77 803.905 1048.02 797.725 1048.17C790.263 1048.37 786.903 1046.94 777.618 1047.31C766.767 1047.71 759.448 1048.14 740.195 1048.17C732.534 1048.22 727.237 1037.37 737.632 1036.52Z" fill="#263238"/>
<path d="M949.011 1019.43C962.937 995.593 951.488 979.929 941.435 966.97C935.483 959.309 964.048 949.598 964.048 949.598C971.168 967.511 978.288 967.284 985.408 971.242C992.528 975.201 996.601 981.78 992.699 986.593C988 992.289 983.842 991.862 978.316 999.21C971.852 1007.75 964.959 1018.89 955.903 1028.12C950.52 1033.67 943.77 1028.32 949.011 1019.43Z" fill="#263238"/>
<path d="M675.375 537.349C675.375 537.349 679.333 656.965 708.554 756.645C721.284 842.826 770.982 1005.67 770.982 1005.67C781.292 1008.14 792.047 1008.04 802.31 1005.39C802.31 1005.39 818.23 879.679 784.795 743.374C806.525 597.983 791.744 523.764 791.744 523.764L675.375 537.349Z" fill="#5B5B5B"/>
<path d="M721.313 531.853C721.313 531.853 771.238 696.382 809.601 772.48C849.929 852.395 936.821 966.144 940.837 971.185C951.887 965.916 961.542 959.936 967.323 951.876C967.323 951.876 934.116 825.709 885.045 739.757C846.454 550.365 820.737 520.005 820.737 520.005L721.313 531.853Z" fill="#5B5B5B"/>
<path d="M750.448 293.845C748.34 310.734 747.6 337.932 755.717 351.403C755.717 351.403 734.186 355.077 706.19 383.472C689.102 363.792 702.886 357.84 702.886 357.84C715.389 353.283 715.56 337.42 714.079 325.202L750.448 293.845Z" fill="#FFC3BD"/>
<path d="M660.024 405.174C656.806 385.494 668.426 369.46 692.833 361.03C715.332 353.283 747.629 347.616 769.929 350.805C792.228 353.995 800.402 365.045 798.921 381.849C792.542 454.758 820.424 497.705 820.794 520.005C768.334 533.391 688.276 544.64 675.375 537.349C665.948 527.41 667.771 465.409 670.704 455.954C647.436 443.736 661.818 416.139 660.024 405.174Z" fill="#73D5C3"/>
<path d="M682.181 282.938C682.523 285.131 681.64 287.124 680.188 287.352C678.735 287.58 677.34 285.985 676.913 283.764C676.485 281.542 677.454 279.549 678.906 279.321C680.359 279.093 681.811 280.716 682.181 282.938Z" fill="#263238"/>
<path d="M679.561 279.349L673.865 278.666C673.865 278.666 677.397 282.397 679.561 279.349Z" fill="#263238"/>
<path d="M682.096 287.494C680.906 292.865 678.989 298.048 676.4 302.902C677.654 303.533 679.03 303.88 680.433 303.92C681.836 303.959 683.23 303.689 684.517 303.13L682.096 287.494Z" fill="#ED847E"/>
<path d="M675.119 271.175C674.897 271.041 674.721 270.844 674.611 270.609C674.502 270.374 674.465 270.112 674.504 269.855C674.544 269.599 674.659 269.361 674.834 269.17C675.009 268.979 675.237 268.844 675.489 268.783C677.504 268.212 679.628 268.134 681.679 268.556C683.731 268.977 685.652 269.885 687.28 271.204C687.525 271.449 687.663 271.782 687.663 272.129C687.663 272.476 687.525 272.809 687.28 273.055C687.16 273.18 687.016 273.279 686.857 273.347C686.698 273.415 686.527 273.45 686.354 273.45C686.181 273.45 686.01 273.415 685.851 273.347C685.692 273.279 685.548 273.18 685.428 273.055C684.125 272.038 682.599 271.342 680.976 271.026C679.353 270.709 677.678 270.78 676.087 271.232C675.769 271.341 675.421 271.32 675.119 271.175Z" fill="#263238"/>
<path d="M754.264 267.729C756.941 295.213 758.65 306.804 747.372 322.924C730.427 347.16 696.706 344.284 686.026 318.111C676.428 294.558 673.666 253.575 698.073 238.594C722.481 223.614 751.587 240.246 754.264 267.729Z" fill="#FFC3BD"/>
<path d="M697.76 284.96C687.764 286.412 683.52 271.147 686.938 264.426C675.147 264.055 673.096 253.404 676.913 245.572C680.729 237.74 690.27 220.367 724.617 225.636C758.963 230.905 770.185 260.78 767.194 273.34C764.204 285.899 770.356 321.215 738.259 327.025C706.162 332.835 686.624 301.022 697.76 284.96Z" fill="#263238"/>
<path d="M813.246 352.998C795.703 335.91 729.316 344.454 681.014 359.834C632.712 375.213 644.759 423.686 648.945 457.463C653.132 491.24 678.394 729.618 707.386 816.311C777.789 817.194 885.301 793.527 915.148 778.119C903.443 747.076 840.644 505.594 830.334 442.055C825.322 411.069 831.758 370.941 813.246 352.998Z" fill="#F1F5F5"/>
<path opacity="0.6" d="M813.246 352.998C795.703 335.91 729.316 344.454 681.014 359.834C632.712 375.213 644.759 423.686 648.945 457.463C653.132 491.24 678.394 729.618 707.386 816.311C777.789 817.194 885.301 793.527 915.148 778.119C903.443 747.076 840.644 505.594 830.334 442.055C825.322 411.069 831.758 370.941 813.246 352.998Z" fill="white"/>
<path opacity="0.5" d="M653.16 493.319C662.843 480.788 671.188 468.656 673.808 461.165C683.15 434.366 670.533 507.531 659.426 545.58C656.948 525.701 654.84 507.873 653.16 493.319Z" fill="#F1F5F5"/>
<path d="M572.989 509.211L583.128 519.464C588.568 534.445 567.265 542.704 567.265 542.704L557.695 550.792C556.264 552.136 554.375 552.884 552.412 552.884C550.449 552.884 548.56 552.136 547.129 550.792L540.009 543.672C538.426 541.97 537.546 539.731 537.546 537.406C537.546 535.082 538.426 532.843 540.009 531.141L547.414 522.939C549.493 520.589 552.046 518.706 554.904 517.414L572.989 509.211Z" fill="#F1F5F5"/>
<path d="M577.09 508.129C565.698 503.145 555.275 511.945 545.762 516.473C544.139 517.242 543.598 521.913 546.446 522.426C548.281 522.865 550.186 522.935 552.049 522.632C553.911 522.329 555.695 521.659 557.297 520.66C559.689 523.736 569.629 528.948 579.54 519.948C580.309 515.84 579.429 511.593 577.09 508.129Z" fill="#F1F5F5"/>
<path d="M711.829 404.433L710.434 411.041L708.924 417.278C707.899 421.407 706.817 425.509 705.734 429.581C703.456 437.755 700.978 445.9 698.216 453.989C695.453 462.077 692.52 470.137 689.13 478.197C687.507 482.241 685.684 486.285 683.862 490.301L681.014 496.338L679.276 499.841C678.507 501.408 677.653 502.889 676.77 504.37C669.559 516.267 658.831 525.632 646.069 531.169L644.873 531.682L643.99 532.024L642.281 532.65L638.835 533.875L632.114 535.982L625.563 537.805L619.098 539.372C610.554 541.308 602.01 542.789 593.637 543.957C589.422 544.526 585.235 545.011 581.02 545.466C576.805 545.922 572.704 546.264 568.147 546.52L561.056 504.968L571.878 501.55C575.552 500.382 579.198 499.129 582.815 497.876C590.049 495.427 597.055 492.864 603.975 490.13L608.988 488.051L613.829 485.943L618.386 483.722L620.465 482.582L621.547 482.041L622.032 481.785L622.202 481.643C624.028 480.163 625.384 478.184 626.104 475.947C626.104 475.662 626.275 475.405 626.332 475.121V474.921L626.531 474.352L626.959 473.099L628.724 468.029C629.835 464.555 631.003 461.165 632.057 457.605C634.193 450.571 636.158 443.365 638.037 436.018C639.917 428.67 641.683 421.35 643.335 413.917C644.189 410.215 645.015 406.512 645.784 402.81L647.977 392.073L711.829 404.433Z" fill="#F1F5F5"/>
<g opacity="0.6">
<path d="M711.829 404.433L710.434 411.041L708.924 417.278C707.899 421.407 706.817 425.509 705.734 429.581C703.456 437.755 700.978 445.9 698.216 453.989C695.453 462.077 692.52 470.137 689.13 478.197C687.507 482.241 685.684 486.285 683.862 490.301L681.014 496.338L679.276 499.841C678.507 501.408 677.653 502.889 676.77 504.37C669.559 516.267 658.831 525.632 646.069 531.169L644.873 531.682L643.99 532.024L642.281 532.65L638.835 533.875L632.114 535.982L625.563 537.805L619.098 539.372C610.554 541.308 602.01 542.789 593.637 543.957C589.422 544.526 585.235 545.011 581.02 545.466C576.805 545.922 572.704 546.264 568.147 546.52L561.056 504.968L571.878 501.55C575.552 500.382 579.198 499.129 582.815 497.876C590.049 495.427 597.055 492.864 603.975 490.13L608.988 488.051L613.829 485.943L618.386 483.722L620.465 482.582L621.547 482.041L622.032 481.785L622.202 481.643C624.028 480.163 625.384 478.184 626.104 475.947C626.104 475.662 626.275 475.405 626.332 475.121V474.921L626.531 474.352L626.959 473.099L628.724 468.029C629.835 464.555 631.003 461.165 632.057 457.605C634.193 450.571 636.158 443.365 638.037 436.018C639.917 428.67 641.683 421.35 643.335 413.917C644.189 410.215 645.015 406.512 645.784 402.81L647.977 392.073L711.829 404.433Z" fill="white"/>
</g>
<path opacity="0.5" d="M758.052 520.262C758.052 520.262 804.93 513.683 818.715 504.655C802.025 519.265 779.441 522.369 758.052 520.262Z" fill="#73D5C3"/>
<path opacity="0.5" d="M763.264 525.53C763.264 525.53 797.696 525.787 808.547 520.66C795.019 529.574 778.415 529.404 763.264 525.53Z" fill="#73D5C3"/>
<path d="M679.561 291.51C676.229 300.453 672.555 310.25 675.033 321.101C677.511 331.952 688.533 337.648 705.564 337.505C703.741 330.414 696.023 326.113 689.9 315.206C683.776 304.298 689.9 279.577 689.9 279.577L687.764 277.726C685.24 283.94 683.23 290.35 681.754 296.893C678.906 292.621 679.561 291.51 679.561 291.51Z" fill="#73D5C3"/>
<path opacity="0.3" d="M679.561 291.51C676.229 300.453 672.555 310.25 675.033 321.101C677.511 331.952 688.533 337.648 705.564 337.505C703.741 330.414 696.023 326.113 689.9 315.206C683.776 304.298 689.9 279.577 689.9 279.577L687.764 277.726C685.24 283.94 683.23 290.35 681.754 296.893C678.906 292.621 679.561 291.51 679.561 291.51Z" fill="white"/>
<path d="M705.336 292.251C704.989 294.875 704.067 297.39 702.634 299.615C701.201 301.841 699.294 303.722 697.048 305.124C691.352 308.171 686.767 301.25 686.795 293.333C686.795 286.184 689.643 276.017 696.137 276.245C702.63 276.473 706.646 285.017 705.336 292.251Z" fill="#FFC3BD"/>
<path d="M675.46 249.303C677.425 262.176 691.865 298.773 713.851 313.326C733.787 326.597 754.549 328.192 761.27 313.81C761.27 313.81 785.877 322.155 791.744 274.906C796.785 234.522 767.507 205.842 735.724 200.858C706.817 196.358 649.999 209.602 675.46 249.303Z" fill="#C2E9E2"/>
<path opacity="0.2" d="M677.995 250.47C677.995 250.47 700.295 292.079 758.821 311.873C724.645 308.854 697.133 282.596 677.995 250.47Z" fill="black"/>
</g>
<defs>
<filter id="filter0_d_622_936" x="205.091" y="193.019" width="800.121" height="870.167" filterUnits="userSpaceOnUse" color-interpolation-filters="sRGB">
<feFlood flood-opacity="0" result="BackgroundImageFix"/>
<feColorMatrix in="SourceAlpha" type="matrix" values="0 0 0 0 0 0 0 0 0 0 0 0 0 0 0 0 0 0 127 0" result="hardAlpha"/>
<feOffset dy="4"/>
<feGaussianBlur stdDeviation="5.5"/>
<feComposite in2="hardAlpha" operator="out"/>
<feColorMatrix type="matrix" values="0 0 0 0 0 0 0 0 0 0 0 0 0 0 0 0 0 0 0.19 0"/>
<feBlend mode="normal" in2="BackgroundImageFix" result="effect1_dropShadow_622_936"/>
<feBlend mode="normal" in="SourceGraphic" in2="effect1_dropShadow_622_936" result="shape"/>
</filter>
</defs>
</svg>
