<svg width="2132" height="1887" viewBox="0 0 2132 1887" fill="none" xmlns="http://www.w3.org/2000/svg">
<path d="M1065.69 1886.55C1654.25 1886.55 2131.37 1858.69 2131.37 1824.33C2131.37 1789.96 1654.25 1762.11 1065.69 1762.11C477.124 1762.11 0 1789.96 0 1824.33C0 1858.69 477.124 1886.55 1065.69 1886.55Z" fill="#F5F5F5"/>
<path d="M408.104 604.248C403.267 615.241 397.935 627.113 393.263 638.71C388.592 650.307 383.755 662.235 379.523 674.107C370.839 697.251 363.876 721.005 358.691 745.174L357.097 753.968L356.548 757.266C356.548 758.201 356.548 759.41 356.218 760.509C356.009 765.861 356.119 771.22 356.548 776.558C357.592 788.156 359.461 800.578 362.044 812.999C366.661 837.898 372.542 863.566 378.533 888.849L350.337 899.841C337.193 875.881 325.999 850.902 316.864 825.146C312.051 811.741 308.158 798.023 305.212 784.088C303.561 776.379 302.532 768.549 302.134 760.674C302.134 758.475 302.134 756.387 302.134 754.023C302.134 751.66 302.134 749.022 302.519 747.483L303.618 736.49C305.26 722.333 307.775 708.29 311.148 694.443C314.226 680.702 318.183 667.346 322.141 654.155C326.098 640.964 331.045 627.992 336.266 615.241C338.85 608.865 341.763 602.544 344.291 596.223C346.819 589.903 349.787 583.857 353.305 577.096L408.104 604.248Z" fill="#E4897B"/>
<path d="M377.049 881.429L398.485 902.37L351.711 924.355C351.711 924.355 340.389 904.513 348.248 886.595L377.049 881.429Z" fill="#E4897B"/>
<path d="M415.798 933.534L376.28 949.694L351.766 924.136L398.485 902.37L415.798 933.534Z" fill="#E4897B"/>
<path opacity="0.4" d="M1216.34 910.999C1138.57 902.267 1065.14 870.674 1005.32 820.214C945.508 769.754 901.997 702.692 880.289 627.506C858.582 552.32 859.653 472.386 883.368 397.809C907.083 323.232 952.377 257.361 1013.52 208.522C1074.67 159.683 1148.92 130.07 1226.9 123.426C1304.87 116.782 1383.07 133.405 1451.59 171.194C1520.12 208.984 1575.91 266.243 1611.9 335.732C1647.89 405.222 1662.47 483.822 1653.79 561.597C1648.03 613.27 1632.14 663.301 1607.04 708.831C1581.93 754.361 1548.1 794.497 1507.47 826.945C1466.84 859.394 1420.22 883.518 1370.27 897.941C1320.32 912.363 1268.01 916.801 1216.34 910.999Z" fill="#FAFAFA"/>
<path opacity="0.4" d="M1504.24 205.928L902.39 686.803C899.861 681.307 897.388 675.81 895.08 670.314C879.991 634.425 870.34 596.486 866.444 557.749L1386.29 142.39C1428.97 156.627 1468.87 178.121 1504.24 205.928Z" fill="#FAFAFA"/>
<path opacity="0.4" d="M1643.13 416.603L1077.28 868.677C1023.53 840.654 976.943 800.634 941.139 751.715L1558.98 258.033C1598.81 303.746 1627.6 357.998 1643.13 416.603Z" fill="#FAFAFA"/>
<path d="M814.998 366.476L809.776 364.718C818.82 338.033 830.186 312.193 843.744 287.494L848.526 290.132C835.146 314.555 823.928 340.1 814.998 366.476ZM881.723 238.192L877.271 234.949C922.441 173.873 981.558 124.48 1049.69 90.8898L1052.17 95.8365C984.804 129.08 926.367 177.945 881.723 238.357V238.192ZM1484.07 103.366C1466.11 93.7327 1447.52 85.3047 1428.44 78.1383L1430.42 72.9717C1449.69 80.3063 1468.46 88.8991 1486.6 98.6946L1484.07 103.366Z" fill="white"/>
<path opacity="0.3" d="M814.998 366.476L809.776 364.718C818.82 338.033 830.186 312.193 843.744 287.494L848.526 290.132C835.146 314.555 823.928 340.1 814.998 366.476ZM881.723 238.192L877.271 234.949C922.441 173.873 981.558 124.48 1049.69 90.8898L1052.17 95.8365C984.804 129.08 926.367 177.945 881.723 238.357V238.192ZM1484.07 103.366C1466.11 93.7327 1447.52 85.3047 1428.44 78.1383L1430.42 72.9717C1449.69 80.3063 1468.46 88.8991 1486.6 98.6946L1484.07 103.366Z" fill="black"/>
<path d="M1669.57 315.58C1618.67 210.025 1529.11 128.102 1419.45 86.7955C1309.79 45.4889 1188.43 47.9664 1080.55 93.7145C972.662 139.463 886.519 224.972 839.975 332.517C793.431 440.062 790.057 561.393 830.552 671.359C793.837 684.22 757.561 698.016 721.505 712.251C669.51 732.881 617.991 754.427 566.948 776.888C515.942 799.478 465.156 822.508 414.864 846.582C389.636 858.399 364.737 870.876 339.619 882.968C326.552 888.583 314.713 896.706 304.772 906.877C299.393 912.509 294.655 918.722 290.647 925.4C285.755 933.298 282.052 941.872 279.654 950.848C275.518 967.022 277.307 984.142 284.696 999.112C292.085 1014.08 304.588 1025.91 319.942 1032.47C328.469 1036.04 337.465 1038.38 346.654 1039.39C354.416 1040.27 362.252 1040.27 370.014 1039.39C384.119 1037.68 397.751 1033.22 410.137 1026.26C435.036 1013.67 460.099 1001.52 484.833 988.607C534.3 963.379 583.767 937.052 632.629 910.34C681.492 883.627 730.409 855.651 778.117 826.96C811.095 807.008 844.403 786.617 877.051 765.291C939.744 864.262 1038.11 935.319 1151.77 963.74C1265.42 992.161 1385.66 975.765 1487.56 917.952C1589.45 860.139 1665.2 765.339 1699.11 653.196C1733.01 541.053 1722.48 420.165 1669.68 315.58H1669.57ZM1419.71 840.646C1355.83 872.175 1284.04 884.055 1213.41 874.785C1142.79 865.515 1076.5 835.511 1022.92 788.567C969.346 741.623 930.893 679.847 912.426 611.051C893.958 542.254 896.305 469.526 919.169 402.063C942.034 334.6 984.389 275.431 1040.88 232.039C1097.37 188.646 1165.46 162.979 1236.53 158.281C1307.61 153.584 1378.49 170.068 1440.2 205.649C1501.9 241.23 1551.68 294.31 1583.22 358.177C1604.17 400.592 1616.56 446.718 1619.68 493.921C1622.8 541.124 1616.59 588.479 1601.4 633.282C1586.22 678.085 1562.36 719.458 1531.18 755.038C1500 790.618 1462.13 819.708 1419.71 840.646Z" fill="#4C4C4C"/>
<path opacity="0.3" d="M1669.57 315.58C1618.67 210.025 1529.11 128.102 1419.45 86.7955C1309.79 45.4889 1188.43 47.9664 1080.55 93.7145C972.662 139.463 886.519 224.972 839.975 332.517C793.431 440.062 790.057 561.393 830.552 671.359C793.837 684.22 757.561 698.016 721.505 712.251C669.51 732.881 617.991 754.427 566.948 776.888C515.942 799.478 465.156 822.508 414.864 846.582C389.636 858.399 364.737 870.876 339.619 882.968C326.552 888.583 314.713 896.706 304.772 906.877C299.393 912.509 294.655 918.722 290.647 925.4C285.755 933.298 282.052 941.872 279.654 950.848C275.518 967.022 277.307 984.142 284.696 999.112C292.085 1014.08 304.588 1025.91 319.942 1032.47C328.469 1036.04 337.465 1038.38 346.654 1039.39C354.416 1040.27 362.252 1040.27 370.014 1039.39C384.119 1037.68 397.751 1033.22 410.137 1026.26C435.036 1013.67 460.099 1001.52 484.833 988.607C534.3 963.379 583.767 937.052 632.629 910.34C681.492 883.627 730.409 855.651 778.117 826.96C811.095 807.008 844.403 786.617 877.051 765.291C939.744 864.262 1038.11 935.319 1151.77 963.74C1265.42 992.161 1385.66 975.765 1487.56 917.952C1589.45 860.139 1665.2 765.339 1699.11 653.196C1733.01 541.053 1722.48 420.165 1669.68 315.58H1669.57ZM1419.71 840.646C1355.83 872.175 1284.04 884.055 1213.41 874.785C1142.79 865.515 1076.5 835.511 1022.92 788.567C969.346 741.623 930.893 679.847 912.426 611.051C893.958 542.254 896.305 469.526 919.169 402.063C942.034 334.6 984.389 275.431 1040.88 232.039C1097.37 188.646 1165.46 162.979 1236.53 158.281C1307.61 153.584 1378.49 170.068 1440.2 205.649C1501.9 241.23 1551.68 294.31 1583.22 358.177C1604.17 400.592 1616.56 446.718 1619.68 493.921C1622.8 541.124 1616.59 588.479 1601.4 633.282C1586.22 678.085 1562.36 719.458 1531.18 755.038C1500 790.618 1462.13 819.708 1419.71 840.646Z" fill="black"/>
<path d="M560.022 407.974C560.022 411.217 561.726 413.855 563.87 413.855C566.013 413.855 567.717 411.217 567.717 407.974C567.717 404.731 566.013 402.093 563.87 402.093C561.726 402.093 560.022 404.951 560.022 407.974Z" fill="#263238"/>
<path d="M561.562 413.855C565.452 423.809 570.685 433.185 577.116 441.721C574.893 443.312 572.348 444.397 569.661 444.9C566.974 445.403 564.21 445.313 561.562 444.635V413.855Z" fill="#DE5753"/>
<path d="M548.645 389.891C548.339 389.891 548.036 389.822 547.76 389.689C547.484 389.555 547.242 389.361 547.051 389.121C546.765 388.702 546.651 388.188 546.732 387.687C546.814 387.185 547.086 386.735 547.491 386.428C549.911 384.592 552.74 383.369 555.735 382.862C558.731 382.354 561.804 382.579 564.694 383.515C564.954 383.586 565.196 383.71 565.404 383.88C565.613 384.05 565.783 384.262 565.905 384.502C566.026 384.742 566.096 385.005 566.11 385.273C566.124 385.542 566.081 385.811 565.984 386.062C565.888 386.313 565.739 386.541 565.549 386.731C565.359 386.921 565.131 387.07 564.88 387.166C564.629 387.263 564.36 387.306 564.092 387.292C563.823 387.279 563.56 387.209 563.32 387.088C561.025 386.384 558.593 386.241 556.231 386.671C553.869 387.101 551.644 388.093 549.744 389.561C549.419 389.777 549.036 389.892 548.645 389.891Z" fill="#263238"/>
<path d="M448.996 432.433C454.493 461.948 460.539 516.087 439.872 535.819C439.872 535.819 447.952 565.774 502.861 565.774C563.32 565.774 531.661 535.819 531.661 535.819C498.683 527.904 499.618 503.5 505.334 480.526L448.996 432.433Z" fill="#E4897B"/>
<path d="M415.194 551.373C421.734 541.205 410.742 516.526 410.742 516.526C410.742 516.526 507.917 492.068 547.656 529.608C555.9 537.358 546.776 548.79 546.776 548.79L415.194 551.373Z" fill="#315893"/>
<path opacity="0.1" d="M415.194 551.373C421.734 541.205 410.742 516.526 410.742 516.526C410.742 516.526 507.917 492.068 547.656 529.608C555.9 537.358 546.776 548.79 546.776 548.79L415.194 551.373Z" fill="black"/>
<path d="M254.426 1672.79C249.314 1672.79 241.125 1664.27 238.706 1661.09C238.602 1660.93 238.547 1660.75 238.547 1660.56C238.547 1660.38 238.602 1660.2 238.706 1660.04C238.795 1659.89 238.923 1659.76 239.078 1659.67C239.233 1659.59 239.408 1659.54 239.586 1659.55C240.19 1659.55 253.656 1660.76 257.339 1665.54C257.739 1666.04 258.025 1666.63 258.177 1667.25C258.329 1667.88 258.343 1668.53 258.218 1669.16C258.17 1669.98 257.87 1670.77 257.358 1671.41C256.846 1672.05 256.148 1672.51 255.36 1672.74L254.426 1672.79ZM241.674 1661.8C245.687 1666.42 252.117 1671.64 254.866 1670.98C254.866 1670.98 255.965 1670.7 256.295 1668.94C256.367 1668.58 256.355 1668.2 256.26 1667.84C256.165 1667.48 255.989 1667.14 255.745 1666.86C251.673 1663.77 246.774 1661.97 241.674 1661.69V1661.8Z" fill="#315893"/>
<path d="M242.279 1661.69C241.292 1661.79 240.298 1661.79 239.311 1661.69C239.137 1661.68 238.971 1661.61 238.834 1661.5C238.697 1661.4 238.595 1661.25 238.541 1661.09C238.464 1660.93 238.424 1660.76 238.424 1660.59C238.424 1660.42 238.464 1660.25 238.541 1660.1C238.926 1659.77 247.006 1651.36 253.107 1651.36C253.837 1651.34 254.562 1651.48 255.235 1651.76C255.907 1652.05 256.512 1652.47 257.009 1653.01C257.556 1653.46 257.931 1654.09 258.071 1654.79C258.211 1655.49 258.108 1656.22 257.779 1656.85C256.185 1659.93 247.775 1661.69 242.279 1661.69ZM241.564 1659.77C247.061 1659.77 255.03 1658.06 256.35 1655.64C256.35 1655.64 256.734 1654.93 255.855 1654.05C255.535 1653.7 255.143 1653.43 254.706 1653.25C254.269 1653.07 253.799 1652.99 253.327 1653.01C248.821 1654.04 244.726 1656.39 241.564 1659.77Z" fill="#315893"/>
<path d="M617.129 1797.56C612.964 1797.53 608.808 1797.14 604.708 1796.41C604.504 1796.37 604.321 1796.26 604.19 1796.1C604.059 1795.94 603.99 1795.73 603.993 1795.53C603.962 1795.34 603.988 1795.14 604.066 1794.97C604.144 1794.79 604.271 1794.64 604.433 1794.54C605.038 1794.21 619.108 1786.13 625.869 1788C626.496 1788.14 627.087 1788.41 627.607 1788.78C628.126 1789.16 628.564 1789.64 628.892 1790.19C629.322 1790.81 629.553 1791.54 629.553 1792.28C629.553 1793.03 629.322 1793.76 628.892 1794.37C627.298 1796.85 622.296 1797.56 617.129 1797.56ZM607.841 1794.98C615.316 1796.08 625.539 1796.02 627.408 1793.38C627.682 1793.05 627.902 1792.45 627.408 1791.29C626.988 1790.61 626.317 1790.12 625.539 1789.92C621.252 1788.82 612.732 1792.45 607.841 1794.98Z" fill="#315893"/>
<path d="M604.928 1796.46C604.748 1796.51 604.558 1796.51 604.378 1796.46C604.226 1796.36 604.107 1796.22 604.038 1796.05C603.969 1795.89 603.954 1795.7 603.993 1795.53C604.366 1789.8 606.562 1784.35 610.259 1779.97C611.007 1779.33 611.885 1778.85 612.833 1778.57C613.782 1778.3 614.779 1778.23 615.755 1778.38C618.394 1778.38 619.163 1779.97 619.328 1781.02C620.043 1785.58 610.424 1794.32 605.532 1796.52L604.928 1796.46ZM614.766 1779.97C613.557 1779.96 612.385 1780.39 611.468 1781.18C608.36 1784.65 606.436 1789.02 605.972 1793.66C610.919 1790.63 617.514 1783.82 616.965 1781.07C616.965 1781.07 616.965 1780.14 615.096 1779.97H614.766Z" fill="#315893"/>
<path d="M560.517 1795.47H600.915L604.928 1701.98H564.529L560.517 1795.47Z" fill="#E4897B"/>
<path d="M200.781 1634.98L234.529 1657.07L309.059 1594.14L275.257 1571.99L200.781 1634.98Z" fill="#E4897B"/>
<path d="M240.08 1654.98L205.014 1626.24C204.394 1625.73 203.617 1625.45 202.815 1625.45C202.013 1625.45 201.236 1625.73 200.617 1626.24L171.706 1648.94C171.007 1649.49 170.443 1650.2 170.056 1651C169.668 1651.81 169.467 1652.69 169.467 1653.58C169.467 1654.48 169.668 1655.36 170.056 1656.16C170.443 1656.96 171.007 1657.67 171.706 1658.23C184.128 1668.07 190.668 1672.24 206.113 1684.88C215.622 1692.63 239.091 1716.38 252.337 1727.1C265.583 1737.81 277.73 1726.27 273.333 1720.72C253.601 1695.71 245.851 1674.33 243.598 1661.08C243.209 1658.69 241.958 1656.52 240.08 1654.98Z" fill="#263238"/>
<path d="M600.64 1790.8H556.67C555.868 1790.8 555.09 1791.07 554.462 1791.57C553.834 1792.07 553.392 1792.77 553.207 1793.55L545.237 1829.44C545.037 1830.31 545.037 1831.21 545.238 1832.08C545.439 1832.95 545.835 1833.76 546.397 1834.46C546.958 1835.15 547.67 1835.71 548.478 1836.09C549.287 1836.46 550.171 1836.65 551.063 1836.64C566.948 1836.36 589.923 1835.43 609.929 1835.43C633.289 1835.43 653.515 1836.69 680.887 1836.69C697.376 1836.69 702.103 1819.93 695.123 1818.45C663.574 1811.52 637.741 1810.81 610.479 1793.93C607.554 1791.99 604.147 1790.91 600.64 1790.8Z" fill="#263238"/>
<path d="M360.285 547.856C325.274 564.345 305.322 674.821 305.322 674.821L390.9 708.953C403.427 678.366 413.552 646.85 421.185 614.691C432.947 563.795 396.122 530.817 360.285 547.856Z" fill="#263238"/>
<path d="M405.685 610.129C384.524 631.565 374.851 673.557 370.619 700.874L391.12 709.063C403.29 679.345 413.212 648.754 420.8 617.549C418.986 605.897 414.479 601.225 405.685 610.129Z" fill="#203048"/>
<path d="M593.77 547.086C593.77 547.086 636.751 595.674 596.188 896.104H380.237C378.753 863.126 399.584 701.259 367.595 545.053C391.461 540.425 415.606 537.377 439.872 535.929C470.442 534.114 501.092 534.114 531.661 535.929C552.621 538.038 573.386 541.768 593.77 547.086Z" fill="#263238"/>
<path d="M613.502 663.719L577.116 601.005C570.092 630.266 567.224 660.37 568.597 690.431C569.586 711.977 589.318 791.783 607.071 803.436C611.782 757.017 613.929 710.374 613.502 663.719Z" fill="#203048"/>
<path d="M618.559 590.013C624.055 616.725 629.551 644.097 635.432 670.919C641.313 697.741 647.414 724.673 654.505 750.671C656.318 757.102 658.022 763.697 660.001 769.853L661.485 774.58L662.199 776.943V776.669C661.815 776.174 661.375 776.119 661.705 776.669C663.964 779.136 666.852 780.941 670.059 781.89C675.255 783.824 680.606 785.313 686.054 786.342C712.04 790.461 738.351 792.172 764.651 791.454L769.873 821.354C762.508 823.717 755.637 825.421 748.382 827.125C741.127 828.829 733.982 830.258 726.672 831.357C711.547 833.875 696.213 834.906 680.887 834.435C672.369 834.206 663.896 833.1 655.604 831.137C645.06 828.831 635.152 824.234 626.583 817.671C620.987 813.152 616.368 807.542 613.007 801.182C612.128 799.533 611.358 797.665 610.644 796.071L609.654 793.487L607.621 787.991C604.818 781.011 602.509 774.14 599.981 767.27C590.692 739.788 582.942 712.032 576.127 684.33C569.311 656.628 563.43 628.982 558.538 600.566L618.559 590.013Z" fill="#E4897B"/>
<path d="M539.851 576.547C528.473 613.427 574.588 723.409 574.588 723.409L666.432 700.324C666.432 700.324 662.914 643.162 641.973 597.818C610.424 529.443 553.482 532.301 539.851 576.547Z" fill="#263238"/>
<path d="M763.882 791.454L809.612 790.299L787.626 837.898C787.626 837.898 768.994 840.371 753.714 815.253L737.609 796.015L756.132 792.333C758.682 791.796 761.277 791.502 763.882 791.454Z" fill="#E4897B"/>
<path d="M838.467 799.148L812.305 838.612L787.626 837.898L809.611 790.299L838.467 799.148Z" fill="#E4897B"/>
<path d="M604.928 1701.98L602.839 1750.18H562.441L564.53 1701.98H604.928Z" fill="#CE6F64"/>
<path d="M275.257 1571.99L309.059 1594.14L270.585 1626.57L236.838 1604.47L275.257 1571.99Z" fill="#CE6F64"/>
<path d="M451.525 400.993C453.943 440.952 453.338 464.531 473.51 485.033C503.85 515.977 553.262 497.674 562.826 457.551C571.455 421.605 566.068 362.244 526.934 346.305C518.3 342.82 508.921 341.585 499.678 342.718C490.435 343.85 481.632 347.312 474.094 352.779C466.556 358.245 460.53 365.538 456.582 373.971C452.635 382.405 450.894 391.703 451.525 400.993Z" fill="#E4897B"/>
<path d="M404.476 393.958C414.424 430.399 437.839 472.391 468.124 475.084C505.719 478.382 522.702 439.523 527.649 399.399C550.184 383.955 538.367 366.971 560.957 364.827C589.977 362.079 580.689 308.985 542.489 300.465C542.489 300.465 555.296 324.374 528.418 312.282C502.858 300.135 474.461 295.212 446.303 298.047C446.303 298.047 480.6 315.195 447.073 322.835C413.545 330.475 403.542 351.141 418.986 363.618C418.986 363.673 397.935 369.994 404.476 393.958Z" fill="#263238"/>
<path d="M504.729 407.644C505.468 417.577 509.468 426.987 516.107 434.411C524.901 444.14 534.08 438.094 535.619 426.277C537.048 415.669 534.135 397.806 523.362 392.419C512.589 387.033 504.015 395.662 504.729 407.644Z" fill="#E4897B"/>
<path d="M519.569 896.104C519.569 896.104 558.923 1181.09 527.924 1295.3C478.787 1476.13 290.922 1628.77 290.922 1628.77L227.219 1586.99C227.219 1586.99 387.217 1458.11 406.784 1306.68C424.373 1170.76 380.237 1006.36 380.237 896.049L519.569 896.104Z" fill="#315893"/>
<path opacity="0.1" d="M519.569 896.104C519.569 896.104 558.923 1181.09 527.924 1295.3C478.787 1476.13 290.922 1628.77 290.922 1628.77L227.219 1586.99C227.219 1586.99 387.217 1458.11 406.784 1306.68C424.373 1170.76 380.237 1006.36 380.237 896.049L519.569 896.104Z" fill="black"/>
<path d="M535.839 1059.02C525.362 1047.01 513.828 1035.98 501.376 1026.04C508.082 1118.54 513.578 1255.56 507.477 1352.91C515.68 1334.24 522.514 1315.01 527.924 1295.36C543.039 1239.57 541.445 1143.22 535.839 1059.02Z" fill="#315893"/>
<path opacity="0.3" d="M535.839 1059.02C525.362 1047.01 513.828 1035.98 501.376 1026.04C508.082 1118.54 513.578 1255.56 507.477 1352.91C515.68 1334.24 522.514 1315.01 527.924 1295.36C543.039 1239.57 541.445 1143.22 535.839 1059.02Z" fill="black"/>
<path d="M316.589 1614.53C316.864 1614.53 291.911 1631.02 291.911 1631.02L222.327 1585.4L244.313 1567.21L316.589 1614.53Z" fill="#315893"/>
<path opacity="0.3" d="M316.589 1614.53C316.864 1614.53 291.911 1631.02 291.911 1631.02L222.327 1585.4L244.313 1567.21L316.589 1614.53Z" fill="black"/>
<path d="M596.188 896.104C596.188 896.104 656.978 1153.88 661.265 1277.06C666.102 1415.12 617.899 1740.84 617.899 1740.84H549.47C549.47 1740.84 541.06 1412.6 538.037 1286.84C534.684 1149.71 454.218 896.104 454.218 896.104H596.188Z" fill="#315893"/>
<path opacity="0.1" d="M596.188 896.104C596.188 896.104 656.978 1153.88 661.265 1277.06C666.102 1415.12 617.899 1740.84 617.899 1740.84H549.47C549.47 1740.84 541.06 1412.6 538.037 1286.84C534.684 1149.71 454.218 896.104 454.218 896.104H596.188Z" fill="black"/>
<path d="M631.035 1713.63C631.365 1713.63 627.188 1741.99 627.188 1741.99H543.973L541.72 1716.65L631.035 1713.63Z" fill="#315893"/>
<path opacity="0.3" d="M631.035 1713.63C631.365 1713.63 627.188 1741.99 627.188 1741.99H543.973L541.72 1716.65L631.035 1713.63Z" fill="black"/>
<path d="M1648.3 648.384C1652.97 652.781 1656.65 656.518 1660.5 660.696C1664.35 664.873 1667.98 668.94 1671.49 673.172C1678.64 681.582 1685.34 690.431 1691.83 699.335C1704.78 717.196 1716.31 736.052 1726.29 755.727L1728.33 759.74C1729.32 761.682 1730.15 763.704 1730.8 765.786C1732.13 769.807 1732.94 773.981 1733.22 778.207C1733.57 785.66 1732.55 793.114 1730.19 800.193C1726.18 811.951 1720.21 822.951 1712.55 832.731C1698.74 850.468 1682.45 866.128 1664.18 879.23L1650.5 863.511C1656.93 855.981 1663.63 847.901 1669.62 839.821C1675.72 831.993 1681.23 823.726 1686.11 815.088C1690.67 807.551 1694.05 799.357 1696.12 790.794C1696.83 787.731 1696.96 784.562 1696.5 781.45C1696.3 780.404 1695.97 779.387 1695.51 778.427C1695.31 778.006 1695.07 777.601 1694.8 777.218L1693.04 774.25C1682.44 756.966 1670.94 740.252 1658.58 724.178C1652.48 716.099 1645.94 708.349 1639.34 700.709C1636.1 696.862 1632.74 693.124 1629.39 689.387C1626.04 685.649 1622.41 681.912 1619.5 678.998L1648.3 648.384Z" fill="#A9736B"/>
<path d="M1655.77 858.894L1614.72 852.188L1636.21 888.134C1636.21 888.134 1662.64 887.2 1670.17 871.645L1655.77 858.894Z" fill="#A9736B"/>
<path d="M1584.38 868.787L1603.94 897.973L1636.21 888.134L1614.72 852.188L1584.38 868.787Z" fill="#A9736B"/>
<path d="M1653.79 1797.06C1651 1797.3 1648.22 1796.54 1645.94 1794.92C1645.25 1794.27 1644.74 1793.45 1644.46 1792.55C1644.18 1791.64 1644.14 1790.68 1644.34 1789.75C1644.38 1789.16 1644.58 1788.6 1644.92 1788.11C1645.26 1787.63 1645.72 1787.25 1646.26 1787.01C1651.05 1784.86 1663.58 1792.89 1665.01 1793.82C1665.17 1793.92 1665.3 1794.07 1665.37 1794.25C1665.44 1794.43 1665.44 1794.63 1665.39 1794.81C1665.37 1795 1665.29 1795.18 1665.16 1795.31C1665.03 1795.45 1664.86 1795.55 1664.68 1795.58C1661.12 1796.48 1657.47 1796.98 1653.79 1797.06ZM1648.3 1788.54C1647.9 1788.48 1647.49 1788.48 1647.09 1788.54C1646.85 1788.66 1646.64 1788.84 1646.5 1789.06C1646.35 1789.28 1646.27 1789.54 1646.26 1789.81C1646.12 1790.42 1646.13 1791.06 1646.31 1791.67C1646.48 1792.28 1646.81 1792.83 1647.25 1793.27C1649.34 1795.14 1654.73 1795.42 1661.93 1793.99C1657.8 1791.26 1653.17 1789.41 1648.3 1788.54Z" fill="#D24A4A"/>
<path d="M1664.79 1795.53H1664.29C1660.39 1793.27 1652.86 1784.53 1653.79 1779.75C1653.97 1779 1654.39 1778.32 1654.98 1777.83C1655.58 1777.33 1656.32 1777.04 1657.09 1777C1657.83 1776.9 1658.59 1776.96 1659.31 1777.19C1660.02 1777.42 1660.67 1777.8 1661.21 1778.32C1665.72 1782.28 1665.78 1794.15 1665.78 1794.81C1665.77 1794.98 1665.72 1795.14 1665.63 1795.28C1665.54 1795.43 1665.42 1795.55 1665.28 1795.64L1664.79 1795.53ZM1657.75 1779.04H1657.31C1656.1 1779.04 1655.83 1779.7 1655.72 1780.19C1655.17 1782.99 1659.84 1789.7 1663.74 1792.83C1663.84 1788.22 1662.52 1783.69 1659.95 1779.86C1659.62 1779.55 1659.23 1779.32 1658.8 1779.18C1658.38 1779.04 1657.92 1778.99 1657.48 1779.04H1657.75Z" fill="#D24A4A"/>
<path d="M1466.48 1797.06C1462.97 1797.4 1459.45 1796.51 1456.53 1794.54C1455.87 1793.95 1455.36 1793.22 1455.05 1792.39C1454.73 1791.57 1454.62 1790.69 1454.72 1789.81C1454.75 1789.28 1454.92 1788.76 1455.21 1788.31C1455.5 1787.86 1455.9 1787.48 1456.37 1787.23C1461.48 1784.37 1477.86 1792.72 1479.73 1793.77C1479.9 1793.88 1480.03 1794.03 1480.12 1794.22C1480.21 1794.4 1480.24 1794.61 1480.22 1794.81C1480.19 1795 1480.1 1795.18 1479.96 1795.32C1479.82 1795.46 1479.64 1795.55 1479.45 1795.58C1475.18 1796.49 1470.84 1796.98 1466.48 1797.06ZM1459.17 1788.55C1458.54 1788.5 1457.91 1788.64 1457.36 1788.93C1457.16 1789.02 1456.99 1789.17 1456.87 1789.36C1456.76 1789.54 1456.7 1789.76 1456.7 1789.97C1456.61 1790.55 1456.67 1791.13 1456.86 1791.68C1457.05 1792.22 1457.37 1792.71 1457.8 1793.11C1460.32 1795.36 1467.08 1795.75 1476.21 1794.21C1470.89 1791.37 1465.13 1789.46 1459.17 1788.55Z" fill="#D24A4A"/>
<path d="M1479.29 1795.53H1478.85C1473.95 1793.33 1464.23 1784.53 1465 1779.75C1465 1778.65 1465.98 1777.28 1468.68 1777C1469.66 1776.9 1470.66 1776.99 1471.6 1777.29C1472.55 1777.58 1473.42 1778.06 1474.17 1778.71C1479.34 1782.99 1480.33 1794.1 1480.33 1794.59C1480.35 1794.76 1480.33 1794.93 1480.26 1795.08C1480.19 1795.24 1480.08 1795.37 1479.95 1795.47C1479.74 1795.56 1479.51 1795.58 1479.29 1795.53ZM1469.45 1779.04H1468.84C1467.08 1779.04 1466.97 1779.92 1466.92 1780.14C1466.48 1782.94 1473.08 1789.92 1477.91 1792.94C1477.43 1788.24 1475.51 1783.81 1472.42 1780.25C1471.58 1779.54 1470.54 1779.11 1469.45 1779.04Z" fill="#D24A4A"/>
<path d="M1544.25 522.023C1542.66 546.866 1538.37 597.323 1557.44 611.283C1557.44 611.283 1553.98 636.731 1508.97 642.667C1459.5 649.098 1482.09 621.177 1482.09 621.177C1508.31 611.173 1504.95 591.222 1497.81 572.974L1544.25 522.023Z" fill="#A9736B"/>
<path d="M1441.86 478.107C1441.58 478.108 1441.32 478.049 1441.07 477.935C1440.82 477.821 1440.6 477.655 1440.43 477.447C1438.86 475.583 1436.87 474.114 1434.62 473.159C1432.38 472.205 1429.94 471.791 1427.51 471.951C1427.25 471.998 1426.99 471.992 1426.73 471.934C1426.48 471.875 1426.24 471.765 1426.03 471.611C1425.82 471.457 1425.64 471.261 1425.51 471.036C1425.38 470.811 1425.29 470.561 1425.26 470.302C1425.19 469.785 1425.34 469.265 1425.66 468.853C1425.98 468.442 1426.44 468.172 1426.96 468.104C1430.06 467.841 1433.18 468.334 1436.06 469.54C1438.93 470.746 1441.46 472.63 1443.45 475.029C1443.69 475.316 1443.84 475.664 1443.89 476.033C1443.94 476.402 1443.88 476.778 1443.73 477.117C1443.57 477.456 1443.32 477.744 1443.01 477.948C1442.7 478.153 1442.34 478.265 1441.97 478.272L1441.86 478.107Z" fill="#263238"/>
<path d="M1433.28 502.456C1431.33 510.339 1428.32 517.92 1424.32 524.991C1426.16 525.978 1428.19 526.549 1430.27 526.663C1432.35 526.777 1434.43 526.432 1436.36 525.65L1433.28 502.456Z" fill="#8C5352"/>
<path d="M1435.48 496.41C1435.92 499.708 1434.55 502.566 1432.4 502.896C1430.26 503.225 1428.12 500.697 1427.73 497.399C1427.35 494.101 1428.66 491.243 1430.81 490.968C1432.95 490.694 1435.1 492.892 1435.48 496.41Z" fill="#263238"/>
<path d="M1431.8 491.023L1423.61 489.759C1423.61 489.759 1428.44 495.421 1431.8 491.023Z" fill="#263238"/>
<path d="M1524.58 1794.65H1483.35L1480.6 1699.28H1521.83L1524.58 1794.65Z" fill="#A9736B"/>
<path d="M1711.73 1794.65H1670.5L1657.26 1699.28H1698.48L1711.73 1794.65Z" fill="#A9736B"/>
<path d="M1667.98 1790.03H1714.25C1715.04 1790.02 1715.81 1790.3 1716.41 1790.82C1717 1791.33 1717.39 1792.05 1717.5 1792.83L1722.99 1829.49C1723.09 1830.42 1723 1831.35 1722.71 1832.24C1722.43 1833.12 1721.96 1833.94 1721.33 1834.63C1720.71 1835.32 1719.95 1835.87 1719.1 1836.24C1718.25 1836.62 1717.33 1836.81 1716.4 1836.8C1700.29 1836.53 1692.49 1835.59 1672.15 1835.59C1659.62 1835.59 1641.32 1836.86 1624.06 1836.86C1606.8 1836.86 1605.87 1819.76 1613.07 1818.23C1645.33 1811.3 1650.44 1801.74 1661.27 1792.56C1663.16 1790.99 1665.52 1790.1 1667.98 1790.03Z" fill="#263238"/>
<path d="M1481.98 1790.03H1528.2C1529 1790.02 1529.77 1790.3 1530.38 1790.81C1530.98 1791.33 1531.38 1792.05 1531.5 1792.83L1537 1829.49C1537.1 1830.42 1537 1831.35 1536.72 1832.24C1536.43 1833.12 1535.96 1833.94 1535.34 1834.63C1534.71 1835.32 1533.95 1835.87 1533.1 1836.24C1532.25 1836.62 1531.33 1836.81 1530.4 1836.8C1514.3 1836.53 1506.49 1835.59 1486.16 1835.59C1473.62 1835.59 1447.68 1836.86 1430.42 1836.86C1413.16 1836.86 1412.23 1819.76 1419.43 1818.23C1451.69 1811.3 1464.39 1801.74 1475.27 1792.56C1477.16 1790.99 1479.52 1790.1 1481.98 1790.03Z" fill="#263238"/>
<path d="M1480.6 1699.28L1482.03 1748.48H1523.26L1521.83 1699.28H1480.6Z" fill="#985E55"/>
<path d="M1698.48 1699.28H1657.26L1664.13 1748.48H1705.3L1698.48 1699.28Z" fill="#985E55"/>
<path d="M1544.8 470.577C1547.61 511.36 1549.64 528.563 1531.94 552.033C1505.28 587.264 1454.61 581.823 1439.66 542.689C1426.19 507.457 1423.88 446.723 1461.37 425.397C1469.61 420.671 1478.93 418.13 1488.44 418.016C1497.94 417.901 1507.31 420.216 1515.67 424.742C1524.03 429.268 1531.09 435.854 1536.19 443.876C1541.29 451.897 1544.25 461.088 1544.8 470.577Z" fill="#A9736B"/>
<path d="M1568.55 508.447C1591.41 521.198 1608.4 489.759 1608.4 489.759C1608.4 489.759 1567.39 494.211 1571.08 469.808C1575.91 437.434 1552.72 398.08 1494.57 403.137C1491.32 403.412 1488.25 403.796 1485.22 404.291C1479.13 401.406 1472.25 400.661 1465.69 402.177C1459.12 403.693 1453.26 407.382 1449.06 412.645C1432.57 414.02 1410.31 433.697 1425.42 459.694C1426.48 456.707 1428.13 453.961 1430.26 451.615C1431.52 466.839 1444.82 491.023 1461.42 492.617C1465 513.448 1451.14 537.577 1455.93 559.343C1463.02 590.727 1515.95 597.817 1515.95 597.817C1514.12 593.898 1513.44 589.543 1513.99 585.254C1514.53 580.965 1516.28 576.917 1519.02 573.578C1554.97 590.067 1578.66 573.963 1578.66 573.963C1554.15 564.839 1561.57 548.57 1561.57 548.57C1570.03 552.328 1579.62 552.658 1588.32 549.491C1597.03 546.324 1604.16 539.906 1608.23 531.586C1600.09 531.973 1592.01 529.994 1584.97 525.887C1577.92 521.781 1572.22 515.724 1568.55 508.447Z" fill="#263238"/>
<path d="M1475.77 498.883C1475.86 502.797 1475.19 506.692 1473.77 510.342C1472.36 513.993 1470.23 517.327 1467.52 520.154C1460.27 527.684 1451.36 522.407 1448.95 512.789C1446.8 504.105 1448.01 489.759 1457.47 485.802C1459.55 484.984 1461.8 484.7 1464.02 484.974C1466.24 485.248 1468.35 486.073 1470.17 487.373C1471.99 488.673 1473.45 490.407 1474.43 492.417C1475.41 494.427 1475.87 496.65 1475.77 498.883Z" fill="#A9736B"/>
<path d="M1510.01 878.845C1510.01 878.845 1520.45 1150.14 1545.3 1309.43C1565.3 1438.15 1654.18 1738.91 1654.18 1738.91H1710.35C1710.35 1738.91 1664.02 1448.43 1653.85 1321.19C1628.13 999.16 1694.91 930.016 1631.86 862.961L1510.01 878.845Z" fill="#263238"/>
<path d="M1556.95 964.643C1556.95 964.643 1531.56 960.246 1516.72 1008.61C1522.21 1100.24 1531.61 1221.82 1545.3 1309.43C1548.32 1328.94 1552.94 1352.47 1558.6 1378.24C1547.88 1223.47 1556.95 964.643 1556.95 964.643Z" fill="#313D43"/>
<path d="M1466.2 884.562C1466.2 884.562 1419.93 1184.72 1422.62 1310.31C1425.42 1440.96 1473.29 1739.02 1473.29 1739.02H1528.97C1528.97 1739.02 1520.18 1448.71 1525.07 1320.42C1530.57 1180.54 1587.67 868.787 1587.67 868.787L1466.2 884.562Z" fill="#263238"/>
<path d="M1718.49 1741.55H1643.79L1637.97 1716.49L1717.94 1717.04L1718.49 1741.55Z" fill="#D24A4A"/>
<path opacity="0.2" d="M1718.49 1741.55H1643.79L1637.97 1716.49L1717.94 1717.04L1718.49 1741.55Z" fill="black"/>
<path d="M1629.06 611.338C1650.55 613.427 1683.2 674.491 1683.2 674.491L1628.95 716.099C1628.95 716.099 1584.05 676.69 1589.38 654.54C1594.93 631.51 1608.45 609.415 1629.06 611.338Z" fill="#D24A4A"/>
<path opacity="0.1" d="M1629.06 611.338C1650.55 613.427 1683.2 674.491 1683.2 674.491L1628.95 716.099C1628.95 716.099 1584.05 676.69 1589.38 654.54C1594.93 631.51 1608.45 609.415 1629.06 611.338Z" fill="black"/>
<path d="M1612.85 637.611C1607.37 636.135 1601.7 635.505 1596.03 635.742C1593.14 641.751 1590.91 648.054 1589.38 654.54C1583.88 676.525 1628.95 716.099 1628.95 716.099L1632.96 713.021L1612.85 637.611Z" fill="#D24A4A"/>
<path opacity="0.3" d="M1612.85 637.611C1607.37 636.135 1601.7 635.505 1596.03 635.742C1593.14 641.751 1590.91 648.054 1589.38 654.54C1583.88 676.525 1628.95 716.099 1628.95 716.099L1632.96 713.021L1612.85 637.611Z" fill="black"/>
<path d="M1447.79 696.257C1432.13 735.885 1415.64 776.173 1402.5 815.912C1401.62 818.44 1400.91 820.859 1400.14 823.332L1398.27 829.433C1397.76 831.23 1397.76 833.133 1398.27 834.929C1401.37 841.801 1406.3 847.693 1412.51 851.968C1428.94 863.759 1446.84 873.349 1465.77 880.494L1460.82 900.721C1437.54 897.651 1415.03 890.31 1394.42 879.065C1381.74 872.289 1371.41 861.825 1364.8 849.055C1361 840.893 1359.68 831.796 1361 822.892C1361.13 821.802 1361.31 820.72 1361.55 819.65L1362.1 817.341L1363.04 813.164C1363.7 810.361 1364.36 807.668 1365.07 804.919C1370.57 782.934 1377.6 762.048 1385.02 741.327C1392.44 720.605 1400.19 700.159 1408.93 679.768L1447.79 696.257Z" fill="#A9736B"/>
<path d="M1414.43 640.634C1414.43 640.634 1395.85 650.033 1466.2 884.562L1632.08 862.906C1620.43 795.741 1614.94 754.134 1629.06 611.339C1605.27 609.635 1581.4 609.635 1557.61 611.339C1532.28 612.811 1507.1 616.118 1482.25 621.232C1450.43 628.322 1414.43 640.634 1414.43 640.634Z" fill="#D24A4A"/>
<path opacity="0.1" d="M1414.43 640.634C1414.43 640.634 1395.85 650.033 1466.2 884.562L1632.08 862.906C1620.43 795.741 1614.94 754.134 1629.06 611.339C1605.27 609.635 1581.4 609.635 1557.61 611.339C1532.28 612.811 1507.1 616.118 1482.25 621.232C1450.43 628.322 1414.43 640.634 1414.43 640.634Z" fill="black"/>
<path d="M1633.29 852.848L1642.8 866.643C1643.52 867.743 1642.31 869.062 1640.44 869.337L1466.48 892.092C1465 892.092 1463.62 891.707 1463.4 890.772L1459.99 876.097C1459.72 875.108 1460.93 874.064 1462.58 873.844L1630.55 851.858C1631.05 851.778 1631.57 851.826 1632.05 851.999C1632.53 852.172 1632.96 852.464 1633.29 852.848Z" fill="#D24A4A"/>
<path opacity="0.2" d="M1633.29 852.848L1642.8 866.643C1643.52 867.743 1642.31 869.062 1640.44 869.337L1466.48 892.092C1465 892.092 1463.62 891.707 1463.4 890.772L1459.99 876.097C1459.72 875.108 1460.93 874.064 1462.58 873.844L1630.55 851.858C1631.05 851.778 1631.57 851.826 1632.05 851.999C1632.53 852.172 1632.96 852.464 1633.29 852.848Z" fill="black"/>
<path d="M1613.18 874.558L1617.68 873.954C1618.56 873.954 1619.17 873.294 1619.06 872.744L1614.44 853.727C1614.27 853.403 1613.98 853.149 1613.64 853.008C1613.3 852.868 1612.92 852.85 1612.57 852.958L1608.07 853.507C1607.13 853.507 1606.53 854.167 1606.69 854.771L1611.31 873.734C1611.42 874.338 1612.3 874.668 1613.18 874.558Z" fill="#263238"/>
<path d="M1504.13 888.629L1508.64 888.025C1509.52 888.025 1510.18 887.365 1510.01 886.815L1505.39 867.798C1505.21 867.477 1504.93 867.223 1504.6 867.075C1504.26 866.926 1503.88 866.891 1503.52 866.973L1499.02 867.578C1498.14 867.578 1497.48 868.238 1497.64 868.787L1502.26 887.805C1502.37 888.629 1503.25 888.959 1504.13 888.629Z" fill="#263238"/>
<path d="M1422.18 720.221C1426.74 741.437 1433.17 768.314 1442.57 802.336L1444.6 716.099L1422.18 720.221Z" fill="#D24A4A"/>
<path opacity="0.3" d="M1422.18 720.221C1426.74 741.437 1433.17 768.314 1442.57 802.336L1444.6 716.099L1422.18 720.221Z" fill="black"/>
<path d="M1414.43 640.634C1393.82 648.933 1375.95 719.451 1375.95 719.451L1446.86 753.968C1446.86 753.968 1481.1 667.731 1465.77 650.912C1450.43 634.093 1438.17 631.125 1414.43 640.634Z" fill="#D24A4A"/>
<path opacity="0.1" d="M1414.43 640.634C1393.82 648.933 1375.95 719.451 1375.95 719.451L1446.86 753.968C1446.86 753.968 1481.1 667.731 1465.77 650.912C1450.43 634.093 1438.17 631.125 1414.43 640.634Z" fill="black"/>
<path d="M1538.48 1741.55H1463.79L1457.96 1716.49L1541.12 1717.04L1538.48 1741.55Z" fill="#D24A4A"/>
<path opacity="0.2" d="M1538.48 1741.55H1463.79L1457.96 1716.49L1541.12 1717.04L1538.48 1741.55Z" fill="black"/>
<path d="M1466.92 873.679L1460.93 871.206C1459.46 870.607 1457.85 870.408 1456.28 870.63C1454.7 870.851 1453.21 871.485 1451.96 872.468C1450.71 873.45 1449.75 874.745 1449.16 876.223C1448.57 877.7 1448.38 879.306 1448.62 880.879L1452.96 909.515C1453.17 910.948 1453.69 912.317 1454.49 913.523C1455.3 914.729 1456.35 915.742 1457.6 916.489C1458.84 917.236 1460.23 917.698 1461.67 917.841C1463.11 917.985 1464.57 917.807 1465.93 917.32C1468.11 916.528 1470.15 915.397 1471.98 913.967C1473.96 912.319 1475.54 910.226 1476.57 907.859C1477.6 905.491 1478.06 902.914 1477.91 900.336L1477.31 888.464C1477.2 885.256 1476.16 882.148 1474.32 879.522C1472.47 876.895 1469.9 874.865 1466.92 873.679Z" fill="#A9736B"/>
</svg>
