<svg width="3636" height="2709" viewBox="0 0 3636 2709" fill="none" xmlns="http://www.w3.org/2000/svg">
<path d="M1817.74 2708.87C2596.34 2708.87 3227.51 2672.02 3227.51 2626.56C3227.51 2581.11 2596.34 2544.26 1817.74 2544.26C1039.15 2544.26 407.974 2581.11 407.974 2626.56C407.974 2672.02 1039.15 2708.87 1817.74 2708.87Z" fill="#F5F5F5"/>
<path d="M2894.21 2626.56H2044.96C2033.13 2626.69 2021.4 2624.35 2010.52 2619.7C1999.64 2615.05 1989.85 2608.18 1981.78 2599.53C1973.7 2590.89 1967.51 2580.65 1963.6 2569.48C1959.7 2558.31 1958.16 2546.46 1959.09 2534.66L2077.61 738.221C2079.59 713.471 2090.72 690.346 2108.83 673.355C2126.93 656.364 2150.72 646.725 2175.55 646.316H3024.72C3036.55 646.199 3048.27 648.544 3059.14 653.203C3070.01 657.862 3079.79 664.732 3087.86 673.377C3095.93 682.021 3102.11 692.251 3106.01 703.414C3109.91 714.578 3111.45 726.432 3110.52 738.221L2992.15 2534.66C2990.16 2559.41 2979.03 2582.54 2960.93 2599.53C2942.82 2616.52 2919.04 2626.16 2894.21 2626.56Z" fill="#263238"/>
<path d="M3073 1129.4H2970.19C2967.34 1129.43 2964.51 1128.86 2961.88 1127.74C2959.26 1126.62 2956.9 1124.96 2954.95 1122.87C2953 1120.79 2951.51 1118.32 2950.56 1115.62C2949.62 1112.93 2949.25 1110.07 2949.47 1107.22L2959.72 951.624C2960.29 945.708 2963.03 940.211 2967.4 936.186C2971.78 932.161 2977.48 929.891 2983.42 929.812H3086.16C3088.98 929.786 3091.78 930.342 3094.38 931.444C3096.98 932.545 3099.32 934.169 3101.26 936.215C3103.21 938.261 3104.71 940.685 3105.68 943.335C3106.64 945.986 3107.05 948.808 3106.89 951.624L3096.63 1107.22C3096.16 1113.2 3093.48 1118.78 3089.11 1122.88C3084.74 1126.99 3079 1129.31 3073 1129.4Z" fill="#263238"/>
<path d="M2397.82 620.868H2360.23V628.139H2397.82V620.868Z" fill="#5F6167"/>
<path d="M2313.91 620.868H2177.22V628.139H2313.91V620.868Z" fill="#5F6167"/>
<path d="M2881.27 2626.56H2032.02C2020.19 2626.68 2008.47 2624.34 1997.59 2619.68C1986.72 2615.02 1976.93 2608.15 1968.86 2599.51C1960.78 2590.86 1954.59 2580.64 1950.68 2569.47C1946.77 2558.31 1945.23 2546.45 1946.15 2534.66L2064.96 738.221C2066.94 713.471 2078.07 690.346 2096.18 673.355C2114.28 656.364 2138.07 646.725 2162.9 646.316H3012.14C3023.93 646.27 3035.59 648.668 3046.4 653.358C3057.21 658.048 3066.93 664.929 3074.94 673.565C3082.96 682.202 3089.09 692.407 3092.97 703.536C3096.84 714.665 3098.36 726.475 3097.43 738.221L2979.21 2534.66C2977.22 2559.41 2966.09 2582.54 2947.99 2599.53C2929.88 2616.52 2906.09 2626.16 2881.27 2626.56Z" fill="#5F6167"/>
<path d="M2919.8 2417.31H2021.33C2014.61 2417.38 2007.95 2416.05 2001.77 2413.4C1995.59 2410.76 1990.03 2406.86 1985.44 2401.95C1980.85 2397.04 1977.33 2391.23 1975.11 2384.88C1972.89 2378.54 1972.02 2371.8 1972.54 2365.1L2075.72 801.115C2076.83 787.092 2083.12 773.983 2093.36 764.336C2103.6 754.688 2117.06 749.19 2131.12 748.91H3029.81C3036.53 748.839 3043.2 750.168 3049.37 752.812C3055.55 755.456 3061.11 759.357 3065.7 764.268C3070.29 769.178 3073.81 774.991 3076.03 781.334C3078.25 787.678 3079.13 794.415 3078.6 801.115L2975.43 2365.1C2974.31 2379.16 2967.99 2392.3 2957.7 2401.95C2947.42 2411.61 2933.91 2417.08 2919.8 2417.31Z" fill="white"/>
<path d="M2752.21 748.91H2573.78L2141.52 2417.31H2319.95L2752.21 748.91Z" fill="#FAFAFA"/>
<path d="M2909.41 748.91H2820.19L2387.93 2417.31H2477.15L2909.41 748.91Z" fill="#FAFAFA"/>
<path d="M2790.89 1900.34L2596.9 1166.63C2591.71 1147.12 2579 1130.47 2561.56 1120.31C2544.11 1110.16 2523.35 1107.34 2503.83 1112.46L2044.89 1233.74L1983.67 2192.49L2736.72 1993.48C2756.22 1988.26 2772.86 1975.53 2783.01 1958.08C2793.16 1940.63 2795.99 1919.87 2790.89 1900.34Z" fill="#F0F0F0"/>
<path opacity="0.2" d="M2503.04 2541.52C2526.36 2518.96 2528.16 2482.99 2507.05 2461.17C2485.94 2439.35 2449.93 2439.95 2426.6 2462.51C2403.28 2485.07 2401.49 2521.04 2422.6 2542.86C2443.71 2564.68 2479.72 2564.08 2503.04 2541.52Z" fill="white"/>
<path opacity="0.2" d="M2607.59 694.668C2607.08 701.003 2604.23 706.922 2599.59 711.265C2594.95 715.609 2588.86 718.065 2582.5 718.154C2579.49 718.162 2576.51 717.548 2573.75 716.349C2570.99 715.149 2568.5 713.391 2566.46 711.185C2564.41 708.979 2562.84 706.373 2561.84 703.53C2560.85 700.688 2560.46 697.67 2560.69 694.668C2561.18 688.327 2564.03 682.399 2568.67 678.053C2573.31 673.706 2579.41 671.255 2585.77 671.183C2588.79 671.174 2591.77 671.789 2594.53 672.988C2597.29 674.187 2599.77 675.945 2601.82 678.151C2603.87 680.357 2605.44 682.964 2606.43 685.806C2607.43 688.649 2607.82 691.666 2607.59 694.668Z" fill="white"/>
<path opacity="0.2" d="M2596.97 694.668C2596.72 698.154 2595.16 701.418 2592.62 703.814C2590.08 706.211 2586.72 707.565 2583.23 707.611C2581.56 707.637 2579.91 707.313 2578.37 706.661C2576.84 706.008 2575.46 705.04 2574.32 703.82C2573.18 702.601 2572.31 701.156 2571.77 699.579C2571.22 698.003 2571.02 696.33 2571.16 694.668C2571.41 691.182 2572.97 687.919 2575.51 685.522C2578.06 683.126 2581.41 681.771 2584.9 681.726C2586.57 681.699 2588.22 682.023 2589.76 682.676C2591.29 683.329 2592.67 684.296 2593.81 685.516C2594.95 686.736 2595.82 688.181 2596.36 689.757C2596.91 691.333 2597.11 693.007 2596.97 694.668Z" fill="white"/>
<path d="M1231.12 603.927C1258.24 537.252 1248.5 456.035 1171.57 437.858C1154.62 433.491 1136.88 433.156 1119.78 436.881C1102.67 440.606 1086.68 448.286 1073.08 459.306C1059.48 470.327 1048.65 484.38 1041.46 500.341C1034.27 516.301 1030.92 533.724 1031.68 551.212C1034.73 623.922 1082.57 684.489 998.74 737.204C914.906 789.918 923.849 948.789 1085.99 918.105C1248.13 887.422 1160.52 804.024 1160.52 804.024C1160.52 804.024 1120.75 836.452 1107.95 803.442C1091.74 760.689 1199.71 681.944 1231.12 603.927Z" fill="#263238"/>
<path d="M945.807 822.637L942.245 821.838C953.078 773.34 970.092 760.834 988.052 747.601C1006.01 734.368 1023.03 721.789 1036.77 674.092C1043.24 651.624 1039.17 626.757 1035.17 602.763C1030.08 572.153 1024.84 540.451 1040.62 512.094L1043.75 513.912C1028.62 541.106 1033.79 572.08 1038.73 602.182C1042.8 626.612 1047.02 651.842 1040.26 674.891C1026.22 723.752 1007.9 737.204 990.233 750.291C972.565 763.379 956.35 775.522 945.807 822.637Z" fill="#263238"/>
<path d="M1437.62 970.165C1438.12 972.637 1439 976.346 1439.8 979.69L1442.34 989.942C1444.09 996.85 1446.05 1003.76 1448.09 1010.66C1452.23 1024.41 1456.67 1038.29 1461.46 1051.96C1471.06 1079.47 1482.03 1106.48 1494.33 1132.89L1503.49 1152.01C1505.04 1155.43 1507.24 1158.52 1509.96 1161.1C1518.13 1167.67 1527.89 1171.99 1538.25 1173.61C1565.43 1178 1593.15 1178 1620.34 1173.61L1630.15 1204.51C1622.63 1207.82 1614.93 1210.74 1607.1 1213.23C1599.32 1215.82 1591.41 1218.01 1583.4 1219.78C1566.72 1223.62 1549.6 1225.21 1532.5 1224.5C1512.38 1223.94 1492.81 1217.77 1476.01 1206.69C1466.55 1200.13 1458.57 1191.66 1452.59 1181.82L1451.43 1180.01L1450.7 1178.77L1449.25 1176.15L1446.27 1171.06L1440.38 1160.74C1425.16 1133.01 1411.8 1104.29 1400.39 1074.79C1394.86 1060.25 1389.41 1045.06 1384.97 1029.71C1382.79 1022.44 1380.61 1014.37 1378.65 1006.52C1376.68 998.668 1374.94 991.251 1373.34 981.944L1437.62 970.165Z" fill="#FFC3BD"/>
<path d="M1381.48 868.517C1454.85 901.237 1454.19 1011.17 1454.19 1011.17L1376.9 1057.64C1376.9 1057.64 1318.74 971.547 1323.1 932.429C1327.39 891.639 1339.89 850.122 1381.48 868.517Z" fill="#FFBE40"/>
<path opacity="0.2" d="M1393.04 962.313C1372.98 942.027 1355.31 965.439 1339.17 991.397C1350.24 1014.35 1362.84 1036.53 1376.9 1057.78L1408.6 1038.73C1414.86 1014.52 1413.04 982.671 1393.04 962.313Z" fill="black"/>
<path d="M1612.7 1176.37L1664.32 1150.63L1664.91 1218.18C1664.91 1218.18 1626.37 1224.87 1600.7 1197.82L1612.7 1176.37Z" fill="#FFC3BD"/>
<path d="M1719.8 1162.63L1710.93 1212.8L1664.91 1218.18L1664.32 1150.63L1719.8 1162.63Z" fill="#FFC3BD"/>
<path d="M1140.16 2572.9L1204 2579.01L1233.74 2430.47L1169.9 2424.36L1140.16 2572.9Z" fill="#FFC3BD"/>
<path d="M721.571 2398.77L773.486 2436.57L860.083 2313.69L808.095 2275.89L721.571 2398.77Z" fill="#FFC3BD"/>
<path d="M792.536 2412.94L749.782 2354.41C749.071 2353.38 748.002 2352.64 746.781 2352.34C745.559 2352.05 744.271 2352.22 743.166 2352.81L691.905 2380.01C690.638 2380.74 689.541 2381.74 688.685 2382.92C687.829 2384.11 687.234 2385.47 686.939 2386.9C686.644 2388.34 686.655 2389.82 686.972 2391.25C687.289 2392.68 687.905 2394.03 688.779 2395.2C704.048 2415.34 712.409 2424.29 731.241 2450.1C742.875 2465.95 766.142 2502.67 782.138 2524.55C798.134 2546.44 820.601 2531.82 815.948 2521.28C794.862 2473.95 794.135 2446.24 795.735 2424.07C796.04 2420.1 794.904 2416.15 792.536 2412.94Z" fill="#263238"/>
<path d="M1212.43 2559.74H1135.8C1134.42 2559.75 1133.08 2560.2 1131.99 2561.05C1130.9 2561.89 1130.12 2563.07 1129.76 2564.4L1113.11 2624.82C1112.7 2626.25 1112.64 2627.75 1112.91 2629.22C1113.19 2630.68 1113.81 2632.05 1114.71 2633.23C1115.62 2634.41 1116.78 2635.36 1118.12 2636.01C1119.46 2636.66 1120.93 2636.99 1122.42 2636.96C1149.47 2636.96 1162.26 2636.96 1195.93 2636.96H1298.96C1326.95 2636.96 1332.77 2608.68 1321.21 2606.06C1269.29 2594.57 1239.34 2578.72 1223.27 2563.6C1220.27 2560.99 1216.4 2559.61 1212.43 2559.74Z" fill="#263238"/>
<path opacity="0.2" d="M1233.74 2430.54L1218.4 2507.1H1153.32L1169.9 2424.43L1233.74 2430.54Z" fill="black"/>
<path opacity="0.2" d="M808.095 2275.89L860.083 2313.77L815.439 2377.1L763.452 2339.22L808.095 2275.89Z" fill="black"/>
<path d="M1411.73 926.467C1407.22 975.546 1390.94 1071.89 1343.31 1260.13L1081.99 1237.52C1094.57 1139.43 1100.46 1075.89 1075.89 890.185C1075.09 884.046 1075.56 877.81 1077.27 871.861C1078.98 865.913 1081.9 860.381 1085.84 855.608C1089.78 850.835 1094.66 846.923 1100.18 844.115C1105.7 841.308 1111.73 839.665 1117.91 839.288C1136.74 838.27 1159.14 837.616 1181.6 838.488C1221.35 839.083 1261.01 842.509 1300.27 848.74C1323.32 852.885 1347.89 858.847 1367.89 864.082C1381.39 867.619 1393.2 875.827 1401.23 887.247C1409.26 898.668 1412.98 912.563 1411.73 926.467Z" fill="#FFBE40"/>
<path opacity="0.2" d="M1082.57 944.572C1085.92 973.655 1088.39 999.613 1089.85 1022.88C1113.91 1020.77 1131.65 994.378 1133.47 939.191C1124.45 912.507 1103.01 922.177 1082.57 944.572Z" fill="black"/>
<path d="M1343.31 1260.13C1343.31 1260.13 1431.73 1651.31 1372.4 1927.1C1332.91 2111.78 1245.01 2484.85 1245.01 2484.85L1133.54 2482.02C1133.54 2482.02 1186.77 2090.48 1209.09 1936.7C1247.26 1673.34 1151.65 1243.84 1151.65 1243.84L1343.31 1260.13Z" fill="#263238"/>
<path opacity="0.2" d="M1241.37 1339.17L1185.6 1427.07C1202.4 1531.3 1213.06 1636.43 1217.52 1741.91C1295.9 1601.58 1258.75 1413.4 1241.37 1339.17Z" fill="black"/>
<path d="M1261 2490.67L1123.29 2487.18L1131.29 2444.86L1271.77 2451.48L1261 2490.67Z" fill="#FFBE40"/>
<path d="M1286.16 1255.99C1286.16 1255.99 1234.32 1670.8 1121.84 1897.29C1031.02 2080.22 841.033 2370.99 841.033 2370.99L771.595 2315.37C771.595 2315.37 890.403 1993.77 957.877 1872.27C1123.44 1574.16 988.125 1346.95 1081.99 1237.52L1286.16 1255.99Z" fill="#263238"/>
<path d="M2373.58 886.839L1137.69 1406.11C1098.89 1422.41 1080.65 1467.08 1096.96 1505.87L1390.91 2205.5C1407.21 2244.3 1451.88 2262.54 1490.68 2246.24L2726.57 1726.97C2765.37 1710.67 2783.6 1666 2767.3 1627.2L2473.35 927.574C2457.05 888.775 2412.38 870.538 2373.58 886.839Z" fill="url(#paint0_linear_696_240)"/>
<path opacity="0.1" d="M2373.58 886.839L1137.69 1406.11C1098.89 1422.41 1080.65 1467.08 1096.96 1505.87L1390.91 2205.5C1407.21 2244.3 1451.88 2262.54 1490.68 2246.24L2726.57 1726.97C2765.37 1710.67 2783.6 1666 2767.3 1627.2L2473.35 927.574C2457.05 888.775 2412.38 870.538 2373.58 886.839Z" fill="black"/>
<path opacity="0.2" d="M1478.6 1374.96L1236.61 1476.64C1217.95 1484.48 1209.18 1505.96 1217.02 1524.62L1268.03 1646.01C1275.87 1664.67 1297.35 1673.44 1316.01 1665.6L1558 1563.93C1576.66 1556.09 1585.43 1534.61 1577.59 1515.95L1526.58 1394.55C1518.74 1375.89 1497.26 1367.12 1478.6 1374.96Z" fill="white"/>
<path opacity="0.4" d="M1648.4 1854.84L1411.31 1954.45C1404.31 1957.39 1401.02 1965.45 1403.96 1972.45L1421.96 2015.28C1424.9 2022.28 1432.95 2025.57 1439.95 2022.63L1677.05 1923.01C1684.04 1920.07 1687.33 1912.01 1684.39 1905.02L1666.4 1862.18C1663.46 1855.18 1655.4 1851.9 1648.4 1854.84Z" fill="white"/>
<path opacity="0.4" d="M1956.88 1725.26L1719.78 1824.88C1712.79 1827.82 1709.5 1835.88 1712.44 1842.87L1730.43 1885.71C1733.37 1892.71 1741.43 1895.99 1748.43 1893.05L1985.52 1793.44C1992.52 1790.5 1995.81 1782.44 1992.87 1775.44L1974.87 1732.61C1971.93 1725.61 1963.88 1722.32 1956.88 1725.26Z" fill="white"/>
<path opacity="0.4" d="M2265.28 1595.69L2028.19 1695.31C2021.19 1698.25 2017.9 1706.31 2020.84 1713.3L2038.84 1756.14C2041.78 1763.13 2049.83 1766.42 2056.83 1763.48L2293.93 1663.87C2300.92 1660.93 2304.21 1652.87 2301.27 1645.87L2283.27 1603.04C2280.34 1596.04 2272.28 1592.75 2265.28 1595.69Z" fill="white"/>
<path opacity="0.4" d="M2573.76 1466.12L2336.66 1565.74C2329.66 1568.68 2326.38 1576.73 2329.32 1583.73L2347.31 1626.57C2350.25 1633.56 2358.31 1636.85 2365.3 1633.91L2602.4 1534.29C2609.4 1531.35 2612.69 1523.3 2609.75 1516.3L2591.75 1473.47C2588.81 1466.47 2580.76 1463.18 2573.76 1466.12Z" fill="white"/>
<path d="M848.304 2378.7L759.234 2311.3L781.12 2272.18L875.788 2345.61L848.304 2378.7Z" fill="#FFBE40"/>
<path d="M1079.38 1221.89L1065.56 1244.28C1064.47 1245.95 1066.51 1248.06 1069.49 1248.28L1343.6 1271.98C1345.93 1271.98 1347.96 1271.18 1348.26 1269.73L1352.62 1246.53C1352.98 1244.94 1351.02 1243.41 1348.47 1243.19L1083.81 1220.29C1083 1220.16 1082.16 1220.23 1081.39 1220.51C1080.61 1220.79 1079.92 1221.27 1079.38 1221.89Z" fill="#FFBE40"/>
<path opacity="0.5" d="M1079.38 1221.89L1065.56 1244.28C1064.47 1245.95 1066.51 1248.06 1069.49 1248.28L1343.6 1271.98C1345.93 1271.98 1347.96 1271.18 1348.26 1269.73L1352.62 1246.53C1352.98 1244.94 1351.02 1243.41 1348.47 1243.19L1083.81 1220.29C1083 1220.16 1082.16 1220.23 1081.39 1220.51C1080.61 1220.79 1079.92 1221.27 1079.38 1221.89Z" fill="black"/>
<path d="M1112.46 1254.53L1105.19 1253.95C1103.81 1253.95 1102.79 1253.01 1102.93 1252.13L1108.9 1222.03C1108.9 1221.09 1110.35 1220.5 1111.8 1220.65L1119.07 1221.23C1120.53 1221.23 1121.55 1222.18 1121.33 1223.05L1115.37 1253.15C1115.08 1254.02 1113.77 1254.68 1112.46 1254.53Z" fill="#FFBE40"/>
<path d="M1323.32 1272.78L1316.05 1272.2C1314.66 1272.2 1313.65 1271.26 1313.79 1270.38L1319.75 1240.28C1320.01 1239.76 1320.44 1239.34 1320.97 1239.09C1321.5 1238.84 1322.09 1238.77 1322.66 1238.9L1329.93 1239.48C1331.39 1239.48 1332.4 1240.43 1332.19 1241.3L1326.22 1271.4C1326.15 1272.42 1324.84 1272.93 1323.32 1272.78Z" fill="#FFBE40"/>
<path d="M1217.89 1263.69L1210.62 1263.04C1209.16 1263.04 1208.14 1262.09 1208.36 1261.22L1214.32 1231.12C1214.32 1230.25 1215.78 1229.59 1217.16 1229.74L1224.43 1230.39C1225.81 1230.39 1226.83 1231.34 1226.69 1232.21L1220.72 1262.31C1220.58 1263.19 1219.34 1263.77 1217.89 1263.69Z" fill="#FFBE40"/>
<path d="M808.823 2445.3C808.005 2445.44 807.168 2445.44 806.35 2445.3C798.425 2443.7 791.809 2430.25 788.318 2422.4C788.181 2422.19 788.107 2421.95 788.107 2421.71C788.107 2421.46 788.181 2421.22 788.318 2421.01C788.507 2420.87 788.737 2420.8 788.973 2420.8C789.209 2420.8 789.438 2420.87 789.627 2421.01C792.099 2421.89 813.767 2430.25 815.439 2438.17C815.64 2439.03 815.597 2439.93 815.314 2440.77C815.031 2441.6 814.521 2442.34 813.84 2442.9C812.465 2444.21 810.707 2445.05 808.823 2445.3ZM791.881 2424.07C796.826 2434.9 802.351 2441.81 806.859 2442.68C807.877 2442.84 808.918 2442.73 809.884 2442.37C810.85 2442.02 811.711 2441.42 812.385 2440.65C812.749 2440.37 813.025 2440 813.18 2439.58C813.335 2439.15 813.362 2438.69 813.258 2438.25C812.24 2433.38 799.37 2427.12 791.881 2424.07Z" fill="#FFBE40"/>
<path d="M809.477 2425.09C802.565 2425.94 795.55 2425.2 788.973 2422.9C788.772 2422.82 788.599 2422.67 788.471 2422.49C788.343 2422.32 788.265 2422.11 788.246 2421.89C788.217 2421.66 788.25 2421.44 788.339 2421.23C788.429 2421.03 788.573 2420.85 788.755 2420.72C789.409 2420.29 804.387 2409.38 813.403 2411.42C814.517 2411.63 815.57 2412.08 816.488 2412.75C817.405 2413.42 818.164 2414.28 818.711 2415.27C819.431 2416.18 819.822 2417.31 819.822 2418.47C819.822 2419.63 819.431 2420.76 818.711 2421.67C816.124 2423.85 812.859 2425.06 809.477 2425.09ZM792.536 2421.23C799.807 2423.34 813.403 2423.49 816.748 2419.78C817.33 2419.2 817.839 2418.25 816.748 2416.36C816.389 2415.68 815.882 2415.1 815.266 2414.65C814.649 2414.19 813.938 2413.88 813.185 2413.74C807.078 2412.51 796.607 2418.54 792.536 2421.23Z" fill="#FFBE40"/>
<path d="M1246.46 2572.11C1239.41 2571.93 1232.4 2571.05 1225.52 2569.49C1225.29 2569.39 1225.09 2569.22 1224.95 2569C1224.81 2568.79 1224.74 2568.54 1224.74 2568.29C1224.74 2568.03 1224.81 2567.78 1224.95 2567.57C1225.09 2567.36 1225.29 2567.19 1225.52 2567.09C1228.72 2565.56 1256.5 2552.55 1263.48 2557.49C1264.12 2557.9 1264.64 2558.49 1264.96 2559.19C1265.28 2559.88 1265.4 2560.66 1265.29 2561.42C1265.28 2562.84 1264.93 2564.24 1264.27 2565.5C1263.61 2566.77 1262.67 2567.86 1261.51 2568.69C1256.99 2571.4 1251.71 2572.6 1246.46 2572.11ZM1229.88 2567.74C1238.17 2569.27 1253.44 2571.31 1259.7 2566.58C1260.51 2565.94 1261.17 2565.14 1261.65 2564.22C1262.12 2563.31 1262.4 2562.3 1262.46 2561.27C1262.46 2560.25 1262.46 2559.82 1261.8 2559.6C1257.88 2556.91 1241.44 2562.65 1229.88 2567.74Z" fill="#FFBE40"/>
<path d="M1225.81 2569.49C1225.56 2569.59 1225.27 2569.59 1225.01 2569.49C1224.82 2569.35 1224.68 2569.16 1224.6 2568.94C1224.53 2568.72 1224.52 2568.48 1224.58 2568.25C1224.58 2567.02 1231.12 2539.6 1246.39 2541.35C1250.17 2541.86 1251.19 2543.68 1251.41 2545.2C1252.35 2552.47 1234.83 2566.29 1226.39 2569.71L1225.81 2569.49ZM1244.86 2543.53C1235.19 2543.53 1229.59 2559.53 1227.7 2565.92C1236.79 2561.13 1249.52 2549.71 1248.72 2545.28C1248.72 2544.91 1248.72 2543.89 1245.88 2543.6L1244.86 2543.53Z" fill="#FFBE40"/>
<path d="M1110.93 945.88L1107.08 951.334L1102.86 957.514C1100.02 961.731 1097.19 966.021 1094.5 970.456C1088.97 979.181 1083.96 988.27 1078.87 997.359C1068.82 1015.64 1059.98 1034.56 1052.4 1054C1044.76 1073.32 1038.38 1093.12 1033.28 1113.26L1029.86 1127.8C1029.86 1127.36 1029.42 1128.89 1030.22 1131.65C1032.73 1139.42 1036.38 1146.78 1041.06 1153.47C1052.8 1170.35 1065.99 1186.19 1080.47 1200.8C1095.01 1216.21 1111.15 1231.12 1127.22 1245.95C1143.29 1260.79 1160.16 1275.04 1177.02 1289.07C1193.89 1303.1 1211.13 1317.28 1227.92 1330.95L1209.74 1357.78C1170.8 1334.68 1133.19 1309.38 1097.12 1282.02C1078.94 1268.35 1061.13 1253.95 1043.89 1238.39C1025.82 1222.55 1009.34 1205 994.669 1185.97C985.876 1174.79 978.997 1162.24 974.31 1148.81C971.128 1139.47 970.06 1129.54 971.183 1119.73V1117.69V1116.6L971.547 1114.42L972.274 1109.99L973.801 1101.19C978.079 1077.77 984.107 1054.7 991.833 1032.19C999.823 1009.78 1009.27 987.921 1020.12 966.748C1025.57 956.132 1031.53 945.88 1037.93 935.774C1041.06 930.684 1044.33 925.667 1047.75 920.65L1053.13 913.379C1055.02 910.834 1056.62 908.58 1059.16 905.454L1110.93 945.88Z" fill="#FFC3BD"/>
<path d="M1104.46 843.432C1054.58 856.52 1006.45 977.436 1006.45 977.436L1071.01 1036.48C1071.01 1036.48 1172.44 943.99 1169.03 902.254C1166.19 866.772 1144.52 832.817 1104.46 843.432Z" fill="#FFBE40"/>
<path opacity="0.2" d="M1181.6 836.161C1172.47 838.027 1163.15 838.881 1153.83 838.706C1151.87 874.625 1174.92 909.307 1231.56 955.842C1245.15 913.452 1275.18 904.29 1275.18 904.29L1181.6 836.161Z" fill="black"/>
<path opacity="0.2" d="M1300.27 847.577C1300.27 847.577 1306.88 848.522 1322.66 852.158C1333.2 868.372 1346.87 918.323 1315.83 953.951C1303.76 910.325 1274.96 904.799 1274.96 904.799L1300.27 847.577Z" fill="black"/>
<path d="M1181.61 836.161C1181.61 836.161 1167.06 836.161 1149.32 836.161C1138.78 852.376 1175.06 897.31 1231.63 943.844C1245.23 901.455 1275.26 904 1275.26 904L1181.61 836.161Z" fill="white"/>
<path d="M1300.27 847.577C1300.27 847.577 1306.88 848.522 1322.66 852.158C1333.2 868.372 1355.96 912.288 1324.92 947.625C1312.85 904 1274.96 904.581 1274.96 904.581L1300.27 847.577Z" fill="white"/>
<path d="M1204.94 705.648C1209.16 744.475 1210.54 814.712 1181.6 838.27C1181.6 838.27 1196.66 881.896 1274.96 904.581C1322.08 877.388 1300.27 848.522 1300.27 848.522C1258.6 834.707 1262.46 803.224 1272.42 774.14L1204.94 705.648Z" fill="#FFC3BD"/>
<path opacity="0.2" d="M1232.43 733.641L1272.42 774.14C1269.97 780.871 1268.12 787.806 1266.89 794.862C1250.82 791.154 1227.56 774.431 1227.34 757.271C1227.64 749.157 1229.36 741.158 1232.43 733.641Z" fill="black"/>
<path d="M1293.36 550.485C1306.08 536.452 1331.31 554.339 1340.62 588.73C1354.58 639.627 1317.35 643.263 1297.87 617.814C1278.38 592.366 1282.74 562.191 1293.36 550.485Z" fill="#263238"/>
<path d="M1332.77 639.845C1345.54 644.263 1357.61 650.482 1368.61 658.313C1362.29 642.899 1356.62 633.519 1332.77 639.845Z" fill="#263238"/>
<path d="M1340.11 642.245C1350.45 640.187 1361.02 639.599 1371.52 640.5C1361.2 632.574 1353.71 628.648 1340.11 642.245Z" fill="#263238"/>
<path d="M1170.63 645.008C1186.84 707.029 1192.44 733.641 1230.39 759.598C1287.62 798.716 1360.25 765.269 1362.94 699.613C1365.34 640.572 1338.44 549.104 1272.06 536.161C1257.43 533.192 1242.28 534.025 1228.07 538.581C1213.85 543.138 1201.04 551.265 1190.87 562.186C1180.69 573.106 1173.48 586.455 1169.94 600.956C1166.4 615.457 1166.63 630.624 1170.63 645.008Z" fill="#FFC3BD"/>
<path d="M1200.58 563.209L1182.62 584.077C1177.23 590.242 1169.63 594.036 1161.47 594.635C1153.3 595.233 1145.23 592.59 1139 587.276C1132.82 581.898 1129.01 574.302 1128.4 566.135C1127.79 557.969 1130.42 549.89 1135.73 543.65L1153.68 522.855C1159.07 516.696 1166.67 512.901 1174.83 512.289C1182.99 511.677 1191.06 514.297 1197.31 519.583C1203.47 524.972 1207.26 532.566 1207.88 540.727C1208.49 548.888 1205.87 556.962 1200.58 563.209Z" fill="white"/>
<path d="M1217.16 586.476L1195.35 597.383C1186.39 601.768 1176.07 602.432 1166.63 599.231C1157.19 596.029 1149.4 589.222 1144.96 580.296C1140.57 571.333 1139.9 560.998 1143.11 551.545C1146.31 542.093 1153.12 534.289 1162.05 529.836L1183.86 518.929C1192.83 514.546 1203.17 513.891 1212.63 517.105C1222.08 520.32 1229.88 527.145 1234.32 536.089C1238.7 545.05 1239.35 555.381 1236.14 564.823C1232.92 574.265 1226.1 582.05 1217.16 586.476Z" fill="#FFBE40"/>
<path d="M1189.24 691.396C1189.24 691.396 1234.03 681.144 1214.98 615.633C1214.27 613.112 1214.14 610.461 1214.62 607.885C1215.09 605.308 1216.14 602.874 1217.7 600.768C1219.26 598.663 1221.28 596.942 1223.6 595.737C1225.93 594.533 1228.5 593.877 1231.12 593.82C1281.58 592.439 1328.77 581.896 1322.08 552.666C1313.72 515.73 1188 487.228 1165.17 561.173C1120.6 571.571 1118.93 659.404 1189.24 691.396Z" fill="#263238"/>
<path d="M1189.46 678.454C1202.22 682.872 1214.3 689.091 1225.3 696.922C1218.98 681.653 1213.31 672.274 1189.46 678.454Z" fill="#263238"/>
<path d="M1196.8 680.999C1207.14 678.941 1217.71 678.354 1228.21 679.254C1217.96 671.474 1210.47 667.475 1196.8 680.999Z" fill="#263238"/>
<path d="M1160.45 693.723C1166.25 704.677 1176.16 712.885 1188 716.554C1203.78 721.28 1211.93 707.32 1207.85 692.269C1204.15 678.745 1191.49 660.059 1175.57 661.876C1172.11 662.356 1168.82 663.689 1166 665.756C1163.18 667.823 1160.91 670.559 1159.41 673.718C1157.91 676.877 1157.22 680.359 1157.4 683.851C1157.58 687.343 1158.63 690.736 1160.45 693.723Z" fill="#FFC3BD"/>
<path d="M1275.76 642.899C1276.78 647.989 1280.34 651.624 1283.62 650.97C1286.89 650.315 1288.85 645.589 1287.91 640.5C1286.96 635.41 1283.33 631.774 1279.98 632.429C1276.64 633.083 1274.75 637.737 1275.76 642.899Z" fill="#263238"/>
<path d="M1333.57 631.484C1334.59 636.646 1338.08 640.209 1341.42 639.554C1344.77 638.9 1346.66 634.247 1345.64 629.157C1344.62 624.067 1341.13 620.432 1337.79 621.086C1334.44 621.741 1332.55 626.394 1333.57 631.484Z" fill="#263238"/>
<path d="M1336.4 621.668L1347.96 615.706C1347.96 615.706 1343.53 626.539 1336.4 621.668Z" fill="#263238"/>
<path d="M1313.72 644.281C1320.56 655.06 1328.86 664.846 1338.37 673.364C1336.15 675.795 1333.42 677.706 1330.38 678.963C1327.34 680.22 1324.06 680.791 1320.77 680.635L1313.72 644.281Z" fill="#ED847E"/>
<path d="M1297.14 704.702C1286.38 704.84 1275.98 700.86 1268.06 693.578C1267.82 693.334 1267.69 693.008 1267.69 692.669C1267.69 692.33 1267.82 692.004 1268.06 691.76C1268.3 691.524 1268.63 691.393 1268.97 691.393C1269.3 691.393 1269.63 691.524 1269.87 691.76C1274.77 696.075 1280.61 699.173 1286.93 700.803C1293.25 702.432 1299.86 702.548 1306.23 701.139C1306.56 701.082 1306.89 701.156 1307.17 701.347C1307.44 701.538 1307.63 701.83 1307.68 702.157C1307.74 702.485 1307.67 702.823 1307.48 703.095C1307.29 703.368 1306.99 703.554 1306.67 703.612C1303.54 704.315 1300.35 704.681 1297.14 704.702Z" fill="#263238"/>
<path d="M1241.08 623.049C1240.62 623.03 1240.18 622.906 1239.77 622.686C1239.19 622.338 1238.78 621.776 1238.61 621.121C1238.45 620.467 1238.55 619.774 1238.9 619.196C1241.3 615.11 1244.65 611.659 1248.66 609.129C1252.67 606.599 1257.23 605.065 1261.95 604.654C1262.62 604.653 1263.26 604.908 1263.75 605.368C1264.24 605.828 1264.53 606.457 1264.57 607.126C1264.58 607.46 1264.52 607.793 1264.4 608.105C1264.28 608.418 1264.1 608.704 1263.87 608.947C1263.64 609.19 1263.37 609.386 1263.06 609.522C1262.76 609.659 1262.43 609.734 1262.09 609.743C1258.19 610.173 1254.45 611.524 1251.18 613.686C1247.9 615.848 1245.19 618.759 1243.26 622.177C1243 622.487 1242.66 622.728 1242.28 622.88C1241.9 623.032 1241.49 623.09 1241.08 623.049Z" fill="#263238"/>
<path d="M1349.64 602.545C1349.23 602.653 1348.81 602.653 1348.4 602.545C1345.01 600.546 1341.2 599.372 1337.27 599.119C1333.34 598.867 1329.41 599.542 1325.79 601.091C1325.14 601.419 1324.39 601.477 1323.7 601.252C1323.02 601.027 1322.44 600.537 1322.12 599.891C1321.79 599.245 1321.73 598.495 1321.96 597.807C1322.18 597.118 1322.67 596.547 1323.32 596.219C1327.67 594.247 1332.44 593.355 1337.21 593.621C1341.98 593.887 1346.62 595.302 1350.73 597.746C1351.02 597.905 1351.27 598.121 1351.48 598.38C1351.68 598.639 1351.83 598.937 1351.92 599.255C1352.01 599.574 1352.03 599.907 1351.99 600.235C1351.95 600.563 1351.84 600.878 1351.67 601.164C1351.49 601.556 1351.2 601.892 1350.85 602.135C1350.49 602.378 1350.07 602.52 1349.64 602.545Z" fill="#263238"/>
<path d="M1204.14 1320.12L1262.31 1324.19L1236.06 1386.36C1236.06 1386.36 1187.49 1371.01 1185.53 1335.46L1204.14 1320.12Z" fill="#FFC3BD"/>
<path d="M1284.63 1359.38L1256.5 1401.84L1236.14 1386.36L1262.53 1324.19L1284.63 1359.38Z" fill="#FFC3BD"/>
<path d="M1278.6 633.011L1290.16 627.048C1290.16 627.048 1285.73 637.882 1278.6 633.011Z" fill="#263238"/>
<defs>
<linearGradient id="paint0_linear_696_240" x1="2797" y1="1284.5" x2="1271.5" y2="1940" gradientUnits="userSpaceOnUse">
<stop offset="0.13975" stop-color="#D8D23D"/>
<stop offset="0.637434" stop-color="#85CA42"/>
<stop offset="1" stop-color="#0B9F2C"/>
</linearGradient>
</defs>
</svg>
