<svg width="3471" height="2560" viewBox="0 0 3471 2560" fill="none" xmlns="http://www.w3.org/2000/svg">
<path d="M1960.12 2132.21C2370.15 1985.29 3077.86 1600.45 3102.49 1067.15C3125.81 562.662 2783.24 367.916 2522.56 400.466C1832.83 486.665 1915.98 851.587 1657.24 869.216C1416.83 885.317 1455.97 563.356 1089.04 583.621C722.103 603.887 504.316 768.442 382.722 1110.95C207.895 1603.71 729.738 2012.7 1133.73 2161.23C1427.03 2269.01 1739.21 2211.4 1960.12 2132.21Z" fill="white"/>
<path opacity="0.9" d="M1960.12 2132.21C2370.15 1985.29 3077.86 1600.45 3102.49 1067.15C3125.81 562.662 2783.24 367.916 2522.56 400.466C1832.83 486.665 1915.98 851.587 1657.24 869.216C1416.83 885.317 1455.97 563.356 1089.04 583.621C722.103 603.887 504.316 768.442 382.722 1110.95C207.895 1603.71 729.738 2012.7 1133.73 2161.23C1427.03 2269.01 1739.21 2211.4 1960.12 2132.21Z" fill="#FE6767" fill-opacity="0.71"/>
<path d="M1701.63 2559.31C2444.81 2559.31 3047.29 2524.14 3047.29 2480.75C3047.29 2437.36 2444.81 2402.18 1701.63 2402.18C958.44 2402.18 355.969 2437.36 355.969 2480.75C355.969 2524.14 958.44 2559.31 1701.63 2559.31Z" fill="#F5F5F5"/>
<path d="M2736.85 716.38L1211.29 716.727L1199.77 727.137L1193.73 920.495L1191.1 950.199L1184.64 1020.57L1179.78 1076.72L1177.01 1108.23H787.171L775.581 1118.64L721.793 1856.95C721.331 1861.38 721.813 1865.85 723.207 1870.07C724.601 1874.29 726.875 1878.17 729.879 1881.45C732.883 1884.73 736.549 1887.34 740.635 1889.1C744.721 1890.86 749.133 1891.73 753.58 1891.65H1110.45L1113.3 1858.69H1111.42L1118.36 1778.87L1123.22 1722.66L1127.11 1678.59L1132.04 1622.37L1135.99 1577.4L1140.78 1521.87L1142.72 1499.73H1534.44L1527.49 1577.19V1578.09L1503 1858.48L1501.95 1870.28V1874.23L1500.43 1891.45L1880.55 1901.99L1892.07 1893.04L1901.65 1779.01L1906.57 1722.8L1919.28 1577.53L1924.13 1522.01L1926.08 1499.87H2318.07L2328.75 1377.65L2332.64 1332.82L2337.5 1277.3L2342.43 1221.08L2352.28 1108.16H2711.03L2732.47 1118.57L2743.99 1108.16L2773.98 756.842C2774.37 746.565 2770.69 736.547 2763.74 728.969C2756.78 721.391 2747.12 716.866 2736.85 716.38Z" fill="#9A9A9A"/>
<path d="M2287.6 1901.99H2644.26C2653.72 1901.83 2662.8 1898.21 2669.78 1891.82C2676.76 1885.43 2681.16 1876.7 2682.15 1867.29L2712.41 1502.58L2318 1501.19L2306.13 1510.42L2287.6 1901.99Z" fill="#9A9A9A"/>
<path d="M2719.56 1118.85L2749.13 780.717H1195.05L1165.49 1118.85H794.111L727.067 1884.99H1098.51L1131.27 1510.49H1522.91L1490.16 1884.99H1881.87L1914.63 1510.49H2306.34L2273.58 1884.99H2652.52L2685.28 1510.49H2306.34L2340.62 1118.85H2719.56Z" fill="#9A9A9A"/>
<path opacity="0.8" d="M2719.56 1118.85L2749.13 780.717H1195.05L1165.49 1118.85H794.111L727.067 1884.99H1098.51L1131.27 1510.49H1522.91L1490.16 1884.99H1881.87L1914.63 1510.49H2306.34L2273.58 1884.99H2652.52L2685.28 1510.49H2306.34L2340.62 1118.85H2719.56Z" fill="white"/>
<path d="M1695.24 1187.7H906.96C905.174 1187.72 903.402 1187.37 901.759 1186.67C900.116 1185.97 898.638 1184.93 897.422 1183.62C896.205 1182.32 895.277 1180.77 894.696 1179.08C894.115 1177.39 893.896 1175.6 894.051 1173.82L896.55 1146.05C897.001 1142.28 898.803 1138.8 901.622 1136.24C904.441 1133.69 908.087 1132.25 911.888 1132.17H1700.38C1702.16 1132.15 1703.93 1132.5 1705.57 1133.2C1707.21 1133.9 1708.68 1134.94 1709.9 1136.25C1711.11 1137.56 1712.03 1139.11 1712.6 1140.8C1713.17 1142.49 1713.38 1144.28 1713.22 1146.05L1710.79 1173.82C1710.33 1177.63 1708.5 1181.14 1705.64 1183.69C1702.78 1186.25 1699.08 1187.67 1695.24 1187.7Z" fill="#9A9A9A"/>
<path opacity="0.5" d="M1695.24 1187.7H906.96C905.174 1187.72 903.402 1187.37 901.759 1186.67C900.116 1185.97 898.638 1184.93 897.422 1183.62C896.205 1182.32 895.277 1180.77 894.696 1179.08C894.115 1177.39 893.896 1175.6 894.051 1173.82L896.55 1146.05C897.001 1142.28 898.803 1138.8 901.622 1136.24C904.441 1133.69 908.087 1132.25 911.888 1132.17H1700.38C1702.16 1132.15 1703.93 1132.5 1705.57 1133.2C1707.21 1133.9 1708.68 1134.94 1709.9 1136.25C1711.11 1137.56 1712.03 1139.11 1712.6 1140.8C1713.17 1142.49 1713.38 1144.28 1713.22 1146.05L1710.79 1173.82C1710.33 1177.63 1708.5 1181.14 1705.64 1183.69C1702.78 1186.25 1699.08 1187.67 1695.24 1187.7Z" fill="white"/>
<path d="M2127.97 1187.7H1747.99C1746.2 1187.73 1744.42 1187.39 1742.77 1186.7C1741.13 1186 1739.64 1184.96 1738.42 1183.65C1737.21 1182.34 1736.28 1180.78 1735.7 1179.09C1735.12 1177.4 1734.91 1175.6 1735.08 1173.82L1737.51 1146.06C1737.96 1142.27 1739.77 1138.77 1742.61 1136.22C1745.44 1133.67 1749.1 1132.23 1752.92 1132.17H2132.9C2134.69 1132.14 2136.47 1132.48 2138.11 1133.18C2139.76 1133.87 2141.24 1134.91 2142.46 1136.22C2143.68 1137.53 2144.61 1139.09 2145.19 1140.78C2145.76 1142.48 2145.97 1144.27 2145.81 1146.06L2143.38 1173.82C2142.93 1177.6 2141.11 1181.1 2138.28 1183.65C2135.45 1186.2 2131.78 1187.64 2127.97 1187.7Z" fill="#9A9A9A"/>
<path opacity="0.5" d="M2127.97 1187.7H1747.99C1746.2 1187.73 1744.42 1187.39 1742.77 1186.7C1741.13 1186 1739.64 1184.96 1738.42 1183.65C1737.21 1182.34 1736.28 1180.78 1735.7 1179.09C1735.12 1177.4 1734.91 1175.6 1735.08 1173.82L1737.51 1146.06C1737.96 1142.27 1739.77 1138.77 1742.61 1136.22C1745.44 1133.67 1749.1 1132.23 1752.92 1132.17H2132.9C2134.69 1132.14 2136.47 1132.48 2138.11 1133.18C2139.76 1133.87 2141.24 1134.91 2142.46 1136.22C2143.68 1137.53 2144.61 1139.09 2145.19 1140.78C2145.76 1142.48 2145.97 1144.27 2145.81 1146.06L2143.38 1173.82C2142.93 1177.6 2141.11 1181.1 2138.28 1183.65C2135.45 1186.2 2131.78 1187.64 2127.97 1187.7Z" fill="white"/>
<path d="M1686.5 1287.98H898.216C896.427 1288.02 894.65 1287.68 893.001 1286.98C891.353 1286.28 889.871 1285.25 888.652 1283.94C887.433 1282.63 886.505 1281.07 885.929 1279.38C885.352 1277.68 885.14 1275.89 885.307 1274.1L887.736 1246.34C888.188 1242.57 889.989 1239.08 892.808 1236.53C895.627 1233.98 899.273 1232.54 903.074 1232.46H1691.36C1693.15 1232.43 1694.92 1232.77 1696.57 1233.46C1698.22 1234.16 1699.7 1235.2 1700.92 1236.51C1702.14 1237.82 1703.07 1239.37 1703.64 1241.07C1704.22 1242.76 1704.43 1244.56 1704.26 1246.34L1701.84 1274.1C1701.38 1277.88 1699.58 1281.36 1696.76 1283.91C1693.95 1286.47 1690.3 1287.91 1686.5 1287.98Z" fill="#9A9A9A"/>
<path opacity="0.5" d="M1686.5 1287.98H898.216C896.427 1288.02 894.65 1287.68 893.001 1286.98C891.353 1286.28 889.871 1285.25 888.652 1283.94C887.433 1282.63 886.505 1281.07 885.929 1279.38C885.352 1277.68 885.14 1275.89 885.307 1274.1L887.736 1246.34C888.188 1242.57 889.989 1239.08 892.808 1236.53C895.627 1233.98 899.273 1232.54 903.074 1232.46H1691.36C1693.15 1232.43 1694.92 1232.77 1696.57 1233.46C1698.22 1234.16 1699.7 1235.2 1700.92 1236.51C1702.14 1237.82 1703.07 1239.37 1703.64 1241.07C1704.22 1242.76 1704.43 1244.56 1704.26 1246.34L1701.84 1274.1C1701.38 1277.88 1699.58 1281.36 1696.76 1283.91C1693.95 1286.47 1690.3 1287.91 1686.5 1287.98Z" fill="white"/>
<path d="M1508.76 1488.56H880.657C878.867 1488.6 877.09 1488.26 875.442 1487.56C873.794 1486.86 872.312 1485.82 871.093 1484.51C869.874 1483.2 868.946 1481.65 868.369 1479.95C867.793 1478.26 867.581 1476.46 867.748 1474.68L870.177 1446.92C870.63 1443.13 872.441 1439.64 875.275 1437.09C878.108 1434.53 881.771 1433.09 885.584 1433.04H1513.61C1515.4 1433 1517.18 1433.34 1518.83 1434.04C1520.48 1434.74 1521.96 1435.78 1523.18 1437.09C1524.4 1438.4 1525.32 1439.95 1525.9 1441.64C1526.48 1443.34 1526.69 1445.14 1526.52 1446.92L1524.09 1474.68C1523.64 1478.45 1521.84 1481.94 1519.02 1484.49C1516.2 1487.04 1512.56 1488.49 1508.76 1488.56Z" fill="#9A9A9A"/>
<path d="M1209.91 1031.19H1172.91L1167.99 1087.34H1204.7C1208.5 1087.27 1212.15 1085.82 1214.97 1083.27C1217.79 1080.72 1219.59 1077.23 1220.04 1073.46L1222.47 1045.7C1222.73 1043.9 1222.59 1042.06 1222.08 1040.32C1221.57 1038.57 1220.69 1036.95 1219.5 1035.58C1218.31 1034.2 1216.83 1033.1 1215.18 1032.34C1213.52 1031.59 1211.73 1031.19 1209.91 1031.19Z" fill="#9A9A9A"/>
<path d="M1629.86 930.905H1181.94L1177.01 987.052H1624.94C1628.74 986.979 1632.38 985.533 1635.2 982.982C1638.02 980.431 1639.82 976.947 1640.27 973.172L1642.7 945.41C1642.97 943.586 1642.83 941.726 1642.3 939.961C1641.77 938.195 1640.86 936.565 1639.64 935.185C1638.42 933.805 1636.91 932.707 1635.22 931.968C1633.54 931.229 1631.71 930.866 1629.86 930.905Z" fill="#9A9A9A"/>
<path opacity="0.5" d="M1629.86 930.905H1181.94L1177.01 987.052H1624.94C1628.74 986.979 1632.38 985.533 1635.2 982.982C1638.02 980.431 1639.82 976.947 1640.27 973.172L1642.7 945.41C1642.97 943.586 1642.83 941.726 1642.3 939.961C1641.77 938.195 1640.86 936.565 1639.64 935.185C1638.42 933.805 1636.91 932.707 1635.22 931.968C1633.54 931.229 1631.71 930.866 1629.86 930.905Z" fill="white"/>
<path d="M2321.95 1332.06H894.329C890.528 1332.13 886.882 1333.57 884.063 1336.13C881.244 1338.68 879.442 1342.16 878.991 1345.94L876.562 1373.7C876.396 1375.47 876.606 1377.26 877.178 1378.95C877.751 1380.64 878.673 1382.19 879.884 1383.5C881.095 1384.81 882.569 1385.85 884.209 1386.55C885.848 1387.26 887.618 1387.61 889.401 1387.58H2317.03L2321.95 1332.06Z" fill="#9A9A9A"/>
<path opacity="0.5" d="M2321.95 1332.06H894.329C890.528 1332.13 886.882 1333.57 884.063 1336.13C881.244 1338.68 879.442 1342.16 878.991 1345.94L876.562 1373.7C876.396 1375.47 876.606 1377.26 877.178 1378.95C877.751 1380.64 878.673 1382.19 879.884 1383.5C881.095 1384.81 882.569 1385.85 884.209 1386.55C885.848 1387.26 887.618 1387.61 889.401 1387.58H2317.03L2321.95 1332.06Z" fill="white"/>
<path d="M2330.7 1231.77H1744.1C1740.3 1231.84 1736.65 1233.29 1733.84 1235.84C1731.02 1238.39 1729.21 1241.87 1728.76 1245.65L1726.33 1273.41C1726.17 1275.19 1726.38 1276.98 1726.95 1278.67C1727.52 1280.36 1728.45 1281.91 1729.66 1283.22C1730.87 1284.53 1732.34 1285.56 1733.98 1286.27C1735.62 1286.97 1737.39 1287.32 1739.17 1287.29H2325.77L2330.7 1231.77Z" fill="#9A9A9A"/>
<path d="M1698.92 1532.63H1520.97L1516.11 1588.85H1693.99C1697.79 1588.77 1701.44 1587.33 1704.26 1584.78C1707.08 1582.23 1708.88 1578.74 1709.33 1574.97L1711.76 1547.21C1712.03 1545.38 1711.9 1543.51 1711.38 1541.73C1710.86 1539.96 1709.95 1538.32 1708.73 1536.93C1707.51 1535.54 1705.99 1534.44 1704.3 1533.7C1702.61 1532.95 1700.77 1532.59 1698.92 1532.63Z" fill="#9A9A9A"/>
<path d="M1129.33 1532.63H876.771C872.969 1532.7 869.323 1534.15 866.504 1536.7C863.685 1539.25 861.884 1542.74 861.432 1546.51L859.003 1574.27C858.837 1576.05 859.047 1577.84 859.62 1579.53C860.192 1581.22 861.114 1582.77 862.325 1584.08C863.537 1585.39 865.01 1586.43 866.65 1587.13C868.29 1587.83 870.059 1588.18 871.843 1588.15H1124.33L1129.33 1532.63Z" fill="#9A9A9A"/>
<g opacity="0.5">
<path d="M1698.92 1532.63H1520.97L1516.11 1588.85H1693.99C1697.79 1588.77 1701.44 1587.33 1704.26 1584.78C1707.08 1582.23 1708.88 1578.74 1709.33 1574.97L1711.76 1547.21C1712.03 1545.38 1711.9 1543.51 1711.38 1541.73C1710.86 1539.96 1709.95 1538.32 1708.73 1536.93C1707.51 1535.54 1705.99 1534.44 1704.3 1533.7C1702.61 1532.95 1700.77 1532.59 1698.92 1532.63Z" fill="white"/>
<path d="M1129.33 1532.63H876.771C872.969 1532.7 869.323 1534.15 866.504 1536.7C863.685 1539.25 861.884 1542.74 861.432 1546.51L859.003 1574.27C858.837 1576.05 859.047 1577.84 859.62 1579.53C860.192 1581.22 861.114 1582.77 862.325 1584.08C863.537 1585.39 865.01 1586.43 866.65 1587.13C868.29 1587.83 870.059 1588.18 871.843 1588.15H1124.33L1129.33 1532.63Z" fill="white"/>
</g>
<path d="M1120.51 1632.92H868.026C864.216 1632.96 860.554 1634.4 857.729 1636.95C854.904 1639.51 853.111 1643.01 852.688 1646.8L850.189 1674.56C850.034 1676.34 850.253 1678.13 850.834 1679.82C851.414 1681.51 852.343 1683.06 853.56 1684.37C854.776 1685.68 856.254 1686.72 857.897 1687.42C859.54 1688.12 861.312 1688.47 863.098 1688.44H1115.59L1120.51 1632.92Z" fill="#9A9A9A"/>
<path opacity="0.5" d="M1120.51 1632.92H868.026C864.216 1632.96 860.554 1634.4 857.729 1636.95C854.904 1639.51 853.111 1643.01 852.688 1646.8L850.189 1674.56C850.034 1676.34 850.253 1678.13 850.834 1679.82C851.414 1681.51 852.343 1683.06 853.56 1684.37C854.776 1685.68 856.254 1686.72 857.897 1687.42C859.54 1688.12 861.312 1688.47 863.098 1688.44H1115.59L1120.51 1632.92Z" fill="white"/>
<path d="M1111.77 1733.21H859.211C855.41 1733.28 851.763 1734.73 848.945 1737.28C846.126 1739.83 844.324 1743.31 843.873 1747.09L841.444 1774.85C841.278 1776.62 841.488 1778.42 842.06 1780.1C842.633 1781.79 843.555 1783.34 844.766 1784.65C845.977 1785.96 847.451 1787 849.091 1787.7C850.73 1788.41 852.5 1788.76 854.283 1788.73H1106.84L1111.77 1733.21Z" fill="#9A9A9A"/>
<path d="M1559.63 1733.21H1503.48L1498.55 1789.42H1554.63C1558.44 1789.38 1562.1 1787.94 1564.93 1785.39C1567.75 1782.83 1569.55 1779.33 1569.97 1775.54L1572.47 1747.78C1572.74 1745.95 1572.61 1744.08 1572.09 1742.31C1571.56 1740.54 1570.66 1738.9 1569.44 1737.51C1568.21 1736.12 1566.7 1735.02 1565.01 1734.27C1563.31 1733.53 1561.48 1733.17 1559.63 1733.21Z" fill="#9A9A9A"/>
<g opacity="0.5">
<path d="M1111.77 1733.21H859.211C855.41 1733.28 851.763 1734.73 848.945 1737.28C846.126 1739.83 844.324 1743.31 843.873 1747.09L841.444 1774.85C841.278 1776.62 841.488 1778.42 842.06 1780.1C842.633 1781.79 843.555 1783.34 844.766 1784.65C845.977 1785.96 847.451 1787 849.091 1787.7C850.73 1788.41 852.5 1788.76 854.283 1788.73H1106.84L1111.77 1733.21Z" fill="white"/>
<path d="M1559.63 1733.21H1503.48L1498.55 1789.42H1554.63C1558.44 1789.38 1562.1 1787.94 1564.93 1785.39C1567.75 1782.83 1569.55 1779.33 1569.97 1775.54L1572.47 1747.78C1572.74 1745.95 1572.61 1744.08 1572.09 1742.31C1571.56 1740.54 1570.66 1738.9 1569.44 1737.51C1568.21 1736.12 1566.7 1735.02 1565.01 1734.27C1563.31 1733.53 1561.48 1733.17 1559.63 1733.21Z" fill="white"/>
</g>
<path d="M2763.5 761.978C2763.97 757.552 2763.5 753.076 2762.11 748.847C2760.72 744.618 2758.44 740.734 2755.44 737.451C2752.43 734.169 2748.76 731.564 2744.67 729.81C2740.58 728.055 2736.16 727.192 2731.71 727.276H1199.77L1191.24 825.204H2701.94C2704.87 825.187 2707.77 825.79 2710.45 826.972C2713.13 828.155 2715.54 829.89 2717.5 832.065C2719.47 834.241 2720.95 836.806 2721.86 839.594C2722.76 842.383 2723.07 845.331 2722.76 848.246L2699.02 1118.92H2731.99L2763.5 761.978Z" fill="#9A9A9A"/>
<path opacity="0.3" d="M2763.5 761.978C2763.97 757.552 2763.5 753.076 2762.11 748.847C2760.72 744.618 2758.44 740.734 2755.44 737.451C2752.43 734.169 2748.76 731.564 2744.67 729.81C2740.58 728.055 2736.16 727.192 2731.71 727.276H1199.77L1191.24 825.204H2701.94C2704.87 825.187 2707.77 825.79 2710.45 826.972C2713.13 828.155 2715.54 829.89 2717.5 832.065C2719.47 834.241 2720.95 836.806 2721.86 839.594C2722.76 842.383 2723.07 845.331 2722.76 848.246L2699.02 1118.92H2731.99L2763.5 761.978Z" fill="white"/>
<path d="M2665.08 1510.49L2635.72 1846.47C2635.08 1852.72 2632.17 1858.52 2627.54 1862.76C2622.91 1867.01 2616.88 1869.41 2610.6 1869.51H2274.97L2272.05 1902.48H2628.92C2638.38 1902.31 2647.46 1898.69 2654.44 1892.3C2661.42 1885.91 2665.82 1877.19 2666.82 1867.78L2698.05 1510.91L2665.08 1510.49Z" fill="#9A9A9A"/>
<path opacity="0.3" d="M2665.08 1510.49L2635.72 1846.47C2635.08 1852.72 2632.17 1858.52 2627.54 1862.76C2622.91 1867.01 2616.88 1869.41 2610.6 1869.51H2274.97L2272.05 1902.48H2628.92C2638.38 1902.31 2647.46 1898.69 2654.44 1892.3C2661.42 1885.91 2665.82 1877.19 2666.82 1867.78L2698.05 1510.91L2665.08 1510.49Z" fill="white"/>
<path d="M808.686 1118.85L745.043 1846.47C744.73 1849.39 745.036 1852.34 745.942 1855.12C746.847 1857.91 748.331 1860.48 750.297 1862.65C752.262 1864.83 754.665 1866.56 757.348 1867.75C760.03 1868.93 762.932 1869.53 765.864 1869.51H1101.5L1098.58 1902.48H742.059C737.606 1902.56 733.186 1901.7 729.092 1899.95C724.998 1898.19 721.323 1895.59 718.311 1892.31C715.299 1889.03 713.019 1885.14 711.621 1880.91C710.223 1876.69 709.74 1872.21 710.202 1867.78L775.58 1119.27L808.686 1118.85Z" fill="#9A9A9A"/>
<path opacity="0.3" d="M808.686 1118.85L745.043 1846.47C744.73 1849.39 745.036 1852.34 745.942 1855.12C746.847 1857.91 748.331 1860.48 750.297 1862.65C752.262 1864.83 754.665 1866.56 757.348 1867.75C760.03 1868.93 762.932 1869.53 765.864 1869.51H1101.5L1098.58 1902.48H742.059C737.606 1902.56 733.186 1901.7 729.092 1899.95C724.998 1898.19 721.323 1895.59 718.311 1892.31C715.299 1889.03 713.019 1885.14 711.621 1880.91C710.223 1876.69 709.74 1872.21 710.202 1867.78L775.58 1119.27L808.686 1118.85Z" fill="white"/>
<path d="M1883.26 1869.24H1491.54L1488.7 1902.2H1880.34L1883.26 1869.24Z" fill="#9A9A9A"/>
<path opacity="0.3" d="M1883.26 1869.24H1491.54L1488.7 1902.2H1880.34L1883.26 1869.24Z" fill="white"/>
<path d="M1895.12 1733.21H1612.38C1608.57 1733.28 1604.93 1734.73 1602.11 1737.28C1599.29 1739.83 1597.49 1743.31 1597.04 1747.09L1594.61 1774.85C1594.44 1776.62 1594.65 1778.42 1595.22 1780.1C1595.8 1781.79 1596.72 1783.34 1597.93 1784.65C1599.14 1785.96 1600.61 1787 1602.25 1787.7C1603.89 1788.41 1605.66 1788.76 1607.45 1788.73H1890.27L1895.12 1733.21Z" fill="#9A9A9A"/>
<path d="M2312.79 1733.21H2286.83L2281.91 1789.42H2307.86C2311.67 1789.35 2315.31 1787.9 2318.13 1785.35C2320.95 1782.8 2322.75 1779.32 2323.2 1775.54L2325.63 1747.78C2325.9 1745.95 2325.77 1744.08 2325.25 1742.31C2324.73 1740.54 2323.82 1738.9 2322.6 1737.51C2321.38 1736.12 2319.87 1735.02 2318.17 1734.27C2316.48 1733.53 2314.64 1733.17 2312.79 1733.21Z" fill="#9A9A9A"/>
<path d="M1912.68 1532.63H1751.6C1747.8 1532.7 1744.15 1534.15 1741.33 1536.7C1738.51 1539.25 1736.71 1542.74 1736.26 1546.51L1733.83 1574.27C1733.66 1576.05 1733.88 1577.85 1734.45 1579.55C1735.03 1581.24 1735.96 1582.79 1737.18 1584.1C1738.39 1585.42 1739.88 1586.45 1741.52 1587.15C1743.17 1587.85 1744.95 1588.19 1746.74 1588.15H1907.75L1912.68 1532.63Z" fill="#9A9A9A"/>
<path d="M2794.87 880.796C2794.41 880.761 2793.97 880.636 2793.57 880.428C2793.16 880.219 2792.8 879.932 2792.51 879.582C2792.22 879.233 2792 878.828 2791.87 878.393C2791.74 877.958 2791.69 877.501 2791.74 877.048L2804.44 731.302C2805 726.302 2804.48 721.243 2802.92 716.459C2801.37 711.676 2798.81 707.28 2795.42 703.563C2792.03 699.846 2787.89 696.894 2783.27 694.903C2778.65 692.913 2773.66 691.93 2768.63 692.019H2650.65C2649.73 692.019 2648.84 691.654 2648.19 691.003C2647.54 690.352 2647.18 689.47 2647.18 688.549C2647.19 687.634 2647.56 686.762 2648.21 686.115C2648.86 685.468 2649.73 685.097 2650.65 685.079H2768.63C2774.62 684.976 2780.57 686.148 2786.07 688.518C2791.58 690.888 2796.52 694.401 2800.56 698.825C2804.6 703.249 2807.66 708.482 2809.52 714.176C2811.39 719.871 2812.02 725.898 2811.38 731.857L2798.61 877.603C2798.58 878.06 2798.45 878.504 2798.25 878.912C2798.04 879.32 2797.75 879.683 2797.4 879.979C2797.06 880.276 2796.65 880.501 2796.22 880.641C2795.78 880.781 2795.32 880.834 2794.87 880.796Z" fill="#9A9A9A"/>
<path d="M2624.06 692.158H2594.29C2593.37 692.158 2592.49 691.793 2591.84 691.142C2591.19 690.491 2590.82 689.608 2590.82 688.688C2590.84 687.773 2591.21 686.901 2591.86 686.254C2592.5 685.607 2593.38 685.236 2594.29 685.218H2624.06C2624.98 685.218 2625.87 685.583 2626.52 686.234C2627.17 686.885 2627.53 687.768 2627.53 688.688C2627.53 689.144 2627.44 689.595 2627.27 690.016C2627.1 690.437 2626.84 690.82 2626.52 691.142C2626.2 691.464 2625.81 691.72 2625.39 691.894C2624.97 692.068 2624.52 692.158 2624.06 692.158Z" fill="#9A9A9A"/>
<path d="M1886.86 1966.54H1842.31C1841.39 1966.52 1840.52 1966.15 1839.87 1965.5C1839.23 1964.86 1838.85 1963.98 1838.84 1963.07C1838.84 1962.15 1839.2 1961.27 1839.85 1960.62C1840.5 1959.96 1841.39 1959.6 1842.31 1959.6H1886.86C1887.78 1959.6 1888.67 1959.96 1889.32 1960.62C1889.97 1961.27 1890.33 1962.15 1890.33 1963.07C1890.32 1963.98 1889.95 1964.86 1889.3 1965.5C1888.65 1966.15 1887.78 1966.52 1886.86 1966.54Z" fill="#9A9A9A"/>
<path d="M1805.52 1966.54H1485.23C1484.31 1966.52 1483.44 1966.15 1482.79 1965.5C1482.15 1964.86 1481.78 1963.98 1481.76 1963.07C1481.76 1962.15 1482.12 1961.27 1482.77 1960.62C1483.43 1959.96 1484.31 1959.6 1485.23 1959.6H1805.38C1806.31 1959.6 1807.19 1959.96 1807.84 1960.62C1808.49 1961.27 1808.86 1962.15 1808.86 1963.07C1808.86 1963.97 1808.51 1964.83 1807.89 1965.48C1807.27 1966.12 1806.42 1966.5 1805.52 1966.54Z" fill="#9A9A9A"/>
<path d="M1209.21 690.493H1253.7C1254.62 690.493 1255.5 690.127 1256.15 689.476C1256.8 688.825 1257.17 687.943 1257.17 687.022C1257.17 686.102 1256.8 685.219 1256.15 684.569C1255.5 683.918 1254.62 683.552 1253.7 683.552H1209.21C1208.29 683.552 1207.41 683.918 1206.76 684.569C1206.11 685.219 1205.74 686.102 1205.74 687.022C1205.74 687.943 1206.11 688.825 1206.76 689.476C1207.41 690.127 1208.29 690.493 1209.21 690.493Z" fill="#9A9A9A"/>
<path d="M1290.48 690.493H1610.64C1611.56 690.493 1612.44 690.127 1613.09 689.476C1613.74 688.825 1614.11 687.943 1614.11 687.022C1614.11 686.102 1613.74 685.219 1613.09 684.569C1612.44 683.918 1611.56 683.552 1610.64 683.552H1290.48C1289.56 683.552 1288.68 683.918 1288.03 684.569C1287.38 685.219 1287.01 686.102 1287.01 687.022C1287.01 687.943 1287.38 688.825 1288.03 689.476C1288.68 690.127 1289.56 690.493 1290.48 690.493Z" fill="#9A9A9A"/>
<path d="M2759.54 1059.99L2884.88 2493.03H2904.66L2899.39 2432.72H3175.68L3180.96 2493.03H3200.74L3075.32 1059.99H3055.54L3060.82 1120.24H2784.59L2779.32 1059.99H2759.54ZM2786.33 1140.02H3062.55L3079.7 1335.73H2803.4L2786.33 1140.02ZM2805.14 1355.17H3081.5L3098.57 1550.81H2822.35L2805.14 1355.17ZM2824.02 1570.32H3100.24L3117.38 1765.96H2841.16L2824.02 1570.32ZM2842.89 1785.47H3119.12L3136.26 1981.18H2859.97L2842.89 1785.47ZM2861.7 2000.96H3138L3155.07 2196.61H2878.84L2861.7 2000.96ZM3174.02 2412.04H2897.65L2880.58 2216.39H3156.8L3174.02 2412.04Z" fill="#263238"/>
<path opacity="0.3" d="M2759.54 1059.99L2884.88 2493.03H2904.66L2899.39 2432.72H3175.68L3180.96 2493.03H3200.74L3075.32 1059.99H3055.54L3060.82 1120.24H2784.59L2779.32 1059.99H2759.54ZM2786.33 1140.02H3062.55L3079.7 1335.73H2803.4L2786.33 1140.02ZM2805.14 1355.17H3081.5L3098.57 1550.81H2822.35L2805.14 1355.17ZM2824.02 1570.32H3100.24L3117.38 1765.96H2841.16L2824.02 1570.32ZM2842.89 1785.47H3119.12L3136.26 1981.18H2859.97L2842.89 1785.47ZM2861.7 2000.96H3138L3155.07 2196.61H2878.84L2861.7 2000.96ZM3174.02 2412.04H2897.65L2880.58 2216.39H3156.8L3174.02 2412.04Z" fill="white"/>
<path d="M2932.35 1140.09L2897.17 1173.26L2829.64 1157.64V1144.32C2829.63 1143.38 2829.39 1142.45 2828.93 1141.63C2828.48 1140.81 2827.82 1140.11 2827.03 1139.61C2826.23 1139.11 2825.33 1138.81 2824.39 1138.75C2823.45 1138.68 2822.51 1138.86 2821.66 1139.25C2821.66 1139.25 2818.39 1141.54 2817.14 1141.34C2811.52 1140.57 2799.86 1126.62 2799.86 1126.62C2799.08 1125.98 2798.14 1125.55 2797.15 1125.38C2796.15 1125.21 2795.12 1125.3 2794.17 1125.65L2789.38 1127.52C2788.12 1128 2787.07 1128.91 2786.43 1130.1C2785.79 1131.29 2785.61 1132.66 2785.91 1133.98L2793.55 1167.78C2793.79 1168.86 2794.35 1169.85 2795.15 1170.61C2795.96 1171.38 2796.97 1171.89 2798.06 1172.08L2819.37 1175.83C2819.37 1175.83 2880.23 1213.31 2902.3 1208.17C2924.37 1203.03 2957.27 1172.15 2957.27 1172.15L2932.35 1140.09Z" fill="#7F3E3B"/>
<path d="M2413.22 1077.14L2397.88 1086.44L2373.73 1469.89L2751.35 1481.76L2765.09 1473.5L2802.92 1080.33L2413.22 1077.14Z" fill="#00535B"/>
<path d="M2776.54 1089.98L2397.88 1086.44L2359.99 1478.15L2738.65 1481.62L2776.54 1089.98Z" fill="#88CDCF"/>
<path opacity="0.8" d="M2776.54 1089.98L2397.88 1086.44L2359.99 1478.15L2738.65 1481.62L2776.54 1089.98Z" fill="white"/>
<path d="M2588.74 1201.02L2387.47 1199.15L2381.99 1255.37L2583.26 1257.24C2587.08 1257.2 2590.76 1255.77 2593.61 1253.21C2596.46 1250.66 2598.28 1247.16 2598.73 1243.36L2601.44 1215.6C2601.7 1213.78 2601.56 1211.93 2601.04 1210.17C2600.52 1208.41 2599.63 1206.79 2598.43 1205.4C2597.22 1204.02 2595.73 1202.91 2594.06 1202.16C2592.39 1201.4 2590.57 1201.01 2588.74 1201.02Z" fill="#88CDCF"/>
<path d="M2385.39 1299.71H2377.27L2371.85 1355.93H2379.91C2383.73 1355.9 2387.42 1354.48 2390.27 1351.92C2393.12 1349.37 2394.94 1345.85 2395.38 1342.05L2398.09 1314.29C2398.36 1312.47 2398.23 1310.62 2397.72 1308.85C2397.2 1307.09 2396.31 1305.46 2395.1 1304.07C2393.89 1302.68 2392.4 1301.58 2390.72 1300.82C2389.05 1300.07 2387.23 1299.69 2385.39 1299.71Z" fill="#88CDCF"/>
<path opacity="0.5" d="M2385.39 1299.71H2377.27L2371.85 1355.93H2379.91C2383.73 1355.9 2387.42 1354.48 2390.27 1351.92C2393.12 1349.37 2394.94 1345.85 2395.38 1342.05L2398.09 1314.29C2398.36 1312.47 2398.23 1310.62 2397.72 1308.85C2397.2 1307.09 2396.31 1305.46 2395.1 1304.07C2393.89 1302.68 2392.4 1301.58 2390.72 1300.82C2389.05 1300.07 2387.23 1299.69 2385.39 1299.71Z" fill="white"/>
<path d="M2718.45 1481.41L2751.35 1481.76L2789.25 1090.05L2756.35 1089.77L2718.45 1481.41Z" fill="#88CDCF"/>
<path opacity="0.3" d="M2718.45 1481.41L2751.35 1481.76L2789.25 1090.05L2756.35 1089.77L2718.45 1481.41Z" fill="white"/>
<path d="M2876.9 990.869C2876.9 990.869 2851.43 992.882 2851.5 1010.51C2851.5 1021.68 2860.31 1003.22 2872.81 997.532C2885.3 991.841 2876.9 990.869 2876.9 990.869Z" fill="#263238"/>
<path d="M2974.62 1585.93C2974.62 1585.93 2987.11 1628.27 2992.8 1641.8C3022.44 1713.15 3082.4 1816.42 3120.3 1923.44L3150.77 1911.64C3138.81 1857.23 3123.53 1803.59 3105.03 1751.04C3089.83 1707.6 3063.39 1663.53 3047.42 1615.91C3043.37 1597.61 3040.47 1579.06 3038.75 1560.39L2974.62 1585.93Z" fill="#7F3E3B"/>
<path d="M3000.79 1316.93C3000.79 1316.93 3034.38 1350.66 3040.28 1393.96C3046.18 1437.27 3033.34 1509.94 3053.46 1588.29L2975.66 1609.6C2975.66 1609.6 2912.64 1389.45 2906.74 1336.22L3000.79 1316.93Z" fill="#263238"/>
<path opacity="0.4" d="M2950.33 1518.61L2970.46 1448.72L2994.75 1409.58C2998.24 1448.85 2995.9 1488.42 2987.81 1527.01C2981.21 1556.23 2975.73 1580.24 2971.91 1597.11C2967.61 1581.28 2959.42 1552.2 2950.33 1518.61Z" fill="black"/>
<path d="M2903.27 1954.53C2899.68 1954.82 2896.1 1953.78 2893.21 1951.62C2892.85 1951.1 2892.66 1950.48 2892.66 1949.85C2892.66 1949.22 2892.85 1948.6 2893.21 1948.08C2893.51 1947.62 2893.9 1947.22 2894.35 1946.91C2894.8 1946.6 2895.31 1946.39 2895.85 1946.27C2901.61 1944.82 2913.48 1951.96 2913.96 1952.31C2914.12 1952.37 2914.25 1952.49 2914.33 1952.65C2914.41 1952.8 2914.43 1952.98 2914.38 1953.14C2914.34 1953.31 2914.25 1953.45 2914.13 1953.56C2914 1953.67 2913.85 1953.75 2913.68 1953.77C2910.24 1954.33 2906.76 1954.58 2903.27 1954.53ZM2898 1947.59C2897.47 1947.52 2896.93 1947.52 2896.4 1947.59C2896.07 1947.62 2895.75 1947.73 2895.47 1947.91C2895.2 1948.09 2894.97 1948.34 2894.81 1948.63C2894.11 1949.67 2894.32 1950.16 2894.81 1950.44C2896.33 1952.73 2905.01 1953.01 2911.39 1952.38C2907.27 1949.97 2902.72 1948.37 2898 1947.66V1947.59Z" fill="#88CDCF"/>
<path d="M2913.68 1953.77C2913.68 1953.77 2913.68 1953.77 2913.34 1953.77C2909.31 1951.83 2901.19 1944.12 2902.03 1940.3C2902.03 1939.33 2902.86 1938.22 2905.15 1938.08C2905.95 1938.02 2906.75 1938.12 2907.52 1938.37C2908.28 1938.62 2908.98 1939.02 2909.59 1939.54C2912.62 1943.4 2914.39 1948.1 2914.66 1953.01C2914.67 1953.16 2914.64 1953.32 2914.57 1953.45C2914.49 1953.59 2914.38 1953.7 2914.24 1953.77C2914.06 1953.84 2913.86 1953.84 2913.68 1953.77ZM2905.63 1939.89H2905.15C2903.69 1939.89 2903.55 1940.51 2903.48 1940.72C2903.48 1943.08 2908.55 1949.05 2912.71 1951.69C2912.43 1947.76 2910.92 1944.03 2908.41 1941C2907.66 1940.29 2906.67 1939.9 2905.63 1939.89Z" fill="#88CDCF"/>
<path d="M2917.43 1949.05L2955.05 1950.02C2955.73 1950.04 2956.38 1950.29 2956.9 1950.73C2957.42 1951.18 2957.77 1951.78 2957.89 1952.45L2963.93 1983.13C2964.07 1983.77 2964.09 1984.44 2963.97 1985.1C2963.85 1985.75 2963.6 1986.37 2963.24 1986.92C2962.88 1987.48 2962.41 1987.96 2961.86 1988.33C2961.31 1988.7 2960.7 1988.96 2960.05 1989.1H2959C2945.12 1988.54 2933.39 1987.5 2916.53 1987.15C2896.68 1986.67 2901.61 1989.16 2878.22 1988.89C2864.34 1988.89 2861.98 1972.65 2867.95 1972.02C2895.36 1969.25 2898.42 1961.06 2909.24 1951.2C2911.61 1949.5 2914.53 1948.73 2917.43 1949.05Z" fill="#263238"/>
<path d="M3106.7 1931.14C3103.44 1932.67 3099.74 1932.97 3096.28 1931.98C3095.77 1931.59 3095.39 1931.06 3095.19 1930.45C3095 1929.84 3094.99 1929.19 3095.17 1928.58C3095.28 1928.03 3095.49 1927.52 3095.8 1927.07C3096.11 1926.61 3096.51 1926.23 3096.98 1925.94C3101.91 1922.54 3115.44 1925.11 3116.06 1925.24C3116.22 1925.27 3116.36 1925.35 3116.48 1925.46C3116.59 1925.57 3116.66 1925.71 3116.69 1925.87C3116.72 1926.04 3116.71 1926.21 3116.65 1926.37C3116.59 1926.53 3116.48 1926.67 3116.34 1926.77C3113.25 1928.5 3110.03 1929.96 3106.7 1931.14ZM3099.34 1926.56L3097.88 1927.26C3097.32 1927.63 3096.92 1928.2 3096.77 1928.85C3096.77 1930.03 3096.77 1930.45 3097.19 1930.59C3099.48 1932.18 3107.67 1929.41 3113.43 1926.56C3108.77 1925.66 3103.99 1925.66 3099.34 1926.56Z" fill="#88CDCF"/>
<path d="M3116.2 1926.77C3116.2 1926.77 3116.2 1926.77 3115.86 1926.77C3111.35 1926.42 3101.14 1922.05 3100.52 1918.17C3100.52 1917.26 3100.52 1915.94 3102.67 1915.04C3103.41 1914.72 3104.22 1914.55 3105.03 1914.55C3105.84 1914.55 3106.65 1914.72 3107.39 1915.04C3112.73 1916.99 3116.62 1925.52 3116.83 1925.87C3116.9 1926 3116.93 1926.14 3116.93 1926.29C3116.93 1926.43 3116.9 1926.57 3116.83 1926.7C3116.74 1926.77 3116.64 1926.81 3116.53 1926.82C3116.42 1926.83 3116.3 1926.82 3116.2 1926.77ZM3103.64 1916.36H3103.23C3101.91 1916.92 3101.98 1917.54 3101.98 1917.75C3102.53 1920.04 3109.61 1923.79 3114.47 1924.69C3112.81 1921.14 3110.09 1918.18 3106.7 1916.22C3105.71 1915.84 3104.62 1915.84 3103.64 1916.22V1916.36Z" fill="#88CDCF"/>
<path d="M3118.08 1921.01L3153.54 1908.73C3154.2 1908.52 3154.9 1908.53 3155.55 1908.75C3156.2 1908.98 3156.76 1909.41 3157.15 1909.98L3173.53 1936.7C3173.89 1937.25 3174.13 1937.88 3174.24 1938.53C3174.35 1939.19 3174.33 1939.85 3174.19 1940.5C3174.04 1941.15 3173.76 1941.76 3173.37 1942.29C3172.99 1942.83 3172.5 1943.29 3171.93 1943.64L3171.03 1944.05C3158.12 1948.29 3146.53 1951.55 3130.57 1957.1C3111.76 1963.62 3117.31 1964.04 3095.31 1972.16C3082.06 1976.95 3074.49 1962.65 3079.77 1959.95C3104.47 1947.73 3104.47 1939.12 3111.21 1926.29C3112.81 1923.78 3115.24 1921.91 3118.08 1921.01Z" fill="#263238"/>
<path d="M2884.4 1585.31C2884.4 1585.31 2883.22 1629.38 2884.4 1644.02C2890.57 1721.06 2915.7 1837.73 2918.68 1951.27H2950.95C2957.13 1888.34 2958.96 1825.05 2956.44 1761.87C2954.84 1722.1 2944.29 1680.18 2944.08 1638.12C2945.85 1619.45 2948.79 1600.9 2952.9 1582.6L2884.4 1585.31Z" fill="#7F3E3B"/>
<path d="M2967.61 1324.98C2981.47 1347.33 2990.23 1372.47 2993.27 1398.6C2996.3 1424.72 2993.54 1451.2 2985.17 1476.14C2954.84 1566.71 2962.48 1611.19 2962.48 1611.19H2878.01C2878.01 1611.19 2878.01 1492.72 2874.4 1453.44C2871.77 1425.68 2864.83 1395.42 2867.05 1342.4L2967.61 1324.98Z" fill="#263238"/>
<path d="M2963.38 1594.33L2965.95 1614.46H2874.61V1594.33H2963.38Z" fill="#263238"/>
<path opacity="0.4" d="M2963.38 1594.33L2965.95 1614.46H2874.61V1594.33H2963.38Z" fill="white"/>
<path d="M3053.46 1570.11L2968.51 1595.37L2974.62 1614.46L3059.15 1589.89L3053.46 1570.11Z" fill="#263238"/>
<path opacity="0.4" d="M3053.46 1570.11L2968.51 1595.37L2974.62 1614.46L3059.15 1589.89L3053.46 1570.11Z" fill="white"/>
<path d="M2938.53 1117.74C2938.53 1117.74 2919.51 1115.73 2919.86 1080.82C2919.86 1080.82 2902.3 1072.83 2890.92 1083.11C2879.54 1093.38 2901.19 1117.81 2887.03 1127.73C2887.17 1127.59 2899.46 1135.92 2938.53 1117.74Z" fill="#7F3E3B"/>
<path d="M2855.39 1031.68C2855.39 1029.32 2853.79 1027.51 2852.26 1027.58C2850.74 1027.65 2849.69 1029.73 2849.83 1032.03C2849.97 1034.32 2851.36 1036.19 2852.89 1036.12C2854.41 1036.05 2855.52 1033.97 2855.39 1031.68Z" fill="#263238"/>
<path d="M2853.79 1035.91L2841.44 1052.22C2843.39 1053.71 2845.67 1054.7 2848.08 1055.12C2850.5 1055.55 2852.98 1055.38 2855.32 1054.65L2853.79 1035.91Z" fill="#A02724"/>
<path d="M2936.24 1028C2934.78 1057.57 2934.85 1070.13 2920.14 1085.54C2897.51 1101.29 2861.84 1100.46 2854.41 1071.03C2847.47 1044.52 2851.15 1000.65 2879.95 988.371C2886.3 985.661 2893.23 984.618 2900.09 985.339C2906.94 986.061 2913.51 988.524 2919.14 992.495C2924.78 996.465 2929.32 1001.81 2932.31 1008.03C2935.3 1014.24 2936.65 1021.12 2936.24 1028Z" fill="#7F3E3B"/>
<path d="M2859.76 1024.74C2859.56 1024.82 2859.35 1024.87 2859.13 1024.87C2858.92 1024.87 2858.71 1024.82 2858.51 1024.74C2857.24 1023.57 2855.71 1022.71 2854.04 1022.24C2852.38 1021.77 2850.63 1021.7 2848.93 1022.03C2848.59 1022.12 2848.23 1022.08 2847.92 1021.91C2847.61 1021.74 2847.38 1021.46 2847.27 1021.13C2847.16 1020.78 2847.19 1020.4 2847.36 1020.08C2847.53 1019.75 2847.82 1019.51 2848.17 1019.39C2850.31 1018.94 2852.52 1019 2854.63 1019.57C2856.74 1020.14 2858.69 1021.19 2860.31 1022.66C2860.44 1022.78 2860.54 1022.92 2860.6 1023.09C2860.67 1023.25 2860.7 1023.42 2860.7 1023.59C2860.7 1023.77 2860.67 1023.94 2860.6 1024.1C2860.54 1024.26 2860.44 1024.41 2860.31 1024.53C2860.15 1024.66 2859.96 1024.73 2859.76 1024.74Z" fill="#263238"/>
<path d="M2852.89 1027.51L2846.43 1026.61C2846.43 1026.61 2850.25 1031.19 2852.89 1027.51Z" fill="#263238"/>
<path opacity="0.2" d="M2906.26 1092.54C2902.43 1098.76 2896.95 1103.78 2890.44 1107.05C2889.38 1103.3 2888.52 1099.5 2887.87 1095.67C2894.13 1095.71 2900.36 1094.66 2906.26 1092.54Z" fill="black"/>
<path d="M2952.9 1122.39C2952.9 1122.39 2952.9 1098.93 2925.14 1103.3C2897.37 1107.67 2877.18 1120.93 2876.55 1134.6L2952.9 1122.39Z" fill="#1FBBA8"/>
<path opacity="0.1" d="M2952.9 1122.39C2952.9 1122.39 2952.9 1098.93 2925.14 1103.3C2897.37 1107.67 2877.18 1120.93 2876.55 1134.6L2952.9 1122.39Z" fill="black"/>
<path d="M2969.55 1119.82C2969.55 1119.82 3006.27 1120.93 3006.27 1150.29C3006.56 1158.42 3004.81 1166.49 3001.17 1173.77C2997.53 1181.04 2992.13 1187.29 2985.45 1191.93L2969.55 1119.82Z" fill="#1FBBA8"/>
<path opacity="0.1" d="M2969.55 1119.82C2969.55 1119.82 3006.27 1120.93 3006.27 1150.29C3006.56 1158.42 3004.81 1166.49 3001.17 1173.77C2997.53 1181.04 2992.13 1187.29 2985.45 1191.93L2969.55 1119.82Z" fill="black"/>
<path d="M3011.61 1320.53C2999.77 1295.58 2992.33 1268.76 2989.61 1241.28C2985.93 1197.97 3012.38 1120.93 2965.39 1119.47C2918.4 1118.02 2892.73 1124.61 2864.83 1135.58C2836.93 1146.54 2842.82 1222.19 2847.2 1250.85C2851.57 1279.52 2864.83 1352.11 2864.83 1352.11C2864.83 1352.11 2944.85 1362.38 3011.61 1320.53Z" fill="#1FBBA8"/>
<path opacity="0.1" d="M2844.98 1232.11C2843.31 1215.25 2843.08 1198.28 2844.28 1181.38L2876.14 1177.43C2868.84 1197.25 2858.31 1215.73 2844.98 1232.11Z" fill="black"/>
<path d="M2818.6 1172.29L2783.07 1205.67L2715.54 1190.13V1175.76C2715.54 1174.94 2715.34 1174.13 2714.94 1173.4C2714.55 1172.68 2713.99 1172.06 2713.3 1171.61C2712.61 1171.17 2711.81 1170.9 2710.99 1170.83C2710.17 1170.77 2709.35 1170.91 2708.6 1171.25C2706.63 1171.79 2704.6 1172.12 2702.56 1172.22C2696.8 1171.46 2685.63 1158.83 2685.63 1158.83C2684.95 1158.24 2684.13 1157.85 2683.24 1157.71C2682.36 1157.56 2681.46 1157.66 2680.63 1157.99L2666.33 1171.32C2665.29 1171.92 2664.46 1172.83 2663.96 1173.93C2663.46 1175.02 2663.32 1176.24 2663.56 1177.43L2678.89 1199.5C2679.43 1200.64 2680.21 1201.66 2681.19 1202.47C2682.16 1203.29 2683.29 1203.88 2684.52 1204.21L2705.34 1208.24C2705.34 1208.24 2766.27 1245.72 2788.27 1240.58C2810.27 1235.45 2843.31 1204.63 2843.31 1204.63L2818.6 1172.29Z" fill="#7F3E3B"/>
<path d="M2864.82 1135.58C2864.82 1135.58 2842.82 1141.96 2811.04 1169.86C2811.04 1169.86 2812.22 1191.86 2840.19 1216.08C2840.19 1216.08 2870.24 1197.27 2879.54 1169.37C2888.84 1141.47 2864.82 1135.58 2864.82 1135.58Z" fill="#1FBBA8"/>
<path d="M2876.14 985.109C2876.14 985.109 2855.32 994.687 2860.8 1009.68C2866.28 1024.67 2869.47 1037.44 2865.38 1042.37C2861.29 1047.29 2875.3 1048.47 2874.61 1031.89C2874.61 1031.89 2876.42 1052.71 2887.03 1055.28C2897.65 1057.84 2904.94 1088.87 2896.06 1103.86C2887.17 1118.85 2885.09 1153.13 2893.9 1160.84C2902.72 1168.54 2919.51 1176.18 2917.5 1189.78C2915.49 1203.38 2937.7 1194.22 2933.33 1177.7C2933.33 1177.7 2945.4 1196.37 2960.12 1179.51C2974.83 1162.64 2951.3 1147.23 2951.3 1147.23C2951.3 1147.23 2969.14 1152.72 2969.55 1162.3C2969.97 1171.87 2975.87 1176.59 2982.81 1165.97C2985.64 1161.21 2986.74 1155.62 2985.95 1150.14C2985.15 1144.66 2982.5 1139.62 2978.44 1135.85C2978.44 1135.85 2990.24 1133.91 2991.69 1142.17C2993.15 1150.43 3006.69 1136.62 2994.96 1125.79C2983.23 1114.96 2962.68 1109.41 2963.03 1067.63C2963.38 1025.85 2955.33 990.175 2923.4 982.819C2891.48 975.462 2876.14 985.109 2876.14 985.109Z" fill="#263238"/>
<path d="M2883.63 1038.06C2881.4 1040.06 2879.59 1042.48 2878.3 1045.19C2877.01 1047.89 2876.28 1050.83 2876.14 1053.82C2876.14 1061.87 2883.49 1064.09 2890.02 1060.34C2896.54 1056.59 2903.34 1048.82 2900.5 1041.46C2899.88 1039.86 2898.87 1038.45 2897.56 1037.34C2896.25 1036.24 2894.68 1035.48 2893 1035.14C2891.32 1034.8 2889.58 1034.89 2887.94 1035.4C2886.3 1035.91 2884.82 1036.83 2883.63 1038.06Z" fill="#7F3E3B"/>
<path d="M2381.29 1544.01L1987.15 1542.35L1975.56 1551.51L1972.79 1774.02L1967.58 1830.23L1960.15 1910.05L1958.7 1925.87L1957.1 1943.01L2330.84 1945.02L2347.98 1927.67L2381.29 1544.01Z" fill="#00535B"/>
<path d="M1940.93 1925.73L2332.43 1927.81L2367.2 1553.31L1975.56 1551.51L1940.93 1925.73Z" fill="#88CDCF"/>
<path opacity="0.8" d="M1940.93 1925.73L2332.43 1927.81L2367.2 1553.31L1975.56 1551.51L1940.93 1925.73Z" fill="white"/>
<path d="M2159.9 1574.34L1973.62 1573.37L1968.41 1629.59L2154.69 1630.56C2158.5 1630.5 2162.17 1629.06 2165 1626.51C2167.83 1623.96 2169.65 1620.46 2170.1 1616.68L2172.67 1588.92C2172.93 1587.09 2172.79 1585.24 2172.27 1583.47C2171.74 1581.71 2170.84 1580.08 2169.63 1578.7C2168.42 1577.31 2166.92 1576.21 2165.24 1575.45C2163.56 1574.7 2161.74 1574.32 2159.9 1574.34Z" fill="#88CDCF"/>
<path d="M1949.81 1830.16L2341.32 1832.24L2346.52 1776.03L1955.02 1773.95L1949.81 1830.16Z" fill="#88CDCF"/>
<path d="M1942.39 1909.98L1939.33 1942.94L2330.84 1945.02L2333.89 1912.06L1942.39 1909.98Z" fill="#88CDCF"/>
<path opacity="0.3" d="M1942.39 1909.98L1939.33 1942.94L2330.84 1945.02L2333.89 1912.06L1942.39 1909.98Z" fill="white"/>
<path d="M2219.24 1999.58C2219.24 1999.58 2223.68 2090.98 2225.69 2121.38C2231.31 2204.31 2252.9 2452.78 2252.9 2452.78H2289.82C2289.82 2452.78 2303.7 2338.68 2299.88 2240.68C2298.22 2200.22 2286 2164.34 2283.3 2136.58C2280.59 2108.82 2296.27 2064.74 2285.45 2024.56C2275.18 1986.67 2219.24 1999.58 2219.24 1999.58Z" fill="#FFC3BD"/>
<path d="M2307.03 2001.8C2307.03 2001.8 2314.87 2097.78 2319.39 2129.5C2331.04 2210.77 2380.88 2452.01 2380.88 2452.01L2417.8 2450.35C2417.8 2450.35 2416.97 2325.42 2400.24 2226.8C2394.62 2193.83 2385.67 2165.38 2382.13 2141.92C2377.68 2112.7 2387.05 2063.36 2374.35 2023.94C2362.41 1986.39 2307.03 2001.8 2307.03 2001.8Z" fill="#FFC3BD"/>
<path d="M2345.06 1812.4C2345.06 1812.4 2410.23 1872.98 2407.94 2070.71C2344.63 2095.06 2275.22 2098.66 2209.73 2080.99C2209.73 2080.99 2192.17 1935.86 2209.73 1828.98L2345.06 1812.4Z" fill="#263238"/>
<path d="M2211.81 1532.42C2211.81 1530.13 2210.28 1528.4 2208.76 1528.47C2207.23 1528.54 2206.19 1530.55 2206.4 1532.84C2206.6 1535.13 2207.92 1536.86 2209.38 1536.79C2210.84 1536.73 2211.95 1534.71 2211.81 1532.42Z" fill="#263238"/>
<path d="M2209.31 1528.61L2203 1527.63C2203 1527.63 2207.02 1532.01 2209.31 1528.61Z" fill="#263238"/>
<path d="M2293.64 1611.26C2293.64 1611.26 2275.04 1609.39 2275.38 1575.17C2275.38 1575.17 2258.17 1567.33 2247.07 1577.4C2235.96 1587.46 2257.13 1611.13 2243.32 1621.05C2243.32 1621.05 2255.6 1629.24 2293.64 1611.26Z" fill="#FFC3BD"/>
<path d="M2211.6 1535.68L2199.53 1551.65C2201.41 1553.06 2203.59 1554.01 2205.91 1554.42C2208.22 1554.83 2210.6 1554.69 2212.85 1554.01L2211.6 1535.68Z" fill="#FFA69D"/>
<path d="M2291.42 1523.61C2290.03 1552.55 2290.1 1564.9 2275.66 1579.89C2253.52 1595.37 2218.61 1594.54 2211.32 1566.01C2204.8 1540.06 2208.13 1497.17 2236.38 1485.09C2242.59 1482.46 2249.36 1481.45 2256.06 1482.17C2262.77 1482.88 2269.18 1485.3 2274.69 1489.18C2280.2 1493.07 2284.62 1498.29 2287.55 1504.36C2290.48 1510.44 2291.81 1517.16 2291.42 1523.89V1523.61Z" fill="#FFC3BD"/>
<path d="M2217.02 1525.62C2216.83 1525.74 2216.61 1525.8 2216.39 1525.8C2216.17 1525.8 2215.95 1525.74 2215.77 1525.62C2214.52 1524.48 2213.02 1523.66 2211.39 1523.21C2209.76 1522.76 2208.05 1522.71 2206.4 1523.05C2206.07 1523.14 2205.71 1523.09 2205.42 1522.92C2205.12 1522.76 2204.9 1522.48 2204.8 1522.15C2204.71 1521.8 2204.75 1521.43 2204.92 1521.11C2205.08 1520.79 2205.36 1520.54 2205.7 1520.42C2207.79 1520 2209.95 1520.07 2212.01 1520.63C2214.07 1521.18 2215.97 1522.2 2217.57 1523.61C2217.8 1523.85 2217.93 1524.18 2217.93 1524.51C2217.93 1524.85 2217.8 1525.17 2217.57 1525.41C2217.41 1525.54 2217.22 1525.62 2217.02 1525.62Z" fill="#263238"/>
<path opacity="0.2" d="M2262.06 1586.83C2258.29 1592.81 2252.93 1597.62 2246.58 1600.72C2245.68 1596.97 2244.57 1593.15 2244.08 1589.61C2250.19 1589.7 2256.26 1588.76 2262.06 1586.83Z" fill="black"/>
<path d="M2308.07 1616.26C2308.07 1616.26 2297.31 1590.37 2264.07 1601.06C2230.83 1611.75 2223.47 1630.35 2223.47 1630.35L2308.07 1616.26Z" fill="#9A3056"/>
<path opacity="0.2" d="M2308.07 1616.26C2308.07 1616.26 2297.31 1590.37 2264.07 1601.06C2230.83 1611.75 2223.47 1630.35 2223.47 1630.35L2308.07 1616.26Z" fill="black"/>
<path d="M2333.4 1621.81C2333.4 1621.81 2376.37 1661.51 2357.83 1700.38C2339.3 1739.24 2308.07 1684.42 2308.07 1684.42L2333.4 1621.81Z" fill="#9A3056"/>
<path opacity="0.2" d="M2333.4 1621.81C2333.4 1621.81 2376.37 1661.51 2357.83 1700.38C2339.3 1739.24 2308.07 1684.42 2308.07 1684.42L2333.4 1621.81Z" fill="black"/>
<path d="M2252.13 2448.82L2293.77 2449.86C2294.53 2449.85 2295.27 2450.11 2295.86 2450.59C2296.44 2451.08 2296.84 2451.75 2296.97 2452.5L2303.91 2486.37C2304.19 2487.8 2303.9 2489.29 2303.1 2490.52C2302.29 2491.74 2301.04 2492.59 2299.6 2492.89H2298.42C2283.5 2492.27 2270.25 2491.09 2251.65 2490.67C2229.78 2490.12 2235.27 2492.89 2209.45 2492.62C2193.97 2492.62 2191.54 2474.71 2198.14 2474.02C2228.4 2470.96 2231.73 2461.94 2243.6 2451.46C2246.06 2449.63 2249.07 2448.7 2252.13 2448.82Z" fill="#263238"/>
<path d="M2380.95 2448.41H2422.59C2423.34 2448.41 2424.07 2448.67 2424.66 2449.15C2425.24 2449.63 2425.64 2450.3 2425.78 2451.04L2432.72 2484.77C2432.92 2485.51 2432.96 2486.27 2432.85 2487.03C2432.74 2487.78 2432.48 2488.5 2432.09 2489.15C2431.69 2489.8 2431.17 2490.36 2430.55 2490.8C2429.93 2491.24 2429.23 2491.55 2428.49 2491.71H2427.31C2412.39 2491.3 2399.13 2490.39 2380.6 2490.26C2358.67 2490.26 2364.22 2492.75 2338.4 2492.89C2322.86 2492.89 2320.15 2475.26 2326.74 2474.5C2356.93 2470.96 2360.13 2461.87 2371.85 2451.18C2374.42 2449.14 2377.67 2448.15 2380.95 2448.41Z" fill="#263238"/>
<path d="M2357.83 1813.85C2357.83 1813.85 2298.22 1857.65 2205.15 1834.67C2205.15 1834.67 2175.86 1696.49 2195.5 1654.85C2212.99 1617.65 2247.97 1612.72 2275.8 1610.92C2303.63 1609.11 2347.22 1605.57 2345.76 1661.51C2344.3 1717.45 2343.88 1750 2357.83 1813.85Z" fill="#9A3056"/>
<path opacity="0.2" d="M2192.45 1755.21C2190.18 1736.78 2188.95 1718.25 2188.77 1699.68L2223.47 1687.19L2192.45 1755.21Z" fill="black"/>
<path d="M2128.46 1727.65L2048.78 1713.77L2045.38 1706.83C2044.11 1704.37 2042.06 1702.39 2039.55 1701.21C2037.04 1700.03 2034.21 1699.71 2031.5 1700.31L2027.89 1701.07L2018.59 1694.13C2016.35 1692.51 2013.64 1691.68 2010.87 1691.77C2008.11 1691.86 2005.46 1692.86 2003.32 1694.62C2001.89 1695.78 2000.73 1697.25 1999.94 1698.92C1999.14 1700.59 1998.74 1702.42 1998.74 1704.26V1712.38C1998.8 1714.87 1999.59 1717.29 2001.03 1719.33L2007.35 1728.35C2008.41 1729.88 2009.81 1731.16 2011.43 1732.08C2013.05 1733.01 2014.86 1733.56 2016.72 1733.69L2043.79 1735.43L2128.18 1756.87L2128.46 1727.65Z" fill="#FFC3BD"/>
<path d="M2238.53 1634.31C2238.53 1634.31 2215.35 1618.97 2191.41 1642.08C2167.46 1665.19 2126.79 1720.64 2126.79 1720.64L2112.36 1718.98L2110.48 1760.13C2124.14 1764.79 2139.08 1763.94 2152.12 1757.77C2172.94 1747.29 2239.99 1668.59 2239.99 1668.59C2239.99 1668.59 2248.66 1645.2 2238.53 1634.31Z" fill="#9A3056"/>
<path d="M2123.32 1712.66V1735.43L2116.94 1738.41L2123.32 1742.71V1767.56L2103.61 1763.19V1712.66H2123.32Z" fill="#9A3056"/>
<path opacity="0.5" d="M2123.32 1712.66V1735.43L2116.94 1738.41L2123.32 1742.71V1767.56L2103.61 1763.19V1712.66H2123.32Z" fill="white"/>
<path opacity="0.3" d="M2317.3 2091.05C2311.89 2091.46 2306.27 2091.74 2300.44 2091.88C2296.97 1996.1 2324.73 1960.92 2324.73 1960.92C2315.82 2003.69 2313.32 2047.54 2317.3 2091.05Z" fill="black"/>
<path d="M2253.1 1474.05C2253.1 1474.05 2299.67 1457.88 2308.07 1505.22C2316.47 1552.55 2358.67 1564.63 2335.28 1596.2C2311.89 1627.78 2244.5 1604.12 2243.32 1577.53C2242.14 1550.95 2242.49 1506.47 2232.63 1500.64C2232.63 1500.64 2238.53 1518.96 2232.63 1518.96C2226.73 1518.96 2222.71 1512.02 2223.47 1502.72C2223.47 1502.72 2223.47 1514.38 2209.59 1510.21C2195.71 1506.05 2217.57 1490.71 2217.57 1490.71C2212.53 1492.7 2207.84 1495.49 2203.69 1498.97C2199.87 1503.13 2198.83 1496.89 2203.69 1489.05C2207.02 1482.87 2223.82 1468.64 2253.1 1474.05Z" fill="#263238"/>
<path d="M2239.92 1533.39C2235.55 1537.39 2232.93 1542.95 2232.63 1548.87C2232.28 1556.71 2239.57 1558.93 2246.51 1555.26C2253.45 1551.58 2259.49 1543.94 2256.71 1536.73C2256.11 1535.12 2255.11 1533.69 2253.8 1532.58C2252.5 1531.47 2250.93 1530.71 2249.25 1530.38C2247.56 1530.04 2245.82 1530.14 2244.19 1530.67C2242.56 1531.2 2241.09 1532.14 2239.92 1533.39Z" fill="#FFC3BD"/>
<path d="M1121.9 1713.36L1160.14 1708.08L1163.06 1698.71C1163.65 1696.88 1164.93 1695.35 1166.62 1694.43C1168.31 1693.51 1170.29 1693.28 1172.15 1693.79L1176.52 1694.97L1193.04 1686.29C1194.28 1685.66 1195.68 1685.39 1197.07 1685.53C1198.98 1685.67 1200.77 1686.54 1202.06 1687.96C1203.35 1689.38 1204.05 1691.24 1204.01 1693.16L1203.59 1708.22C1203.62 1708.54 1203.62 1708.87 1203.59 1709.19L1201.85 1720.57C1201.6 1722.14 1200.86 1723.58 1199.74 1724.7C1198.62 1725.83 1197.17 1726.57 1195.61 1726.82L1171.66 1730.57L1127.73 1739.94L1121.9 1713.36Z" fill="#FFB573"/>
<path d="M1148.69 1702.74C1128.94 1704.19 1109.11 1704.19 1089.35 1702.74C1078.87 1701.91 1069.71 1694.2 1061.59 1683.44L1028.49 1732.03C1035.91 1740.19 1045.06 1746.59 1055.27 1750.77C1096.92 1763.95 1155.42 1740.08 1155.42 1740.08C1157.74 1733.82 1158.34 1727.06 1157.15 1720.49C1155.97 1713.92 1153.05 1707.79 1148.69 1702.74Z" fill="#263238"/>
<path opacity="0.3" d="M1148.69 1702.74C1128.94 1704.19 1109.11 1704.19 1089.35 1702.74C1078.87 1701.91 1069.71 1694.2 1061.59 1683.44L1028.49 1732.03C1035.91 1740.19 1045.06 1746.59 1055.27 1750.77C1096.92 1763.95 1155.42 1740.08 1155.42 1740.08C1157.74 1733.82 1158.34 1727.06 1157.15 1720.49C1155.97 1713.92 1153.05 1707.79 1148.69 1702.74Z" fill="black"/>
<path d="M1080.68 1541.1L1043.82 1941.9L1423.74 1943.43L1435.53 1933.78L1472.67 1542.9L1080.68 1541.1Z" fill="#00535B"/>
<path d="M1033.76 1924.69L1425.33 1926.15L1459.48 1551.65L1067.91 1550.19L1033.76 1924.69Z" fill="#88CDCF"/>
<path opacity="0.8" d="M1033.76 1924.69L1425.33 1926.15L1459.48 1551.65L1067.91 1550.19L1033.76 1924.69Z" fill="white"/>
<path d="M1042.5 1829.12L1434.01 1830.58L1439.14 1774.36L1047.57 1772.9L1042.5 1829.12Z" fill="#88CDCF"/>
<path opacity="0.5" d="M1042.5 1829.12L1434.01 1830.58L1439.14 1774.36L1047.57 1772.9L1042.5 1829.12Z" fill="white"/>
<path d="M1345.31 1673.66L1056.73 1672.96L1051.6 1729.18L1340.18 1730.22C1343.99 1730.18 1347.66 1728.75 1350.5 1726.19C1353.34 1723.64 1355.14 1720.13 1355.58 1716.34L1358.15 1688.58C1358.46 1686.73 1358.35 1684.83 1357.84 1683.03C1357.34 1681.22 1356.44 1679.54 1355.21 1678.12C1353.99 1676.7 1352.47 1675.56 1350.76 1674.79C1349.05 1674.02 1347.19 1673.63 1345.31 1673.66Z" fill="#88CDCF"/>
<path opacity="0.5" d="M1345.31 1673.66L1056.73 1672.96L1051.6 1729.18L1340.18 1730.22C1343.99 1730.18 1347.66 1728.75 1350.5 1726.19C1353.34 1723.64 1355.14 1720.13 1355.58 1716.34L1358.15 1688.58C1358.46 1686.73 1358.35 1684.83 1357.84 1683.03C1357.34 1681.22 1356.44 1679.54 1355.21 1678.12C1353.99 1676.7 1352.47 1675.56 1350.76 1674.79C1349.05 1674.02 1347.19 1673.63 1345.31 1673.66Z" fill="white"/>
<path d="M1060.76 1628.55L1452.33 1630L1457.47 1573.79L1065.89 1572.33L1060.76 1628.55Z" fill="#88CDCF"/>
<path opacity="0.5" d="M1060.76 1628.55L1452.33 1630L1457.47 1573.79L1065.89 1572.33L1060.76 1628.55Z" fill="white"/>
<path d="M1035.22 1908.94L1032.16 1941.9L1423.74 1943.36L1426.72 1910.39L1035.22 1908.94Z" fill="#88CDCF"/>
<path opacity="0.3" d="M1035.22 1908.94L1032.16 1941.9L1423.74 1943.36L1426.72 1910.39L1035.22 1908.94Z" fill="#00535B"/>
<path d="M1009.05 1589.68C1009.05 1589.68 1029.87 1587.53 1029.87 1548.94C1029.87 1548.94 1049.24 1540.13 1061.73 1551.51C1074.22 1562.89 1050.49 1589.54 1066.03 1600.72C1065.82 1600.37 1052.15 1609.53 1009.05 1589.68Z" fill="#FFB573"/>
<path d="M1100.8 1494.53C1100.8 1491.96 1102.47 1489.95 1104.2 1490.09C1105.94 1490.23 1107.05 1492.38 1106.91 1495.01C1106.77 1497.65 1105.18 1499.53 1103.51 1499.46C1101.84 1499.39 1100.6 1497.1 1100.8 1494.53Z" fill="#263238"/>
<path d="M1102.54 1499.46L1116.42 1517.5C1114.3 1519.09 1111.85 1520.16 1109.24 1520.63C1106.64 1521.1 1103.96 1520.95 1101.43 1520.21L1102.54 1499.46Z" fill="#ED893E"/>
<path d="M1011.55 1490.5C1013.15 1523.12 1013.08 1537 1029.32 1554.01C1054.3 1571.36 1093.59 1570.46 1101.84 1537.98C1109.2 1508.76 1105.45 1460.38 1073.67 1446.78C1066.67 1443.8 1059.02 1442.66 1051.46 1443.46C1043.9 1444.26 1036.66 1446.98 1030.44 1451.36C1024.22 1455.74 1019.23 1461.63 1015.92 1468.48C1012.61 1475.33 1011.11 1482.91 1011.55 1490.5Z" fill="#FFB573"/>
<path d="M1095.95 1486.89C1096.16 1487 1096.4 1487.05 1096.64 1487.05C1096.88 1487.05 1097.12 1487 1097.33 1486.89C1098.73 1485.6 1100.42 1484.65 1102.25 1484.14C1104.08 1483.62 1106.01 1483.54 1107.88 1483.91C1108.27 1484.02 1108.68 1483.97 1109.03 1483.77C1109.38 1483.58 1109.64 1483.25 1109.76 1482.87C1109.85 1482.48 1109.79 1482.08 1109.6 1481.73C1109.41 1481.38 1109.09 1481.12 1108.72 1480.99C1106.37 1480.48 1103.94 1480.53 1101.62 1481.15C1099.31 1481.77 1097.17 1482.93 1095.39 1484.53C1095.25 1484.67 1095.14 1484.83 1095.07 1485.01C1094.99 1485.19 1094.95 1485.38 1094.95 1485.58C1094.95 1485.77 1094.99 1485.96 1095.07 1486.14C1095.14 1486.32 1095.25 1486.48 1095.39 1486.62C1095.55 1486.75 1095.74 1486.85 1095.95 1486.89Z" fill="#263238"/>
<path opacity="0.2" d="M1044.66 1561.92C1048.88 1568.72 1054.91 1574.22 1062.08 1577.81C1063.12 1573.58 1064.37 1569.28 1064.99 1565.32C1058.07 1565.35 1051.19 1564.2 1044.66 1561.92Z" fill="black"/>
<path d="M994.617 1595.3C994.617 1595.3 998.504 1570.73 1028.28 1570.59C1070.34 1570.59 1082.69 1590.31 1082.69 1590.31L994.617 1595.3Z" fill="#263238"/>
<path opacity="0.3" d="M994.617 1595.3C994.617 1595.3 998.504 1570.73 1028.28 1570.59C1070.34 1570.59 1082.69 1590.31 1082.69 1590.31L994.617 1595.3Z" fill="black"/>
<path d="M985.316 2415.79L989.064 2477.97L1023.9 2476.72L1025.92 2417.04L985.316 2415.79Z" fill="#FFB573"/>
<path d="M1029.73 2472.77C1029.56 2472.73 1029.41 2472.65 1029.28 2472.52C1029.16 2472.4 1029.08 2472.24 1029.04 2472.07C1029.02 2471.9 1029.05 2471.72 1029.12 2471.56C1029.2 2471.41 1029.31 2471.27 1029.46 2471.17C1030.01 2470.82 1042.71 2463.54 1048.75 2465.2C1049.31 2465.33 1049.84 2465.57 1050.3 2465.9C1050.76 2466.23 1051.16 2466.66 1051.46 2467.14C1051.84 2467.69 1052.05 2468.35 1052.05 2469.02C1052.05 2469.69 1051.84 2470.34 1051.46 2470.89C1048.36 2473.12 1044.56 2474.13 1040.77 2473.74C1037.07 2473.72 1033.38 2473.4 1029.73 2472.77ZM1032.51 2471.59C1039.45 2472.42 1048.47 2472.28 1050.14 2469.92C1050.14 2469.92 1050.62 2469.09 1050.14 2468.05C1049.97 2467.72 1049.72 2467.45 1049.42 2467.24C1049.12 2467.03 1048.77 2466.91 1048.4 2466.87C1047.87 2466.8 1047.34 2466.8 1046.81 2466.87C1041.79 2467.54 1036.94 2469.14 1032.51 2471.59Z" fill="#88CDCF"/>
<path d="M1029.32 2472.7C1029.18 2472.63 1029.07 2472.52 1028.99 2472.38C1028.92 2472.24 1028.89 2472.09 1028.9 2471.93C1029.3 2466.84 1031.26 2461.99 1034.52 2458.05C1035.87 2456.96 1037.58 2456.42 1039.31 2456.53C1041.67 2456.53 1042.44 2457.98 1042.5 2458.96C1043.27 2463.05 1034.59 2470.96 1030.22 2472.84H1029.87C1029.78 2472.87 1029.67 2472.87 1029.58 2472.84C1029.48 2472.82 1029.39 2472.77 1029.32 2472.7ZM1038.69 2457.98C1037.61 2458 1036.58 2458.39 1035.77 2459.09C1033.06 2462.23 1031.39 2466.14 1030.98 2470.27C1035.5 2467.56 1041.19 2461.38 1040.91 2458.89C1040.91 2458.89 1040.91 2458.05 1039.17 2457.91L1038.69 2457.98Z" fill="#88CDCF"/>
<path d="M1026.06 2467.7H986.357C985.627 2467.69 984.914 2467.93 984.344 2468.38C983.773 2468.84 983.38 2469.48 983.234 2470.2L976.294 2502.54C976.131 2503.22 976.106 2503.93 976.222 2504.61C976.337 2505.3 976.59 2505.96 976.966 2506.55C977.342 2507.14 977.832 2507.65 978.408 2508.05C978.985 2508.44 979.634 2508.72 980.319 2508.86H981.43C995.727 2508.51 1008.43 2507.68 1026.26 2507.61C1047.09 2507.61 1041.95 2510.11 1066.66 2510.31C1081.58 2510.31 1084.22 2493.52 1077.9 2492.69C1048.96 2489.21 1045.91 2480.47 1034.73 2470.2C1032.25 2468.32 1029.16 2467.43 1026.06 2467.7Z" fill="#263238"/>
<path opacity="0.2" d="M987.26 2447.92H1024.88L1025.92 2417.04L985.316 2415.79L987.26 2447.92Z" fill="black"/>
<path d="M959.638 1873.33C959.638 1873.33 952.211 1925.52 970.603 2012.9C978.376 2049.82 990.73 2124.64 990.383 2162.33C990.383 2187.31 984.9 2198.62 976.086 2261.23C967.272 2323.83 980.458 2437.09 980.458 2437.09L1030.98 2437.65C1030.98 2437.65 1062.49 2228.4 1068.39 2155.73C1071.38 2118.81 1072.76 2007.42 1072.76 2007.42L1054.93 1873.33H959.638Z" fill="#414456"/>
<path opacity="0.1" d="M1021.82 1961.89C1021.82 1961.89 1033.14 2041.63 1070.41 2106.94C1071.86 2061.62 1072.49 2007.42 1072.49 2007.42L1072.07 2003.95L1046.25 1968L1021.82 1961.89Z" fill="black"/>
<path d="M1135.09 2417.11L1141.4 2479.15L1176.18 2476.45L1175.69 2416.69L1135.09 2417.11Z" fill="#FFB573"/>
<path d="M1181.87 2472.21C1181.7 2472.19 1181.55 2472.12 1181.42 2472.01C1181.3 2471.89 1181.21 2471.75 1181.17 2471.59C1181.11 2471.41 1181.11 2471.22 1181.18 2471.04C1181.24 2470.86 1181.36 2470.71 1181.52 2470.61C1182.07 2470.27 1194.36 2462.49 1200.54 2463.67C1201.67 2463.95 1202.66 2464.64 1203.31 2465.62C1203.7 2466.17 1203.9 2466.82 1203.9 2467.49C1203.9 2468.16 1203.7 2468.82 1203.31 2469.37C1200.32 2471.71 1196.56 2472.87 1192.76 2472.63C1189.13 2472.79 1185.48 2472.65 1181.87 2472.21ZM1184.57 2470.96C1191.51 2471.45 1200.54 2470.96 1202.13 2468.53C1202.13 2468.53 1202.55 2467.7 1202.13 2466.66C1201.96 2466.34 1201.71 2466.08 1201.41 2465.88C1201.1 2465.69 1200.76 2465.57 1200.4 2465.55C1199.85 2465.45 1199.28 2465.45 1198.73 2465.55C1193.7 2466.48 1188.9 2468.37 1184.57 2471.1V2470.96Z" fill="#88CDCF"/>
<path d="M1181.38 2472.21C1181.26 2472.12 1181.16 2472.01 1181.09 2471.88C1181.02 2471.74 1180.97 2471.6 1180.96 2471.45C1181.1 2466.28 1182.85 2461.28 1185.96 2457.15C1186.59 2456.56 1187.33 2456.1 1188.14 2455.8C1188.95 2455.5 1189.82 2455.37 1190.68 2455.42C1193.11 2455.42 1193.87 2456.73 1194.01 2457.71C1194.98 2461.73 1186.59 2470.06 1182.35 2472.14H1181.38V2472.21ZM1190.19 2457.08C1189.1 2457.13 1188.06 2457.57 1187.28 2458.33C1184.71 2461.57 1183.21 2465.52 1182.98 2469.64C1187.35 2466.8 1192.76 2460.34 1192.42 2457.91C1192.42 2457.91 1192.42 2457.08 1190.68 2457.01L1190.19 2457.08Z" fill="#88CDCF"/>
<path d="M1177.91 2467.28L1138.28 2469.16C1137.55 2469.18 1136.86 2469.46 1136.31 2469.94C1135.77 2470.42 1135.41 2471.08 1135.3 2471.8L1129.61 2504.41C1129.36 2505.8 1129.68 2507.23 1130.49 2508.39C1131.29 2509.55 1132.52 2510.34 1133.91 2510.59H1135.02C1149.32 2509.69 1161.95 2508.3 1179.78 2507.47C1200.61 2506.5 1195.54 2509.27 1220.25 2508.51C1235.17 2507.95 1237.04 2490.95 1230.73 2490.4C1201.72 2488.1 1198.32 2479.57 1186.66 2469.57C1184.1 2467.8 1181.01 2466.99 1177.91 2467.28Z" fill="#263238"/>
<path opacity="0.2" d="M1175.69 2416.69L1135.09 2417.11L1138.21 2447.71L1175.97 2445.49L1175.69 2416.69Z" fill="black"/>
<path d="M1013.29 1873.33C1010.33 1926.28 1021.77 1979.05 1046.39 2026.02C1086.92 2099.65 1090.95 2121.31 1093.86 2155.66C1096.64 2188.56 1096.85 2199.67 1101.22 2267.75C1105.59 2335.83 1130.37 2437.58 1130.37 2437.58L1182.56 2434.25C1182.56 2434.25 1182.56 2218.75 1173.75 2142.75C1165.97 2074.6 1124.33 1873.33 1124.33 1873.33H1013.29Z" fill="#414456"/>
<path d="M994.617 1586.77C994.617 1586.77 928.545 1595.3 920.355 1633.27C912.166 1671.23 931.113 1743.69 957.486 1752.78C983.859 1761.87 994.617 1586.77 994.617 1586.77Z" fill="#263238"/>
<path opacity="0.4" d="M968.104 1622.23L956.514 1615.29C956.514 1615.29 940.204 1636.11 930.002 1715.86C936.942 1734.39 946.589 1749.1 957.763 1752.85C968.937 1756.6 976.433 1730.08 982.332 1697.32L968.104 1622.23Z" fill="black"/>
<path d="M952.489 1882.98C952.489 1882.98 1020.85 1901.93 1135.44 1882.98C1131.12 1818.97 1132.49 1754.71 1139.53 1690.94C1151.88 1596.13 1128.84 1589.54 1064.58 1586.28C1000.31 1583.02 954.572 1579.34 952.489 1638.19C947.492 1774.15 952.489 1882.98 952.489 1882.98Z" fill="#263238"/>
<path opacity="0.4" d="M1109.76 1640.9C1109.76 1640.9 1114.68 1694.48 1135.64 1729.53C1136.62 1716.69 1137.87 1703.71 1139.53 1690.94C1142.31 1673.11 1143.22 1655.03 1142.24 1637.01L1119.75 1603.56L1109.76 1640.9Z" fill="black"/>
<path d="M1273.48 1719.6L1311.72 1714.61L1314.7 1705.24C1315.28 1703.39 1316.55 1701.84 1318.25 1700.91C1319.94 1699.98 1321.93 1699.74 1323.8 1700.24L1328.1 1701.42L1344.62 1692.81C1345.86 1692.2 1347.25 1691.91 1348.64 1691.98C1350.56 1692.12 1352.34 1692.99 1353.63 1694.41C1354.93 1695.83 1355.62 1697.7 1355.58 1699.62V1714.74C1355.58 1714.74 1355.58 1715.37 1355.58 1715.72L1353.78 1727.1C1353.53 1728.67 1352.8 1730.12 1351.67 1731.24C1350.55 1732.36 1349.1 1733.1 1347.53 1733.35L1323.66 1737.09L1279.72 1746.39L1273.48 1719.6Z" fill="#FFB573"/>
<path d="M1103.51 1590.31C1103.51 1590.31 1151.33 1590.31 1173.54 1622.51C1192.14 1649.44 1211.43 1706.63 1241.14 1709.05C1260.89 1710.51 1280.72 1710.51 1300.48 1709.05C1304.85 1714.06 1307.8 1720.14 1309.02 1726.67C1310.24 1733.2 1309.69 1739.94 1307.42 1746.18C1307.42 1746.18 1248.91 1770.06 1207.27 1756.87C1165.63 1743.69 1098.93 1620.91 1098.93 1620.91L1103.51 1590.31Z" fill="#263238"/>
<path d="M1067.56 1508.13C1072.22 1496.63 1074.19 1484.21 1073.32 1471.83C1073.32 1471.83 1104.07 1483.35 1108.65 1468.99C1109.3 1467.13 1109.55 1465.16 1109.39 1463.2C1109.22 1461.23 1108.64 1459.33 1107.68 1457.61C1106.72 1455.89 1105.41 1454.39 1103.83 1453.22C1102.25 1452.05 1100.44 1451.22 1098.51 1450.8C1098.51 1450.8 1113.71 1448.79 1105.04 1438.45C1096.36 1428.11 1080.75 1431.86 1080.75 1431.86C1080.75 1431.86 1096.36 1422 1084.42 1416.24C1072.49 1410.48 1054.79 1428.18 1054.79 1428.18C1054.79 1428.18 1064.99 1411.66 1053.12 1408.82C1041.26 1405.97 1026.75 1436.58 1026.75 1436.58C1026.75 1436.58 995.38 1439.7 994.617 1450.8C994.446 1452.24 994.587 1453.69 995.029 1455.06C995.472 1456.43 996.207 1457.69 997.183 1458.75C998.158 1459.82 999.352 1460.65 1000.68 1461.21C1002.01 1461.77 1003.45 1462.03 1004.89 1461.98C1004.89 1461.98 984.068 1465.24 987.607 1475.86C987.839 1477.17 988.414 1478.4 989.272 1479.42C990.131 1480.44 991.243 1481.21 992.497 1481.66C993.751 1482.11 995.101 1482.22 996.412 1481.98C997.722 1481.75 998.947 1481.16 999.961 1480.3C999.961 1480.3 986.844 1491.75 991.355 1502.23C994.617 1509.8 1000.38 1505.98 1000.38 1505.98C1000.38 1505.98 996.699 1520.9 1002.88 1528.05C1009.05 1535.2 1011.48 1522.43 1011.48 1522.43C1011.56 1526.79 1012.57 1531.08 1014.43 1535.01C1016.3 1538.95 1018.99 1542.44 1022.31 1545.26C1022.31 1545.26 1032.16 1535.62 1051.94 1542.21L1067.56 1508.13Z" fill="#263238"/>
<path d="M1069.64 1501.54C1072.09 1503.76 1074.07 1506.44 1075.48 1509.43C1076.88 1512.42 1077.68 1515.66 1077.83 1518.96C1077.83 1527.84 1069.78 1530.27 1062.49 1525.9C1055.21 1521.53 1047.78 1513.2 1050.9 1505.08C1051.62 1503.33 1052.77 1501.78 1054.24 1500.59C1055.71 1499.39 1057.45 1498.58 1059.31 1498.23C1061.17 1497.88 1063.09 1498 1064.9 1498.58C1066.7 1499.15 1068.33 1500.17 1069.64 1501.54Z" fill="#FFB573"/>
<path d="M729.913 1044.8L724.639 1105.11H448.414L453.689 1044.8H433.909L308.566 2478.04H328.346L333.621 2417.8H609.846L604.571 2478.04H624.629L749.554 1044.8H729.913ZM705.83 1320.53H429.606L446.679 1124.68H722.973L705.83 1320.53ZM686.953 1535.68H410.728L427.871 1340.04H704.095L686.953 1535.68ZM668.144 1751.18H391.85L408.993 1555.46H685.218L668.144 1751.18ZM649.267 1966.33H373.042L390.115 1770.68H666.27L649.267 1966.33ZM630.389 2181.48H353.956L371.307 1986.67H647.532L630.389 2181.48ZM352.776 2201.26H628.723L611.581 2396.98H335.356L352.776 2201.26Z" fill="#263238"/>
<path opacity="0.3" d="M729.913 1044.8L724.639 1105.11H448.414L453.689 1044.8H433.909L308.566 2478.04H328.346L333.621 2417.8H609.846L604.571 2478.04H624.629L749.554 1044.8H729.913ZM705.83 1320.53H429.606L446.679 1124.68H722.973L705.83 1320.53ZM686.953 1535.68H410.728L427.871 1340.04H704.095L686.953 1535.68ZM668.144 1751.18H391.85L408.993 1555.46H685.218L668.144 1751.18ZM649.267 1966.33H373.042L390.115 1770.68H666.27L649.267 1966.33ZM630.389 2181.48H353.956L371.307 1986.67H647.532L630.389 2181.48ZM352.776 2201.26H628.723L611.581 2396.98H335.356L352.776 2201.26Z" fill="white"/>
<path d="M533.016 1036.19L577.781 1062.22L655.443 1027.93L656.346 1008.91C656.453 1006.61 657.443 1004.44 659.111 1002.85C660.778 1001.26 662.995 1000.37 665.299 1000.38H673.211L680.984 992.812C681.952 991.887 683.114 991.189 684.386 990.769C685.658 990.348 687.007 990.217 688.336 990.383C689.665 990.549 690.941 991.009 692.07 991.729C693.199 992.449 694.154 993.412 694.864 994.548L699.445 1001.49C700.604 1003.2 701.12 1005.26 700.902 1007.32L698.473 1030.36C698.307 1032.04 697.672 1033.64 696.641 1034.98C695.611 1036.31 694.226 1037.34 692.643 1037.92L671.823 1045.56C671.823 1045.56 607.347 1091.5 583.75 1096.71C560.153 1101.91 513.375 1077.28 513.375 1077.28L533.016 1036.19Z" fill="#EBCDC9"/>
<path d="M1118.85 657.665L761.353 659.677C742.128 659.677 722.001 672.656 720.266 691.88L695.559 1049.38L1070.34 1062.63L1083.04 1053.12L1118.85 657.665Z" fill="#00535B"/>
<path d="M1070.13 1062.15L1100.18 723.736L729.149 723.181L699.028 1061.59L1070.13 1062.15Z" fill="#88CDCF"/>
<path opacity="0.8" d="M1070.13 1062.15L1100.18 723.736L729.149 723.181L699.028 1061.59L1070.13 1062.15Z" fill="white"/>
<path d="M1077.9 974.421L825.898 974.004C822.097 974.078 818.45 975.524 815.631 978.075C812.812 980.626 811.011 984.11 810.56 987.885L808.061 1015.65C807.906 1017.42 808.124 1019.21 808.7 1020.89C809.277 1022.58 810.199 1024.12 811.408 1025.43C812.617 1026.74 814.086 1027.78 815.721 1028.48C817.356 1029.19 819.12 1029.54 820.901 1029.53H1073.18L1077.9 974.421Z" fill="#88CDCF"/>
<path d="M1086.85 873.994H834.574C830.765 874.066 827.109 875.509 824.279 878.059C821.449 880.609 819.633 884.094 819.166 887.875L816.737 915.636C816.56 917.414 816.762 919.21 817.33 920.905C817.899 922.599 818.82 924.154 820.034 925.465C821.247 926.777 822.725 927.817 824.37 928.515C826.015 929.214 827.79 929.555 829.577 929.517L1081.86 929.933L1086.85 873.994Z" fill="#88CDCF"/>
<path opacity="0.5" d="M1086.85 873.994H834.574C830.765 874.066 827.109 875.509 824.279 878.059C821.449 880.609 819.633 884.094 819.166 887.875L816.737 915.636C816.56 917.414 816.762 919.21 817.33 920.905C817.899 922.599 818.82 924.154 820.034 925.465C821.247 926.777 822.725 927.817 824.37 928.515C826.015 929.214 827.79 929.555 829.577 929.517L1081.86 929.933L1086.85 873.994Z" fill="white"/>
<path d="M735.673 790.641C736.303 784.386 739.211 778.581 743.844 774.332C748.477 770.083 754.511 767.687 760.797 767.599L1096.08 768.085L1104.83 670.087L748.305 669.532C738.847 669.714 729.781 673.339 722.805 679.728C715.829 686.116 711.422 694.829 710.411 704.234L678.763 1061.52H711.729L735.673 790.641Z" fill="#88CDCF"/>
<path opacity="0.3" d="M735.673 790.641C736.303 784.386 739.211 778.581 743.844 774.332C748.477 770.083 754.511 767.687 760.797 767.599L1096.08 768.085L1104.83 670.087L748.305 669.532C738.847 669.714 729.781 673.339 722.805 679.728C715.829 686.116 711.422 694.829 710.411 704.234L678.763 1061.52H711.729L735.673 790.641Z" fill="white"/>
<path d="M963.732 716.935C963.09 723.061 960.232 728.743 955.694 732.909C951.157 737.076 945.253 739.441 939.094 739.56C936.176 739.638 933.275 739.089 930.587 737.95C927.899 736.811 925.486 735.108 923.513 732.957C921.539 730.806 920.05 728.256 919.146 725.48C918.242 722.704 917.945 719.766 918.273 716.865C918.886 710.727 921.736 705.028 926.28 700.856C930.823 696.683 936.743 694.329 942.911 694.24C945.83 694.162 948.731 694.711 951.419 695.85C954.107 696.989 956.52 698.692 958.493 700.843C960.467 702.994 961.956 705.544 962.86 708.32C963.764 711.096 964.061 714.034 963.732 716.935Z" fill="#88CDCF"/>
<path opacity="0.5" d="M963.732 716.935C963.09 723.061 960.232 728.743 955.694 732.909C951.157 737.076 945.253 739.441 939.094 739.56C936.176 739.638 933.275 739.089 930.587 737.95C927.899 736.811 925.486 735.108 923.513 732.957C921.539 730.806 920.05 728.256 919.146 725.48C918.242 722.704 917.945 719.766 918.273 716.865C918.886 710.727 921.736 705.028 926.28 700.856C930.823 696.683 936.743 694.329 942.911 694.24C945.83 694.162 948.731 694.711 951.419 695.85C954.107 696.989 956.52 698.692 958.493 700.843C960.467 702.994 961.956 705.544 962.86 708.32C963.764 711.096 964.061 714.034 963.732 716.935Z" fill="#797878"/>
<path d="M879.686 716.796C879.044 722.923 876.185 728.604 871.648 732.771C867.11 736.937 861.207 739.303 855.047 739.421C852.129 739.499 849.228 738.95 846.54 737.811C843.852 736.672 841.439 734.969 839.466 732.818C837.492 730.667 836.003 728.117 835.099 725.341C834.195 722.565 833.898 719.627 834.226 716.726C834.868 710.6 837.727 704.918 842.264 700.752C846.802 696.585 852.705 694.22 858.865 694.101C861.783 694.023 864.684 694.572 867.372 695.711C870.06 696.85 872.473 698.553 874.446 700.704C876.42 702.855 877.909 705.405 878.813 708.181C879.717 710.957 880.014 713.895 879.686 716.796Z" fill="#227073"/>
<path d="M795.568 716.657C794.955 722.796 792.106 728.494 787.562 732.666C783.018 736.839 777.098 739.194 770.93 739.283C768.012 739.361 765.111 738.812 762.423 737.673C759.734 736.534 757.322 734.831 755.348 732.68C753.375 730.528 751.886 727.978 750.982 725.202C750.078 722.426 749.781 719.489 750.109 716.588C750.751 710.461 753.61 704.78 758.147 700.613C762.685 696.446 768.588 694.081 774.747 693.962C777.666 693.884 780.567 694.433 783.255 695.572C785.943 696.712 788.355 698.414 790.329 700.566C792.303 702.717 793.792 705.267 794.696 708.043C795.599 710.819 795.897 713.756 795.568 716.657Z" fill="#FD4848"/>
<path opacity="0.2" d="M795.568 716.657C794.955 722.796 792.106 728.494 787.562 732.666C783.018 736.839 777.098 739.194 770.93 739.283C768.012 739.361 765.111 738.812 762.423 737.673C759.734 736.534 757.322 734.831 755.348 732.68C753.375 730.528 751.886 727.978 750.982 725.202C750.078 722.426 749.781 719.489 750.109 716.588C750.751 710.461 753.61 704.78 758.147 700.613C762.685 696.446 768.588 694.081 774.747 693.962C777.666 693.884 780.567 694.433 783.255 695.572C785.943 696.712 788.355 698.414 790.329 700.566C792.303 702.717 793.792 705.267 794.696 708.043C795.599 710.819 795.897 713.756 795.568 716.657Z" fill="black"/>
<path d="M784.603 723.806L777.663 716.865L784.603 709.925C785.097 709.298 785.343 708.511 785.296 707.714C785.249 706.918 784.911 706.166 784.346 705.601C783.782 705.037 783.03 704.699 782.233 704.652C781.437 704.604 780.65 704.851 780.023 705.344L773.082 712.285L766.142 705.344C765.515 704.851 764.728 704.604 763.931 704.652C763.135 704.699 762.383 705.037 761.818 705.601C761.254 706.166 760.916 706.918 760.869 707.714C760.821 708.511 761.068 709.298 761.562 709.925L768.502 716.865C766.073 719.225 763.644 721.585 761.562 723.806C761.261 724.102 761.021 724.454 760.857 724.843C760.692 725.232 760.606 725.649 760.603 726.071C760.599 726.494 760.679 726.912 760.838 727.303C760.997 727.695 761.231 728.051 761.527 728.352C761.823 728.652 762.176 728.892 762.564 729.056C762.953 729.221 763.37 729.307 763.793 729.31C764.215 729.314 764.633 729.234 765.025 729.075C765.416 728.917 765.772 728.682 766.073 728.386L773.013 721.446L779.953 728.386C780.561 729.003 781.388 729.353 782.254 729.359C782.682 729.363 783.107 729.281 783.505 729.12C783.902 728.959 784.263 728.722 784.569 728.421C784.874 728.12 785.117 727.762 785.284 727.368C785.451 726.973 785.539 726.549 785.542 726.121C785.545 725.692 785.464 725.267 785.303 724.87C785.142 724.473 784.904 724.111 784.603 723.806Z" fill="white"/>
<path d="M870.455 713.604H843.665C842.891 713.717 842.183 714.106 841.671 714.699C841.16 715.291 840.878 716.048 840.878 716.831C840.878 717.614 841.16 718.37 841.671 718.963C842.183 719.555 842.891 719.944 843.665 720.058H870.455C871.23 719.944 871.937 719.555 872.449 718.963C872.961 718.37 873.242 717.614 873.242 716.831C873.242 716.048 872.961 715.291 872.449 714.699C871.937 714.106 871.23 713.717 870.455 713.604Z" fill="white"/>
<path d="M929.725 728.248H943.466L929.794 714.437L929.725 728.248Z" fill="white"/>
<path d="M938.887 705.414L952.629 719.225L952.698 705.414H938.887Z" fill="white"/>
<path d="M401.428 1862.43L396.153 1924.55L430.855 1928.3L441.404 1869.51L401.428 1862.43Z" fill="#EBCDC9"/>
<path d="M437.24 1928.3C437.081 1928.24 436.943 1928.14 436.844 1928C436.745 1927.87 436.689 1927.7 436.685 1927.53C436.675 1927.35 436.723 1927.18 436.823 1927.03C436.924 1926.88 437.07 1926.76 437.24 1926.7C437.795 1926.7 451.121 1921.01 457.159 1923.51C458.233 1923.97 459.098 1924.81 459.588 1925.87C459.887 1926.47 460 1927.15 459.914 1927.82C459.827 1928.48 459.545 1929.11 459.102 1929.62C455.729 1931.38 451.82 1931.82 448.136 1930.87C444.438 1930.32 440.792 1929.46 437.24 1928.3ZM440.155 1927.53C446.748 1929.34 455.84 1930.52 457.853 1928.44C457.853 1928.44 458.408 1927.67 457.853 1926.56C457.746 1926.22 457.557 1925.91 457.304 1925.65C457.05 1925.4 456.738 1925.21 456.395 1925.11C455.882 1924.9 455.346 1924.76 454.799 1924.69C449.665 1924.66 444.574 1925.62 439.808 1927.53H440.155Z" fill="#294D9E"/>
<path d="M436.476 1928.16C436.409 1928.04 436.374 1927.91 436.374 1927.78C436.374 1927.64 436.409 1927.51 436.476 1927.4C437.549 1922.31 440.196 1917.7 444.041 1914.21C444.771 1913.76 445.582 1913.46 446.428 1913.33C447.274 1913.2 448.138 1913.24 448.969 1913.45C451.329 1914 451.884 1915.25 451.814 1916.29C451.814 1920.46 442.237 1927.05 437.934 1928.3H437.24C437.12 1928.38 436.972 1928.41 436.83 1928.38C436.687 1928.36 436.56 1928.28 436.476 1928.16ZM447.928 1914.97C446.846 1914.82 445.744 1915.04 444.805 1915.6C441.686 1918.34 439.481 1921.97 438.489 1926.01C443.278 1924 449.871 1918.65 449.941 1916.22C449.941 1916.22 449.941 1915.32 448.414 1914.97H447.928Z" fill="#294D9E"/>
<path d="M433.978 1922.82L394.626 1917.33C393.914 1917.22 393.187 1917.37 392.567 1917.73C391.947 1918.1 391.473 1918.67 391.226 1919.34L379.635 1950.58C379.368 1951.23 379.235 1951.93 379.245 1952.64C379.254 1953.35 379.406 1954.05 379.691 1954.69C379.976 1955.34 380.388 1955.93 380.903 1956.41C381.418 1956.9 382.025 1957.27 382.689 1957.52C383.033 1957.58 383.386 1957.58 383.73 1957.52C397.958 1959.25 410.658 1960.29 428.287 1962.79C449.108 1965.71 443.486 1967.44 467.916 1971.26C482.63 1973.48 487.696 1957.38 481.797 1955.43C454.035 1947.8 451.884 1938.71 442.306 1926.91C440.138 1924.55 437.168 1923.09 433.978 1922.82Z" fill="#263238"/>
<path opacity="0.2" d="M441.404 1869.51L401.428 1862.43L398.651 1894.85L435.851 1900.33L441.404 1869.51Z" fill="#263238"/>
<path d="M598.533 880.171C598.533 880.171 626.641 866.984 623.934 878.089C621.227 889.194 600.684 894.191 594.854 890.096C589.024 886.001 598.533 880.171 598.533 880.171Z" fill="#263238"/>
<path d="M526.076 1011.2C526.076 1011.2 546.897 1009.05 546.897 970.465C546.897 970.465 566.261 961.65 578.823 973.032C591.385 984.415 567.51 1011.07 583.056 1022.24C582.987 1022.24 569.106 1031.4 526.076 1011.2Z" fill="#EBCDC9"/>
<path d="M617.688 916.469C617.688 913.901 619.354 911.888 621.089 912.027C622.824 912.166 623.935 914.318 623.796 916.955C623.657 919.592 622.061 921.466 620.395 921.397C618.73 921.327 617.688 918.968 617.688 916.469Z" fill="#263238"/>
<path d="M619.563 921.05L633.443 939.095C631.327 940.68 628.87 941.751 626.268 942.221C623.665 942.691 620.989 942.547 618.452 941.801L619.563 921.05Z" fill="#FFD6D0"/>
<path d="M528.574 912.374C530.17 944.994 530.101 958.874 546.411 975.878C571.327 993.229 610.609 992.327 618.868 959.846C626.224 930.627 622.477 882.253 590.69 868.65C583.675 865.594 575.993 864.39 568.379 865.153C560.766 865.917 553.476 868.622 547.207 873.01C540.938 877.398 535.901 883.322 532.578 890.214C529.255 897.107 527.757 904.737 528.227 912.374H528.574Z" fill="#EBCDC9"/>
<path d="M612.969 908.765C613.186 908.87 613.423 908.924 613.663 908.924C613.904 908.924 614.141 908.87 614.357 908.765C615.756 907.471 617.44 906.526 619.274 906.007C621.107 905.488 623.037 905.411 624.907 905.781C625.293 905.888 625.706 905.839 626.057 905.645C626.408 905.45 626.667 905.125 626.78 904.74C626.87 904.354 626.814 903.949 626.621 903.602C626.429 903.256 626.115 902.993 625.739 902.866C623.397 902.352 620.966 902.406 618.648 903.021C616.33 903.637 614.193 904.797 612.414 906.406C612.275 906.541 612.165 906.703 612.09 906.882C612.015 907.061 611.977 907.253 611.977 907.447C611.977 907.64 612.015 907.832 612.09 908.011C612.165 908.19 612.275 908.352 612.414 908.488C612.574 908.623 612.765 908.718 612.969 908.765Z" fill="#263238"/>
<path opacity="0.2" d="M561.68 983.651C565.878 990.533 571.91 996.109 579.1 999.753C580.21 995.519 581.39 991.216 582.015 987.26C575.081 987.222 568.204 986.001 561.68 983.651Z" fill="black"/>
<path d="M546.203 980.806C546.203 980.806 548.493 978.03 557.654 982.055C557.654 982.055 579.03 958.042 582.847 940.76C586.371 938.506 589.301 935.438 591.391 931.814C593.48 928.191 594.668 924.118 594.854 919.939C595.687 905.573 596.103 896.134 601.795 892.803C607.486 889.471 623.31 875.105 611.719 860.253C600.129 845.4 600.962 862.751 600.962 862.751C600.962 862.751 566.885 823.608 571.743 849.565C571.743 849.565 533.085 840.681 552.726 861.918C552.726 861.918 509.072 873.023 523.508 914.248C519.399 926.29 519.397 939.355 523.504 951.398C527.61 963.441 535.593 973.783 546.203 980.806Z" fill="#263238"/>
<path d="M586.665 923.409C589.111 925.629 591.094 928.312 592.499 931.301C593.905 934.291 594.705 937.529 594.855 940.829C595.202 949.713 586.804 952.142 579.516 947.77C572.229 943.397 564.803 935.069 567.926 926.949C568.661 925.21 569.815 923.681 571.284 922.496C572.753 921.312 574.493 920.508 576.347 920.158C578.202 919.808 580.114 919.921 581.914 920.488C583.714 921.056 585.346 922.059 586.665 923.409Z" fill="#EBCDC9"/>
<path d="M561.055 1001.14C570.485 1001.96 579.796 1003.82 588.816 1006.69C585.792 1001.57 581.626 997.212 576.642 993.962C571.659 990.712 565.992 988.656 560.083 987.954C554.156 986.587 547.943 987.205 542.401 989.713C536.858 992.221 532.293 996.48 529.407 1001.83C539.897 1000.42 550.513 1000.19 561.055 1001.14Z" fill="#687DAB"/>
<path opacity="0.5" d="M561.055 1001.14C570.485 1001.96 579.796 1003.82 588.816 1006.69C585.792 1001.57 581.626 997.212 576.642 993.962C571.659 990.712 565.992 988.656 560.083 987.954C554.156 986.587 547.943 987.205 542.401 989.713C536.858 992.221 532.293 996.48 529.407 1001.83C539.897 1000.42 550.513 1000.19 561.055 1001.14Z" fill="#294D9E"/>
<path d="M451.467 1247.59C451.467 1247.59 433.631 1288.54 441.265 1399.52C441.265 1399.52 455.701 1530.62 446.817 1573.02C430.785 1649.37 403.926 1663.25 394.626 1881.24L442.375 1888.18C442.375 1888.18 505.463 1667.62 519.899 1593.15C528.782 1546.93 540.72 1406.87 540.72 1406.87L545.162 1258.49L451.467 1247.59Z" fill="#263238"/>
<path d="M521.564 1874.02L521.634 1936.35L556.544 1937.11L561.957 1877.63L521.564 1874.02Z" fill="#EBCDC9"/>
<path d="M562.582 1933.5C562.416 1933.47 562.264 1933.39 562.151 1933.26C562.038 1933.14 561.97 1932.98 561.958 1932.81C561.931 1932.63 561.956 1932.46 562.03 1932.3C562.104 1932.14 562.224 1932 562.374 1931.91C562.999 1931.91 576.255 1924.97 582.015 1927.05C582.563 1927.22 583.073 1927.5 583.513 1927.87C583.954 1928.24 584.317 1928.69 584.583 1929.2C584.968 1929.75 585.175 1930.4 585.175 1931.07C585.175 1931.74 584.968 1932.4 584.583 1932.95C581.365 1934.98 577.515 1935.77 573.756 1935.17C569.987 1934.97 566.246 1934.41 562.582 1933.5ZM565.428 1932.53C572.368 1933.71 581.321 1934.13 583.125 1931.91C583.125 1931.91 583.611 1931.07 583.125 1929.96C582.965 1929.65 582.739 1929.38 582.464 1929.16C582.188 1928.95 581.87 1928.8 581.529 1928.71C580.99 1928.53 580.431 1928.41 579.864 1928.37C574.833 1928.84 569.936 1930.25 565.428 1932.53Z" fill="#294D9E"/>
<path d="M562.165 1933.43C562.091 1933.32 562.051 1933.19 562.051 1933.05C562.051 1932.92 562.091 1932.78 562.165 1932.67C562.745 1927.48 564.984 1922.61 568.55 1918.79C569.234 1918.26 570.017 1917.88 570.852 1917.67C571.687 1917.45 572.556 1917.41 573.409 1917.54C575.768 1917.89 576.462 1919.14 576.462 1920.18C577.017 1924.27 567.856 1931.7 563.414 1933.36C563.424 1933.53 563.367 1933.69 563.256 1933.82C563.145 1933.94 562.99 1934.01 562.825 1934.02C562.659 1934.03 562.496 1933.98 562.373 1933.87C562.249 1933.76 562.174 1933.6 562.165 1933.43ZM572.367 1919.55C571.286 1919.49 570.22 1919.84 569.383 1920.53C566.484 1923.47 564.589 1927.26 563.97 1931.35C568.62 1928.92 574.658 1923.09 574.519 1920.59C574.519 1920.59 574.519 1919.76 572.853 1919.55H572.367Z" fill="#294D9E"/>
<path d="M559.182 1928.23L519.553 1926.15C518.832 1926.11 518.121 1926.32 517.531 1926.74C516.941 1927.15 516.505 1927.75 516.291 1928.44L507.407 1960.36C507.021 1961.71 507.185 1963.15 507.861 1964.37C508.538 1965.59 509.673 1966.5 511.016 1966.89C511.383 1966.95 511.759 1966.95 512.126 1966.89C526.423 1967.37 539.194 1967.3 556.961 1968.27C577.782 1969.38 572.507 1971.61 597.145 1973.27C611.998 1974.31 615.676 1957.52 609.36 1956.34C580.697 1951.2 578.198 1942.46 567.718 1931.35C565.33 1929.34 562.306 1928.23 559.182 1928.23Z" fill="#263238"/>
<path opacity="0.2" d="M521.634 1909.84L558.973 1910.46L561.957 1877.63L521.564 1874.02L521.634 1909.84Z" fill="#263238"/>
<path opacity="0.4" d="M538.916 1427.55L529.199 1409.23L503.381 1385.08C503.381 1385.08 495.192 1489.74 523.092 1572.88C529.199 1531.17 535.793 1461.98 538.916 1427.55Z" fill="black"/>
<path d="M509.975 1258.28C509.975 1258.28 501.716 1297.84 503.034 1385.22C504.353 1472.6 536.417 1539.09 536.001 1591.28C535.237 1667.27 502.826 1708.29 516.221 1894.57H567.302C567.302 1894.57 607.764 1663.8 613.455 1586.35C619.354 1506.19 613.038 1264.87 613.038 1264.87L509.975 1258.28Z" fill="#263238"/>
<path d="M513.583 1005.24C513.583 1005.24 476.522 1008.15 468.263 1033.69C465.822 1040.96 465.091 1048.69 466.126 1056.29C467.162 1063.88 469.935 1071.14 474.232 1077.48L494.22 1083.18L513.583 1005.24Z" fill="#294D9E"/>
<path opacity="0.1" d="M513.583 1005.24C513.583 1005.24 476.522 1008.15 468.263 1033.69C465.822 1040.96 465.091 1048.69 466.126 1056.29C467.162 1063.88 469.935 1071.14 474.232 1077.48L494.22 1083.18L513.583 1005.24Z" fill="black"/>
<path d="M561.055 1001.14C584.861 1003.29 633.582 1014.33 638.579 1063.6C643.576 1112.88 620.395 1287.78 620.395 1287.78C620.395 1287.78 528.089 1291.04 442.376 1266.33C461.064 1197.99 472.121 1127.79 475.342 1057.01C476.869 1019.32 505.047 996.144 561.055 1001.14Z" fill="#294D9E"/>
<path opacity="0.1" d="M592.98 1055.28C592.98 1055.28 609.498 1104.34 636.635 1135.64C638.509 1111.01 639.619 1088.45 639.134 1072.83L592.98 1055.28Z" fill="black"/>
<path d="M666.27 1063.33L705.83 1096.78L788.281 1076.44L792.445 1057.84C792.931 1055.58 794.271 1053.6 796.185 1052.31C798.1 1051.01 800.44 1050.51 802.717 1050.9L810.282 1052.22L819.443 1046.32C820.544 1045.62 821.783 1045.17 823.075 1045C824.368 1044.82 825.683 1044.93 826.929 1045.31C828.176 1045.69 829.325 1046.34 830.297 1047.21C831.269 1048.08 832.041 1049.15 832.56 1050.35L835.891 1058.05C836.721 1059.96 836.868 1062.09 836.308 1064.09L829.923 1086.37C829.46 1087.97 828.569 1089.4 827.345 1090.53C826.122 1091.66 824.613 1092.43 822.982 1092.75L801.051 1096.71C801.051 1096.71 729.635 1130.79 705.413 1131.83C681.192 1132.87 639.55 1100.53 639.55 1100.53L666.27 1063.33Z" fill="#EBCDC9"/>
<path d="M598.811 1010.58C598.811 1010.58 638.509 1020.57 684.315 1064.23C680.256 1075.58 673.98 1086 665.854 1094.9C657.729 1103.8 647.914 1111 636.982 1116.07C636.982 1116.07 556.128 1032.79 598.811 1010.58Z" fill="#294D9E"/>
<path d="M392.683 1867.92L391.295 1885.48L443.209 1892.9L448.206 1877.29L392.683 1867.92Z" fill="#263238"/>
<path opacity="0.3" d="M392.683 1867.92L391.295 1885.48L443.209 1892.9L448.206 1877.29L392.683 1867.92Z" fill="white"/>
<path d="M514 1882.77L515.666 1900.33L568.482 1900.26L571.535 1883.12L514 1882.77Z" fill="#263238"/>
<path opacity="0.3" d="M514 1882.77L515.666 1900.33L568.482 1900.26L571.535 1883.12L514 1882.77Z" fill="white"/>
</svg>
