<svg width="2469" height="1820" viewBox="0 0 2469 1820" fill="none" xmlns="http://www.w3.org/2000/svg">
<path d="M1637.51 1434.13C1785.98 1352.95 2228.2 1128 2160.2 774.759C2089.4 406.611 1803.22 401.525 1439.31 520.917C1099.26 632.408 1115.26 240.263 655.319 391.058C265.89 518.695 102.752 1180.09 670.132 1488.69C1014.28 1676.02 1469.78 1525.82 1637.51 1434.13Z" fill="#FF5E5E"/>
<path opacity="0.9" d="M1637.51 1434.13C1785.98 1352.95 2228.2 1128 2160.2 774.759C2089.4 406.611 1803.22 401.525 1439.31 520.917C1099.26 632.408 1115.26 240.263 655.319 391.058C265.89 518.695 102.752 1180.09 670.132 1488.69C1014.28 1676.02 1469.78 1525.82 1637.51 1434.13Z" fill="white"/>
<path d="M1234.35 1819.79C1763.08 1819.79 2191.71 1794.76 2191.71 1763.89C2191.71 1733.02 1763.08 1708 1234.35 1708C705.622 1708 277 1733.02 277 1763.89C277 1794.76 705.622 1819.79 1234.35 1819.79Z" fill="#F5F5F5"/>
<path d="M1910.85 565.109L1905.92 682.13C1905.56 690.524 1902.93 698.662 1898.3 705.674C1893.68 712.685 1887.23 718.304 1879.65 721.927C1871.35 725.877 1863.26 729.679 1859.45 731.309C1850.37 735.555 1841.38 739.11 1832.4 742.616C1814.27 749.677 1796.3 756.096 1777.74 761.971L1761 718.471C1776.16 713.237 1836.69 690.919 1857.68 682.624L1884.64 562.739C1882.27 559.776 1910.85 565.109 1910.85 565.109Z" fill="#EBB376"/>
<path d="M1908.48 574.44L1918.85 535.285H1880.59C1880.59 535.285 1877.62 557.653 1890.46 569.058L1908.48 574.44Z" fill="#EBB376"/>
<path d="M1912.98 513.412L1898.76 510.549C1895.99 510.028 1893.14 510.533 1890.72 511.969C1888.3 513.405 1886.49 515.674 1885.62 518.35L1880.69 535.385H1918.95L1921.03 524.966C1921.27 523.678 1921.25 522.355 1920.98 521.073C1920.7 519.792 1920.17 518.578 1919.42 517.503C1918.67 516.427 1917.72 515.512 1916.61 514.81C1915.51 514.107 1914.27 513.632 1912.98 513.412Z" fill="#EBB376"/>
<path d="M1730.83 717.088C1743.47 697.634 1833.24 695.215 1833.24 695.215L1837.28 757.824C1837.28 757.824 1781.59 774.513 1747.91 774.217C1722.73 768.44 1722.44 734.271 1730.83 717.088Z" fill="#407BFF"/>
<path d="M1730.83 717.088C1743.47 697.634 1833.24 695.215 1833.24 695.215L1837.28 757.824C1837.28 757.824 1781.59 774.513 1747.91 774.217C1722.73 768.44 1722.44 734.271 1730.83 717.088Z" fill="#B72727"/>
<path opacity="0.1" d="M1730.83 717.088C1743.47 697.634 1833.24 695.215 1833.24 695.215L1837.28 757.824C1837.28 757.824 1781.59 774.513 1747.91 774.217C1722.73 768.44 1722.44 734.271 1730.83 717.088Z" fill="white"/>
<path d="M1584.43 655.715C1584.43 670.527 1583.24 655.715 1592.53 681.588C1601.81 707.461 1595.44 736.741 1557.03 729.828C1518.61 722.915 1499.06 731.951 1473.53 738.37C1448 744.789 1413.44 719.904 1429.88 690.278C1446.32 660.652 1443.76 641.84 1429.88 640.606C1404.85 638.285 1410.13 593.698 1430.72 569.109C1446.92 549.803 1446.92 549.803 1483.75 544.865C1601.27 529.114 1584.53 640.902 1584.43 655.715Z" fill="#263238"/>
<path d="M1444.99 1609.31C1437.88 1641.61 1427.46 1752.51 1427.46 1752.51L1390.48 1756.06C1390.48 1756.06 1393.1 1645.46 1390.48 1613.86L1444.99 1609.31Z" fill="#CB7A63"/>
<path d="M1371.03 1746.93C1366.83 1747.67 1362.5 1746.88 1358.83 1744.7C1358.4 1744.09 1358.17 1743.36 1358.17 1742.61C1358.17 1741.85 1358.4 1741.12 1358.83 1740.51C1359.12 1739.93 1359.53 1739.41 1360.02 1738.99C1360.51 1738.56 1361.08 1738.24 1361.69 1738.04C1368.36 1735.67 1383.12 1742.73 1383.77 1742.98C1383.95 1743.04 1384.11 1743.16 1384.23 1743.32C1384.34 1743.48 1384.4 1743.67 1384.4 1743.86C1384.4 1744.06 1384.34 1744.25 1384.23 1744.41C1384.11 1744.57 1383.95 1744.69 1383.77 1744.75C1379.59 1745.84 1375.33 1746.57 1371.03 1746.93ZM1363.97 1739.47C1363.36 1739.53 1362.76 1739.66 1362.19 1739.87C1361.79 1739.96 1361.43 1740.15 1361.11 1740.4C1360.79 1740.66 1360.54 1740.98 1360.36 1741.35C1359.77 1742.58 1360.07 1743.17 1360.36 1743.47C1362.44 1745.99 1372.66 1745.3 1380.11 1743.82C1375.06 1741.31 1369.58 1739.76 1363.97 1739.27V1739.47Z" fill="#7B61FF"/>
<path d="M1383.22 1744.65H1382.83C1377.89 1742.88 1367.42 1734.78 1368.01 1730.14C1368.01 1729 1368.8 1727.62 1371.42 1727.18C1372.37 1727 1373.34 1727.02 1374.29 1727.24C1375.23 1727.45 1376.12 1727.85 1376.9 1728.41C1382.38 1732.31 1384.26 1743.22 1384.36 1743.67C1384.38 1743.84 1384.36 1744.01 1384.29 1744.17C1384.22 1744.33 1384.11 1744.46 1383.96 1744.56C1383.86 1744.64 1383.74 1744.69 1383.6 1744.71C1383.47 1744.72 1383.34 1744.71 1383.22 1744.65ZM1372.11 1728.95H1371.52C1369.79 1729.25 1369.74 1729.94 1369.69 1730.19C1369.69 1733 1376.56 1739.42 1381.79 1742.04C1380.98 1737.46 1378.79 1733.24 1375.52 1729.94C1374.52 1729.25 1373.32 1728.91 1372.11 1729V1728.95Z" fill="#7B61FF"/>
<path d="M1387.12 1738.68L1431.56 1735.47C1432.37 1735.41 1433.18 1735.63 1433.85 1736.08C1434.52 1736.54 1435.02 1737.21 1435.26 1737.99L1445.88 1773.49C1446.12 1774.24 1446.2 1775.03 1446.13 1775.81C1446.06 1776.59 1445.83 1777.35 1445.46 1778.04C1445.1 1778.74 1444.6 1779.35 1443.99 1779.85C1443.38 1780.35 1442.68 1780.72 1441.93 1780.95L1440.7 1781.19C1424.7 1782.08 1410.43 1782.23 1390.53 1783.66C1367.03 1785.39 1373.2 1787.76 1345.6 1790.18C1328.96 1791.61 1324.56 1772.9 1331.53 1771.46C1363.52 1765.05 1366.09 1755.07 1377.79 1742.58C1380.35 1740.22 1383.65 1738.84 1387.12 1738.68Z" fill="#263238"/>
<path d="M1521.72 1230.7C1519.55 1240 1516.37 1249.04 1512.24 1257.66C1497.87 1288.62 1466.77 1427.71 1466.77 1427.71C1494.27 1514.71 1448.79 1688.61 1446.77 1695.92L1384.75 1699.97C1384.01 1692.56 1383.22 1684.32 1382.38 1675.53C1376.16 1610.2 1379.03 1518.02 1374.38 1437.88C1366.68 1305.6 1418.48 1028.65 1418.48 1028.65L1538.61 1022.18L1556.58 1101.19C1561.94 1123.97 1561.56 1147.73 1555.48 1170.34C1549.39 1192.94 1537.79 1213.68 1521.72 1230.7Z" fill="#263238"/>
<path opacity="0.2" d="M1514.56 1250.4C1499.75 1282 1475.85 1351.03 1475.85 1351.03C1487.01 1314.19 1498.22 1213.86 1515.85 1167.4L1514.56 1250.4Z" fill="black"/>
<path d="M1671.68 1740.85L1637.11 1752.8C1637.11 1752.8 1616.08 1685.11 1604.77 1648.52L1656.62 1642.84C1658.05 1666.44 1671.68 1740.85 1671.68 1740.85Z" fill="#CB7A63"/>
<path d="M1615.04 1743.02C1610.83 1743.65 1606.53 1742.68 1602.99 1740.31C1602.55 1739.7 1602.31 1738.97 1602.31 1738.21C1602.31 1737.46 1602.55 1736.72 1602.99 1736.11C1603.64 1734.98 1604.7 1734.14 1605.96 1733.79C1612.67 1731.67 1627.14 1739.32 1627.78 1739.67C1627.96 1739.76 1628.1 1739.91 1628.19 1740.09C1628.28 1740.27 1628.31 1740.47 1628.28 1740.67C1628.26 1740.86 1628.17 1741.05 1628.04 1741.2C1627.9 1741.34 1627.73 1741.45 1627.53 1741.49C1623.42 1742.38 1619.24 1742.89 1615.04 1743.02ZM1608.33 1735.32C1607.71 1735.32 1607.09 1735.42 1606.5 1735.62C1606.1 1735.7 1605.73 1735.88 1605.4 1736.12C1605.08 1736.37 1604.81 1736.69 1604.62 1737.05C1603.98 1738.24 1604.23 1738.83 1604.62 1739.17C1606.6 1741.74 1616.87 1741.49 1624.37 1740.31C1619.39 1737.65 1613.94 1735.96 1608.33 1735.32Z" fill="#7B61FF"/>
<path d="M1627.34 1741.49C1627.21 1741.54 1627.07 1741.54 1626.94 1741.49C1622 1739.52 1612.13 1730.98 1612.62 1726.38C1612.62 1725.25 1613.51 1723.92 1616.13 1723.57C1617.08 1723.43 1618.06 1723.48 1618.99 1723.73C1619.92 1723.98 1620.8 1724.41 1621.56 1725C1626.89 1729.1 1628.32 1740.06 1628.37 1740.56C1628.4 1740.73 1628.38 1740.9 1628.31 1741.06C1628.24 1741.22 1628.12 1741.35 1627.98 1741.44C1627.78 1741.53 1627.55 1741.55 1627.34 1741.49ZM1616.82 1725.3H1616.28C1614.55 1725.3 1614.45 1726.19 1614.4 1726.43C1614.4 1729.2 1620.87 1735.91 1626 1738.73C1625.38 1734.13 1623.37 1729.84 1620.23 1726.43C1619.27 1725.64 1618.06 1725.24 1616.82 1725.3Z" fill="#7B61FF"/>
<path d="M1631.44 1735.67L1675.87 1734.24C1676.69 1734.2 1677.49 1734.44 1678.15 1734.93C1678.81 1735.41 1679.28 1736.11 1679.48 1736.9L1688.66 1772.8C1688.86 1773.55 1688.91 1774.34 1688.81 1775.12C1688.7 1775.89 1688.44 1776.64 1688.05 1777.31C1687.66 1777.99 1687.13 1778.58 1686.51 1779.05C1685.88 1779.52 1685.17 1779.86 1684.42 1780.06C1684.01 1780.13 1683.59 1780.13 1683.18 1780.06C1667.18 1780.3 1652.86 1780.06 1632.97 1780.55C1609.41 1781.34 1615.49 1783.96 1587.79 1785.24C1571.15 1785.98 1567.49 1767.12 1574.5 1765.98C1606.75 1761.05 1609.81 1751.17 1621.91 1738.98C1624.58 1736.75 1627.96 1735.58 1631.44 1735.67Z" fill="#263238"/>
<path d="M1673.26 1693.94L1616.77 1700.46C1613.46 1693.35 1609.96 1685.65 1606.16 1676.91C1572.43 1600.82 1521.72 1503.7 1509.03 1418.97C1489.68 1289.46 1511.6 1025.05 1511.6 1025.05L1629.07 1013.29C1645.67 1053.16 1653.46 1096.15 1651.88 1139.3C1647.43 1295.13 1605.81 1407.96 1605.81 1407.96C1659.83 1486.81 1672.96 1686.88 1673.26 1693.94Z" fill="#263238"/>
<path d="M1682.19 1668.57L1679.73 1692.32L1675.23 1693.75L1673.26 1693.95L1616.77 1700.46L1613.46 1700.81L1602.06 1702.14L1598.5 1677.65L1606.16 1676.86L1609.96 1676.52L1671.87 1670.34L1680.22 1669.5L1682.19 1668.57Z" fill="#7B61FF"/>
<path d="M1786.08 700.942C1759.5 709.609 1731.27 711.976 1703.62 707.855C1703.62 707.855 1652.62 738.666 1630.79 751.109C1614.21 737.736 1603.56 718.362 1601.17 697.19C1630.79 690.277 1664.72 677.094 1694.29 670.872C1718.98 665.935 1787.37 676.6 1787.37 676.6L1786.08 700.942Z" fill="#CB7A63"/>
<path d="M1787.41 676.6C1798.03 675.02 1812.1 674.378 1817.73 674.18C1819.32 674.097 1820.89 674.511 1822.22 675.365C1826.42 678.081 1835.95 684.105 1839.8 685.981C1841.6 686.973 1843.06 688.482 1844 690.313C1844.93 692.144 1845.29 694.213 1845.04 696.252L1844.05 704.3C1843.92 706.274 1843.02 708.118 1841.54 709.431C1840.06 710.744 1838.12 711.419 1836.15 711.311C1829.93 710.817 1815.56 711.311 1815.56 711.311C1815.56 711.311 1804.45 708.201 1785.93 701.09L1787.41 676.6Z" fill="#CB7A63"/>
<path d="M1667.78 733.877C1667.78 733.877 1623.88 759.602 1608.97 766.119C1578.21 779.599 1559.59 740.493 1559.99 731.556C1560.21 724.02 1562.98 716.781 1567.84 711.015C1584.13 687.562 1651.04 676.452 1651.04 676.452C1654.77 696.085 1660.37 715.314 1667.78 733.877Z" fill="#624ECC"/>
<path opacity="0.2" d="M1667.78 733.877C1667.78 733.877 1623.88 759.602 1608.97 766.119C1578.21 779.599 1559.59 740.493 1559.99 731.556C1560.21 724.02 1562.98 716.781 1567.84 711.015C1584.13 687.562 1651.04 676.452 1651.04 676.452C1654.77 696.085 1660.37 715.314 1667.78 733.877Z" fill="black"/>
<path d="M1402.92 766.613L1362.48 840.43L1276.08 922.345C1276.08 922.345 1255.34 921.604 1245.07 927.628L1266 963.821C1275.41 960.724 1283.37 954.298 1288.37 945.749C1288.37 945.749 1364.9 928.369 1405.93 865.019C1424.45 836.48 1458.37 790.955 1459.41 777.574C1460.45 764.193 1452.79 744.591 1436.79 743.603C1420.8 742.616 1412.16 748.047 1402.92 766.613Z" fill="#CB7A63"/>
<path d="M1398.18 752.293L1361.5 807.15L1434.33 843.935C1434.33 843.935 1462.87 817.47 1467.7 779.006C1471.75 747.01 1450.72 717.385 1421.44 728.79C1416.18 730.946 1411.42 734.139 1407.42 738.176C1403.42 742.214 1400.28 747.015 1398.18 752.293Z" fill="#7B61FF"/>
<path opacity="0.2" d="M1398.18 752.293L1361.5 807.15L1434.33 843.935C1434.33 843.935 1462.87 817.47 1467.7 779.006C1471.75 747.01 1450.72 717.385 1421.44 728.79C1416.18 730.946 1411.42 734.139 1407.42 738.176C1403.42 742.214 1400.28 747.015 1398.18 752.293Z" fill="black"/>
<path d="M1245.07 927.282L1233.02 937.157C1230.69 939.034 1229.14 941.713 1228.67 944.67C1228.21 947.628 1228.86 950.653 1230.5 953.155L1237.71 964.067C1239.18 966.397 1241.4 968.157 1244 969.055C1246.61 969.952 1249.44 969.935 1252.03 969.005L1266 964.067L1245.07 927.282Z" fill="#CB7A63"/>
<path d="M1592.63 693.437C1566.75 704.596 1475.26 720.347 1446.23 724.84C1442.83 725.36 1439.62 726.758 1436.93 728.897C1434.23 731.037 1432.15 733.842 1430.87 737.036C1428.43 742.543 1425.69 747.916 1422.67 753.132C1412.06 773.13 1407.12 783.894 1398.23 798.46C1389.84 812.137 1397.99 825.37 1401.59 835.195C1404.38 844.82 1404.91 854.96 1403.12 864.821C1382.33 1066.08 1425.24 1048.25 1425.24 1048.25C1526.36 1046.87 1633.21 1025.79 1633.21 1025.79C1593.91 907.087 1625.91 679.019 1592.63 693.437Z" fill="#7B61FF"/>
<path opacity="0.2" d="M1592.63 693.437C1566.75 704.596 1475.26 720.347 1446.23 724.84C1442.83 725.36 1439.62 726.758 1436.93 728.897C1434.23 731.037 1432.15 733.842 1430.87 737.036C1428.43 742.543 1425.69 747.916 1422.67 753.132C1412.06 773.13 1407.12 783.894 1398.23 798.46C1389.84 812.137 1397.99 825.37 1401.59 835.195C1404.38 844.82 1404.91 854.96 1403.12 864.821C1382.33 1066.08 1425.24 1048.25 1425.24 1048.25C1526.36 1046.87 1633.21 1025.79 1633.21 1025.79C1593.91 907.087 1625.91 679.019 1592.63 693.437Z" fill="black"/>
<path d="M1478.47 784.536L1506.66 768.883C1517.84 762.667 1527.65 754.28 1535.54 744.215C1543.43 734.15 1549.22 722.61 1552.58 710.274C1524.73 704.349 1522.71 672.896 1525.18 646.085L1476.35 697.634C1482.86 716.248 1480.69 711.113 1461.09 723.21C1460.05 724.544 1428.85 756.194 1478.47 784.536Z" fill="#CB7A63"/>
<path opacity="0.2" d="M1516.69 667.959C1517.39 660.126 1516.67 652.23 1514.56 644.653L1497.43 657.837L1480.05 676.155C1482.52 682.743 1484.18 689.608 1484.99 696.597C1499.35 691.659 1514.91 680.846 1516.69 667.959Z" fill="black"/>
<path d="M1538.91 633.643C1530.26 669.095 1527.4 684.253 1505.97 699.412C1473.83 722.174 1432.2 703.856 1430.03 666.527C1428.11 633.001 1442.52 580.712 1480.15 572.713C1488.44 570.92 1497.04 571.273 1505.16 573.74C1513.27 576.207 1520.61 580.706 1526.5 586.809C1532.39 592.912 1536.62 600.418 1538.79 608.615C1540.96 616.811 1541 625.426 1538.91 633.643Z" fill="#CB7A63"/>
<path d="M1485.18 565.109C1468.15 578.589 1483.65 602.042 1492.15 612.757C1500.64 623.472 1527.94 640.111 1518.27 656.307C1508.59 672.502 1521.08 718.57 1552.58 710.275C1584.08 701.98 1570.16 613.35 1560.28 589.155C1550.41 564.961 1505.48 549.062 1485.18 565.109Z" fill="#263238"/>
<path d="M1457.68 634.58C1453.9 640.768 1449.28 646.401 1443.95 651.319C1445.22 652.643 1446.76 653.673 1448.46 654.339C1450.17 655.004 1452 655.288 1453.83 655.17L1457.68 634.58Z" fill="#B74D3C"/>
<path d="M1489.33 621.842C1489.58 621.884 1489.83 621.884 1490.07 621.842C1490.39 621.639 1490.62 621.317 1490.7 620.946C1490.79 620.576 1490.72 620.188 1490.52 619.867C1489.14 617.527 1487.22 615.556 1484.91 614.12C1482.61 612.684 1479.99 611.827 1477.28 611.621C1476.9 611.633 1476.54 611.786 1476.27 612.05C1475.99 612.315 1475.83 612.673 1475.8 613.053C1475.81 613.421 1475.96 613.771 1476.22 614.036C1476.47 614.3 1476.82 614.46 1477.18 614.485C1479.42 614.702 1481.57 615.44 1483.46 616.641C1485.36 617.842 1486.95 619.471 1488.1 621.398C1488.25 621.565 1488.44 621.692 1488.66 621.769C1488.87 621.847 1489.1 621.872 1489.33 621.842Z" fill="#263238"/>
<path d="M1436.84 611.275C1437.07 611.325 1437.31 611.325 1437.54 611.275C1439.43 610.108 1441.58 609.402 1443.8 609.213C1446.02 609.025 1448.26 609.359 1450.32 610.189C1450.67 610.366 1451.06 610.404 1451.43 610.293C1451.8 610.182 1452.11 609.933 1452.3 609.597C1452.47 609.243 1452.49 608.836 1452.36 608.466C1452.23 608.096 1451.96 607.792 1451.61 607.622C1449.11 606.555 1446.4 606.101 1443.69 606.299C1440.99 606.497 1438.37 607.34 1436.05 608.757C1435.72 608.945 1435.47 609.256 1435.36 609.625C1435.25 609.993 1435.28 610.391 1435.46 610.732C1435.59 610.981 1435.79 611.185 1436.04 611.318C1436.28 611.45 1436.57 611.504 1436.84 611.473V611.275Z" fill="#263238"/>
<path d="M1479.16 633.445C1478.62 636.359 1476.64 638.383 1474.72 638.087C1472.79 637.79 1471.7 635.124 1472.25 632.211C1472.79 629.298 1474.77 627.273 1476.64 627.273C1478.52 627.273 1479.65 630.483 1479.16 633.445Z" fill="#263238"/>
<path d="M1446.18 627.52C1445.63 630.433 1443.66 632.458 1441.78 632.162C1439.91 631.865 1438.77 629.248 1439.26 626.286C1439.76 623.323 1441.78 621.348 1443.66 621.645C1445.53 621.941 1446.72 624.607 1446.18 627.52Z" fill="#263238"/>
<path d="M1444.45 621.94L1437.83 618.682C1437.83 618.682 1440.45 624.804 1444.45 621.94Z" fill="#263238"/>
<path d="M1477.43 627.866L1470.82 624.607C1470.82 624.607 1473.43 630.681 1477.43 627.866Z" fill="#263238"/>
<path d="M1537.67 665.293C1534.48 671.575 1528.95 676.348 1522.27 678.575C1513.33 681.39 1508.54 673.637 1510.71 664.947C1512.69 657.245 1519.7 646.431 1528.78 647.32C1530.76 647.563 1532.64 648.292 1534.26 649.442C1535.88 650.593 1537.19 652.128 1538.07 653.91C1538.95 655.692 1539.38 657.665 1539.31 659.652C1539.24 661.639 1538.68 663.577 1537.67 665.293Z" fill="#CB7A63"/>
<path d="M1474.77 666.281C1476.05 665.579 1477.25 664.752 1478.37 663.812C1478.45 663.738 1478.52 663.647 1478.57 663.545C1478.61 663.442 1478.64 663.332 1478.64 663.219C1478.64 663.107 1478.61 662.997 1478.57 662.894C1478.52 662.792 1478.45 662.701 1478.37 662.627C1478.29 662.542 1478.2 662.474 1478.09 662.427C1477.98 662.38 1477.87 662.356 1477.75 662.356C1477.64 662.356 1477.52 662.38 1477.42 662.427C1477.31 662.474 1477.21 662.542 1477.14 662.627C1474.26 664.961 1470.88 666.592 1467.26 667.389C1463.64 668.186 1459.89 668.128 1456.3 667.219C1456.19 667.172 1456.08 667.15 1455.96 667.153C1455.85 667.156 1455.73 667.184 1455.63 667.236C1455.52 667.288 1455.43 667.362 1455.36 667.453C1455.29 667.544 1455.24 667.649 1455.21 667.762C1455.15 667.978 1455.17 668.211 1455.27 668.412C1455.37 668.614 1455.54 668.77 1455.76 668.848C1458.93 669.727 1462.26 669.953 1465.52 669.512C1468.79 669.07 1471.93 667.971 1474.77 666.281Z" fill="#263238"/>
<path d="M1784.45 1742.63L1748.6 1748.11L1743.57 1709.15L1781.09 1703.48L1784.45 1742.63Z" fill="#EBB376"/>
<path d="M1745.54 1740.85L1786.23 1736.31C1786.95 1736.23 1787.67 1736.39 1788.28 1736.78C1788.89 1737.16 1789.35 1737.75 1789.59 1738.43L1800.25 1769.94C1800.48 1770.61 1800.56 1771.32 1800.51 1772.03C1800.46 1772.74 1800.26 1773.43 1799.94 1774.06C1799.62 1774.7 1799.18 1775.26 1798.64 1775.72C1798.1 1776.18 1797.47 1776.53 1796.8 1776.75H1795.66C1781.39 1778.08 1774.38 1778.03 1756.46 1780.01C1745.44 1781.24 1716.95 1785.64 1701.7 1787.32C1686.44 1788.99 1682.84 1774.18 1688.91 1772.11C1716.31 1762.83 1731.72 1752.36 1739.77 1743.52C1741.31 1741.96 1743.36 1741.02 1745.54 1740.85Z" fill="#B72727"/>
<path opacity="0.2" d="M1743.07 1705.4L1746.18 1728.76L1782.87 1723.92L1781.14 1702.29L1743.07 1705.4Z" fill="black"/>
<path d="M1607.88 967.277C1604.72 1011.42 1633.41 1221.76 1656.07 1313.75C1686.19 1435.91 1735.08 1721.89 1735.08 1721.89L1789.14 1713.65C1789.14 1713.65 1785 1469.53 1750.48 1374.33C1741.74 1245.61 1720.16 956.661 1720.16 956.661L1607.88 967.277Z" fill="#263238"/>
<path opacity="0.2" d="M1728.16 1096.99C1726.19 1064.35 1700.02 1038.08 1697.6 1100.4C1696.07 1139.9 1715.82 1206.95 1737.1 1253.46C1733.69 1202.95 1730.58 1146.71 1728.16 1096.99Z" fill="black"/>
<path d="M2038.29 1631.83L2012.57 1651.88L1984.23 1614.6L2009.95 1594.6L2038.29 1631.83Z" fill="#EBB376"/>
<path d="M2008.32 1651.63L2035.78 1621.07C2036.23 1620.53 2036.87 1620.19 2037.57 1620.1C2038.26 1620.02 2038.96 1620.21 2039.53 1620.62L2065.95 1640.03C2066.58 1640.54 2067.1 1641.18 2067.49 1641.9C2067.87 1642.62 2068.11 1643.41 2068.19 1644.22C2068.27 1645.03 2068.18 1645.85 2067.94 1646.63C2067.7 1647.41 2067.31 1648.14 2066.78 1648.77C2056.91 1659.23 2051.97 1663.58 2039.83 1677.26C2032.37 1685.5 2023.63 1697.01 2013.41 1708.51C2003.19 1720.02 1991.83 1709.84 1995.09 1704.12C2009.9 1678.49 2005.56 1670.49 2006.2 1657.6C2006.23 1655.43 2006.98 1653.33 2008.32 1651.63Z" fill="#B72727"/>
<path opacity="0.2" d="M1984.23 1614.6L1996.97 1631.34L2022.94 1610.45L2009.95 1594.6L1984.23 1614.6Z" fill="black"/>
<path d="M1680.32 1010.43C1680.32 1010.43 1751.81 1280.72 1787.96 1381.84C1814.03 1454.77 1985.46 1625.91 1985.46 1625.91L2020.67 1600.08C2020.67 1600.08 1948.68 1457.48 1859.6 1367.32C1843.61 1251.83 1835.41 1059.61 1783.56 1001.05L1680.32 1010.43Z" fill="#263238"/>
<path d="M1608.28 784.782C1592.08 801.866 1575.34 817.913 1557.96 833.664C1540.58 849.415 1445.19 914.839 1369.4 930.145C1368.14 930.505 1366.83 930.614 1365.53 930.467C1364.23 930.319 1362.98 929.917 1361.84 929.285C1360.7 928.652 1359.69 927.801 1358.88 926.779C1358.06 925.758 1357.46 924.586 1357.1 923.331C1356.74 922.077 1356.63 920.764 1356.78 919.467C1356.93 918.17 1357.33 916.915 1357.96 915.773C1358.59 914.631 1359.45 913.625 1360.47 912.813C1361.49 912 1362.66 911.397 1363.91 911.037C1384.9 902.742 1563.15 772.784 1579.15 756.983C1580.97 754.977 1583.19 753.359 1585.65 752.227C1588.12 751.095 1590.79 750.471 1593.5 750.394C1596.21 750.316 1598.91 750.787 1601.44 751.776C1603.97 752.766 1606.27 754.254 1608.21 756.153C1610.15 758.052 1611.68 760.322 1612.72 762.828C1613.77 765.334 1614.29 768.024 1614.27 770.738C1614.25 773.452 1613.68 776.133 1612.6 778.623C1611.52 781.112 1609.95 783.358 1607.98 785.227L1608.28 784.782Z" fill="#EBB376"/>
<path d="M1367.03 911.334L1334.74 907.088L1347.57 942.441C1347.57 942.441 1366.98 939.38 1375.17 925.209L1367.03 911.334Z" fill="#EBB376"/>
<path d="M1581.71 732.05C1549.37 742.616 1564.88 756.145 1543.6 773.476C1518.91 793.572 1521.87 796.831 1521.87 796.831L1560.24 839.295C1560.24 839.295 1607.88 803.448 1627.19 789.622C1646.5 775.797 1606.16 731.21 1581.71 732.05Z" fill="#B72727"/>
<path opacity="0.1" d="M1581.71 732.05C1549.37 742.616 1564.88 756.145 1543.6 773.476C1518.91 793.572 1521.87 796.831 1521.87 796.831L1560.24 839.295C1560.24 839.295 1607.88 803.448 1627.19 789.622C1646.5 775.797 1606.16 731.21 1581.71 732.05Z" fill="black"/>
<path d="M1313.8 932.22L1322.98 945.304C1323.99 946.773 1325.46 947.862 1327.16 948.398C1328.86 948.935 1330.69 948.889 1332.36 948.267L1347.57 942.687L1334.73 907.334L1315.68 921.061C1313.97 922.307 1312.82 924.173 1312.46 926.258C1312.11 928.343 1312.59 930.483 1313.8 932.22Z" fill="#EBB376"/>
<path d="M1561.17 755.306C1567.44 827.889 1599.69 956.859 1603.24 1001C1610.4 1091.26 1645.9 1316.51 1645.9 1316.51C1685.7 1316.51 1774.97 1293.8 1820.45 1259.19L1821.68 1186.51L1850.52 1248.23L1861.38 1226.9L1831.46 1101.43C1820.45 1013.15 1762.33 982.93 1760.9 969.253C1755.58 895.579 1756.93 821.576 1764.95 748.146C1765.5 743.704 1765.17 739.197 1763.98 734.882C1762.79 730.567 1760.76 726.528 1758.01 722.998C1755.26 719.467 1751.84 716.513 1747.95 714.304C1744.06 712.096 1739.76 710.676 1735.32 710.127C1734.29 710.127 1733.25 710.127 1732.21 710.127C1722.58 709.781 1711.87 709.633 1701.06 710.127C1676.8 710.61 1652.61 712.805 1628.67 716.694C1611.88 719.804 1594.11 724.298 1581.17 727.705C1575.17 729.306 1569.91 732.925 1566.27 737.952C1562.63 742.98 1560.83 749.108 1561.17 755.306Z" fill="#B72727"/>
<g opacity="0.1">
<path d="M1593.96 943.034C1598.6 967.376 1602.16 987.917 1603.24 1001C1610.4 1091.26 1645.9 1316.51 1645.9 1316.51C1685.7 1316.51 1774.97 1293.8 1820.45 1259.19L1821.68 1186.51L1850.52 1248.23L1861.38 1226.9L1831.46 1101.43C1820.45 1013.15 1762.33 982.93 1760.9 969.253C1755.58 895.579 1756.93 821.576 1764.95 748.146C1765.5 743.704 1765.17 739.197 1763.98 734.882C1762.79 730.567 1760.77 726.528 1758.01 722.998C1755.26 719.467 1751.84 716.513 1747.95 714.304C1744.06 712.096 1739.77 710.676 1735.32 710.127C1734.29 710.127 1733.25 710.127 1732.21 710.127C1722.58 709.781 1711.87 709.633 1701.06 710.127C1650.45 746.714 1610.2 761.922 1595.98 873.068L1593.96 943.034Z" fill="white"/>
</g>
<path d="M1686.69 628.952C1684.27 652.653 1683.53 695.709 1701.25 709.731C1677.29 722.387 1655.77 739.207 1637.71 759.404C1616.52 729.037 1628.87 716.298 1628.87 716.298C1654.2 707.756 1651.83 688.549 1645.66 670.872L1686.69 628.952Z" fill="#EBB376"/>
<path d="M1702.54 708.694C1696.54 702.215 1693.04 693.815 1692.66 684.994C1686.74 684.516 1680.81 685.689 1675.52 688.382C1670.23 691.076 1665.79 695.185 1662.69 700.251C1655.93 711.805 1657.21 726.124 1658.69 739.406C1673.01 729.037 1688.22 719.063 1702.54 708.694Z" fill="#B72727"/>
<path opacity="0.1" d="M1702.54 708.694C1696.54 702.215 1693.04 693.815 1692.66 684.994C1686.74 684.516 1680.81 685.689 1675.52 688.382C1670.23 691.076 1665.79 695.185 1662.69 700.251C1655.93 711.805 1657.21 726.124 1658.69 739.406C1673.01 729.037 1688.22 719.063 1702.54 708.694Z" fill="white"/>
<path opacity="0.2" d="M1682.24 633.544C1683.15 647.412 1681.1 661.315 1676.22 674.329C1672.76 683.315 1661.41 688.154 1649.8 690.178C1649.45 683.573 1648.09 677.062 1645.75 670.872L1682.24 633.544Z" fill="black"/>
<path d="M1629.41 550.987C1633.25 578.332 1632.28 606.138 1626.55 633.149L1612.92 629.792C1614.2 607.326 1617.46 583.823 1618.75 561.356C1614.65 577.453 1610.15 595.475 1606.06 611.572C1602.75 610.535 1599.74 609.054 1596.18 608.066C1599.39 595.031 1604.38 581.65 1607.54 568.565C1608.46 563.244 1610.53 558.188 1613.61 553.753C1615.63 551.7 1618.23 550.329 1621.07 549.833C1623.9 549.337 1626.82 549.741 1629.41 550.987Z" fill="#B72727"/>
<path d="M1584.97 575.478C1587.53 577.767 1590.55 579.482 1593.83 580.51C1597.1 581.537 1600.56 581.852 1603.97 581.435C1607.37 581.017 1610.65 579.876 1613.58 578.088C1616.52 576.3 1619.03 573.906 1620.96 571.067C1622.89 568.228 1624.19 565.01 1624.78 561.627C1625.36 558.244 1625.22 554.775 1624.36 551.452C1623.49 548.129 1621.93 545.03 1619.77 542.361C1617.61 539.692 1614.9 537.515 1611.83 535.977C1608.47 534.548 1604.81 533.989 1601.17 534.351C1597.54 534.714 1594.06 535.986 1591.05 538.051C1588.25 540.149 1585.96 542.841 1584.34 545.932C1582.72 549.023 1581.8 552.437 1581.66 555.925C1581.47 562.936 1580.03 570.738 1584.97 575.478Z" fill="#263238"/>
<path d="M1721.1 596.463C1713.2 634.779 1710.98 651.122 1688.51 668.256C1655.04 693.981 1609.51 676.107 1605.81 636.26C1602.35 600.413 1615.68 543.779 1655.58 533.706C1662.35 531.936 1669.4 531.516 1676.32 532.472C1683.25 533.427 1689.92 535.739 1695.96 539.274C1701.99 542.81 1707.27 547.5 1711.49 553.076C1715.72 558.653 1718.8 565.007 1720.56 571.775C1722.7 579.845 1722.88 588.307 1721.1 596.463Z" fill="#EBB376"/>
<path d="M1626.7 634.433C1626.7 634.433 1638.05 630.285 1670.84 626.335C1668.27 636.803 1662.1 645.74 1645.31 647.764C1641.31 648.63 1637.13 647.874 1633.69 645.662C1630.24 643.45 1627.82 639.962 1626.94 635.963C1626.83 635.458 1626.75 634.947 1626.7 634.433Z" fill="#263238"/>
<path d="M1652.03 638.827C1645.54 639.239 1639.35 641.693 1634.35 645.839C1637.73 647.512 1641.53 648.115 1645.26 647.567C1651.75 647.151 1657.93 644.658 1662.89 640.457C1659.53 638.77 1655.73 638.199 1652.03 638.827Z" fill="#9D2724"/>
<path d="M1628.13 633.988C1628.61 635.166 1629.4 636.191 1630.42 636.956C1631.43 637.721 1632.64 638.197 1633.9 638.333C1643.62 637.102 1653.21 635.071 1662.59 632.26C1664.11 631.919 1665.52 631.209 1666.7 630.193C1667.88 629.177 1668.79 627.886 1669.36 626.434C1655.44 627.862 1641.65 630.388 1628.13 633.988Z" fill="white"/>
<path d="M1651.04 527.583C1640.25 530.568 1630.58 536.682 1623.26 545.153C1615.94 553.624 1611.3 564.073 1609.91 575.182C1616.08 575.182 1622.84 572.318 1629.07 572.12C1629.92 566.693 1631.89 561.5 1634.83 556.863C1637.78 552.226 1641.65 548.243 1646.2 545.161C1643.06 548.599 1640.66 552.641 1639.14 557.039C1637.62 561.436 1637.02 566.098 1637.36 570.738C1643.78 571.627 1649.85 572.96 1656.27 573.799C1658.99 564.485 1663.49 555.784 1669.5 548.173C1669.21 558.048 1669.8 567.676 1669.5 577.799C1676.56 582.193 1684.07 587.081 1691.18 591.525C1696.01 576.969 1695.28 561.144 1689.16 547.087C1682.49 533.113 1665.7 523.831 1651.04 527.583Z" fill="#263238"/>
<path d="M1679.08 533.656C1682.39 560.27 1694.19 594.784 1708.71 615.571C1721.15 617.003 1733 602.783 1734.68 588.069C1735.37 580.938 1734.3 573.746 1731.56 567.125C1728.83 560.505 1724.51 554.658 1718.98 550.099C1708.41 541.803 1691.43 531.681 1679.08 533.656Z" fill="#263238"/>
<path d="M1719.03 566.491C1714.92 593.807 1715.63 621.629 1721.1 648.703C1725.4 647.715 1730.39 646.431 1734.73 645.444C1733.69 622.978 1730.68 599.425 1729.79 576.959C1733.74 593.105 1738.09 611.177 1741.99 627.273C1745.35 626.286 1748.31 624.854 1751.62 623.867C1748.56 610.831 1743.77 597.401 1740.71 584.366C1739.8 579.055 1737.77 574.002 1734.73 569.553C1732.76 567.472 1730.18 566.058 1727.37 565.509C1724.55 564.961 1721.64 565.304 1719.03 566.491Z" fill="#B72727"/>
<path d="M1762.73 591.525C1760.18 593.93 1757.14 595.75 1753.81 596.859C1750.49 597.968 1746.97 598.339 1743.48 597.946C1740 597.553 1736.65 596.406 1733.66 594.584C1730.66 592.762 1728.11 590.309 1726.16 587.397C1724.21 584.485 1722.92 581.183 1722.38 577.722C1721.84 574.26 1722.06 570.722 1723.03 567.355C1723.99 563.988 1725.68 560.871 1727.98 558.224C1730.27 555.576 1733.11 553.46 1736.31 552.024C1739.68 550.628 1743.35 550.104 1746.97 550.501C1750.6 550.898 1754.06 552.203 1757.05 554.296C1759.82 556.434 1762.08 559.159 1763.66 562.275C1765.25 565.392 1766.13 568.822 1766.23 572.318C1766.63 578.934 1767.96 586.587 1762.73 591.525Z" fill="#263238"/>
<path d="M1731.57 616.708C1730.83 620.403 1729.37 623.913 1727.26 627.033C1725.14 630.153 1722.43 632.821 1719.28 634.878C1710.83 640.26 1703.72 633.496 1703.57 624.015C1703.57 615.473 1707.77 602.389 1717.4 600.759C1720.77 600.309 1724.18 601.208 1726.89 603.261C1729.6 605.314 1731.39 608.355 1731.87 611.721C1732.07 613.387 1731.96 615.076 1731.57 616.708Z" fill="#EBB376"/>
<path d="M1663.04 599.87C1662.59 602.98 1660.57 605.35 1658.49 605.054C1656.42 604.758 1655.14 601.943 1655.58 598.833C1656.02 595.722 1658.05 593.352 1660.12 593.895C1662.2 594.438 1663.48 596.71 1663.04 599.87Z" fill="#263238"/>
<path d="M1627.48 594.883C1627.04 598.093 1625.02 600.364 1622.94 599.821C1620.87 599.278 1619.58 596.809 1620.03 593.6C1620.47 590.39 1622.5 588.168 1624.52 588.415C1626.55 588.662 1627.93 591.773 1627.48 594.883Z" fill="#263238"/>
<path d="M1625.41 589.007L1618.15 585.748C1618.15 585.748 1621.21 592.216 1625.41 589.007Z" fill="#263238"/>
<path d="M1635.98 601.4C1632.19 608.195 1627.49 614.441 1622 619.966C1623.45 621.331 1625.17 622.365 1627.06 622.996C1628.94 623.627 1630.94 623.84 1632.92 623.62L1635.98 601.4Z" fill="#ED893E"/>
<path d="M1672.66 588.908C1672.39 588.729 1672.15 588.494 1671.97 588.217C1670.89 586.144 1669.33 584.356 1667.43 583C1665.52 581.644 1663.32 580.758 1661.01 580.415C1660.53 580.366 1660.08 580.134 1659.76 579.768C1659.44 579.401 1659.27 578.927 1659.28 578.44C1659.3 578.194 1659.36 577.952 1659.46 577.729C1659.57 577.507 1659.72 577.307 1659.9 577.142C1660.09 576.977 1660.3 576.849 1660.53 576.767C1660.77 576.685 1661.01 576.65 1661.26 576.663C1664.21 577.072 1667.03 578.182 1669.47 579.899C1671.91 581.617 1673.9 583.893 1675.28 586.538C1675.51 586.991 1675.54 587.513 1675.39 587.994C1675.23 588.474 1674.89 588.873 1674.44 589.106C1674.15 589.233 1673.84 589.281 1673.53 589.247C1673.21 589.212 1672.92 589.095 1672.66 588.908Z" fill="#263238"/>
<path d="M1616.13 580.81H1615.83C1615.45 580.5 1615.2 580.052 1615.15 579.562C1615.09 579.073 1615.23 578.581 1615.54 578.193C1617.44 575.971 1619.84 574.228 1622.54 573.105C1625.24 571.981 1628.17 571.508 1631.09 571.725C1631.57 571.798 1632 572.056 1632.3 572.443C1632.59 572.83 1632.73 573.316 1632.67 573.799C1632.6 574.289 1632.33 574.731 1631.93 575.027C1631.54 575.323 1631.04 575.449 1630.55 575.379C1628.21 575.211 1625.88 575.598 1623.72 576.508C1621.57 577.417 1619.66 578.824 1618.15 580.613C1617.88 580.855 1617.54 581.005 1617.17 581.041C1616.81 581.076 1616.44 580.996 1616.13 580.81Z" fill="#263238"/>
<path d="M1661.01 593.944L1653.7 590.686C1653.7 590.686 1656.77 597.203 1661.01 593.944Z" fill="#263238"/>
<path d="M1658.35 740.443C1649.72 747.188 1641.86 754.854 1634.89 763.304C1633.61 764.835 1632.37 766.513 1631.09 768.242C1619.49 754.811 1617.26 734.765 1622 717.384C1627.18 716.644 1631.97 714.198 1635.6 710.433C1639.23 706.667 1641.5 701.798 1642.05 696.597C1645.11 695.362 1648.22 698.029 1650.4 700.498C1652.44 703.139 1653.82 706.241 1654.4 709.533C1656.94 719.642 1658.27 730.019 1658.35 740.443Z" fill="#B72727"/>
<path d="M1458.72 1680.86L1455.02 1704.51L1443.21 1705.25L1381.15 1709.35L1369.69 1710.04L1367.32 1685.45L1378.83 1684.86L1449.39 1681.35L1458.72 1680.86Z" fill="#7B61FF"/>
<path d="M1913.47 347.262C1913.47 347.262 1975.39 326.03 2009.61 343.065C2043.83 360.099 2089.35 335.56 2089.35 335.56C2089.35 335.56 2061.75 377.628 2067.77 420.141C2067.77 420.141 2025.7 448.976 1992.57 421.671C1959.44 394.367 1909.33 432.633 1909.33 432.633L1913.47 347.262Z" fill="#FCFDFF"/>
<path opacity="0.5" d="M1913.47 347.262C1913.47 347.262 1975.39 326.03 2009.61 343.065C2043.83 360.099 2089.35 335.56 2089.35 335.56C2089.35 335.56 2061.75 377.628 2067.77 420.141C2067.77 420.141 2025.7 448.976 1992.57 421.671C1959.44 394.367 1909.33 432.633 1909.33 432.633L1913.47 347.262Z" fill="white"/>
<path d="M1910.06 332.732L1899.59 549.784L1907.68 550.174L1918.15 333.122L1910.06 332.732Z" fill="#263238"/>
<path d="M1169.92 887.781L1203 926.048L1224.18 949.649C1225.53 951.119 1226.57 952.846 1227.24 954.728C1227.91 956.61 1228.19 958.607 1228.06 960.599C1227.94 962.591 1227.41 964.538 1226.52 966.322C1225.62 968.106 1224.37 969.69 1222.85 970.98L1217.22 975.918C1214.29 978.453 1210.57 979.885 1206.7 979.966H1200.78C1197.76 980.06 1194.78 979.315 1192.17 977.816C1189.55 976.316 1187.41 974.121 1185.96 971.474L1178.41 957.155C1177.6 955.614 1177.06 953.943 1176.83 952.217L1174.46 933.405L1147.5 908.124L1169.92 887.781Z" fill="#71403E"/>
<path d="M1200.14 913.803L1163.01 933.554C1163.01 933.554 1122.91 879.24 1080.74 815.051C1065.93 792.19 1035.86 750.072 1035.86 750.072C1016.11 710.077 989.152 616.164 994.386 616.164C1028.95 616.164 1050.38 633.1 1081.04 696.746C1098.22 732.889 1200.14 913.803 1200.14 913.803Z" fill="#EF515A"/>
<path d="M909.804 1648.57L929.455 1750.92L967.87 1747.57L959.13 1644.37L909.804 1648.57Z" fill="#71403E"/>
<path d="M971.623 1742.88C971.434 1742.86 971.257 1742.77 971.123 1742.64C970.988 1742.5 970.903 1742.33 970.882 1742.14C970.836 1741.96 970.85 1741.77 970.921 1741.6C970.993 1741.43 971.118 1741.29 971.277 1741.2C971.87 1740.85 985.053 1732.76 991.571 1734.34C992.759 1734.63 993.797 1735.35 994.484 1736.36C994.894 1736.94 995.115 1737.63 995.115 1738.33C995.115 1739.04 994.894 1739.73 994.484 1740.31C991.266 1742.76 987.258 1743.94 983.226 1743.62C979.344 1743.71 975.462 1743.46 971.623 1742.88ZM974.536 1741.54C981.745 1742.24 991.472 1741.89 993.151 1739.32C993.398 1738.98 993.645 1738.43 993.151 1737.3C992.957 1736.97 992.692 1736.7 992.375 1736.49C992.058 1736.29 991.699 1736.16 991.324 1736.11C990.75 1736.04 990.169 1736.04 989.596 1736.11C984.281 1736.97 979.174 1738.81 974.536 1741.54Z" fill="#EF515A"/>
<path d="M971.129 1742.83C970.991 1742.75 970.877 1742.63 970.799 1742.49C970.721 1742.35 970.681 1742.2 970.685 1742.04C970.685 1741.54 971.425 1731.12 976.215 1726.93C977.576 1725.74 979.345 1725.12 981.153 1725.2C983.671 1725.2 984.51 1726.63 984.658 1727.67C985.596 1732.01 976.61 1740.61 972.067 1742.83H971.672C971.495 1742.88 971.307 1742.88 971.129 1742.83ZM980.708 1726.98C979.553 1726.98 978.442 1727.42 977.597 1728.21C974.755 1731.59 973.03 1735.76 972.66 1740.16C977.301 1737.2 983.177 1730.29 982.881 1727.87C982.881 1727.87 982.881 1726.98 981.054 1726.88H980.511L980.708 1726.98Z" fill="#EF515A"/>
<path d="M967.771 1737.59L925.703 1738.88C924.931 1738.9 924.191 1739.19 923.607 1739.69C923.022 1740.19 922.629 1740.88 922.493 1741.64L915.926 1776.21C915.783 1776.93 915.784 1777.68 915.929 1778.41C916.075 1779.13 916.363 1779.82 916.775 1780.44C917.188 1781.05 917.718 1781.58 918.335 1781.99C918.952 1782.4 919.643 1782.68 920.37 1782.82H921.555C936.714 1782.08 950.144 1780.85 969.055 1780.3C991.323 1779.61 985.744 1782.48 1011.96 1782.03C1027.71 1781.74 1030.08 1763.71 1023.37 1763.02C992.607 1760.11 989.151 1750.98 977.004 1740.36C974.373 1738.33 971.084 1737.35 967.771 1737.59Z" fill="#263238"/>
<path opacity="0.2" d="M964.562 1708.41L959.13 1644.37L909.804 1648.57L922.098 1710.58L964.562 1708.41Z" fill="black"/>
<path d="M1139.01 1633.11L1155.89 1744.7L1120.19 1746.38L1091.46 1646.84L1139.01 1633.11Z" fill="#71403E"/>
<path opacity="0.2" d="M1141.82 1651.63L1148.49 1695.77L1107.41 1702.14L1094.42 1657.11L1141.82 1651.63Z" fill="black"/>
<path d="M1164.19 1741.25C1164.01 1741.21 1163.84 1741.13 1163.7 1741.01C1163.56 1740.89 1163.46 1740.73 1163.4 1740.56C1163.35 1740.37 1163.36 1740.18 1163.43 1740C1163.5 1739.82 1163.63 1739.67 1163.79 1739.57C1164.34 1739.17 1177.18 1730.48 1183.54 1731.77C1184.75 1732 1185.82 1732.67 1186.56 1733.64C1187.01 1734.19 1187.3 1734.85 1187.37 1735.56C1187.44 1736.26 1187.29 1736.97 1186.95 1737.59C1183.84 1740.19 1179.89 1741.54 1175.84 1741.4C1171.96 1741.68 1168.06 1741.63 1164.19 1741.25ZM1167.05 1739.82C1174.26 1740.11 1183.99 1739.32 1185.57 1736.66C1185.57 1736.36 1186.01 1735.77 1185.22 1734.68C1185.02 1734.36 1184.74 1734.09 1184.42 1733.9C1184.09 1733.7 1183.73 1733.58 1183.35 1733.55C1182.76 1733.47 1182.16 1733.47 1181.57 1733.55C1176.38 1734.71 1171.46 1736.84 1167.05 1739.82Z" fill="#EF515A"/>
<path d="M1163.7 1741.25C1163.57 1741.16 1163.46 1741.04 1163.39 1740.9C1163.31 1740.77 1163.26 1740.61 1163.25 1740.46C1163.25 1739.96 1163.25 1729.5 1168.19 1725.1C1168.84 1724.46 1169.61 1723.96 1170.46 1723.62C1171.31 1723.28 1172.21 1723.11 1173.13 1723.13C1175.64 1723.13 1176.53 1724.41 1176.68 1725.45C1177.87 1729.69 1169.27 1738.78 1164.83 1741.15C1164.7 1741.2 1164.56 1741.2 1164.44 1741.15C1164.33 1741.22 1164.2 1741.26 1164.08 1741.28C1163.95 1741.29 1163.82 1741.28 1163.7 1741.25ZM1172.53 1724.9C1171.38 1724.99 1170.3 1725.48 1169.47 1726.29C1166.87 1729.84 1165.41 1734.09 1165.28 1738.48C1169.82 1735.32 1175.4 1728.31 1175.15 1725.74C1175.15 1725.74 1174.9 1724.85 1173.27 1724.81H1172.73L1172.53 1724.9Z" fill="#EF515A"/>
<path d="M1159.84 1736.16L1117.87 1739.42C1117.11 1739.48 1116.39 1739.8 1115.83 1740.33C1115.27 1740.86 1114.91 1741.57 1114.81 1742.33L1109.88 1776.9C1109.76 1777.65 1109.79 1778.41 1109.98 1779.14C1110.17 1779.88 1110.5 1780.57 1110.96 1781.17C1111.43 1781.77 1112.01 1782.27 1112.67 1782.64C1113.33 1783.01 1114.06 1783.24 1114.81 1783.32C1115.21 1783.36 1115.6 1783.36 1116 1783.32C1131.11 1781.88 1144.49 1780.01 1163.35 1778.38C1185.57 1776.65 1180.14 1779.76 1206.31 1778.08C1222.06 1777.09 1223.54 1758.92 1216.82 1758.58C1185.96 1757.1 1182.26 1748.11 1169.42 1738.14C1166.59 1736.3 1163.17 1735.6 1159.84 1736.16Z" fill="#263238"/>
<path d="M1054.33 950.39C1054.33 950.39 1115.11 1320.71 1121.77 1382.68C1128.44 1444.64 1152.29 1671.03 1152.29 1671.03L1097.48 1680.91C1097.48 1680.91 1026.63 1512.49 1032.5 1400.85C1032.5 1400.85 970.881 1187.1 951.427 1140.29C951.427 1140.29 893.459 1062.62 915.975 945.896L1054.33 950.39Z" fill="#263238"/>
<path opacity="0.2" d="M1005.05 1295.53C993.842 1259.78 983.127 1227.19 976.363 1211C966.559 1206.01 957.488 1199.69 949.403 1192.23C946.293 1178.46 944.466 1169.62 944.466 1169.62L970.734 1058.03C970.734 1058.03 1006.58 1182.56 1005.05 1295.53Z" fill="black"/>
<path d="M1162.61 1654.59L1163.65 1678.39L1088.54 1687.62L1082.47 1663.13L1162.61 1654.59Z" fill="#263238"/>
<path opacity="0.5" d="M1162.61 1654.59L1163.65 1678.39L1088.54 1687.62L1082.47 1663.13L1162.61 1654.59Z" fill="white"/>
<path d="M975.029 959.723L977.103 1159.35L983.818 1255.63C989.951 1343.96 989.092 1432.64 981.251 1520.83L966.438 1689.06L907.187 1695.77C907.187 1695.77 872.179 1495.21 895.978 1394.92C895.978 1394.92 831.789 1118.42 839.936 959.723H975.029Z" fill="#263238"/>
<path d="M904.322 1673.5L908.519 1696.96L980.46 1689.55V1666.1L904.322 1673.5Z" fill="#263238"/>
<path opacity="0.5" d="M904.322 1673.5L908.519 1696.96L980.46 1689.55V1666.1L904.322 1673.5Z" fill="white"/>
<path d="M846.01 995.372L820.236 671.909C811.941 611.967 822.606 590.686 845.27 595.722L994.386 616.608C1031.47 626.483 1037.19 645.641 1038.53 661.047C1036.18 757.766 1040.59 854.531 1051.71 950.637L1055.41 983.078L846.01 995.372Z" fill="#EF515A"/>
<path d="M912.618 524.176C912.915 547.234 910.199 586.587 895.386 604.906C893.68 607.054 892.751 609.717 892.751 612.46C892.751 615.204 893.68 617.866 895.386 620.015C907.265 636.602 924.846 648.224 944.762 652.652C970.339 658.331 974.684 644.802 971.623 632.902C971.202 631.351 970.473 629.901 969.481 628.637C968.488 627.373 967.252 626.322 965.846 625.545C942.935 613.25 945.157 591.624 953.206 573.848L912.618 524.176Z" fill="#71403E"/>
<path opacity="0.2" d="M929.11 544.617L953.255 573.996C951.328 578.361 949.791 582.889 948.663 587.525C942.6 585.287 937.178 581.596 932.874 576.775C928.569 571.955 925.514 566.151 923.975 559.874C922.592 552.024 926.197 544.963 929.11 544.617Z" fill="black"/>
<path d="M909.804 486.057C908.026 520.621 905.261 541.062 920.716 560.665C943.874 590.29 988.312 579.181 1000.36 545.852C1011.27 515.535 1012.26 463.937 980.066 446.408C972.998 442.507 965.05 440.476 956.976 440.508C948.903 440.54 940.971 442.633 933.934 446.59C926.896 450.546 920.986 456.235 916.763 463.116C912.54 469.997 910.145 477.843 909.804 485.909V486.057Z" fill="#71403E"/>
<path d="M973.152 561.9L960.907 560.122C962.438 564.368 963.771 568.763 965.302 573.009C968.264 569.158 970.19 565.603 973.152 561.9Z" fill="#263238"/>
<path d="M962.834 502.104C962.538 504.919 963.723 507.388 965.599 507.585C967.476 507.783 969.154 505.659 969.451 502.647C969.747 499.636 968.562 497.414 966.686 497.216C964.809 497.019 962.834 499.29 962.834 502.104Z" fill="#263238"/>
<path d="M994.435 505.66C994.089 508.475 995.324 510.894 997.2 511.092C999.076 511.289 1000.76 509.215 1001.05 506.154C1001.35 503.093 1000.16 500.92 998.286 500.723C996.41 500.525 994.731 502.648 994.435 505.66Z" fill="#263238"/>
<path d="M983.225 506.153C986.411 514.858 990.781 523.082 996.211 530.594C994.245 531.929 992.014 532.823 989.67 533.215C987.327 533.607 984.926 533.488 982.633 532.866L983.225 506.153Z" fill="#561616"/>
<path d="M953.254 487.835C952.973 487.829 952.699 487.744 952.464 487.588C952.162 487.267 951.994 486.843 951.994 486.403C951.994 485.962 952.162 485.538 952.464 485.218C954.249 483.276 956.468 481.785 958.94 480.867C961.411 479.949 964.066 479.629 966.685 479.935C967.114 480.019 967.494 480.267 967.743 480.627C967.992 480.986 968.09 481.429 968.018 481.86C967.982 482.076 967.904 482.282 967.787 482.467C967.67 482.651 967.517 482.811 967.338 482.935C967.158 483.059 966.955 483.146 966.741 483.191C966.527 483.235 966.307 483.236 966.092 483.193C964.013 482.977 961.913 483.259 959.964 484.014C958.015 484.77 956.274 485.978 954.884 487.539C954.669 487.739 954.402 487.873 954.113 487.926C953.824 487.979 953.526 487.947 953.254 487.835Z" fill="#263238"/>
<path d="M1008.21 494.255C1007.94 494.183 1007.69 494.047 1007.48 493.858C1007.28 493.669 1007.12 493.432 1007.02 493.169C1006.39 491.207 1005.31 489.421 1003.86 487.955C1002.41 486.488 1000.63 485.382 998.68 484.725C998.285 484.622 997.939 484.381 997.704 484.047C997.469 483.713 997.36 483.306 997.397 482.898C997.502 482.467 997.774 482.094 998.154 481.863C998.533 481.631 998.989 481.56 999.421 481.664C1001.94 482.463 1004.23 483.846 1006.11 485.699C1007.99 487.553 1009.4 489.825 1010.23 492.329C1010.38 492.735 1010.35 493.181 1010.17 493.57C1009.98 493.958 1009.65 494.258 1009.25 494.403C1008.89 494.469 1008.53 494.417 1008.21 494.255Z" fill="#263238"/>
<path d="M904.273 521.213C890.756 492.906 886.688 461.006 892.67 430.213C912.301 418.283 935.288 413.083 958.142 415.4C980.46 418.511 994.483 415.4 1010.18 431.694C1010.18 431.694 1005.84 460.036 1001.2 468.924C993.385 466.449 985.396 464.567 977.3 463.295C960.985 461.571 944.496 462.589 928.517 466.307C929.702 475.194 932.072 485.168 933.207 494.056C930.903 493.89 928.591 494.249 926.444 495.104C924.298 495.959 922.373 497.289 920.814 498.994C922.048 510.005 918.74 521.114 919.975 532.174C915.827 528.718 906.643 526.052 904.273 521.213Z" fill="#263238"/>
<path d="M889.313 516.325C893.144 524.197 899.92 530.245 908.174 533.162C919.185 536.816 925.308 527.187 922.987 516.522C920.716 506.894 912.273 493.365 901.015 494.254C889.757 495.142 884.77 506.598 889.313 516.325Z" fill="#71403E"/>
<path d="M988.855 544.469C975.27 541.47 961.466 539.571 947.576 538.791C950.094 546.79 956.069 553.604 971.622 554.937C987.176 556.27 988.855 544.469 988.855 544.469Z" fill="#263238"/>
<path d="M987.522 544.124C986.436 545.704 984.856 550.345 981.498 550.641C972.476 549.804 963.519 548.369 954.687 546.345C951.922 545.704 950.243 541.655 948.91 538.89C961.879 539.816 974.775 541.564 987.522 544.124Z" fill="white"/>
<path d="M1083.46 871.142L1120 900.273L1143.25 918.148C1146.19 920.428 1148.14 923.748 1148.7 927.422C1149.26 931.097 1148.39 934.846 1146.27 937.898L1142.32 943.478C1140.27 946.326 1137.28 948.356 1133.87 949.205L1128.94 950.44C1126.25 951.113 1123.43 951.007 1120.81 950.132C1118.18 949.257 1115.86 947.651 1114.12 945.502L1104.69 933.701C1103.66 932.377 1102.86 930.892 1102.32 929.307L1096.4 912.469L1067.71 894.2L1083.46 871.142Z" fill="#EEC1BB"/>
<path d="M538.051 1650.4L495.291 1745.84L460.975 1735.52L490.65 1636.22L538.051 1650.4Z" fill="#EEC1BB"/>
<path opacity="0.2" d="M530.397 1667.53L513.955 1704.22L473.467 1693.6L487.588 1646.45L530.397 1667.53Z" fill="black"/>
<path d="M878.401 1642.89L894.053 1746.28L859.588 1756.16L830.852 1656.62L878.401 1642.89Z" fill="#EEC1BB"/>
<path opacity="0.2" d="M881.215 1661.41L887.238 1701.2L847.441 1714.14L833.813 1666.89L881.215 1661.41Z" fill="black"/>
<path d="M504.771 1739.47C504.604 1739.39 504.459 1739.28 504.347 1739.13C504.235 1738.98 504.16 1738.81 504.129 1738.63C504.118 1738.44 504.17 1738.25 504.277 1738.09C504.384 1737.93 504.54 1737.81 504.722 1737.74C505.314 1737.49 519.535 1731.57 525.805 1734.19C526.957 1734.65 527.892 1735.53 528.422 1736.66C528.757 1737.28 528.894 1737.99 528.814 1738.7C528.735 1739.4 528.443 1740.07 527.978 1740.61C524.407 1742.51 520.26 1743.04 516.325 1742.09C512.408 1741.54 508.543 1740.66 504.771 1739.47ZM507.882 1738.63C514.893 1740.46 524.522 1741.64 526.645 1739.37C526.941 1739.12 527.237 1738.58 526.645 1737.4C526.503 1737.04 526.284 1736.71 526.002 1736.45C525.72 1736.18 525.383 1735.98 525.015 1735.87C524.487 1735.62 523.918 1735.47 523.337 1735.42C518.03 1735.52 512.789 1736.61 507.882 1738.63Z" fill="#3362CC"/>
<path d="M504.277 1739.32C504.158 1739.22 504.069 1739.09 504.017 1738.94C503.964 1738.79 503.952 1738.64 503.981 1738.48C503.981 1737.99 506.499 1727.82 511.881 1724.46C512.647 1723.96 513.507 1723.63 514.407 1723.48C515.306 1723.32 516.228 1723.36 517.115 1723.57C519.584 1724.11 520.176 1725.5 520.176 1726.53C520.423 1730.98 510.301 1738.04 505.364 1739.47H504.969C504.85 1739.5 504.725 1739.5 504.605 1739.48C504.485 1739.45 504.373 1739.4 504.277 1739.32ZM516.276 1725.2C515.136 1725.06 513.984 1725.32 513.017 1725.94C509.724 1728.86 507.413 1732.72 506.4 1737C511.338 1734.83 518.399 1729.1 518.498 1726.48C518.498 1726.24 518.498 1725.55 516.819 1725.2H516.276Z" fill="#3362CC"/>
<path d="M501.562 1733.59L459.84 1728.16C459.073 1728.05 458.291 1728.2 457.625 1728.6C456.959 1728.99 456.451 1729.61 456.186 1730.33L444.385 1763.32C444.124 1764.01 444.003 1764.75 444.028 1765.49C444.053 1766.23 444.224 1766.96 444.531 1767.63C444.839 1768.31 445.276 1768.92 445.819 1769.42C446.361 1769.93 446.998 1770.32 447.693 1770.58L448.829 1770.87C463.938 1772.55 477.417 1773.49 496.131 1775.81C518.251 1778.72 512.277 1780.75 538.249 1784.4C553.901 1786.62 559.086 1769.19 552.568 1767.47C522.646 1759.66 520.671 1750.09 510.401 1737.84C508.086 1735.37 504.935 1733.86 501.562 1733.59Z" fill="#263238"/>
<path d="M899.039 1728.31C898.854 1728.35 898.66 1728.34 898.484 1728.27C898.307 1728.2 898.157 1728.07 898.051 1727.92C897.955 1727.76 897.904 1727.58 897.904 1727.4C897.904 1727.21 897.955 1727.03 898.051 1726.88C898.446 1726.34 907.285 1713.6 913.852 1712.41C915.066 1712.2 916.316 1712.44 917.357 1713.1C917.994 1713.43 918.509 1713.95 918.829 1714.59C919.148 1715.23 919.256 1715.95 919.135 1716.66C918.592 1719.23 914.494 1722.14 910.198 1724.21C906.604 1725.9 902.87 1727.27 899.039 1728.31ZM901.211 1725.94C908.075 1723.62 916.814 1719.37 917.357 1716.36C917.357 1715.97 917.357 1715.37 916.321 1714.63C916.009 1714.41 915.653 1714.26 915.278 1714.2C914.903 1714.13 914.517 1714.14 914.148 1714.24C913.569 1714.35 913.005 1714.53 912.469 1714.78C908.049 1717.76 904.23 1721.55 901.211 1725.94Z" fill="#3362CC"/>
<path d="M898.644 1728.46C898.481 1728.43 898.328 1728.36 898.198 1728.26C898.069 1728.15 897.967 1728.02 897.904 1727.87C897.904 1727.42 894.2 1717.6 896.916 1711.82C897.288 1710.99 897.826 1710.25 898.497 1709.64C899.168 1709.02 899.957 1708.56 900.817 1708.26C903.187 1707.38 904.471 1708.26 905.014 1709.1C907.631 1712.66 902.841 1724.21 899.582 1728.01C899.471 1728.06 899.348 1728.06 899.237 1728.01C899.179 1728.13 899.095 1728.23 898.992 1728.31C898.889 1728.38 898.77 1728.43 898.644 1728.46ZM901.014 1710.04C899.982 1710.55 899.161 1711.41 898.694 1712.46C897.505 1716.7 897.661 1721.2 899.138 1725.35C902.249 1720.71 904.915 1712.21 903.582 1709.94C903.582 1709.94 903.039 1709.2 901.459 1709.94H901.014V1710.04Z" fill="#3362CC"/>
<path d="M893.164 1725.1L855.194 1743.22C854.494 1743.56 853.928 1744.12 853.587 1744.82C853.247 1745.52 853.152 1746.31 853.318 1747.07L861.218 1781.24C861.376 1781.97 861.675 1782.65 862.098 1783.26C862.521 1783.87 863.06 1784.38 863.684 1784.78C864.308 1785.18 865.004 1785.45 865.734 1785.58C866.463 1785.71 867.21 1785.7 867.933 1785.54L869.069 1785.14C882.647 1778.38 894.498 1771.81 911.532 1763.71C931.678 1754.09 927.728 1758.78 951.527 1748.01C965.895 1741.4 960.76 1723.97 954.341 1726.04C925.012 1735.91 918.149 1728.76 902.743 1723.97C899.52 1723.15 896.108 1723.55 893.164 1725.1Z" fill="#263238"/>
<path d="M797.127 992.065C797.127 992.065 840.233 1295.23 846.898 1357.1C853.564 1418.97 886.992 1675.38 886.992 1675.38L836.875 1685.26C836.875 1685.26 774.908 1498.76 763.305 1375.22C763.305 1375.22 710.275 1191.4 690.821 1144.64C690.821 1144.64 632.853 1077.34 655.368 960.612L797.127 992.065Z" fill="#263238"/>
<path opacity="0.2" d="M719.508 1229.27C708.349 1193.57 697.585 1160.93 690.821 1144.73C681.017 1139.74 671.946 1133.43 663.861 1125.97C660.751 1112.2 658.924 1103.41 658.924 1103.41L698.77 1047.22C698.77 1047.22 707.066 1164.29 719.508 1229.27Z" fill="black"/>
<path d="M702.425 971.128C702.425 971.128 688.155 1328.66 658.875 1405.64C629.595 1482.62 529.411 1680.61 529.411 1680.61L482.454 1658.79C482.454 1658.79 535.978 1427.36 579.429 1373.84L570.393 1123.26C570.393 1123.26 534.546 1005.15 568.319 941.552L702.425 971.128Z" fill="#263238"/>
<path d="M544.273 1678.93L532.521 1701.25L463.74 1675.03L471.048 1649.46L544.273 1678.93Z" fill="#3362CC"/>
<path d="M894.942 1657.46L898.349 1681.01L824.532 1697.7L816.039 1673.95L894.942 1657.46Z" fill="#3362CC"/>
<path d="M1102.91 881.708L1079.95 910.247L869.957 761.576L842.406 743.455L835.69 739.061C829.337 734.205 824.449 727.688 821.565 720.23C818.681 712.772 817.913 704.661 819.347 696.795C821.816 681.29 831.938 674.674 840.529 663.416C841.97 661.631 843.806 660.204 845.893 659.249C847.979 658.294 850.259 657.837 852.552 657.914C854.845 657.99 857.089 658.598 859.107 659.69C861.125 660.783 862.862 662.328 864.18 664.206L1102.91 881.708Z" fill="#294D9E"/>
<g opacity="0.2">
<path d="M1102.91 881.709L1079.95 910.248L869.957 761.577L842.406 743.456L835.69 739.061C829.337 734.206 824.449 727.689 821.565 720.231C818.681 712.772 817.913 704.662 819.347 696.796C821.816 681.291 831.938 674.675 840.529 663.417C841.97 661.632 843.806 660.205 845.893 659.25C847.979 658.295 850.259 657.838 852.552 657.915C854.845 657.991 857.089 658.599 859.107 659.691C861.125 660.783 862.862 662.329 864.18 664.207L1102.91 881.709Z" fill="#706C6C"/>
</g>
<path d="M672.453 612.066L842.849 651.271C847.554 652.35 851.997 654.353 855.921 657.164C859.844 659.974 863.171 663.536 865.707 667.643C868.242 671.75 869.937 676.319 870.692 681.087C871.447 685.854 871.248 690.723 870.105 695.413L852.33 750.171C829.234 821.051 812.025 893.716 800.88 967.426L797.127 992.114L568.318 941.503L628.508 640.309C629.49 635.543 631.414 631.022 634.167 627.009C636.92 622.997 640.446 619.575 644.54 616.944C648.633 614.314 653.211 612.527 658.004 611.689C662.797 610.851 667.71 610.98 672.453 612.066Z" fill="#407BFF"/>
<path opacity="0.2" d="M672.453 612.066L842.849 651.271C847.554 652.35 851.997 654.353 855.921 657.164C859.844 659.974 863.171 663.536 865.707 667.643C868.242 671.75 869.937 676.319 870.692 681.087C871.447 685.854 871.248 690.723 870.105 695.413L852.33 750.171C829.234 821.051 812.025 893.716 800.88 967.426L797.127 992.114L568.318 941.503L628.508 640.309C629.49 635.543 631.414 631.022 634.167 627.009C636.92 622.997 640.446 619.575 644.54 616.944C648.633 614.314 653.211 612.527 658.004 611.689C662.797 610.851 667.71 610.98 672.453 612.066Z" fill="black"/>
<path opacity="0.5" d="M822.309 803.842C821.722 806.414 820.211 808.68 818.063 810.212C814.652 812.645 810.736 814.277 806.607 814.986C802.478 815.696 798.242 815.465 794.214 814.31C789.535 812.452 785.281 809.665 781.709 806.118C778.136 802.57 775.319 798.336 773.427 793.671C772.345 791.191 772.187 788.406 772.983 785.82L786.314 741.381C787.174 738.536 789.111 736.139 791.711 734.701C794.312 733.262 797.371 732.895 800.238 733.679C809.077 736.049 819.594 738.962 827.296 741.184C830.16 742.023 832.58 743.951 834.038 746.554C835.497 749.157 835.877 752.228 835.098 755.108C830.407 772.143 824.581 795.103 822.309 803.842Z" fill="white"/>
<path d="M840.826 939.676L1053.34 945.008L1066.08 1020.41L985.448 1062.03L839.888 1022.18L840.826 939.676Z" fill="#263238"/>
<path opacity="0.2" d="M611.325 735.011C625.249 726.618 670.083 620.113 670.083 620.113C657.151 630.417 643.469 639.742 629.15 648.011C624.953 670.971 615.572 712.002 611.325 735.011Z" fill="black"/>
<path d="M483.886 414.857L470.06 366.419L460.876 336.25C459.696 332.373 460.066 328.19 461.908 324.58C463.75 320.97 466.92 318.215 470.752 316.895L477.664 314.475C481.218 313.168 485.121 313.168 488.675 314.475L493.958 316.648C496.728 317.748 499.127 319.614 500.876 322.027C502.625 324.44 503.65 327.301 503.834 330.276L504.673 346.521C504.775 348.319 504.575 350.121 504.08 351.853L498.698 370.567L512.425 404.538L483.886 414.857Z" fill="#EEC1BB"/>
<path d="M675.81 612.756C675.558 610.151 674.743 607.632 673.422 605.373C672.1 603.114 670.304 601.168 668.157 599.672C650.826 587.772 603.968 553.456 575.626 514.251C540.668 465.616 507.043 377.677 507.043 377.677L471.689 390.317C471.689 390.317 493.464 522.546 526.003 567.676C552.567 604.708 605.005 650.628 626.089 668.255C631.197 672.536 637.685 674.821 644.348 674.684C651.012 674.548 657.401 672.001 662.331 667.514C669.984 660.059 678.625 644.555 675.81 612.756Z" fill="#407BFF"/>
<path opacity="0.2" d="M675.81 612.756C675.558 610.151 674.743 607.632 673.422 605.373C672.1 603.114 670.304 601.168 668.157 599.672C650.826 587.772 603.968 553.456 575.626 514.251C540.668 465.616 507.043 377.677 507.043 377.677L471.689 390.317C471.689 390.317 493.464 522.546 526.003 567.676C552.567 604.708 605.005 650.628 626.089 668.255C631.197 672.536 637.685 674.821 644.348 674.684C651.012 674.548 657.401 672.001 662.331 667.514C669.984 660.059 678.625 644.555 675.81 612.756Z" fill="black"/>
<g opacity="0.5">
<path d="M788.487 638.728C788.487 638.728 786.956 655.318 767.946 652.948C748.936 650.578 725.73 622.187 725.73 622.187L708.201 620.113L742.221 672.205L767.502 663.861L788.339 679.216L800.781 642.431L788.487 638.728Z" fill="white"/>
</g>
<path d="M663.418 661.54L643.667 705.287L630.731 732.395C629.008 735.889 628.732 739.921 629.961 743.618C631.19 747.314 633.826 750.378 637.298 752.145L643.47 755.404C646.669 757.089 650.375 757.546 653.888 756.688L659.171 755.453C661.914 754.767 664.409 753.325 666.373 751.292C668.337 749.258 669.691 746.714 670.281 743.949L673.392 728.741C673.668 727.107 673.668 725.438 673.392 723.803L670.775 705.633L688.402 675.563L663.418 661.54Z" fill="#71403E"/>
<path d="M826.16 648.456C826.16 648.456 755.009 631.075 728.247 620.262C723.31 618.336 684.401 699.264 684.401 699.264L646.826 685.34C646.826 685.34 674.23 581.65 710.472 575.675C752.935 568.664 845.269 595.821 845.269 595.821C867.685 599.721 866.747 657.738 826.16 648.456Z" fill="#EF515A"/>
<path d="M793.721 642.778L792.684 644.802C790.697 648.633 787.702 651.849 784.021 654.103C780.34 656.357 776.114 657.562 771.798 657.59C767.897 657.59 758.812 657.59 739.062 643.913C733.129 639.209 728.036 633.533 724.002 627.125C724.455 625.852 725.123 624.666 725.977 623.62C740.79 605.301 743.555 565.948 743.308 542.89L783.846 592.809C776.094 609.696 773.773 630.285 793.721 642.778Z" fill="#EEC1BB"/>
<path opacity="0.2" d="M752.936 568.564L782.858 594.635C781.071 599.248 779.684 604.005 778.711 608.855C772.28 607.36 766.305 604.334 761.294 600.036C756.283 595.738 752.382 590.295 749.924 584.167C747.505 576.958 750.072 569.256 752.936 568.564Z" fill="black"/>
<path d="M821.074 459.789C821.074 459.789 856.032 496.08 828.036 508.77C800.04 521.46 821.074 459.789 821.074 459.789Z" fill="#263238"/>
<path d="M740.641 504.623C738.814 539.186 736.049 559.628 751.454 579.28C774.611 608.905 819.05 597.845 831.147 564.467C842.059 534.15 843.145 482.552 810.903 465.024C803.832 461.137 795.887 459.117 787.819 459.156C779.751 459.194 771.825 461.29 764.792 465.244C757.759 469.198 751.85 474.88 747.624 481.753C743.398 488.626 740.995 496.464 740.641 504.524V504.623Z" fill="#EEC1BB"/>
<path d="M793.325 520.719C793.029 523.534 794.263 526.003 796.09 526.2C797.917 526.398 799.645 524.274 799.991 521.262C800.337 518.251 799.053 516.029 797.226 515.831C795.399 515.634 793.671 517.954 793.325 520.719Z" fill="#263238"/>
<path d="M825.075 524.324C824.778 527.138 825.963 529.558 827.84 529.755C829.716 529.953 831.395 527.879 831.691 524.817C831.987 521.756 830.802 519.534 828.975 519.337C827.148 519.139 825.371 521.509 825.075 524.324Z" fill="#263238"/>
<path d="M813.175 524.077C815.567 533.019 819.172 541.591 823.89 549.555C821.811 550.707 819.509 551.395 817.14 551.574C814.771 551.753 812.391 551.418 810.163 550.592L813.175 524.077Z" fill="#D4827D"/>
<path d="M789.079 506.203C788.798 506.19 788.526 506.105 788.289 505.956C787.987 505.636 787.818 505.212 787.818 504.771C787.818 504.331 787.987 503.907 788.289 503.586C790.065 501.649 792.276 500.16 794.739 499.242C797.202 498.323 799.848 498.002 802.46 498.303C802.898 498.376 803.29 498.619 803.549 498.98C803.808 499.341 803.913 499.79 803.842 500.229C803.758 500.671 803.504 501.063 803.136 501.321C802.767 501.579 802.312 501.684 801.867 501.611C799.8 501.389 797.709 501.663 795.768 502.41C793.828 503.157 792.093 504.356 790.708 505.907C790.485 506.093 790.218 506.218 789.932 506.27C789.647 506.322 789.353 506.299 789.079 506.203Z" fill="#263238"/>
<path d="M836.086 513.115C835.812 513.052 835.558 512.919 835.35 512.729C835.143 512.538 834.988 512.297 834.901 512.029C834.27 510.06 833.187 508.266 831.738 506.791C830.289 505.316 828.514 504.202 826.557 503.536C826.345 503.49 826.144 503.402 825.967 503.277C825.79 503.152 825.639 502.992 825.524 502.808C825.409 502.625 825.332 502.42 825.297 502.205C825.263 501.991 825.271 501.772 825.322 501.561C825.427 501.13 825.7 500.757 826.079 500.526C826.459 500.294 826.914 500.223 827.347 500.327C829.866 501.119 832.161 502.499 834.041 504.354C835.921 506.209 837.333 508.484 838.16 510.992C838.303 511.398 838.279 511.844 838.094 512.233C837.909 512.621 837.578 512.921 837.172 513.066C836.83 513.22 836.441 513.237 836.086 513.115Z" fill="#263238"/>
<path d="M795.202 560.221C793.933 559.502 792.727 558.676 791.598 557.753C791.514 557.678 791.446 557.587 791.4 557.485C791.354 557.383 791.33 557.272 791.33 557.16C791.33 557.048 791.354 556.937 791.4 556.835C791.446 556.733 791.514 556.642 791.598 556.568C791.769 556.418 791.988 556.336 792.215 556.336C792.442 556.336 792.661 556.418 792.832 556.568C795.702 558.912 799.084 560.549 802.703 561.347C806.322 562.144 810.079 562.08 813.669 561.16C813.885 561.095 814.117 561.116 814.319 561.217C814.521 561.317 814.677 561.491 814.755 561.703C814.794 561.813 814.811 561.93 814.805 562.046C814.799 562.163 814.77 562.278 814.719 562.383C814.669 562.489 814.598 562.583 814.511 562.661C814.424 562.739 814.322 562.8 814.212 562.838C811.029 563.693 807.707 563.902 804.442 563.452C801.177 563.003 798.036 561.904 795.202 560.221Z" fill="#263238"/>
<path d="M744.838 538.051C744.838 538.051 761.527 537.607 758.417 523.238C755.306 508.87 772.538 496.23 770.761 477.121C770.761 477.121 863.933 500.229 841.072 451.051C831.74 434.312 794.165 432.584 765.872 434.707C728.742 437.472 735.852 458.951 735.852 458.951C695.413 464.53 706.967 547.877 744.838 538.051Z" fill="#263238"/>
<path d="M720.002 534.891C723.814 542.76 730.573 548.809 738.815 551.728C749.776 555.431 753.628 543.729 753.628 535.088C751.356 525.51 742.962 511.931 731.705 512.82C720.447 513.709 715.41 525.164 720.002 534.891Z" fill="#EEC1BB"/>
<path d="M776.093 209.848C685.537 261.94 569.553 187.629 482.947 259.224C482.453 220.743 482.14 182.888 482.009 145.659C569.849 65.8178 711.163 163.484 797.769 91.7402C798.213 130.599 775.945 172.766 776.093 209.848Z" fill="#5EECB9"/>
<path opacity="0.5" d="M776.093 209.848C685.537 261.94 569.553 187.629 482.947 259.224C482.453 220.743 482.14 182.888 482.009 145.659C569.849 65.8178 711.163 163.484 797.769 91.7402C798.213 130.599 775.945 172.766 776.093 209.848Z" fill="white"/>
<path d="M482.829 130.415L474.732 130.534L477.918 347.815L486.015 347.696L482.829 130.415Z" fill="#263238"/>
</svg>
