<svg width="1320" height="943" viewBox="0 0 1320 943" fill="none" xmlns="http://www.w3.org/2000/svg">
<path d="M886.596 0.502266L1334.6 0.502167V318.958C1335.66 428.798 1334.6 586.016 1334.6 692.958C1420.82 829.45 1325.81 895.383 1157.69 929.444C996.109 962.182 852.325 932.134 746.42 876.627C712.116 858.647 683.829 839.497 656.443 820.956C599.283 782.257 546.049 746.216 450.216 729.017C308.469 703.579 79.8779 635.112 20.9129 483.26C-38.0519 331.408 34.4672 195.131 153.48 75.8135C204.44 42.1745 216.65 33.396 265.486 10.5437L293.089 0.502167H300.521C330.778 0.502167 344.58 0.502473 379.498 0.340083C380.47 0.39408 381.445 0.44817 382.423 0.502266H494.61C496.433 0.345076 498.268 0.177789 500.114 0C609.996 0.50217 757.568 0.502166 886.596 0.502266Z" fill="#FE6767"/>
</svg>
